M48
; DRILL file {KiCad 8.0.8} date 2025-01-22T12:02:47+0100
; FORMAT={-:-/ absolute / metric / decimal}
; #@! TF.CreationDate,2025-01-22T12:02:47+01:00
; #@! TF.GenerationSoftware,Kicad,Pcbnew,8.0.8
; #@! TF.FileFunction,Plated,1,2,PTH
FMAT,2
METRIC
; #@! TA.AperFunction,Plated,PTH,ViaDrill
T1C0.300
; #@! TA.AperFunction,Plated,PTH,ComponentDrill
T2C1.000
; #@! TA.AperFunction,Plated,PTH,ComponentDrill
T3C3.200
%
G90
G05
T1
X110.3Y-66.15
X110.3Y-104.25
X110.31Y-68.69
X110.31Y-71.23
X110.31Y-76.31
X110.31Y-78.85
X110.31Y-91.55
X112.0Y-127.9
X112.0Y-130.3
X113.0Y-115.6
X113.1Y-118.6
X113.1Y-121.0
X117.275Y-61.2
X117.575Y-64.23
X118.0Y-121.0
X118.025Y-119.73
X118.025Y-122.27
X120.0Y-64.2
X120.0Y-109.9
X120.059Y-116.593
X122.425Y-64.23
X122.7Y-61.2
X122.975Y-119.73
X123.0Y-124.8
X123.2Y-126.795
X129.69Y-66.15
X129.69Y-78.85
X129.69Y-91.55
X129.69Y-104.25
X130.9Y-127.8
X130.9Y-130.1
X131.8Y-118.6
X131.8Y-121.0
X137.0Y-119.73
X137.0Y-121.0
X137.0Y-122.27
X137.2Y-109.5
X138.5Y-109.5
X139.1Y-120.4
X141.6Y-101.2
X141.95Y-119.73
X141.95Y-124.81
X142.1Y-126.695
X145.9Y-96.1
X148.0Y-96.1
X150.7Y-127.7
X150.7Y-130.3
X150.9Y-93.9
X151.25Y-98.4
X151.25Y-100.6
X151.3Y-118.7
X151.3Y-121.0
X154.2Y-95.8
X156.5Y-94.375
X156.5Y-119.7
X156.5Y-122.3
X156.525Y-121.0
X157.4Y-112.2
X157.8Y-114.6
X158.4Y-107.3
X158.5Y-96.2
X161.475Y-117.19
X161.475Y-119.73
X161.5Y-124.8
X161.7Y-126.695
X161.7Y-127.965
X169.7Y-114.6
X173.1Y-123.0
X173.1Y-126.0
T2
X115.96Y-134.725
X118.5Y-134.725
X123.16Y-134.725
X125.7Y-134.725
X134.78Y-98.3
X134.98Y-134.725
X137.32Y-98.3
X137.52Y-134.725
X139.86Y-98.3
X141.98Y-134.725
X142.4Y-98.3
X144.52Y-134.725
X154.16Y-134.85
X156.7Y-134.85
X161.735Y-134.85
X164.275Y-134.85
X172.96Y-134.725
X175.5Y-134.725
T3
X102.0Y-64.0
X102.0Y-134.0
X192.0Y-64.0
X192.0Y-134.0
M30
