%TF.GenerationSoftware,KiCad,Pcbnew,8.0.8*%
%TF.CreationDate,2025-01-22T12:02:44+01:00*%
%TF.ProjectId,laser_controller,6c617365-725f-4636-9f6e-74726f6c6c65,rev?*%
%TF.SameCoordinates,Original*%
%TF.FileFunction,Soldermask,Top*%
%TF.FilePolarity,Negative*%
%FSLAX46Y46*%
G04 Gerber Fmt 4.6, Leading zero omitted, Abs format (unit mm)*
G04 Created by KiCad (PCBNEW 8.0.8) date 2025-01-22 12:02:44*
%MOMM*%
%LPD*%
G01*
G04 APERTURE LIST*
G04 Aperture macros list*
%AMRoundRect*
0 Rectangle with rounded corners*
0 $1 Rounding radius*
0 $2 $3 $4 $5 $6 $7 $8 $9 X,Y pos of 4 corners*
0 Add a 4 corners polygon primitive as box body*
4,1,4,$2,$3,$4,$5,$6,$7,$8,$9,$2,$3,0*
0 Add four circle primitives for the rounded corners*
1,1,$1+$1,$2,$3*
1,1,$1+$1,$4,$5*
1,1,$1+$1,$6,$7*
1,1,$1+$1,$8,$9*
0 Add four rect primitives between the rounded corners*
20,1,$1+$1,$2,$3,$4,$5,0*
20,1,$1+$1,$4,$5,$6,$7,0*
20,1,$1+$1,$6,$7,$8,$9,0*
20,1,$1+$1,$8,$9,$2,$3,0*%
G04 Aperture macros list end*
%ADD10C,0.010000*%
%ADD11R,1.550000X0.600000*%
%ADD12C,2.000000*%
%ADD13RoundRect,0.250000X0.250000X0.475000X-0.250000X0.475000X-0.250000X-0.475000X0.250000X-0.475000X0*%
%ADD14C,6.400000*%
%ADD15R,1.700000X1.700000*%
%ADD16O,1.700000X1.700000*%
%ADD17RoundRect,0.340800X-0.511200X-0.511200X0.511200X-0.511200X0.511200X0.511200X-0.511200X0.511200X0*%
%ADD18O,1.254000X1.654000*%
%ADD19O,1.304000X2.004000*%
%ADD20RoundRect,0.102000X-0.490000X-1.700000X0.490000X-1.700000X0.490000X1.700000X-0.490000X1.700000X0*%
%ADD21RoundRect,0.150000X-0.150000X0.587500X-0.150000X-0.587500X0.150000X-0.587500X0.150000X0.587500X0*%
%ADD22RoundRect,0.102000X-0.370000X-1.395000X0.370000X-1.395000X0.370000X1.395000X-0.370000X1.395000X0*%
%ADD23RoundRect,0.150000X-0.825000X-0.150000X0.825000X-0.150000X0.825000X0.150000X-0.825000X0.150000X0*%
%ADD24RoundRect,0.250000X-0.450000X0.262500X-0.450000X-0.262500X0.450000X-0.262500X0.450000X0.262500X0*%
%ADD25RoundRect,0.225000X0.225000X0.375000X-0.225000X0.375000X-0.225000X-0.375000X0.225000X-0.375000X0*%
%ADD26RoundRect,0.250000X0.450000X-0.262500X0.450000X0.262500X-0.450000X0.262500X-0.450000X-0.262500X0*%
%ADD27RoundRect,0.250000X-0.475000X0.250000X-0.475000X-0.250000X0.475000X-0.250000X0.475000X0.250000X0*%
%ADD28RoundRect,0.150000X0.150000X-0.512500X0.150000X0.512500X-0.150000X0.512500X-0.150000X-0.512500X0*%
%ADD29RoundRect,0.250000X0.262500X0.450000X-0.262500X0.450000X-0.262500X-0.450000X0.262500X-0.450000X0*%
%ADD30RoundRect,0.087500X-0.250000X-0.087500X0.250000X-0.087500X0.250000X0.087500X-0.250000X0.087500X0*%
G04 APERTURE END LIST*
D10*
%TO.C,U2*%
X131390000Y-105150000D02*
X128290000Y-105150000D01*
X128274000Y-105150000D01*
X128259000Y-105148000D01*
X128243000Y-105146000D01*
X128228000Y-105143000D01*
X128212000Y-105140000D01*
X128197000Y-105135000D01*
X128182000Y-105130000D01*
X128168000Y-105124000D01*
X128154000Y-105117000D01*
X128140000Y-105110000D01*
X128127000Y-105102000D01*
X128114000Y-105093000D01*
X128101000Y-105083000D01*
X128089000Y-105073000D01*
X128078000Y-105062000D01*
X128067000Y-105051000D01*
X128057000Y-105039000D01*
X128047000Y-105026000D01*
X128038000Y-105013000D01*
X128030000Y-105000000D01*
X128023000Y-104986000D01*
X128016000Y-104972000D01*
X128010000Y-104958000D01*
X128005000Y-104943000D01*
X128000000Y-104928000D01*
X127997000Y-104912000D01*
X127994000Y-104897000D01*
X127992000Y-104881000D01*
X127990000Y-104866000D01*
X127990000Y-104850000D01*
X127990000Y-103650000D01*
X127990000Y-103634000D01*
X127992000Y-103619000D01*
X127994000Y-103603000D01*
X127997000Y-103588000D01*
X128000000Y-103572000D01*
X128005000Y-103557000D01*
X128010000Y-103542000D01*
X128016000Y-103528000D01*
X128023000Y-103514000D01*
X128030000Y-103500000D01*
X128038000Y-103487000D01*
X128047000Y-103474000D01*
X128057000Y-103461000D01*
X128067000Y-103449000D01*
X128078000Y-103438000D01*
X128089000Y-103427000D01*
X128101000Y-103417000D01*
X128114000Y-103407000D01*
X128127000Y-103398000D01*
X128140000Y-103390000D01*
X128154000Y-103383000D01*
X128168000Y-103376000D01*
X128182000Y-103370000D01*
X128197000Y-103365000D01*
X128212000Y-103360000D01*
X128228000Y-103357000D01*
X128243000Y-103354000D01*
X128259000Y-103352000D01*
X128274000Y-103350000D01*
X128290000Y-103350000D01*
X131390000Y-103350000D01*
X131390000Y-105150000D01*
G36*
X131390000Y-105150000D02*
G01*
X128290000Y-105150000D01*
X128274000Y-105150000D01*
X128259000Y-105148000D01*
X128243000Y-105146000D01*
X128228000Y-105143000D01*
X128212000Y-105140000D01*
X128197000Y-105135000D01*
X128182000Y-105130000D01*
X128168000Y-105124000D01*
X128154000Y-105117000D01*
X128140000Y-105110000D01*
X128127000Y-105102000D01*
X128114000Y-105093000D01*
X128101000Y-105083000D01*
X128089000Y-105073000D01*
X128078000Y-105062000D01*
X128067000Y-105051000D01*
X128057000Y-105039000D01*
X128047000Y-105026000D01*
X128038000Y-105013000D01*
X128030000Y-105000000D01*
X128023000Y-104986000D01*
X128016000Y-104972000D01*
X128010000Y-104958000D01*
X128005000Y-104943000D01*
X128000000Y-104928000D01*
X127997000Y-104912000D01*
X127994000Y-104897000D01*
X127992000Y-104881000D01*
X127990000Y-104866000D01*
X127990000Y-104850000D01*
X127990000Y-103650000D01*
X127990000Y-103634000D01*
X127992000Y-103619000D01*
X127994000Y-103603000D01*
X127997000Y-103588000D01*
X128000000Y-103572000D01*
X128005000Y-103557000D01*
X128010000Y-103542000D01*
X128016000Y-103528000D01*
X128023000Y-103514000D01*
X128030000Y-103500000D01*
X128038000Y-103487000D01*
X128047000Y-103474000D01*
X128057000Y-103461000D01*
X128067000Y-103449000D01*
X128078000Y-103438000D01*
X128089000Y-103427000D01*
X128101000Y-103417000D01*
X128114000Y-103407000D01*
X128127000Y-103398000D01*
X128140000Y-103390000D01*
X128154000Y-103383000D01*
X128168000Y-103376000D01*
X128182000Y-103370000D01*
X128197000Y-103365000D01*
X128212000Y-103360000D01*
X128228000Y-103357000D01*
X128243000Y-103354000D01*
X128259000Y-103352000D01*
X128274000Y-103350000D01*
X128290000Y-103350000D01*
X131390000Y-103350000D01*
X131390000Y-105150000D01*
G37*
X131390000Y-92450000D02*
X128290000Y-92450000D01*
X128274000Y-92450000D01*
X128259000Y-92448000D01*
X128243000Y-92446000D01*
X128228000Y-92443000D01*
X128212000Y-92440000D01*
X128197000Y-92435000D01*
X128182000Y-92430000D01*
X128168000Y-92424000D01*
X128154000Y-92417000D01*
X128140000Y-92410000D01*
X128127000Y-92402000D01*
X128114000Y-92393000D01*
X128101000Y-92383000D01*
X128089000Y-92373000D01*
X128078000Y-92362000D01*
X128067000Y-92351000D01*
X128057000Y-92339000D01*
X128047000Y-92326000D01*
X128038000Y-92313000D01*
X128030000Y-92300000D01*
X128023000Y-92286000D01*
X128016000Y-92272000D01*
X128010000Y-92258000D01*
X128005000Y-92243000D01*
X128000000Y-92228000D01*
X127997000Y-92212000D01*
X127994000Y-92197000D01*
X127992000Y-92181000D01*
X127990000Y-92166000D01*
X127990000Y-92150000D01*
X127990000Y-90950000D01*
X127990000Y-90934000D01*
X127992000Y-90919000D01*
X127994000Y-90903000D01*
X127997000Y-90888000D01*
X128000000Y-90872000D01*
X128005000Y-90857000D01*
X128010000Y-90842000D01*
X128016000Y-90828000D01*
X128023000Y-90814000D01*
X128030000Y-90800000D01*
X128038000Y-90787000D01*
X128047000Y-90774000D01*
X128057000Y-90761000D01*
X128067000Y-90749000D01*
X128078000Y-90738000D01*
X128089000Y-90727000D01*
X128101000Y-90717000D01*
X128114000Y-90707000D01*
X128127000Y-90698000D01*
X128140000Y-90690000D01*
X128154000Y-90683000D01*
X128168000Y-90676000D01*
X128182000Y-90670000D01*
X128197000Y-90665000D01*
X128212000Y-90660000D01*
X128228000Y-90657000D01*
X128243000Y-90654000D01*
X128259000Y-90652000D01*
X128274000Y-90650000D01*
X128290000Y-90650000D01*
X131390000Y-90650000D01*
X131390000Y-92450000D01*
G36*
X131390000Y-92450000D02*
G01*
X128290000Y-92450000D01*
X128274000Y-92450000D01*
X128259000Y-92448000D01*
X128243000Y-92446000D01*
X128228000Y-92443000D01*
X128212000Y-92440000D01*
X128197000Y-92435000D01*
X128182000Y-92430000D01*
X128168000Y-92424000D01*
X128154000Y-92417000D01*
X128140000Y-92410000D01*
X128127000Y-92402000D01*
X128114000Y-92393000D01*
X128101000Y-92383000D01*
X128089000Y-92373000D01*
X128078000Y-92362000D01*
X128067000Y-92351000D01*
X128057000Y-92339000D01*
X128047000Y-92326000D01*
X128038000Y-92313000D01*
X128030000Y-92300000D01*
X128023000Y-92286000D01*
X128016000Y-92272000D01*
X128010000Y-92258000D01*
X128005000Y-92243000D01*
X128000000Y-92228000D01*
X127997000Y-92212000D01*
X127994000Y-92197000D01*
X127992000Y-92181000D01*
X127990000Y-92166000D01*
X127990000Y-92150000D01*
X127990000Y-90950000D01*
X127990000Y-90934000D01*
X127992000Y-90919000D01*
X127994000Y-90903000D01*
X127997000Y-90888000D01*
X128000000Y-90872000D01*
X128005000Y-90857000D01*
X128010000Y-90842000D01*
X128016000Y-90828000D01*
X128023000Y-90814000D01*
X128030000Y-90800000D01*
X128038000Y-90787000D01*
X128047000Y-90774000D01*
X128057000Y-90761000D01*
X128067000Y-90749000D01*
X128078000Y-90738000D01*
X128089000Y-90727000D01*
X128101000Y-90717000D01*
X128114000Y-90707000D01*
X128127000Y-90698000D01*
X128140000Y-90690000D01*
X128154000Y-90683000D01*
X128168000Y-90676000D01*
X128182000Y-90670000D01*
X128197000Y-90665000D01*
X128212000Y-90660000D01*
X128228000Y-90657000D01*
X128243000Y-90654000D01*
X128259000Y-90652000D01*
X128274000Y-90650000D01*
X128290000Y-90650000D01*
X131390000Y-90650000D01*
X131390000Y-92450000D01*
G37*
X131390000Y-79750000D02*
X128290000Y-79750000D01*
X128274000Y-79750000D01*
X128259000Y-79748000D01*
X128243000Y-79746000D01*
X128228000Y-79743000D01*
X128212000Y-79740000D01*
X128197000Y-79735000D01*
X128182000Y-79730000D01*
X128168000Y-79724000D01*
X128154000Y-79717000D01*
X128140000Y-79710000D01*
X128127000Y-79702000D01*
X128114000Y-79693000D01*
X128101000Y-79683000D01*
X128089000Y-79673000D01*
X128078000Y-79662000D01*
X128067000Y-79651000D01*
X128057000Y-79639000D01*
X128047000Y-79626000D01*
X128038000Y-79613000D01*
X128030000Y-79600000D01*
X128023000Y-79586000D01*
X128016000Y-79572000D01*
X128010000Y-79558000D01*
X128005000Y-79543000D01*
X128000000Y-79528000D01*
X127997000Y-79512000D01*
X127994000Y-79497000D01*
X127992000Y-79481000D01*
X127990000Y-79466000D01*
X127990000Y-79450000D01*
X127990000Y-78250000D01*
X127990000Y-78234000D01*
X127992000Y-78219000D01*
X127994000Y-78203000D01*
X127997000Y-78188000D01*
X128000000Y-78172000D01*
X128005000Y-78157000D01*
X128010000Y-78142000D01*
X128016000Y-78128000D01*
X128023000Y-78114000D01*
X128030000Y-78100000D01*
X128038000Y-78087000D01*
X128047000Y-78074000D01*
X128057000Y-78061000D01*
X128067000Y-78049000D01*
X128078000Y-78038000D01*
X128089000Y-78027000D01*
X128101000Y-78017000D01*
X128114000Y-78007000D01*
X128127000Y-77998000D01*
X128140000Y-77990000D01*
X128154000Y-77983000D01*
X128168000Y-77976000D01*
X128182000Y-77970000D01*
X128197000Y-77965000D01*
X128212000Y-77960000D01*
X128228000Y-77957000D01*
X128243000Y-77954000D01*
X128259000Y-77952000D01*
X128274000Y-77950000D01*
X128290000Y-77950000D01*
X131390000Y-77950000D01*
X131390000Y-79750000D01*
G36*
X131390000Y-79750000D02*
G01*
X128290000Y-79750000D01*
X128274000Y-79750000D01*
X128259000Y-79748000D01*
X128243000Y-79746000D01*
X128228000Y-79743000D01*
X128212000Y-79740000D01*
X128197000Y-79735000D01*
X128182000Y-79730000D01*
X128168000Y-79724000D01*
X128154000Y-79717000D01*
X128140000Y-79710000D01*
X128127000Y-79702000D01*
X128114000Y-79693000D01*
X128101000Y-79683000D01*
X128089000Y-79673000D01*
X128078000Y-79662000D01*
X128067000Y-79651000D01*
X128057000Y-79639000D01*
X128047000Y-79626000D01*
X128038000Y-79613000D01*
X128030000Y-79600000D01*
X128023000Y-79586000D01*
X128016000Y-79572000D01*
X128010000Y-79558000D01*
X128005000Y-79543000D01*
X128000000Y-79528000D01*
X127997000Y-79512000D01*
X127994000Y-79497000D01*
X127992000Y-79481000D01*
X127990000Y-79466000D01*
X127990000Y-79450000D01*
X127990000Y-78250000D01*
X127990000Y-78234000D01*
X127992000Y-78219000D01*
X127994000Y-78203000D01*
X127997000Y-78188000D01*
X128000000Y-78172000D01*
X128005000Y-78157000D01*
X128010000Y-78142000D01*
X128016000Y-78128000D01*
X128023000Y-78114000D01*
X128030000Y-78100000D01*
X128038000Y-78087000D01*
X128047000Y-78074000D01*
X128057000Y-78061000D01*
X128067000Y-78049000D01*
X128078000Y-78038000D01*
X128089000Y-78027000D01*
X128101000Y-78017000D01*
X128114000Y-78007000D01*
X128127000Y-77998000D01*
X128140000Y-77990000D01*
X128154000Y-77983000D01*
X128168000Y-77976000D01*
X128182000Y-77970000D01*
X128197000Y-77965000D01*
X128212000Y-77960000D01*
X128228000Y-77957000D01*
X128243000Y-77954000D01*
X128259000Y-77952000D01*
X128274000Y-77950000D01*
X128290000Y-77950000D01*
X131390000Y-77950000D01*
X131390000Y-79750000D01*
G37*
X131390000Y-67050000D02*
X128290000Y-67050000D01*
X128274000Y-67050000D01*
X128259000Y-67048000D01*
X128243000Y-67046000D01*
X128228000Y-67043000D01*
X128212000Y-67040000D01*
X128197000Y-67035000D01*
X128182000Y-67030000D01*
X128168000Y-67024000D01*
X128154000Y-67017000D01*
X128140000Y-67010000D01*
X128127000Y-67002000D01*
X128114000Y-66993000D01*
X128101000Y-66983000D01*
X128089000Y-66973000D01*
X128078000Y-66962000D01*
X128067000Y-66951000D01*
X128057000Y-66939000D01*
X128047000Y-66926000D01*
X128038000Y-66913000D01*
X128030000Y-66900000D01*
X128023000Y-66886000D01*
X128016000Y-66872000D01*
X128010000Y-66858000D01*
X128005000Y-66843000D01*
X128000000Y-66828000D01*
X127997000Y-66812000D01*
X127994000Y-66797000D01*
X127992000Y-66781000D01*
X127990000Y-66766000D01*
X127990000Y-66750000D01*
X127990000Y-65550000D01*
X127990000Y-65534000D01*
X127992000Y-65519000D01*
X127994000Y-65503000D01*
X127997000Y-65488000D01*
X128000000Y-65472000D01*
X128005000Y-65457000D01*
X128010000Y-65442000D01*
X128016000Y-65428000D01*
X128023000Y-65414000D01*
X128030000Y-65400000D01*
X128038000Y-65387000D01*
X128047000Y-65374000D01*
X128057000Y-65361000D01*
X128067000Y-65349000D01*
X128078000Y-65338000D01*
X128089000Y-65327000D01*
X128101000Y-65317000D01*
X128114000Y-65307000D01*
X128127000Y-65298000D01*
X128140000Y-65290000D01*
X128154000Y-65283000D01*
X128168000Y-65276000D01*
X128182000Y-65270000D01*
X128197000Y-65265000D01*
X128212000Y-65260000D01*
X128228000Y-65257000D01*
X128243000Y-65254000D01*
X128259000Y-65252000D01*
X128274000Y-65250000D01*
X128290000Y-65250000D01*
X131390000Y-65250000D01*
X131390000Y-67050000D01*
G36*
X131390000Y-67050000D02*
G01*
X128290000Y-67050000D01*
X128274000Y-67050000D01*
X128259000Y-67048000D01*
X128243000Y-67046000D01*
X128228000Y-67043000D01*
X128212000Y-67040000D01*
X128197000Y-67035000D01*
X128182000Y-67030000D01*
X128168000Y-67024000D01*
X128154000Y-67017000D01*
X128140000Y-67010000D01*
X128127000Y-67002000D01*
X128114000Y-66993000D01*
X128101000Y-66983000D01*
X128089000Y-66973000D01*
X128078000Y-66962000D01*
X128067000Y-66951000D01*
X128057000Y-66939000D01*
X128047000Y-66926000D01*
X128038000Y-66913000D01*
X128030000Y-66900000D01*
X128023000Y-66886000D01*
X128016000Y-66872000D01*
X128010000Y-66858000D01*
X128005000Y-66843000D01*
X128000000Y-66828000D01*
X127997000Y-66812000D01*
X127994000Y-66797000D01*
X127992000Y-66781000D01*
X127990000Y-66766000D01*
X127990000Y-66750000D01*
X127990000Y-65550000D01*
X127990000Y-65534000D01*
X127992000Y-65519000D01*
X127994000Y-65503000D01*
X127997000Y-65488000D01*
X128000000Y-65472000D01*
X128005000Y-65457000D01*
X128010000Y-65442000D01*
X128016000Y-65428000D01*
X128023000Y-65414000D01*
X128030000Y-65400000D01*
X128038000Y-65387000D01*
X128047000Y-65374000D01*
X128057000Y-65361000D01*
X128067000Y-65349000D01*
X128078000Y-65338000D01*
X128089000Y-65327000D01*
X128101000Y-65317000D01*
X128114000Y-65307000D01*
X128127000Y-65298000D01*
X128140000Y-65290000D01*
X128154000Y-65283000D01*
X128168000Y-65276000D01*
X128182000Y-65270000D01*
X128197000Y-65265000D01*
X128212000Y-65260000D01*
X128228000Y-65257000D01*
X128243000Y-65254000D01*
X128259000Y-65252000D01*
X128274000Y-65250000D01*
X128290000Y-65250000D01*
X131390000Y-65250000D01*
X131390000Y-67050000D01*
G37*
X120631000Y-108202000D02*
X120647000Y-108204000D01*
X120662000Y-108207000D01*
X120678000Y-108210000D01*
X120693000Y-108215000D01*
X120708000Y-108220000D01*
X120722000Y-108226000D01*
X120736000Y-108233000D01*
X120750000Y-108240000D01*
X120763000Y-108248000D01*
X120776000Y-108257000D01*
X120789000Y-108267000D01*
X120801000Y-108277000D01*
X120812000Y-108288000D01*
X120823000Y-108299000D01*
X120833000Y-108311000D01*
X120843000Y-108324000D01*
X120852000Y-108337000D01*
X120860000Y-108350000D01*
X120867000Y-108364000D01*
X120874000Y-108378000D01*
X120880000Y-108392000D01*
X120885000Y-108407000D01*
X120890000Y-108422000D01*
X120893000Y-108438000D01*
X120896000Y-108453000D01*
X120898000Y-108469000D01*
X120900000Y-108484000D01*
X120900000Y-108500000D01*
X120900000Y-111600000D01*
X119100000Y-111600000D01*
X119100000Y-108500000D01*
X119100000Y-108484000D01*
X119102000Y-108469000D01*
X119104000Y-108453000D01*
X119107000Y-108438000D01*
X119110000Y-108422000D01*
X119115000Y-108407000D01*
X119120000Y-108392000D01*
X119126000Y-108378000D01*
X119133000Y-108364000D01*
X119140000Y-108350000D01*
X119148000Y-108337000D01*
X119157000Y-108324000D01*
X119167000Y-108311000D01*
X119177000Y-108299000D01*
X119188000Y-108288000D01*
X119199000Y-108277000D01*
X119211000Y-108267000D01*
X119224000Y-108257000D01*
X119237000Y-108248000D01*
X119250000Y-108240000D01*
X119264000Y-108233000D01*
X119278000Y-108226000D01*
X119292000Y-108220000D01*
X119307000Y-108215000D01*
X119322000Y-108210000D01*
X119338000Y-108207000D01*
X119353000Y-108204000D01*
X119369000Y-108202000D01*
X119384000Y-108200000D01*
X119400000Y-108200000D01*
X120600000Y-108200000D01*
X120616000Y-108200000D01*
X120631000Y-108202000D01*
G36*
X120631000Y-108202000D02*
G01*
X120647000Y-108204000D01*
X120662000Y-108207000D01*
X120678000Y-108210000D01*
X120693000Y-108215000D01*
X120708000Y-108220000D01*
X120722000Y-108226000D01*
X120736000Y-108233000D01*
X120750000Y-108240000D01*
X120763000Y-108248000D01*
X120776000Y-108257000D01*
X120789000Y-108267000D01*
X120801000Y-108277000D01*
X120812000Y-108288000D01*
X120823000Y-108299000D01*
X120833000Y-108311000D01*
X120843000Y-108324000D01*
X120852000Y-108337000D01*
X120860000Y-108350000D01*
X120867000Y-108364000D01*
X120874000Y-108378000D01*
X120880000Y-108392000D01*
X120885000Y-108407000D01*
X120890000Y-108422000D01*
X120893000Y-108438000D01*
X120896000Y-108453000D01*
X120898000Y-108469000D01*
X120900000Y-108484000D01*
X120900000Y-108500000D01*
X120900000Y-111600000D01*
X119100000Y-111600000D01*
X119100000Y-108500000D01*
X119100000Y-108484000D01*
X119102000Y-108469000D01*
X119104000Y-108453000D01*
X119107000Y-108438000D01*
X119110000Y-108422000D01*
X119115000Y-108407000D01*
X119120000Y-108392000D01*
X119126000Y-108378000D01*
X119133000Y-108364000D01*
X119140000Y-108350000D01*
X119148000Y-108337000D01*
X119157000Y-108324000D01*
X119167000Y-108311000D01*
X119177000Y-108299000D01*
X119188000Y-108288000D01*
X119199000Y-108277000D01*
X119211000Y-108267000D01*
X119224000Y-108257000D01*
X119237000Y-108248000D01*
X119250000Y-108240000D01*
X119264000Y-108233000D01*
X119278000Y-108226000D01*
X119292000Y-108220000D01*
X119307000Y-108215000D01*
X119322000Y-108210000D01*
X119338000Y-108207000D01*
X119353000Y-108204000D01*
X119369000Y-108202000D01*
X119384000Y-108200000D01*
X119400000Y-108200000D01*
X120600000Y-108200000D01*
X120616000Y-108200000D01*
X120631000Y-108202000D01*
G37*
X111741000Y-103352000D02*
X111757000Y-103354000D01*
X111772000Y-103357000D01*
X111788000Y-103360000D01*
X111803000Y-103365000D01*
X111818000Y-103370000D01*
X111832000Y-103376000D01*
X111846000Y-103383000D01*
X111860000Y-103390000D01*
X111873000Y-103398000D01*
X111886000Y-103407000D01*
X111899000Y-103417000D01*
X111911000Y-103427000D01*
X111922000Y-103438000D01*
X111933000Y-103449000D01*
X111943000Y-103461000D01*
X111953000Y-103474000D01*
X111962000Y-103487000D01*
X111970000Y-103500000D01*
X111977000Y-103514000D01*
X111984000Y-103528000D01*
X111990000Y-103542000D01*
X111995000Y-103557000D01*
X112000000Y-103572000D01*
X112003000Y-103588000D01*
X112006000Y-103603000D01*
X112008000Y-103619000D01*
X112010000Y-103634000D01*
X112010000Y-103650000D01*
X112010000Y-104850000D01*
X112010000Y-104866000D01*
X112008000Y-104881000D01*
X112006000Y-104897000D01*
X112003000Y-104912000D01*
X112000000Y-104928000D01*
X111995000Y-104943000D01*
X111990000Y-104958000D01*
X111984000Y-104972000D01*
X111977000Y-104986000D01*
X111970000Y-105000000D01*
X111962000Y-105013000D01*
X111953000Y-105026000D01*
X111943000Y-105039000D01*
X111933000Y-105051000D01*
X111922000Y-105062000D01*
X111911000Y-105073000D01*
X111899000Y-105083000D01*
X111886000Y-105093000D01*
X111873000Y-105102000D01*
X111860000Y-105110000D01*
X111846000Y-105117000D01*
X111832000Y-105124000D01*
X111818000Y-105130000D01*
X111803000Y-105135000D01*
X111788000Y-105140000D01*
X111772000Y-105143000D01*
X111757000Y-105146000D01*
X111741000Y-105148000D01*
X111726000Y-105150000D01*
X111710000Y-105150000D01*
X108610000Y-105150000D01*
X108610000Y-103350000D01*
X111710000Y-103350000D01*
X111726000Y-103350000D01*
X111741000Y-103352000D01*
G36*
X111741000Y-103352000D02*
G01*
X111757000Y-103354000D01*
X111772000Y-103357000D01*
X111788000Y-103360000D01*
X111803000Y-103365000D01*
X111818000Y-103370000D01*
X111832000Y-103376000D01*
X111846000Y-103383000D01*
X111860000Y-103390000D01*
X111873000Y-103398000D01*
X111886000Y-103407000D01*
X111899000Y-103417000D01*
X111911000Y-103427000D01*
X111922000Y-103438000D01*
X111933000Y-103449000D01*
X111943000Y-103461000D01*
X111953000Y-103474000D01*
X111962000Y-103487000D01*
X111970000Y-103500000D01*
X111977000Y-103514000D01*
X111984000Y-103528000D01*
X111990000Y-103542000D01*
X111995000Y-103557000D01*
X112000000Y-103572000D01*
X112003000Y-103588000D01*
X112006000Y-103603000D01*
X112008000Y-103619000D01*
X112010000Y-103634000D01*
X112010000Y-103650000D01*
X112010000Y-104850000D01*
X112010000Y-104866000D01*
X112008000Y-104881000D01*
X112006000Y-104897000D01*
X112003000Y-104912000D01*
X112000000Y-104928000D01*
X111995000Y-104943000D01*
X111990000Y-104958000D01*
X111984000Y-104972000D01*
X111977000Y-104986000D01*
X111970000Y-105000000D01*
X111962000Y-105013000D01*
X111953000Y-105026000D01*
X111943000Y-105039000D01*
X111933000Y-105051000D01*
X111922000Y-105062000D01*
X111911000Y-105073000D01*
X111899000Y-105083000D01*
X111886000Y-105093000D01*
X111873000Y-105102000D01*
X111860000Y-105110000D01*
X111846000Y-105117000D01*
X111832000Y-105124000D01*
X111818000Y-105130000D01*
X111803000Y-105135000D01*
X111788000Y-105140000D01*
X111772000Y-105143000D01*
X111757000Y-105146000D01*
X111741000Y-105148000D01*
X111726000Y-105150000D01*
X111710000Y-105150000D01*
X108610000Y-105150000D01*
X108610000Y-103350000D01*
X111710000Y-103350000D01*
X111726000Y-103350000D01*
X111741000Y-103352000D01*
G37*
X111741000Y-90652000D02*
X111757000Y-90654000D01*
X111772000Y-90657000D01*
X111788000Y-90660000D01*
X111803000Y-90665000D01*
X111818000Y-90670000D01*
X111832000Y-90676000D01*
X111846000Y-90683000D01*
X111860000Y-90690000D01*
X111873000Y-90698000D01*
X111886000Y-90707000D01*
X111899000Y-90717000D01*
X111911000Y-90727000D01*
X111922000Y-90738000D01*
X111933000Y-90749000D01*
X111943000Y-90761000D01*
X111953000Y-90774000D01*
X111962000Y-90787000D01*
X111970000Y-90800000D01*
X111977000Y-90814000D01*
X111984000Y-90828000D01*
X111990000Y-90842000D01*
X111995000Y-90857000D01*
X112000000Y-90872000D01*
X112003000Y-90888000D01*
X112006000Y-90903000D01*
X112008000Y-90919000D01*
X112010000Y-90934000D01*
X112010000Y-90950000D01*
X112010000Y-92150000D01*
X112010000Y-92166000D01*
X112008000Y-92181000D01*
X112006000Y-92197000D01*
X112003000Y-92212000D01*
X112000000Y-92228000D01*
X111995000Y-92243000D01*
X111990000Y-92258000D01*
X111984000Y-92272000D01*
X111977000Y-92286000D01*
X111970000Y-92300000D01*
X111962000Y-92313000D01*
X111953000Y-92326000D01*
X111943000Y-92339000D01*
X111933000Y-92351000D01*
X111922000Y-92362000D01*
X111911000Y-92373000D01*
X111899000Y-92383000D01*
X111886000Y-92393000D01*
X111873000Y-92402000D01*
X111860000Y-92410000D01*
X111846000Y-92417000D01*
X111832000Y-92424000D01*
X111818000Y-92430000D01*
X111803000Y-92435000D01*
X111788000Y-92440000D01*
X111772000Y-92443000D01*
X111757000Y-92446000D01*
X111741000Y-92448000D01*
X111726000Y-92450000D01*
X111710000Y-92450000D01*
X108610000Y-92450000D01*
X108610000Y-90650000D01*
X111710000Y-90650000D01*
X111726000Y-90650000D01*
X111741000Y-90652000D01*
G36*
X111741000Y-90652000D02*
G01*
X111757000Y-90654000D01*
X111772000Y-90657000D01*
X111788000Y-90660000D01*
X111803000Y-90665000D01*
X111818000Y-90670000D01*
X111832000Y-90676000D01*
X111846000Y-90683000D01*
X111860000Y-90690000D01*
X111873000Y-90698000D01*
X111886000Y-90707000D01*
X111899000Y-90717000D01*
X111911000Y-90727000D01*
X111922000Y-90738000D01*
X111933000Y-90749000D01*
X111943000Y-90761000D01*
X111953000Y-90774000D01*
X111962000Y-90787000D01*
X111970000Y-90800000D01*
X111977000Y-90814000D01*
X111984000Y-90828000D01*
X111990000Y-90842000D01*
X111995000Y-90857000D01*
X112000000Y-90872000D01*
X112003000Y-90888000D01*
X112006000Y-90903000D01*
X112008000Y-90919000D01*
X112010000Y-90934000D01*
X112010000Y-90950000D01*
X112010000Y-92150000D01*
X112010000Y-92166000D01*
X112008000Y-92181000D01*
X112006000Y-92197000D01*
X112003000Y-92212000D01*
X112000000Y-92228000D01*
X111995000Y-92243000D01*
X111990000Y-92258000D01*
X111984000Y-92272000D01*
X111977000Y-92286000D01*
X111970000Y-92300000D01*
X111962000Y-92313000D01*
X111953000Y-92326000D01*
X111943000Y-92339000D01*
X111933000Y-92351000D01*
X111922000Y-92362000D01*
X111911000Y-92373000D01*
X111899000Y-92383000D01*
X111886000Y-92393000D01*
X111873000Y-92402000D01*
X111860000Y-92410000D01*
X111846000Y-92417000D01*
X111832000Y-92424000D01*
X111818000Y-92430000D01*
X111803000Y-92435000D01*
X111788000Y-92440000D01*
X111772000Y-92443000D01*
X111757000Y-92446000D01*
X111741000Y-92448000D01*
X111726000Y-92450000D01*
X111710000Y-92450000D01*
X108610000Y-92450000D01*
X108610000Y-90650000D01*
X111710000Y-90650000D01*
X111726000Y-90650000D01*
X111741000Y-90652000D01*
G37*
X111741000Y-77952000D02*
X111757000Y-77954000D01*
X111772000Y-77957000D01*
X111788000Y-77960000D01*
X111803000Y-77965000D01*
X111818000Y-77970000D01*
X111832000Y-77976000D01*
X111846000Y-77983000D01*
X111860000Y-77990000D01*
X111873000Y-77998000D01*
X111886000Y-78007000D01*
X111899000Y-78017000D01*
X111911000Y-78027000D01*
X111922000Y-78038000D01*
X111933000Y-78049000D01*
X111943000Y-78061000D01*
X111953000Y-78074000D01*
X111962000Y-78087000D01*
X111970000Y-78100000D01*
X111977000Y-78114000D01*
X111984000Y-78128000D01*
X111990000Y-78142000D01*
X111995000Y-78157000D01*
X112000000Y-78172000D01*
X112003000Y-78188000D01*
X112006000Y-78203000D01*
X112008000Y-78219000D01*
X112010000Y-78234000D01*
X112010000Y-78250000D01*
X112010000Y-79450000D01*
X112010000Y-79466000D01*
X112008000Y-79481000D01*
X112006000Y-79497000D01*
X112003000Y-79512000D01*
X112000000Y-79528000D01*
X111995000Y-79543000D01*
X111990000Y-79558000D01*
X111984000Y-79572000D01*
X111977000Y-79586000D01*
X111970000Y-79600000D01*
X111962000Y-79613000D01*
X111953000Y-79626000D01*
X111943000Y-79639000D01*
X111933000Y-79651000D01*
X111922000Y-79662000D01*
X111911000Y-79673000D01*
X111899000Y-79683000D01*
X111886000Y-79693000D01*
X111873000Y-79702000D01*
X111860000Y-79710000D01*
X111846000Y-79717000D01*
X111832000Y-79724000D01*
X111818000Y-79730000D01*
X111803000Y-79735000D01*
X111788000Y-79740000D01*
X111772000Y-79743000D01*
X111757000Y-79746000D01*
X111741000Y-79748000D01*
X111726000Y-79750000D01*
X111710000Y-79750000D01*
X108610000Y-79750000D01*
X108610000Y-77950000D01*
X111710000Y-77950000D01*
X111726000Y-77950000D01*
X111741000Y-77952000D01*
G36*
X111741000Y-77952000D02*
G01*
X111757000Y-77954000D01*
X111772000Y-77957000D01*
X111788000Y-77960000D01*
X111803000Y-77965000D01*
X111818000Y-77970000D01*
X111832000Y-77976000D01*
X111846000Y-77983000D01*
X111860000Y-77990000D01*
X111873000Y-77998000D01*
X111886000Y-78007000D01*
X111899000Y-78017000D01*
X111911000Y-78027000D01*
X111922000Y-78038000D01*
X111933000Y-78049000D01*
X111943000Y-78061000D01*
X111953000Y-78074000D01*
X111962000Y-78087000D01*
X111970000Y-78100000D01*
X111977000Y-78114000D01*
X111984000Y-78128000D01*
X111990000Y-78142000D01*
X111995000Y-78157000D01*
X112000000Y-78172000D01*
X112003000Y-78188000D01*
X112006000Y-78203000D01*
X112008000Y-78219000D01*
X112010000Y-78234000D01*
X112010000Y-78250000D01*
X112010000Y-79450000D01*
X112010000Y-79466000D01*
X112008000Y-79481000D01*
X112006000Y-79497000D01*
X112003000Y-79512000D01*
X112000000Y-79528000D01*
X111995000Y-79543000D01*
X111990000Y-79558000D01*
X111984000Y-79572000D01*
X111977000Y-79586000D01*
X111970000Y-79600000D01*
X111962000Y-79613000D01*
X111953000Y-79626000D01*
X111943000Y-79639000D01*
X111933000Y-79651000D01*
X111922000Y-79662000D01*
X111911000Y-79673000D01*
X111899000Y-79683000D01*
X111886000Y-79693000D01*
X111873000Y-79702000D01*
X111860000Y-79710000D01*
X111846000Y-79717000D01*
X111832000Y-79724000D01*
X111818000Y-79730000D01*
X111803000Y-79735000D01*
X111788000Y-79740000D01*
X111772000Y-79743000D01*
X111757000Y-79746000D01*
X111741000Y-79748000D01*
X111726000Y-79750000D01*
X111710000Y-79750000D01*
X108610000Y-79750000D01*
X108610000Y-77950000D01*
X111710000Y-77950000D01*
X111726000Y-77950000D01*
X111741000Y-77952000D01*
G37*
X111741000Y-65252000D02*
X111757000Y-65254000D01*
X111772000Y-65257000D01*
X111788000Y-65260000D01*
X111803000Y-65265000D01*
X111818000Y-65270000D01*
X111832000Y-65276000D01*
X111846000Y-65283000D01*
X111860000Y-65290000D01*
X111873000Y-65298000D01*
X111886000Y-65307000D01*
X111899000Y-65317000D01*
X111911000Y-65327000D01*
X111922000Y-65338000D01*
X111933000Y-65349000D01*
X111943000Y-65361000D01*
X111953000Y-65374000D01*
X111962000Y-65387000D01*
X111970000Y-65400000D01*
X111977000Y-65414000D01*
X111984000Y-65428000D01*
X111990000Y-65442000D01*
X111995000Y-65457000D01*
X112000000Y-65472000D01*
X112003000Y-65488000D01*
X112006000Y-65503000D01*
X112008000Y-65519000D01*
X112010000Y-65534000D01*
X112010000Y-65550000D01*
X112010000Y-66750000D01*
X112010000Y-66766000D01*
X112008000Y-66781000D01*
X112006000Y-66797000D01*
X112003000Y-66812000D01*
X112000000Y-66828000D01*
X111995000Y-66843000D01*
X111990000Y-66858000D01*
X111984000Y-66872000D01*
X111977000Y-66886000D01*
X111970000Y-66900000D01*
X111962000Y-66913000D01*
X111953000Y-66926000D01*
X111943000Y-66939000D01*
X111933000Y-66951000D01*
X111922000Y-66962000D01*
X111911000Y-66973000D01*
X111899000Y-66983000D01*
X111886000Y-66993000D01*
X111873000Y-67002000D01*
X111860000Y-67010000D01*
X111846000Y-67017000D01*
X111832000Y-67024000D01*
X111818000Y-67030000D01*
X111803000Y-67035000D01*
X111788000Y-67040000D01*
X111772000Y-67043000D01*
X111757000Y-67046000D01*
X111741000Y-67048000D01*
X111726000Y-67050000D01*
X111710000Y-67050000D01*
X108610000Y-67050000D01*
X108610000Y-65250000D01*
X111710000Y-65250000D01*
X111726000Y-65250000D01*
X111741000Y-65252000D01*
G36*
X111741000Y-65252000D02*
G01*
X111757000Y-65254000D01*
X111772000Y-65257000D01*
X111788000Y-65260000D01*
X111803000Y-65265000D01*
X111818000Y-65270000D01*
X111832000Y-65276000D01*
X111846000Y-65283000D01*
X111860000Y-65290000D01*
X111873000Y-65298000D01*
X111886000Y-65307000D01*
X111899000Y-65317000D01*
X111911000Y-65327000D01*
X111922000Y-65338000D01*
X111933000Y-65349000D01*
X111943000Y-65361000D01*
X111953000Y-65374000D01*
X111962000Y-65387000D01*
X111970000Y-65400000D01*
X111977000Y-65414000D01*
X111984000Y-65428000D01*
X111990000Y-65442000D01*
X111995000Y-65457000D01*
X112000000Y-65472000D01*
X112003000Y-65488000D01*
X112006000Y-65503000D01*
X112008000Y-65519000D01*
X112010000Y-65534000D01*
X112010000Y-65550000D01*
X112010000Y-66750000D01*
X112010000Y-66766000D01*
X112008000Y-66781000D01*
X112006000Y-66797000D01*
X112003000Y-66812000D01*
X112000000Y-66828000D01*
X111995000Y-66843000D01*
X111990000Y-66858000D01*
X111984000Y-66872000D01*
X111977000Y-66886000D01*
X111970000Y-66900000D01*
X111962000Y-66913000D01*
X111953000Y-66926000D01*
X111943000Y-66939000D01*
X111933000Y-66951000D01*
X111922000Y-66962000D01*
X111911000Y-66973000D01*
X111899000Y-66983000D01*
X111886000Y-66993000D01*
X111873000Y-67002000D01*
X111860000Y-67010000D01*
X111846000Y-67017000D01*
X111832000Y-67024000D01*
X111818000Y-67030000D01*
X111803000Y-67035000D01*
X111788000Y-67040000D01*
X111772000Y-67043000D01*
X111757000Y-67046000D01*
X111741000Y-67048000D01*
X111726000Y-67050000D01*
X111710000Y-67050000D01*
X108610000Y-67050000D01*
X108610000Y-65250000D01*
X111710000Y-65250000D01*
X111726000Y-65250000D01*
X111741000Y-65252000D01*
G37*
X131390000Y-110230000D02*
X128890000Y-110230000D01*
X128843000Y-110229000D01*
X128796000Y-110225000D01*
X128749000Y-110219000D01*
X128703000Y-110210000D01*
X128657000Y-110199000D01*
X128612000Y-110186000D01*
X128567000Y-110170000D01*
X128524000Y-110152000D01*
X128481000Y-110132000D01*
X128440000Y-110109000D01*
X128400000Y-110085000D01*
X128361000Y-110058000D01*
X128324000Y-110029000D01*
X128288000Y-109999000D01*
X128254000Y-109966000D01*
X128221000Y-109932000D01*
X128191000Y-109896000D01*
X128162000Y-109859000D01*
X128135000Y-109820000D01*
X128111000Y-109780000D01*
X128088000Y-109739000D01*
X128068000Y-109696000D01*
X128050000Y-109653000D01*
X128034000Y-109608000D01*
X128021000Y-109563000D01*
X128010000Y-109517000D01*
X128001000Y-109471000D01*
X127995000Y-109424000D01*
X127991000Y-109377000D01*
X127990000Y-109330000D01*
X127991000Y-109283000D01*
X127995000Y-109236000D01*
X128001000Y-109189000D01*
X128010000Y-109143000D01*
X128021000Y-109097000D01*
X128034000Y-109052000D01*
X128050000Y-109007000D01*
X128068000Y-108964000D01*
X128088000Y-108921000D01*
X128111000Y-108880000D01*
X128135000Y-108840000D01*
X128162000Y-108801000D01*
X128191000Y-108764000D01*
X128221000Y-108728000D01*
X128254000Y-108694000D01*
X128288000Y-108661000D01*
X128324000Y-108631000D01*
X128361000Y-108602000D01*
X128400000Y-108575000D01*
X128440000Y-108551000D01*
X128481000Y-108528000D01*
X128524000Y-108508000D01*
X128567000Y-108490000D01*
X128612000Y-108474000D01*
X128657000Y-108461000D01*
X128703000Y-108450000D01*
X128749000Y-108441000D01*
X128796000Y-108435000D01*
X128843000Y-108431000D01*
X128890000Y-108430000D01*
X131390000Y-108430000D01*
X131390000Y-110230000D01*
G36*
X131390000Y-110230000D02*
G01*
X128890000Y-110230000D01*
X128843000Y-110229000D01*
X128796000Y-110225000D01*
X128749000Y-110219000D01*
X128703000Y-110210000D01*
X128657000Y-110199000D01*
X128612000Y-110186000D01*
X128567000Y-110170000D01*
X128524000Y-110152000D01*
X128481000Y-110132000D01*
X128440000Y-110109000D01*
X128400000Y-110085000D01*
X128361000Y-110058000D01*
X128324000Y-110029000D01*
X128288000Y-109999000D01*
X128254000Y-109966000D01*
X128221000Y-109932000D01*
X128191000Y-109896000D01*
X128162000Y-109859000D01*
X128135000Y-109820000D01*
X128111000Y-109780000D01*
X128088000Y-109739000D01*
X128068000Y-109696000D01*
X128050000Y-109653000D01*
X128034000Y-109608000D01*
X128021000Y-109563000D01*
X128010000Y-109517000D01*
X128001000Y-109471000D01*
X127995000Y-109424000D01*
X127991000Y-109377000D01*
X127990000Y-109330000D01*
X127991000Y-109283000D01*
X127995000Y-109236000D01*
X128001000Y-109189000D01*
X128010000Y-109143000D01*
X128021000Y-109097000D01*
X128034000Y-109052000D01*
X128050000Y-109007000D01*
X128068000Y-108964000D01*
X128088000Y-108921000D01*
X128111000Y-108880000D01*
X128135000Y-108840000D01*
X128162000Y-108801000D01*
X128191000Y-108764000D01*
X128221000Y-108728000D01*
X128254000Y-108694000D01*
X128288000Y-108661000D01*
X128324000Y-108631000D01*
X128361000Y-108602000D01*
X128400000Y-108575000D01*
X128440000Y-108551000D01*
X128481000Y-108528000D01*
X128524000Y-108508000D01*
X128567000Y-108490000D01*
X128612000Y-108474000D01*
X128657000Y-108461000D01*
X128703000Y-108450000D01*
X128749000Y-108441000D01*
X128796000Y-108435000D01*
X128843000Y-108431000D01*
X128890000Y-108430000D01*
X131390000Y-108430000D01*
X131390000Y-110230000D01*
G37*
X131390000Y-107690000D02*
X128890000Y-107690000D01*
X128843000Y-107689000D01*
X128796000Y-107685000D01*
X128749000Y-107679000D01*
X128703000Y-107670000D01*
X128657000Y-107659000D01*
X128612000Y-107646000D01*
X128567000Y-107630000D01*
X128524000Y-107612000D01*
X128481000Y-107592000D01*
X128440000Y-107569000D01*
X128400000Y-107545000D01*
X128361000Y-107518000D01*
X128324000Y-107489000D01*
X128288000Y-107459000D01*
X128254000Y-107426000D01*
X128221000Y-107392000D01*
X128191000Y-107356000D01*
X128162000Y-107319000D01*
X128135000Y-107280000D01*
X128111000Y-107240000D01*
X128088000Y-107199000D01*
X128068000Y-107156000D01*
X128050000Y-107113000D01*
X128034000Y-107068000D01*
X128021000Y-107023000D01*
X128010000Y-106977000D01*
X128001000Y-106931000D01*
X127995000Y-106884000D01*
X127991000Y-106837000D01*
X127990000Y-106790000D01*
X127991000Y-106743000D01*
X127995000Y-106696000D01*
X128001000Y-106649000D01*
X128010000Y-106603000D01*
X128021000Y-106557000D01*
X128034000Y-106512000D01*
X128050000Y-106467000D01*
X128068000Y-106424000D01*
X128088000Y-106381000D01*
X128111000Y-106340000D01*
X128135000Y-106300000D01*
X128162000Y-106261000D01*
X128191000Y-106224000D01*
X128221000Y-106188000D01*
X128254000Y-106154000D01*
X128288000Y-106121000D01*
X128324000Y-106091000D01*
X128361000Y-106062000D01*
X128400000Y-106035000D01*
X128440000Y-106011000D01*
X128481000Y-105988000D01*
X128524000Y-105968000D01*
X128567000Y-105950000D01*
X128612000Y-105934000D01*
X128657000Y-105921000D01*
X128703000Y-105910000D01*
X128749000Y-105901000D01*
X128796000Y-105895000D01*
X128843000Y-105891000D01*
X128890000Y-105890000D01*
X131390000Y-105890000D01*
X131390000Y-107690000D01*
G36*
X131390000Y-107690000D02*
G01*
X128890000Y-107690000D01*
X128843000Y-107689000D01*
X128796000Y-107685000D01*
X128749000Y-107679000D01*
X128703000Y-107670000D01*
X128657000Y-107659000D01*
X128612000Y-107646000D01*
X128567000Y-107630000D01*
X128524000Y-107612000D01*
X128481000Y-107592000D01*
X128440000Y-107569000D01*
X128400000Y-107545000D01*
X128361000Y-107518000D01*
X128324000Y-107489000D01*
X128288000Y-107459000D01*
X128254000Y-107426000D01*
X128221000Y-107392000D01*
X128191000Y-107356000D01*
X128162000Y-107319000D01*
X128135000Y-107280000D01*
X128111000Y-107240000D01*
X128088000Y-107199000D01*
X128068000Y-107156000D01*
X128050000Y-107113000D01*
X128034000Y-107068000D01*
X128021000Y-107023000D01*
X128010000Y-106977000D01*
X128001000Y-106931000D01*
X127995000Y-106884000D01*
X127991000Y-106837000D01*
X127990000Y-106790000D01*
X127991000Y-106743000D01*
X127995000Y-106696000D01*
X128001000Y-106649000D01*
X128010000Y-106603000D01*
X128021000Y-106557000D01*
X128034000Y-106512000D01*
X128050000Y-106467000D01*
X128068000Y-106424000D01*
X128088000Y-106381000D01*
X128111000Y-106340000D01*
X128135000Y-106300000D01*
X128162000Y-106261000D01*
X128191000Y-106224000D01*
X128221000Y-106188000D01*
X128254000Y-106154000D01*
X128288000Y-106121000D01*
X128324000Y-106091000D01*
X128361000Y-106062000D01*
X128400000Y-106035000D01*
X128440000Y-106011000D01*
X128481000Y-105988000D01*
X128524000Y-105968000D01*
X128567000Y-105950000D01*
X128612000Y-105934000D01*
X128657000Y-105921000D01*
X128703000Y-105910000D01*
X128749000Y-105901000D01*
X128796000Y-105895000D01*
X128843000Y-105891000D01*
X128890000Y-105890000D01*
X131390000Y-105890000D01*
X131390000Y-107690000D01*
G37*
X131390000Y-102610000D02*
X128890000Y-102610000D01*
X128843000Y-102609000D01*
X128796000Y-102605000D01*
X128749000Y-102599000D01*
X128703000Y-102590000D01*
X128657000Y-102579000D01*
X128612000Y-102566000D01*
X128567000Y-102550000D01*
X128524000Y-102532000D01*
X128481000Y-102512000D01*
X128440000Y-102489000D01*
X128400000Y-102465000D01*
X128361000Y-102438000D01*
X128324000Y-102409000D01*
X128288000Y-102379000D01*
X128254000Y-102346000D01*
X128221000Y-102312000D01*
X128191000Y-102276000D01*
X128162000Y-102239000D01*
X128135000Y-102200000D01*
X128111000Y-102160000D01*
X128088000Y-102119000D01*
X128068000Y-102076000D01*
X128050000Y-102033000D01*
X128034000Y-101988000D01*
X128021000Y-101943000D01*
X128010000Y-101897000D01*
X128001000Y-101851000D01*
X127995000Y-101804000D01*
X127991000Y-101757000D01*
X127990000Y-101710000D01*
X127991000Y-101663000D01*
X127995000Y-101616000D01*
X128001000Y-101569000D01*
X128010000Y-101523000D01*
X128021000Y-101477000D01*
X128034000Y-101432000D01*
X128050000Y-101387000D01*
X128068000Y-101344000D01*
X128088000Y-101301000D01*
X128111000Y-101260000D01*
X128135000Y-101220000D01*
X128162000Y-101181000D01*
X128191000Y-101144000D01*
X128221000Y-101108000D01*
X128254000Y-101074000D01*
X128288000Y-101041000D01*
X128324000Y-101011000D01*
X128361000Y-100982000D01*
X128400000Y-100955000D01*
X128440000Y-100931000D01*
X128481000Y-100908000D01*
X128524000Y-100888000D01*
X128567000Y-100870000D01*
X128612000Y-100854000D01*
X128657000Y-100841000D01*
X128703000Y-100830000D01*
X128749000Y-100821000D01*
X128796000Y-100815000D01*
X128843000Y-100811000D01*
X128890000Y-100810000D01*
X131390000Y-100810000D01*
X131390000Y-102610000D01*
G36*
X131390000Y-102610000D02*
G01*
X128890000Y-102610000D01*
X128843000Y-102609000D01*
X128796000Y-102605000D01*
X128749000Y-102599000D01*
X128703000Y-102590000D01*
X128657000Y-102579000D01*
X128612000Y-102566000D01*
X128567000Y-102550000D01*
X128524000Y-102532000D01*
X128481000Y-102512000D01*
X128440000Y-102489000D01*
X128400000Y-102465000D01*
X128361000Y-102438000D01*
X128324000Y-102409000D01*
X128288000Y-102379000D01*
X128254000Y-102346000D01*
X128221000Y-102312000D01*
X128191000Y-102276000D01*
X128162000Y-102239000D01*
X128135000Y-102200000D01*
X128111000Y-102160000D01*
X128088000Y-102119000D01*
X128068000Y-102076000D01*
X128050000Y-102033000D01*
X128034000Y-101988000D01*
X128021000Y-101943000D01*
X128010000Y-101897000D01*
X128001000Y-101851000D01*
X127995000Y-101804000D01*
X127991000Y-101757000D01*
X127990000Y-101710000D01*
X127991000Y-101663000D01*
X127995000Y-101616000D01*
X128001000Y-101569000D01*
X128010000Y-101523000D01*
X128021000Y-101477000D01*
X128034000Y-101432000D01*
X128050000Y-101387000D01*
X128068000Y-101344000D01*
X128088000Y-101301000D01*
X128111000Y-101260000D01*
X128135000Y-101220000D01*
X128162000Y-101181000D01*
X128191000Y-101144000D01*
X128221000Y-101108000D01*
X128254000Y-101074000D01*
X128288000Y-101041000D01*
X128324000Y-101011000D01*
X128361000Y-100982000D01*
X128400000Y-100955000D01*
X128440000Y-100931000D01*
X128481000Y-100908000D01*
X128524000Y-100888000D01*
X128567000Y-100870000D01*
X128612000Y-100854000D01*
X128657000Y-100841000D01*
X128703000Y-100830000D01*
X128749000Y-100821000D01*
X128796000Y-100815000D01*
X128843000Y-100811000D01*
X128890000Y-100810000D01*
X131390000Y-100810000D01*
X131390000Y-102610000D01*
G37*
X131390000Y-100070000D02*
X128890000Y-100070000D01*
X128843000Y-100069000D01*
X128796000Y-100065000D01*
X128749000Y-100059000D01*
X128703000Y-100050000D01*
X128657000Y-100039000D01*
X128612000Y-100026000D01*
X128567000Y-100010000D01*
X128524000Y-99992000D01*
X128481000Y-99972000D01*
X128440000Y-99949000D01*
X128400000Y-99925000D01*
X128361000Y-99898000D01*
X128324000Y-99869000D01*
X128288000Y-99839000D01*
X128254000Y-99806000D01*
X128221000Y-99772000D01*
X128191000Y-99736000D01*
X128162000Y-99699000D01*
X128135000Y-99660000D01*
X128111000Y-99620000D01*
X128088000Y-99579000D01*
X128068000Y-99536000D01*
X128050000Y-99493000D01*
X128034000Y-99448000D01*
X128021000Y-99403000D01*
X128010000Y-99357000D01*
X128001000Y-99311000D01*
X127995000Y-99264000D01*
X127991000Y-99217000D01*
X127990000Y-99170000D01*
X127991000Y-99123000D01*
X127995000Y-99076000D01*
X128001000Y-99029000D01*
X128010000Y-98983000D01*
X128021000Y-98937000D01*
X128034000Y-98892000D01*
X128050000Y-98847000D01*
X128068000Y-98804000D01*
X128088000Y-98761000D01*
X128111000Y-98720000D01*
X128135000Y-98680000D01*
X128162000Y-98641000D01*
X128191000Y-98604000D01*
X128221000Y-98568000D01*
X128254000Y-98534000D01*
X128288000Y-98501000D01*
X128324000Y-98471000D01*
X128361000Y-98442000D01*
X128400000Y-98415000D01*
X128440000Y-98391000D01*
X128481000Y-98368000D01*
X128524000Y-98348000D01*
X128567000Y-98330000D01*
X128612000Y-98314000D01*
X128657000Y-98301000D01*
X128703000Y-98290000D01*
X128749000Y-98281000D01*
X128796000Y-98275000D01*
X128843000Y-98271000D01*
X128890000Y-98270000D01*
X131390000Y-98270000D01*
X131390000Y-100070000D01*
G36*
X131390000Y-100070000D02*
G01*
X128890000Y-100070000D01*
X128843000Y-100069000D01*
X128796000Y-100065000D01*
X128749000Y-100059000D01*
X128703000Y-100050000D01*
X128657000Y-100039000D01*
X128612000Y-100026000D01*
X128567000Y-100010000D01*
X128524000Y-99992000D01*
X128481000Y-99972000D01*
X128440000Y-99949000D01*
X128400000Y-99925000D01*
X128361000Y-99898000D01*
X128324000Y-99869000D01*
X128288000Y-99839000D01*
X128254000Y-99806000D01*
X128221000Y-99772000D01*
X128191000Y-99736000D01*
X128162000Y-99699000D01*
X128135000Y-99660000D01*
X128111000Y-99620000D01*
X128088000Y-99579000D01*
X128068000Y-99536000D01*
X128050000Y-99493000D01*
X128034000Y-99448000D01*
X128021000Y-99403000D01*
X128010000Y-99357000D01*
X128001000Y-99311000D01*
X127995000Y-99264000D01*
X127991000Y-99217000D01*
X127990000Y-99170000D01*
X127991000Y-99123000D01*
X127995000Y-99076000D01*
X128001000Y-99029000D01*
X128010000Y-98983000D01*
X128021000Y-98937000D01*
X128034000Y-98892000D01*
X128050000Y-98847000D01*
X128068000Y-98804000D01*
X128088000Y-98761000D01*
X128111000Y-98720000D01*
X128135000Y-98680000D01*
X128162000Y-98641000D01*
X128191000Y-98604000D01*
X128221000Y-98568000D01*
X128254000Y-98534000D01*
X128288000Y-98501000D01*
X128324000Y-98471000D01*
X128361000Y-98442000D01*
X128400000Y-98415000D01*
X128440000Y-98391000D01*
X128481000Y-98368000D01*
X128524000Y-98348000D01*
X128567000Y-98330000D01*
X128612000Y-98314000D01*
X128657000Y-98301000D01*
X128703000Y-98290000D01*
X128749000Y-98281000D01*
X128796000Y-98275000D01*
X128843000Y-98271000D01*
X128890000Y-98270000D01*
X131390000Y-98270000D01*
X131390000Y-100070000D01*
G37*
X131390000Y-97530000D02*
X128890000Y-97530000D01*
X128843000Y-97529000D01*
X128796000Y-97525000D01*
X128749000Y-97519000D01*
X128703000Y-97510000D01*
X128657000Y-97499000D01*
X128612000Y-97486000D01*
X128567000Y-97470000D01*
X128524000Y-97452000D01*
X128481000Y-97432000D01*
X128440000Y-97409000D01*
X128400000Y-97385000D01*
X128361000Y-97358000D01*
X128324000Y-97329000D01*
X128288000Y-97299000D01*
X128254000Y-97266000D01*
X128221000Y-97232000D01*
X128191000Y-97196000D01*
X128162000Y-97159000D01*
X128135000Y-97120000D01*
X128111000Y-97080000D01*
X128088000Y-97039000D01*
X128068000Y-96996000D01*
X128050000Y-96953000D01*
X128034000Y-96908000D01*
X128021000Y-96863000D01*
X128010000Y-96817000D01*
X128001000Y-96771000D01*
X127995000Y-96724000D01*
X127991000Y-96677000D01*
X127990000Y-96630000D01*
X127991000Y-96583000D01*
X127995000Y-96536000D01*
X128001000Y-96489000D01*
X128010000Y-96443000D01*
X128021000Y-96397000D01*
X128034000Y-96352000D01*
X128050000Y-96307000D01*
X128068000Y-96264000D01*
X128088000Y-96221000D01*
X128111000Y-96180000D01*
X128135000Y-96140000D01*
X128162000Y-96101000D01*
X128191000Y-96064000D01*
X128221000Y-96028000D01*
X128254000Y-95994000D01*
X128288000Y-95961000D01*
X128324000Y-95931000D01*
X128361000Y-95902000D01*
X128400000Y-95875000D01*
X128440000Y-95851000D01*
X128481000Y-95828000D01*
X128524000Y-95808000D01*
X128567000Y-95790000D01*
X128612000Y-95774000D01*
X128657000Y-95761000D01*
X128703000Y-95750000D01*
X128749000Y-95741000D01*
X128796000Y-95735000D01*
X128843000Y-95731000D01*
X128890000Y-95730000D01*
X131390000Y-95730000D01*
X131390000Y-97530000D01*
G36*
X131390000Y-97530000D02*
G01*
X128890000Y-97530000D01*
X128843000Y-97529000D01*
X128796000Y-97525000D01*
X128749000Y-97519000D01*
X128703000Y-97510000D01*
X128657000Y-97499000D01*
X128612000Y-97486000D01*
X128567000Y-97470000D01*
X128524000Y-97452000D01*
X128481000Y-97432000D01*
X128440000Y-97409000D01*
X128400000Y-97385000D01*
X128361000Y-97358000D01*
X128324000Y-97329000D01*
X128288000Y-97299000D01*
X128254000Y-97266000D01*
X128221000Y-97232000D01*
X128191000Y-97196000D01*
X128162000Y-97159000D01*
X128135000Y-97120000D01*
X128111000Y-97080000D01*
X128088000Y-97039000D01*
X128068000Y-96996000D01*
X128050000Y-96953000D01*
X128034000Y-96908000D01*
X128021000Y-96863000D01*
X128010000Y-96817000D01*
X128001000Y-96771000D01*
X127995000Y-96724000D01*
X127991000Y-96677000D01*
X127990000Y-96630000D01*
X127991000Y-96583000D01*
X127995000Y-96536000D01*
X128001000Y-96489000D01*
X128010000Y-96443000D01*
X128021000Y-96397000D01*
X128034000Y-96352000D01*
X128050000Y-96307000D01*
X128068000Y-96264000D01*
X128088000Y-96221000D01*
X128111000Y-96180000D01*
X128135000Y-96140000D01*
X128162000Y-96101000D01*
X128191000Y-96064000D01*
X128221000Y-96028000D01*
X128254000Y-95994000D01*
X128288000Y-95961000D01*
X128324000Y-95931000D01*
X128361000Y-95902000D01*
X128400000Y-95875000D01*
X128440000Y-95851000D01*
X128481000Y-95828000D01*
X128524000Y-95808000D01*
X128567000Y-95790000D01*
X128612000Y-95774000D01*
X128657000Y-95761000D01*
X128703000Y-95750000D01*
X128749000Y-95741000D01*
X128796000Y-95735000D01*
X128843000Y-95731000D01*
X128890000Y-95730000D01*
X131390000Y-95730000D01*
X131390000Y-97530000D01*
G37*
X131390000Y-94990000D02*
X128890000Y-94990000D01*
X128843000Y-94989000D01*
X128796000Y-94985000D01*
X128749000Y-94979000D01*
X128703000Y-94970000D01*
X128657000Y-94959000D01*
X128612000Y-94946000D01*
X128567000Y-94930000D01*
X128524000Y-94912000D01*
X128481000Y-94892000D01*
X128440000Y-94869000D01*
X128400000Y-94845000D01*
X128361000Y-94818000D01*
X128324000Y-94789000D01*
X128288000Y-94759000D01*
X128254000Y-94726000D01*
X128221000Y-94692000D01*
X128191000Y-94656000D01*
X128162000Y-94619000D01*
X128135000Y-94580000D01*
X128111000Y-94540000D01*
X128088000Y-94499000D01*
X128068000Y-94456000D01*
X128050000Y-94413000D01*
X128034000Y-94368000D01*
X128021000Y-94323000D01*
X128010000Y-94277000D01*
X128001000Y-94231000D01*
X127995000Y-94184000D01*
X127991000Y-94137000D01*
X127990000Y-94090000D01*
X127991000Y-94043000D01*
X127995000Y-93996000D01*
X128001000Y-93949000D01*
X128010000Y-93903000D01*
X128021000Y-93857000D01*
X128034000Y-93812000D01*
X128050000Y-93767000D01*
X128068000Y-93724000D01*
X128088000Y-93681000D01*
X128111000Y-93640000D01*
X128135000Y-93600000D01*
X128162000Y-93561000D01*
X128191000Y-93524000D01*
X128221000Y-93488000D01*
X128254000Y-93454000D01*
X128288000Y-93421000D01*
X128324000Y-93391000D01*
X128361000Y-93362000D01*
X128400000Y-93335000D01*
X128440000Y-93311000D01*
X128481000Y-93288000D01*
X128524000Y-93268000D01*
X128567000Y-93250000D01*
X128612000Y-93234000D01*
X128657000Y-93221000D01*
X128703000Y-93210000D01*
X128749000Y-93201000D01*
X128796000Y-93195000D01*
X128843000Y-93191000D01*
X128890000Y-93190000D01*
X131390000Y-93190000D01*
X131390000Y-94990000D01*
G36*
X131390000Y-94990000D02*
G01*
X128890000Y-94990000D01*
X128843000Y-94989000D01*
X128796000Y-94985000D01*
X128749000Y-94979000D01*
X128703000Y-94970000D01*
X128657000Y-94959000D01*
X128612000Y-94946000D01*
X128567000Y-94930000D01*
X128524000Y-94912000D01*
X128481000Y-94892000D01*
X128440000Y-94869000D01*
X128400000Y-94845000D01*
X128361000Y-94818000D01*
X128324000Y-94789000D01*
X128288000Y-94759000D01*
X128254000Y-94726000D01*
X128221000Y-94692000D01*
X128191000Y-94656000D01*
X128162000Y-94619000D01*
X128135000Y-94580000D01*
X128111000Y-94540000D01*
X128088000Y-94499000D01*
X128068000Y-94456000D01*
X128050000Y-94413000D01*
X128034000Y-94368000D01*
X128021000Y-94323000D01*
X128010000Y-94277000D01*
X128001000Y-94231000D01*
X127995000Y-94184000D01*
X127991000Y-94137000D01*
X127990000Y-94090000D01*
X127991000Y-94043000D01*
X127995000Y-93996000D01*
X128001000Y-93949000D01*
X128010000Y-93903000D01*
X128021000Y-93857000D01*
X128034000Y-93812000D01*
X128050000Y-93767000D01*
X128068000Y-93724000D01*
X128088000Y-93681000D01*
X128111000Y-93640000D01*
X128135000Y-93600000D01*
X128162000Y-93561000D01*
X128191000Y-93524000D01*
X128221000Y-93488000D01*
X128254000Y-93454000D01*
X128288000Y-93421000D01*
X128324000Y-93391000D01*
X128361000Y-93362000D01*
X128400000Y-93335000D01*
X128440000Y-93311000D01*
X128481000Y-93288000D01*
X128524000Y-93268000D01*
X128567000Y-93250000D01*
X128612000Y-93234000D01*
X128657000Y-93221000D01*
X128703000Y-93210000D01*
X128749000Y-93201000D01*
X128796000Y-93195000D01*
X128843000Y-93191000D01*
X128890000Y-93190000D01*
X131390000Y-93190000D01*
X131390000Y-94990000D01*
G37*
X131390000Y-89910000D02*
X128890000Y-89910000D01*
X128843000Y-89909000D01*
X128796000Y-89905000D01*
X128749000Y-89899000D01*
X128703000Y-89890000D01*
X128657000Y-89879000D01*
X128612000Y-89866000D01*
X128567000Y-89850000D01*
X128524000Y-89832000D01*
X128481000Y-89812000D01*
X128440000Y-89789000D01*
X128400000Y-89765000D01*
X128361000Y-89738000D01*
X128324000Y-89709000D01*
X128288000Y-89679000D01*
X128254000Y-89646000D01*
X128221000Y-89612000D01*
X128191000Y-89576000D01*
X128162000Y-89539000D01*
X128135000Y-89500000D01*
X128111000Y-89460000D01*
X128088000Y-89419000D01*
X128068000Y-89376000D01*
X128050000Y-89333000D01*
X128034000Y-89288000D01*
X128021000Y-89243000D01*
X128010000Y-89197000D01*
X128001000Y-89151000D01*
X127995000Y-89104000D01*
X127991000Y-89057000D01*
X127990000Y-89010000D01*
X127991000Y-88963000D01*
X127995000Y-88916000D01*
X128001000Y-88869000D01*
X128010000Y-88823000D01*
X128021000Y-88777000D01*
X128034000Y-88732000D01*
X128050000Y-88687000D01*
X128068000Y-88644000D01*
X128088000Y-88601000D01*
X128111000Y-88560000D01*
X128135000Y-88520000D01*
X128162000Y-88481000D01*
X128191000Y-88444000D01*
X128221000Y-88408000D01*
X128254000Y-88374000D01*
X128288000Y-88341000D01*
X128324000Y-88311000D01*
X128361000Y-88282000D01*
X128400000Y-88255000D01*
X128440000Y-88231000D01*
X128481000Y-88208000D01*
X128524000Y-88188000D01*
X128567000Y-88170000D01*
X128612000Y-88154000D01*
X128657000Y-88141000D01*
X128703000Y-88130000D01*
X128749000Y-88121000D01*
X128796000Y-88115000D01*
X128843000Y-88111000D01*
X128890000Y-88110000D01*
X131390000Y-88110000D01*
X131390000Y-89910000D01*
G36*
X131390000Y-89910000D02*
G01*
X128890000Y-89910000D01*
X128843000Y-89909000D01*
X128796000Y-89905000D01*
X128749000Y-89899000D01*
X128703000Y-89890000D01*
X128657000Y-89879000D01*
X128612000Y-89866000D01*
X128567000Y-89850000D01*
X128524000Y-89832000D01*
X128481000Y-89812000D01*
X128440000Y-89789000D01*
X128400000Y-89765000D01*
X128361000Y-89738000D01*
X128324000Y-89709000D01*
X128288000Y-89679000D01*
X128254000Y-89646000D01*
X128221000Y-89612000D01*
X128191000Y-89576000D01*
X128162000Y-89539000D01*
X128135000Y-89500000D01*
X128111000Y-89460000D01*
X128088000Y-89419000D01*
X128068000Y-89376000D01*
X128050000Y-89333000D01*
X128034000Y-89288000D01*
X128021000Y-89243000D01*
X128010000Y-89197000D01*
X128001000Y-89151000D01*
X127995000Y-89104000D01*
X127991000Y-89057000D01*
X127990000Y-89010000D01*
X127991000Y-88963000D01*
X127995000Y-88916000D01*
X128001000Y-88869000D01*
X128010000Y-88823000D01*
X128021000Y-88777000D01*
X128034000Y-88732000D01*
X128050000Y-88687000D01*
X128068000Y-88644000D01*
X128088000Y-88601000D01*
X128111000Y-88560000D01*
X128135000Y-88520000D01*
X128162000Y-88481000D01*
X128191000Y-88444000D01*
X128221000Y-88408000D01*
X128254000Y-88374000D01*
X128288000Y-88341000D01*
X128324000Y-88311000D01*
X128361000Y-88282000D01*
X128400000Y-88255000D01*
X128440000Y-88231000D01*
X128481000Y-88208000D01*
X128524000Y-88188000D01*
X128567000Y-88170000D01*
X128612000Y-88154000D01*
X128657000Y-88141000D01*
X128703000Y-88130000D01*
X128749000Y-88121000D01*
X128796000Y-88115000D01*
X128843000Y-88111000D01*
X128890000Y-88110000D01*
X131390000Y-88110000D01*
X131390000Y-89910000D01*
G37*
X131390000Y-87370000D02*
X128890000Y-87370000D01*
X128843000Y-87369000D01*
X128796000Y-87365000D01*
X128749000Y-87359000D01*
X128703000Y-87350000D01*
X128657000Y-87339000D01*
X128612000Y-87326000D01*
X128567000Y-87310000D01*
X128524000Y-87292000D01*
X128481000Y-87272000D01*
X128440000Y-87249000D01*
X128400000Y-87225000D01*
X128361000Y-87198000D01*
X128324000Y-87169000D01*
X128288000Y-87139000D01*
X128254000Y-87106000D01*
X128221000Y-87072000D01*
X128191000Y-87036000D01*
X128162000Y-86999000D01*
X128135000Y-86960000D01*
X128111000Y-86920000D01*
X128088000Y-86879000D01*
X128068000Y-86836000D01*
X128050000Y-86793000D01*
X128034000Y-86748000D01*
X128021000Y-86703000D01*
X128010000Y-86657000D01*
X128001000Y-86611000D01*
X127995000Y-86564000D01*
X127991000Y-86517000D01*
X127990000Y-86470000D01*
X127991000Y-86423000D01*
X127995000Y-86376000D01*
X128001000Y-86329000D01*
X128010000Y-86283000D01*
X128021000Y-86237000D01*
X128034000Y-86192000D01*
X128050000Y-86147000D01*
X128068000Y-86104000D01*
X128088000Y-86061000D01*
X128111000Y-86020000D01*
X128135000Y-85980000D01*
X128162000Y-85941000D01*
X128191000Y-85904000D01*
X128221000Y-85868000D01*
X128254000Y-85834000D01*
X128288000Y-85801000D01*
X128324000Y-85771000D01*
X128361000Y-85742000D01*
X128400000Y-85715000D01*
X128440000Y-85691000D01*
X128481000Y-85668000D01*
X128524000Y-85648000D01*
X128567000Y-85630000D01*
X128612000Y-85614000D01*
X128657000Y-85601000D01*
X128703000Y-85590000D01*
X128749000Y-85581000D01*
X128796000Y-85575000D01*
X128843000Y-85571000D01*
X128890000Y-85570000D01*
X131390000Y-85570000D01*
X131390000Y-87370000D01*
G36*
X131390000Y-87370000D02*
G01*
X128890000Y-87370000D01*
X128843000Y-87369000D01*
X128796000Y-87365000D01*
X128749000Y-87359000D01*
X128703000Y-87350000D01*
X128657000Y-87339000D01*
X128612000Y-87326000D01*
X128567000Y-87310000D01*
X128524000Y-87292000D01*
X128481000Y-87272000D01*
X128440000Y-87249000D01*
X128400000Y-87225000D01*
X128361000Y-87198000D01*
X128324000Y-87169000D01*
X128288000Y-87139000D01*
X128254000Y-87106000D01*
X128221000Y-87072000D01*
X128191000Y-87036000D01*
X128162000Y-86999000D01*
X128135000Y-86960000D01*
X128111000Y-86920000D01*
X128088000Y-86879000D01*
X128068000Y-86836000D01*
X128050000Y-86793000D01*
X128034000Y-86748000D01*
X128021000Y-86703000D01*
X128010000Y-86657000D01*
X128001000Y-86611000D01*
X127995000Y-86564000D01*
X127991000Y-86517000D01*
X127990000Y-86470000D01*
X127991000Y-86423000D01*
X127995000Y-86376000D01*
X128001000Y-86329000D01*
X128010000Y-86283000D01*
X128021000Y-86237000D01*
X128034000Y-86192000D01*
X128050000Y-86147000D01*
X128068000Y-86104000D01*
X128088000Y-86061000D01*
X128111000Y-86020000D01*
X128135000Y-85980000D01*
X128162000Y-85941000D01*
X128191000Y-85904000D01*
X128221000Y-85868000D01*
X128254000Y-85834000D01*
X128288000Y-85801000D01*
X128324000Y-85771000D01*
X128361000Y-85742000D01*
X128400000Y-85715000D01*
X128440000Y-85691000D01*
X128481000Y-85668000D01*
X128524000Y-85648000D01*
X128567000Y-85630000D01*
X128612000Y-85614000D01*
X128657000Y-85601000D01*
X128703000Y-85590000D01*
X128749000Y-85581000D01*
X128796000Y-85575000D01*
X128843000Y-85571000D01*
X128890000Y-85570000D01*
X131390000Y-85570000D01*
X131390000Y-87370000D01*
G37*
X131390000Y-84830000D02*
X128890000Y-84830000D01*
X128843000Y-84829000D01*
X128796000Y-84825000D01*
X128749000Y-84819000D01*
X128703000Y-84810000D01*
X128657000Y-84799000D01*
X128612000Y-84786000D01*
X128567000Y-84770000D01*
X128524000Y-84752000D01*
X128481000Y-84732000D01*
X128440000Y-84709000D01*
X128400000Y-84685000D01*
X128361000Y-84658000D01*
X128324000Y-84629000D01*
X128288000Y-84599000D01*
X128254000Y-84566000D01*
X128221000Y-84532000D01*
X128191000Y-84496000D01*
X128162000Y-84459000D01*
X128135000Y-84420000D01*
X128111000Y-84380000D01*
X128088000Y-84339000D01*
X128068000Y-84296000D01*
X128050000Y-84253000D01*
X128034000Y-84208000D01*
X128021000Y-84163000D01*
X128010000Y-84117000D01*
X128001000Y-84071000D01*
X127995000Y-84024000D01*
X127991000Y-83977000D01*
X127990000Y-83930000D01*
X127991000Y-83883000D01*
X127995000Y-83836000D01*
X128001000Y-83789000D01*
X128010000Y-83743000D01*
X128021000Y-83697000D01*
X128034000Y-83652000D01*
X128050000Y-83607000D01*
X128068000Y-83564000D01*
X128088000Y-83521000D01*
X128111000Y-83480000D01*
X128135000Y-83440000D01*
X128162000Y-83401000D01*
X128191000Y-83364000D01*
X128221000Y-83328000D01*
X128254000Y-83294000D01*
X128288000Y-83261000D01*
X128324000Y-83231000D01*
X128361000Y-83202000D01*
X128400000Y-83175000D01*
X128440000Y-83151000D01*
X128481000Y-83128000D01*
X128524000Y-83108000D01*
X128567000Y-83090000D01*
X128612000Y-83074000D01*
X128657000Y-83061000D01*
X128703000Y-83050000D01*
X128749000Y-83041000D01*
X128796000Y-83035000D01*
X128843000Y-83031000D01*
X128890000Y-83030000D01*
X131390000Y-83030000D01*
X131390000Y-84830000D01*
G36*
X131390000Y-84830000D02*
G01*
X128890000Y-84830000D01*
X128843000Y-84829000D01*
X128796000Y-84825000D01*
X128749000Y-84819000D01*
X128703000Y-84810000D01*
X128657000Y-84799000D01*
X128612000Y-84786000D01*
X128567000Y-84770000D01*
X128524000Y-84752000D01*
X128481000Y-84732000D01*
X128440000Y-84709000D01*
X128400000Y-84685000D01*
X128361000Y-84658000D01*
X128324000Y-84629000D01*
X128288000Y-84599000D01*
X128254000Y-84566000D01*
X128221000Y-84532000D01*
X128191000Y-84496000D01*
X128162000Y-84459000D01*
X128135000Y-84420000D01*
X128111000Y-84380000D01*
X128088000Y-84339000D01*
X128068000Y-84296000D01*
X128050000Y-84253000D01*
X128034000Y-84208000D01*
X128021000Y-84163000D01*
X128010000Y-84117000D01*
X128001000Y-84071000D01*
X127995000Y-84024000D01*
X127991000Y-83977000D01*
X127990000Y-83930000D01*
X127991000Y-83883000D01*
X127995000Y-83836000D01*
X128001000Y-83789000D01*
X128010000Y-83743000D01*
X128021000Y-83697000D01*
X128034000Y-83652000D01*
X128050000Y-83607000D01*
X128068000Y-83564000D01*
X128088000Y-83521000D01*
X128111000Y-83480000D01*
X128135000Y-83440000D01*
X128162000Y-83401000D01*
X128191000Y-83364000D01*
X128221000Y-83328000D01*
X128254000Y-83294000D01*
X128288000Y-83261000D01*
X128324000Y-83231000D01*
X128361000Y-83202000D01*
X128400000Y-83175000D01*
X128440000Y-83151000D01*
X128481000Y-83128000D01*
X128524000Y-83108000D01*
X128567000Y-83090000D01*
X128612000Y-83074000D01*
X128657000Y-83061000D01*
X128703000Y-83050000D01*
X128749000Y-83041000D01*
X128796000Y-83035000D01*
X128843000Y-83031000D01*
X128890000Y-83030000D01*
X131390000Y-83030000D01*
X131390000Y-84830000D01*
G37*
X131390000Y-82290000D02*
X128890000Y-82290000D01*
X128843000Y-82289000D01*
X128796000Y-82285000D01*
X128749000Y-82279000D01*
X128703000Y-82270000D01*
X128657000Y-82259000D01*
X128612000Y-82246000D01*
X128567000Y-82230000D01*
X128524000Y-82212000D01*
X128481000Y-82192000D01*
X128440000Y-82169000D01*
X128400000Y-82145000D01*
X128361000Y-82118000D01*
X128324000Y-82089000D01*
X128288000Y-82059000D01*
X128254000Y-82026000D01*
X128221000Y-81992000D01*
X128191000Y-81956000D01*
X128162000Y-81919000D01*
X128135000Y-81880000D01*
X128111000Y-81840000D01*
X128088000Y-81799000D01*
X128068000Y-81756000D01*
X128050000Y-81713000D01*
X128034000Y-81668000D01*
X128021000Y-81623000D01*
X128010000Y-81577000D01*
X128001000Y-81531000D01*
X127995000Y-81484000D01*
X127991000Y-81437000D01*
X127990000Y-81390000D01*
X127991000Y-81343000D01*
X127995000Y-81296000D01*
X128001000Y-81249000D01*
X128010000Y-81203000D01*
X128021000Y-81157000D01*
X128034000Y-81112000D01*
X128050000Y-81067000D01*
X128068000Y-81024000D01*
X128088000Y-80981000D01*
X128111000Y-80940000D01*
X128135000Y-80900000D01*
X128162000Y-80861000D01*
X128191000Y-80824000D01*
X128221000Y-80788000D01*
X128254000Y-80754000D01*
X128288000Y-80721000D01*
X128324000Y-80691000D01*
X128361000Y-80662000D01*
X128400000Y-80635000D01*
X128440000Y-80611000D01*
X128481000Y-80588000D01*
X128524000Y-80568000D01*
X128567000Y-80550000D01*
X128612000Y-80534000D01*
X128657000Y-80521000D01*
X128703000Y-80510000D01*
X128749000Y-80501000D01*
X128796000Y-80495000D01*
X128843000Y-80491000D01*
X128890000Y-80490000D01*
X131390000Y-80490000D01*
X131390000Y-82290000D01*
G36*
X131390000Y-82290000D02*
G01*
X128890000Y-82290000D01*
X128843000Y-82289000D01*
X128796000Y-82285000D01*
X128749000Y-82279000D01*
X128703000Y-82270000D01*
X128657000Y-82259000D01*
X128612000Y-82246000D01*
X128567000Y-82230000D01*
X128524000Y-82212000D01*
X128481000Y-82192000D01*
X128440000Y-82169000D01*
X128400000Y-82145000D01*
X128361000Y-82118000D01*
X128324000Y-82089000D01*
X128288000Y-82059000D01*
X128254000Y-82026000D01*
X128221000Y-81992000D01*
X128191000Y-81956000D01*
X128162000Y-81919000D01*
X128135000Y-81880000D01*
X128111000Y-81840000D01*
X128088000Y-81799000D01*
X128068000Y-81756000D01*
X128050000Y-81713000D01*
X128034000Y-81668000D01*
X128021000Y-81623000D01*
X128010000Y-81577000D01*
X128001000Y-81531000D01*
X127995000Y-81484000D01*
X127991000Y-81437000D01*
X127990000Y-81390000D01*
X127991000Y-81343000D01*
X127995000Y-81296000D01*
X128001000Y-81249000D01*
X128010000Y-81203000D01*
X128021000Y-81157000D01*
X128034000Y-81112000D01*
X128050000Y-81067000D01*
X128068000Y-81024000D01*
X128088000Y-80981000D01*
X128111000Y-80940000D01*
X128135000Y-80900000D01*
X128162000Y-80861000D01*
X128191000Y-80824000D01*
X128221000Y-80788000D01*
X128254000Y-80754000D01*
X128288000Y-80721000D01*
X128324000Y-80691000D01*
X128361000Y-80662000D01*
X128400000Y-80635000D01*
X128440000Y-80611000D01*
X128481000Y-80588000D01*
X128524000Y-80568000D01*
X128567000Y-80550000D01*
X128612000Y-80534000D01*
X128657000Y-80521000D01*
X128703000Y-80510000D01*
X128749000Y-80501000D01*
X128796000Y-80495000D01*
X128843000Y-80491000D01*
X128890000Y-80490000D01*
X131390000Y-80490000D01*
X131390000Y-82290000D01*
G37*
X131390000Y-77210000D02*
X128890000Y-77210000D01*
X128843000Y-77209000D01*
X128796000Y-77205000D01*
X128749000Y-77199000D01*
X128703000Y-77190000D01*
X128657000Y-77179000D01*
X128612000Y-77166000D01*
X128567000Y-77150000D01*
X128524000Y-77132000D01*
X128481000Y-77112000D01*
X128440000Y-77089000D01*
X128400000Y-77065000D01*
X128361000Y-77038000D01*
X128324000Y-77009000D01*
X128288000Y-76979000D01*
X128254000Y-76946000D01*
X128221000Y-76912000D01*
X128191000Y-76876000D01*
X128162000Y-76839000D01*
X128135000Y-76800000D01*
X128111000Y-76760000D01*
X128088000Y-76719000D01*
X128068000Y-76676000D01*
X128050000Y-76633000D01*
X128034000Y-76588000D01*
X128021000Y-76543000D01*
X128010000Y-76497000D01*
X128001000Y-76451000D01*
X127995000Y-76404000D01*
X127991000Y-76357000D01*
X127990000Y-76310000D01*
X127991000Y-76263000D01*
X127995000Y-76216000D01*
X128001000Y-76169000D01*
X128010000Y-76123000D01*
X128021000Y-76077000D01*
X128034000Y-76032000D01*
X128050000Y-75987000D01*
X128068000Y-75944000D01*
X128088000Y-75901000D01*
X128111000Y-75860000D01*
X128135000Y-75820000D01*
X128162000Y-75781000D01*
X128191000Y-75744000D01*
X128221000Y-75708000D01*
X128254000Y-75674000D01*
X128288000Y-75641000D01*
X128324000Y-75611000D01*
X128361000Y-75582000D01*
X128400000Y-75555000D01*
X128440000Y-75531000D01*
X128481000Y-75508000D01*
X128524000Y-75488000D01*
X128567000Y-75470000D01*
X128612000Y-75454000D01*
X128657000Y-75441000D01*
X128703000Y-75430000D01*
X128749000Y-75421000D01*
X128796000Y-75415000D01*
X128843000Y-75411000D01*
X128890000Y-75410000D01*
X131390000Y-75410000D01*
X131390000Y-77210000D01*
G36*
X131390000Y-77210000D02*
G01*
X128890000Y-77210000D01*
X128843000Y-77209000D01*
X128796000Y-77205000D01*
X128749000Y-77199000D01*
X128703000Y-77190000D01*
X128657000Y-77179000D01*
X128612000Y-77166000D01*
X128567000Y-77150000D01*
X128524000Y-77132000D01*
X128481000Y-77112000D01*
X128440000Y-77089000D01*
X128400000Y-77065000D01*
X128361000Y-77038000D01*
X128324000Y-77009000D01*
X128288000Y-76979000D01*
X128254000Y-76946000D01*
X128221000Y-76912000D01*
X128191000Y-76876000D01*
X128162000Y-76839000D01*
X128135000Y-76800000D01*
X128111000Y-76760000D01*
X128088000Y-76719000D01*
X128068000Y-76676000D01*
X128050000Y-76633000D01*
X128034000Y-76588000D01*
X128021000Y-76543000D01*
X128010000Y-76497000D01*
X128001000Y-76451000D01*
X127995000Y-76404000D01*
X127991000Y-76357000D01*
X127990000Y-76310000D01*
X127991000Y-76263000D01*
X127995000Y-76216000D01*
X128001000Y-76169000D01*
X128010000Y-76123000D01*
X128021000Y-76077000D01*
X128034000Y-76032000D01*
X128050000Y-75987000D01*
X128068000Y-75944000D01*
X128088000Y-75901000D01*
X128111000Y-75860000D01*
X128135000Y-75820000D01*
X128162000Y-75781000D01*
X128191000Y-75744000D01*
X128221000Y-75708000D01*
X128254000Y-75674000D01*
X128288000Y-75641000D01*
X128324000Y-75611000D01*
X128361000Y-75582000D01*
X128400000Y-75555000D01*
X128440000Y-75531000D01*
X128481000Y-75508000D01*
X128524000Y-75488000D01*
X128567000Y-75470000D01*
X128612000Y-75454000D01*
X128657000Y-75441000D01*
X128703000Y-75430000D01*
X128749000Y-75421000D01*
X128796000Y-75415000D01*
X128843000Y-75411000D01*
X128890000Y-75410000D01*
X131390000Y-75410000D01*
X131390000Y-77210000D01*
G37*
X131390000Y-74670000D02*
X128890000Y-74670000D01*
X128843000Y-74669000D01*
X128796000Y-74665000D01*
X128749000Y-74659000D01*
X128703000Y-74650000D01*
X128657000Y-74639000D01*
X128612000Y-74626000D01*
X128567000Y-74610000D01*
X128524000Y-74592000D01*
X128481000Y-74572000D01*
X128440000Y-74549000D01*
X128400000Y-74525000D01*
X128361000Y-74498000D01*
X128324000Y-74469000D01*
X128288000Y-74439000D01*
X128254000Y-74406000D01*
X128221000Y-74372000D01*
X128191000Y-74336000D01*
X128162000Y-74299000D01*
X128135000Y-74260000D01*
X128111000Y-74220000D01*
X128088000Y-74179000D01*
X128068000Y-74136000D01*
X128050000Y-74093000D01*
X128034000Y-74048000D01*
X128021000Y-74003000D01*
X128010000Y-73957000D01*
X128001000Y-73911000D01*
X127995000Y-73864000D01*
X127991000Y-73817000D01*
X127990000Y-73770000D01*
X127991000Y-73723000D01*
X127995000Y-73676000D01*
X128001000Y-73629000D01*
X128010000Y-73583000D01*
X128021000Y-73537000D01*
X128034000Y-73492000D01*
X128050000Y-73447000D01*
X128068000Y-73404000D01*
X128088000Y-73361000D01*
X128111000Y-73320000D01*
X128135000Y-73280000D01*
X128162000Y-73241000D01*
X128191000Y-73204000D01*
X128221000Y-73168000D01*
X128254000Y-73134000D01*
X128288000Y-73101000D01*
X128324000Y-73071000D01*
X128361000Y-73042000D01*
X128400000Y-73015000D01*
X128440000Y-72991000D01*
X128481000Y-72968000D01*
X128524000Y-72948000D01*
X128567000Y-72930000D01*
X128612000Y-72914000D01*
X128657000Y-72901000D01*
X128703000Y-72890000D01*
X128749000Y-72881000D01*
X128796000Y-72875000D01*
X128843000Y-72871000D01*
X128890000Y-72870000D01*
X131390000Y-72870000D01*
X131390000Y-74670000D01*
G36*
X131390000Y-74670000D02*
G01*
X128890000Y-74670000D01*
X128843000Y-74669000D01*
X128796000Y-74665000D01*
X128749000Y-74659000D01*
X128703000Y-74650000D01*
X128657000Y-74639000D01*
X128612000Y-74626000D01*
X128567000Y-74610000D01*
X128524000Y-74592000D01*
X128481000Y-74572000D01*
X128440000Y-74549000D01*
X128400000Y-74525000D01*
X128361000Y-74498000D01*
X128324000Y-74469000D01*
X128288000Y-74439000D01*
X128254000Y-74406000D01*
X128221000Y-74372000D01*
X128191000Y-74336000D01*
X128162000Y-74299000D01*
X128135000Y-74260000D01*
X128111000Y-74220000D01*
X128088000Y-74179000D01*
X128068000Y-74136000D01*
X128050000Y-74093000D01*
X128034000Y-74048000D01*
X128021000Y-74003000D01*
X128010000Y-73957000D01*
X128001000Y-73911000D01*
X127995000Y-73864000D01*
X127991000Y-73817000D01*
X127990000Y-73770000D01*
X127991000Y-73723000D01*
X127995000Y-73676000D01*
X128001000Y-73629000D01*
X128010000Y-73583000D01*
X128021000Y-73537000D01*
X128034000Y-73492000D01*
X128050000Y-73447000D01*
X128068000Y-73404000D01*
X128088000Y-73361000D01*
X128111000Y-73320000D01*
X128135000Y-73280000D01*
X128162000Y-73241000D01*
X128191000Y-73204000D01*
X128221000Y-73168000D01*
X128254000Y-73134000D01*
X128288000Y-73101000D01*
X128324000Y-73071000D01*
X128361000Y-73042000D01*
X128400000Y-73015000D01*
X128440000Y-72991000D01*
X128481000Y-72968000D01*
X128524000Y-72948000D01*
X128567000Y-72930000D01*
X128612000Y-72914000D01*
X128657000Y-72901000D01*
X128703000Y-72890000D01*
X128749000Y-72881000D01*
X128796000Y-72875000D01*
X128843000Y-72871000D01*
X128890000Y-72870000D01*
X131390000Y-72870000D01*
X131390000Y-74670000D01*
G37*
X131390000Y-72130000D02*
X128890000Y-72130000D01*
X128843000Y-72129000D01*
X128796000Y-72125000D01*
X128749000Y-72119000D01*
X128703000Y-72110000D01*
X128657000Y-72099000D01*
X128612000Y-72086000D01*
X128567000Y-72070000D01*
X128524000Y-72052000D01*
X128481000Y-72032000D01*
X128440000Y-72009000D01*
X128400000Y-71985000D01*
X128361000Y-71958000D01*
X128324000Y-71929000D01*
X128288000Y-71899000D01*
X128254000Y-71866000D01*
X128221000Y-71832000D01*
X128191000Y-71796000D01*
X128162000Y-71759000D01*
X128135000Y-71720000D01*
X128111000Y-71680000D01*
X128088000Y-71639000D01*
X128068000Y-71596000D01*
X128050000Y-71553000D01*
X128034000Y-71508000D01*
X128021000Y-71463000D01*
X128010000Y-71417000D01*
X128001000Y-71371000D01*
X127995000Y-71324000D01*
X127991000Y-71277000D01*
X127990000Y-71230000D01*
X127991000Y-71183000D01*
X127995000Y-71136000D01*
X128001000Y-71089000D01*
X128010000Y-71043000D01*
X128021000Y-70997000D01*
X128034000Y-70952000D01*
X128050000Y-70907000D01*
X128068000Y-70864000D01*
X128088000Y-70821000D01*
X128111000Y-70780000D01*
X128135000Y-70740000D01*
X128162000Y-70701000D01*
X128191000Y-70664000D01*
X128221000Y-70628000D01*
X128254000Y-70594000D01*
X128288000Y-70561000D01*
X128324000Y-70531000D01*
X128361000Y-70502000D01*
X128400000Y-70475000D01*
X128440000Y-70451000D01*
X128481000Y-70428000D01*
X128524000Y-70408000D01*
X128567000Y-70390000D01*
X128612000Y-70374000D01*
X128657000Y-70361000D01*
X128703000Y-70350000D01*
X128749000Y-70341000D01*
X128796000Y-70335000D01*
X128843000Y-70331000D01*
X128890000Y-70330000D01*
X131390000Y-70330000D01*
X131390000Y-72130000D01*
G36*
X131390000Y-72130000D02*
G01*
X128890000Y-72130000D01*
X128843000Y-72129000D01*
X128796000Y-72125000D01*
X128749000Y-72119000D01*
X128703000Y-72110000D01*
X128657000Y-72099000D01*
X128612000Y-72086000D01*
X128567000Y-72070000D01*
X128524000Y-72052000D01*
X128481000Y-72032000D01*
X128440000Y-72009000D01*
X128400000Y-71985000D01*
X128361000Y-71958000D01*
X128324000Y-71929000D01*
X128288000Y-71899000D01*
X128254000Y-71866000D01*
X128221000Y-71832000D01*
X128191000Y-71796000D01*
X128162000Y-71759000D01*
X128135000Y-71720000D01*
X128111000Y-71680000D01*
X128088000Y-71639000D01*
X128068000Y-71596000D01*
X128050000Y-71553000D01*
X128034000Y-71508000D01*
X128021000Y-71463000D01*
X128010000Y-71417000D01*
X128001000Y-71371000D01*
X127995000Y-71324000D01*
X127991000Y-71277000D01*
X127990000Y-71230000D01*
X127991000Y-71183000D01*
X127995000Y-71136000D01*
X128001000Y-71089000D01*
X128010000Y-71043000D01*
X128021000Y-70997000D01*
X128034000Y-70952000D01*
X128050000Y-70907000D01*
X128068000Y-70864000D01*
X128088000Y-70821000D01*
X128111000Y-70780000D01*
X128135000Y-70740000D01*
X128162000Y-70701000D01*
X128191000Y-70664000D01*
X128221000Y-70628000D01*
X128254000Y-70594000D01*
X128288000Y-70561000D01*
X128324000Y-70531000D01*
X128361000Y-70502000D01*
X128400000Y-70475000D01*
X128440000Y-70451000D01*
X128481000Y-70428000D01*
X128524000Y-70408000D01*
X128567000Y-70390000D01*
X128612000Y-70374000D01*
X128657000Y-70361000D01*
X128703000Y-70350000D01*
X128749000Y-70341000D01*
X128796000Y-70335000D01*
X128843000Y-70331000D01*
X128890000Y-70330000D01*
X131390000Y-70330000D01*
X131390000Y-72130000D01*
G37*
X131390000Y-69590000D02*
X128890000Y-69590000D01*
X128843000Y-69589000D01*
X128796000Y-69585000D01*
X128749000Y-69579000D01*
X128703000Y-69570000D01*
X128657000Y-69559000D01*
X128612000Y-69546000D01*
X128567000Y-69530000D01*
X128524000Y-69512000D01*
X128481000Y-69492000D01*
X128440000Y-69469000D01*
X128400000Y-69445000D01*
X128361000Y-69418000D01*
X128324000Y-69389000D01*
X128288000Y-69359000D01*
X128254000Y-69326000D01*
X128221000Y-69292000D01*
X128191000Y-69256000D01*
X128162000Y-69219000D01*
X128135000Y-69180000D01*
X128111000Y-69140000D01*
X128088000Y-69099000D01*
X128068000Y-69056000D01*
X128050000Y-69013000D01*
X128034000Y-68968000D01*
X128021000Y-68923000D01*
X128010000Y-68877000D01*
X128001000Y-68831000D01*
X127995000Y-68784000D01*
X127991000Y-68737000D01*
X127990000Y-68690000D01*
X127991000Y-68643000D01*
X127995000Y-68596000D01*
X128001000Y-68549000D01*
X128010000Y-68503000D01*
X128021000Y-68457000D01*
X128034000Y-68412000D01*
X128050000Y-68367000D01*
X128068000Y-68324000D01*
X128088000Y-68281000D01*
X128111000Y-68240000D01*
X128135000Y-68200000D01*
X128162000Y-68161000D01*
X128191000Y-68124000D01*
X128221000Y-68088000D01*
X128254000Y-68054000D01*
X128288000Y-68021000D01*
X128324000Y-67991000D01*
X128361000Y-67962000D01*
X128400000Y-67935000D01*
X128440000Y-67911000D01*
X128481000Y-67888000D01*
X128524000Y-67868000D01*
X128567000Y-67850000D01*
X128612000Y-67834000D01*
X128657000Y-67821000D01*
X128703000Y-67810000D01*
X128749000Y-67801000D01*
X128796000Y-67795000D01*
X128843000Y-67791000D01*
X128890000Y-67790000D01*
X131390000Y-67790000D01*
X131390000Y-69590000D01*
G36*
X131390000Y-69590000D02*
G01*
X128890000Y-69590000D01*
X128843000Y-69589000D01*
X128796000Y-69585000D01*
X128749000Y-69579000D01*
X128703000Y-69570000D01*
X128657000Y-69559000D01*
X128612000Y-69546000D01*
X128567000Y-69530000D01*
X128524000Y-69512000D01*
X128481000Y-69492000D01*
X128440000Y-69469000D01*
X128400000Y-69445000D01*
X128361000Y-69418000D01*
X128324000Y-69389000D01*
X128288000Y-69359000D01*
X128254000Y-69326000D01*
X128221000Y-69292000D01*
X128191000Y-69256000D01*
X128162000Y-69219000D01*
X128135000Y-69180000D01*
X128111000Y-69140000D01*
X128088000Y-69099000D01*
X128068000Y-69056000D01*
X128050000Y-69013000D01*
X128034000Y-68968000D01*
X128021000Y-68923000D01*
X128010000Y-68877000D01*
X128001000Y-68831000D01*
X127995000Y-68784000D01*
X127991000Y-68737000D01*
X127990000Y-68690000D01*
X127991000Y-68643000D01*
X127995000Y-68596000D01*
X128001000Y-68549000D01*
X128010000Y-68503000D01*
X128021000Y-68457000D01*
X128034000Y-68412000D01*
X128050000Y-68367000D01*
X128068000Y-68324000D01*
X128088000Y-68281000D01*
X128111000Y-68240000D01*
X128135000Y-68200000D01*
X128162000Y-68161000D01*
X128191000Y-68124000D01*
X128221000Y-68088000D01*
X128254000Y-68054000D01*
X128288000Y-68021000D01*
X128324000Y-67991000D01*
X128361000Y-67962000D01*
X128400000Y-67935000D01*
X128440000Y-67911000D01*
X128481000Y-67888000D01*
X128524000Y-67868000D01*
X128567000Y-67850000D01*
X128612000Y-67834000D01*
X128657000Y-67821000D01*
X128703000Y-67810000D01*
X128749000Y-67801000D01*
X128796000Y-67795000D01*
X128843000Y-67791000D01*
X128890000Y-67790000D01*
X131390000Y-67790000D01*
X131390000Y-69590000D01*
G37*
X131390000Y-64510000D02*
X128890000Y-64510000D01*
X128843000Y-64509000D01*
X128796000Y-64505000D01*
X128749000Y-64499000D01*
X128703000Y-64490000D01*
X128657000Y-64479000D01*
X128612000Y-64466000D01*
X128567000Y-64450000D01*
X128524000Y-64432000D01*
X128481000Y-64412000D01*
X128440000Y-64389000D01*
X128400000Y-64365000D01*
X128361000Y-64338000D01*
X128324000Y-64309000D01*
X128288000Y-64279000D01*
X128254000Y-64246000D01*
X128221000Y-64212000D01*
X128191000Y-64176000D01*
X128162000Y-64139000D01*
X128135000Y-64100000D01*
X128111000Y-64060000D01*
X128088000Y-64019000D01*
X128068000Y-63976000D01*
X128050000Y-63933000D01*
X128034000Y-63888000D01*
X128021000Y-63843000D01*
X128010000Y-63797000D01*
X128001000Y-63751000D01*
X127995000Y-63704000D01*
X127991000Y-63657000D01*
X127990000Y-63610000D01*
X127991000Y-63563000D01*
X127995000Y-63516000D01*
X128001000Y-63469000D01*
X128010000Y-63423000D01*
X128021000Y-63377000D01*
X128034000Y-63332000D01*
X128050000Y-63287000D01*
X128068000Y-63244000D01*
X128088000Y-63201000D01*
X128111000Y-63160000D01*
X128135000Y-63120000D01*
X128162000Y-63081000D01*
X128191000Y-63044000D01*
X128221000Y-63008000D01*
X128254000Y-62974000D01*
X128288000Y-62941000D01*
X128324000Y-62911000D01*
X128361000Y-62882000D01*
X128400000Y-62855000D01*
X128440000Y-62831000D01*
X128481000Y-62808000D01*
X128524000Y-62788000D01*
X128567000Y-62770000D01*
X128612000Y-62754000D01*
X128657000Y-62741000D01*
X128703000Y-62730000D01*
X128749000Y-62721000D01*
X128796000Y-62715000D01*
X128843000Y-62711000D01*
X128890000Y-62710000D01*
X131390000Y-62710000D01*
X131390000Y-64510000D01*
G36*
X131390000Y-64510000D02*
G01*
X128890000Y-64510000D01*
X128843000Y-64509000D01*
X128796000Y-64505000D01*
X128749000Y-64499000D01*
X128703000Y-64490000D01*
X128657000Y-64479000D01*
X128612000Y-64466000D01*
X128567000Y-64450000D01*
X128524000Y-64432000D01*
X128481000Y-64412000D01*
X128440000Y-64389000D01*
X128400000Y-64365000D01*
X128361000Y-64338000D01*
X128324000Y-64309000D01*
X128288000Y-64279000D01*
X128254000Y-64246000D01*
X128221000Y-64212000D01*
X128191000Y-64176000D01*
X128162000Y-64139000D01*
X128135000Y-64100000D01*
X128111000Y-64060000D01*
X128088000Y-64019000D01*
X128068000Y-63976000D01*
X128050000Y-63933000D01*
X128034000Y-63888000D01*
X128021000Y-63843000D01*
X128010000Y-63797000D01*
X128001000Y-63751000D01*
X127995000Y-63704000D01*
X127991000Y-63657000D01*
X127990000Y-63610000D01*
X127991000Y-63563000D01*
X127995000Y-63516000D01*
X128001000Y-63469000D01*
X128010000Y-63423000D01*
X128021000Y-63377000D01*
X128034000Y-63332000D01*
X128050000Y-63287000D01*
X128068000Y-63244000D01*
X128088000Y-63201000D01*
X128111000Y-63160000D01*
X128135000Y-63120000D01*
X128162000Y-63081000D01*
X128191000Y-63044000D01*
X128221000Y-63008000D01*
X128254000Y-62974000D01*
X128288000Y-62941000D01*
X128324000Y-62911000D01*
X128361000Y-62882000D01*
X128400000Y-62855000D01*
X128440000Y-62831000D01*
X128481000Y-62808000D01*
X128524000Y-62788000D01*
X128567000Y-62770000D01*
X128612000Y-62754000D01*
X128657000Y-62741000D01*
X128703000Y-62730000D01*
X128749000Y-62721000D01*
X128796000Y-62715000D01*
X128843000Y-62711000D01*
X128890000Y-62710000D01*
X131390000Y-62710000D01*
X131390000Y-64510000D01*
G37*
X131390000Y-61970000D02*
X128890000Y-61970000D01*
X128843000Y-61969000D01*
X128796000Y-61965000D01*
X128749000Y-61959000D01*
X128703000Y-61950000D01*
X128657000Y-61939000D01*
X128612000Y-61926000D01*
X128567000Y-61910000D01*
X128524000Y-61892000D01*
X128481000Y-61872000D01*
X128440000Y-61849000D01*
X128400000Y-61825000D01*
X128361000Y-61798000D01*
X128324000Y-61769000D01*
X128288000Y-61739000D01*
X128254000Y-61706000D01*
X128221000Y-61672000D01*
X128191000Y-61636000D01*
X128162000Y-61599000D01*
X128135000Y-61560000D01*
X128111000Y-61520000D01*
X128088000Y-61479000D01*
X128068000Y-61436000D01*
X128050000Y-61393000D01*
X128034000Y-61348000D01*
X128021000Y-61303000D01*
X128010000Y-61257000D01*
X128001000Y-61211000D01*
X127995000Y-61164000D01*
X127991000Y-61117000D01*
X127990000Y-61070000D01*
X127991000Y-61023000D01*
X127995000Y-60976000D01*
X128001000Y-60929000D01*
X128010000Y-60883000D01*
X128021000Y-60837000D01*
X128034000Y-60792000D01*
X128050000Y-60747000D01*
X128068000Y-60704000D01*
X128088000Y-60661000D01*
X128111000Y-60620000D01*
X128135000Y-60580000D01*
X128162000Y-60541000D01*
X128191000Y-60504000D01*
X128221000Y-60468000D01*
X128254000Y-60434000D01*
X128288000Y-60401000D01*
X128324000Y-60371000D01*
X128361000Y-60342000D01*
X128400000Y-60315000D01*
X128440000Y-60291000D01*
X128481000Y-60268000D01*
X128524000Y-60248000D01*
X128567000Y-60230000D01*
X128612000Y-60214000D01*
X128657000Y-60201000D01*
X128703000Y-60190000D01*
X128749000Y-60181000D01*
X128796000Y-60175000D01*
X128843000Y-60171000D01*
X128890000Y-60170000D01*
X131390000Y-60170000D01*
X131390000Y-61970000D01*
G36*
X131390000Y-61970000D02*
G01*
X128890000Y-61970000D01*
X128843000Y-61969000D01*
X128796000Y-61965000D01*
X128749000Y-61959000D01*
X128703000Y-61950000D01*
X128657000Y-61939000D01*
X128612000Y-61926000D01*
X128567000Y-61910000D01*
X128524000Y-61892000D01*
X128481000Y-61872000D01*
X128440000Y-61849000D01*
X128400000Y-61825000D01*
X128361000Y-61798000D01*
X128324000Y-61769000D01*
X128288000Y-61739000D01*
X128254000Y-61706000D01*
X128221000Y-61672000D01*
X128191000Y-61636000D01*
X128162000Y-61599000D01*
X128135000Y-61560000D01*
X128111000Y-61520000D01*
X128088000Y-61479000D01*
X128068000Y-61436000D01*
X128050000Y-61393000D01*
X128034000Y-61348000D01*
X128021000Y-61303000D01*
X128010000Y-61257000D01*
X128001000Y-61211000D01*
X127995000Y-61164000D01*
X127991000Y-61117000D01*
X127990000Y-61070000D01*
X127991000Y-61023000D01*
X127995000Y-60976000D01*
X128001000Y-60929000D01*
X128010000Y-60883000D01*
X128021000Y-60837000D01*
X128034000Y-60792000D01*
X128050000Y-60747000D01*
X128068000Y-60704000D01*
X128088000Y-60661000D01*
X128111000Y-60620000D01*
X128135000Y-60580000D01*
X128162000Y-60541000D01*
X128191000Y-60504000D01*
X128221000Y-60468000D01*
X128254000Y-60434000D01*
X128288000Y-60401000D01*
X128324000Y-60371000D01*
X128361000Y-60342000D01*
X128400000Y-60315000D01*
X128440000Y-60291000D01*
X128481000Y-60268000D01*
X128524000Y-60248000D01*
X128567000Y-60230000D01*
X128612000Y-60214000D01*
X128657000Y-60201000D01*
X128703000Y-60190000D01*
X128749000Y-60181000D01*
X128796000Y-60175000D01*
X128843000Y-60171000D01*
X128890000Y-60170000D01*
X131390000Y-60170000D01*
X131390000Y-61970000D01*
G37*
X122587000Y-108201000D02*
X122634000Y-108205000D01*
X122681000Y-108211000D01*
X122727000Y-108220000D01*
X122773000Y-108231000D01*
X122818000Y-108244000D01*
X122863000Y-108260000D01*
X122906000Y-108278000D01*
X122949000Y-108298000D01*
X122990000Y-108321000D01*
X123030000Y-108345000D01*
X123069000Y-108372000D01*
X123106000Y-108401000D01*
X123142000Y-108431000D01*
X123176000Y-108464000D01*
X123209000Y-108498000D01*
X123239000Y-108534000D01*
X123268000Y-108571000D01*
X123295000Y-108610000D01*
X123319000Y-108650000D01*
X123342000Y-108691000D01*
X123362000Y-108734000D01*
X123380000Y-108777000D01*
X123396000Y-108822000D01*
X123409000Y-108867000D01*
X123420000Y-108913000D01*
X123429000Y-108959000D01*
X123435000Y-109006000D01*
X123439000Y-109053000D01*
X123440000Y-109100000D01*
X123440000Y-111600000D01*
X121640000Y-111600000D01*
X121640000Y-109100000D01*
X121641000Y-109053000D01*
X121645000Y-109006000D01*
X121651000Y-108959000D01*
X121660000Y-108913000D01*
X121671000Y-108867000D01*
X121684000Y-108822000D01*
X121700000Y-108777000D01*
X121718000Y-108734000D01*
X121738000Y-108691000D01*
X121761000Y-108650000D01*
X121785000Y-108610000D01*
X121812000Y-108571000D01*
X121841000Y-108534000D01*
X121871000Y-108498000D01*
X121904000Y-108464000D01*
X121938000Y-108431000D01*
X121974000Y-108401000D01*
X122011000Y-108372000D01*
X122050000Y-108345000D01*
X122090000Y-108321000D01*
X122131000Y-108298000D01*
X122174000Y-108278000D01*
X122217000Y-108260000D01*
X122262000Y-108244000D01*
X122307000Y-108231000D01*
X122353000Y-108220000D01*
X122399000Y-108211000D01*
X122446000Y-108205000D01*
X122493000Y-108201000D01*
X122540000Y-108200000D01*
X122587000Y-108201000D01*
G36*
X122587000Y-108201000D02*
G01*
X122634000Y-108205000D01*
X122681000Y-108211000D01*
X122727000Y-108220000D01*
X122773000Y-108231000D01*
X122818000Y-108244000D01*
X122863000Y-108260000D01*
X122906000Y-108278000D01*
X122949000Y-108298000D01*
X122990000Y-108321000D01*
X123030000Y-108345000D01*
X123069000Y-108372000D01*
X123106000Y-108401000D01*
X123142000Y-108431000D01*
X123176000Y-108464000D01*
X123209000Y-108498000D01*
X123239000Y-108534000D01*
X123268000Y-108571000D01*
X123295000Y-108610000D01*
X123319000Y-108650000D01*
X123342000Y-108691000D01*
X123362000Y-108734000D01*
X123380000Y-108777000D01*
X123396000Y-108822000D01*
X123409000Y-108867000D01*
X123420000Y-108913000D01*
X123429000Y-108959000D01*
X123435000Y-109006000D01*
X123439000Y-109053000D01*
X123440000Y-109100000D01*
X123440000Y-111600000D01*
X121640000Y-111600000D01*
X121640000Y-109100000D01*
X121641000Y-109053000D01*
X121645000Y-109006000D01*
X121651000Y-108959000D01*
X121660000Y-108913000D01*
X121671000Y-108867000D01*
X121684000Y-108822000D01*
X121700000Y-108777000D01*
X121718000Y-108734000D01*
X121738000Y-108691000D01*
X121761000Y-108650000D01*
X121785000Y-108610000D01*
X121812000Y-108571000D01*
X121841000Y-108534000D01*
X121871000Y-108498000D01*
X121904000Y-108464000D01*
X121938000Y-108431000D01*
X121974000Y-108401000D01*
X122011000Y-108372000D01*
X122050000Y-108345000D01*
X122090000Y-108321000D01*
X122131000Y-108298000D01*
X122174000Y-108278000D01*
X122217000Y-108260000D01*
X122262000Y-108244000D01*
X122307000Y-108231000D01*
X122353000Y-108220000D01*
X122399000Y-108211000D01*
X122446000Y-108205000D01*
X122493000Y-108201000D01*
X122540000Y-108200000D01*
X122587000Y-108201000D01*
G37*
X117507000Y-108201000D02*
X117554000Y-108205000D01*
X117601000Y-108211000D01*
X117647000Y-108220000D01*
X117693000Y-108231000D01*
X117738000Y-108244000D01*
X117783000Y-108260000D01*
X117826000Y-108278000D01*
X117869000Y-108298000D01*
X117910000Y-108321000D01*
X117950000Y-108345000D01*
X117989000Y-108372000D01*
X118026000Y-108401000D01*
X118062000Y-108431000D01*
X118096000Y-108464000D01*
X118129000Y-108498000D01*
X118159000Y-108534000D01*
X118188000Y-108571000D01*
X118215000Y-108610000D01*
X118239000Y-108650000D01*
X118262000Y-108691000D01*
X118282000Y-108734000D01*
X118300000Y-108777000D01*
X118316000Y-108822000D01*
X118329000Y-108867000D01*
X118340000Y-108913000D01*
X118349000Y-108959000D01*
X118355000Y-109006000D01*
X118359000Y-109053000D01*
X118360000Y-109100000D01*
X118360000Y-111600000D01*
X116560000Y-111600000D01*
X116560000Y-109100000D01*
X116561000Y-109053000D01*
X116565000Y-109006000D01*
X116571000Y-108959000D01*
X116580000Y-108913000D01*
X116591000Y-108867000D01*
X116604000Y-108822000D01*
X116620000Y-108777000D01*
X116638000Y-108734000D01*
X116658000Y-108691000D01*
X116681000Y-108650000D01*
X116705000Y-108610000D01*
X116732000Y-108571000D01*
X116761000Y-108534000D01*
X116791000Y-108498000D01*
X116824000Y-108464000D01*
X116858000Y-108431000D01*
X116894000Y-108401000D01*
X116931000Y-108372000D01*
X116970000Y-108345000D01*
X117010000Y-108321000D01*
X117051000Y-108298000D01*
X117094000Y-108278000D01*
X117137000Y-108260000D01*
X117182000Y-108244000D01*
X117227000Y-108231000D01*
X117273000Y-108220000D01*
X117319000Y-108211000D01*
X117366000Y-108205000D01*
X117413000Y-108201000D01*
X117460000Y-108200000D01*
X117507000Y-108201000D01*
G36*
X117507000Y-108201000D02*
G01*
X117554000Y-108205000D01*
X117601000Y-108211000D01*
X117647000Y-108220000D01*
X117693000Y-108231000D01*
X117738000Y-108244000D01*
X117783000Y-108260000D01*
X117826000Y-108278000D01*
X117869000Y-108298000D01*
X117910000Y-108321000D01*
X117950000Y-108345000D01*
X117989000Y-108372000D01*
X118026000Y-108401000D01*
X118062000Y-108431000D01*
X118096000Y-108464000D01*
X118129000Y-108498000D01*
X118159000Y-108534000D01*
X118188000Y-108571000D01*
X118215000Y-108610000D01*
X118239000Y-108650000D01*
X118262000Y-108691000D01*
X118282000Y-108734000D01*
X118300000Y-108777000D01*
X118316000Y-108822000D01*
X118329000Y-108867000D01*
X118340000Y-108913000D01*
X118349000Y-108959000D01*
X118355000Y-109006000D01*
X118359000Y-109053000D01*
X118360000Y-109100000D01*
X118360000Y-111600000D01*
X116560000Y-111600000D01*
X116560000Y-109100000D01*
X116561000Y-109053000D01*
X116565000Y-109006000D01*
X116571000Y-108959000D01*
X116580000Y-108913000D01*
X116591000Y-108867000D01*
X116604000Y-108822000D01*
X116620000Y-108777000D01*
X116638000Y-108734000D01*
X116658000Y-108691000D01*
X116681000Y-108650000D01*
X116705000Y-108610000D01*
X116732000Y-108571000D01*
X116761000Y-108534000D01*
X116791000Y-108498000D01*
X116824000Y-108464000D01*
X116858000Y-108431000D01*
X116894000Y-108401000D01*
X116931000Y-108372000D01*
X116970000Y-108345000D01*
X117010000Y-108321000D01*
X117051000Y-108298000D01*
X117094000Y-108278000D01*
X117137000Y-108260000D01*
X117182000Y-108244000D01*
X117227000Y-108231000D01*
X117273000Y-108220000D01*
X117319000Y-108211000D01*
X117366000Y-108205000D01*
X117413000Y-108201000D01*
X117460000Y-108200000D01*
X117507000Y-108201000D01*
G37*
X111157000Y-108431000D02*
X111204000Y-108435000D01*
X111251000Y-108441000D01*
X111297000Y-108450000D01*
X111343000Y-108461000D01*
X111388000Y-108474000D01*
X111433000Y-108490000D01*
X111476000Y-108508000D01*
X111519000Y-108528000D01*
X111560000Y-108551000D01*
X111600000Y-108575000D01*
X111639000Y-108602000D01*
X111676000Y-108631000D01*
X111712000Y-108661000D01*
X111746000Y-108694000D01*
X111779000Y-108728000D01*
X111809000Y-108764000D01*
X111838000Y-108801000D01*
X111865000Y-108840000D01*
X111889000Y-108880000D01*
X111912000Y-108921000D01*
X111932000Y-108964000D01*
X111950000Y-109007000D01*
X111966000Y-109052000D01*
X111979000Y-109097000D01*
X111990000Y-109143000D01*
X111999000Y-109189000D01*
X112005000Y-109236000D01*
X112009000Y-109283000D01*
X112010000Y-109330000D01*
X112009000Y-109377000D01*
X112005000Y-109424000D01*
X111999000Y-109471000D01*
X111990000Y-109517000D01*
X111979000Y-109563000D01*
X111966000Y-109608000D01*
X111950000Y-109653000D01*
X111932000Y-109696000D01*
X111912000Y-109739000D01*
X111889000Y-109780000D01*
X111865000Y-109820000D01*
X111838000Y-109859000D01*
X111809000Y-109896000D01*
X111779000Y-109932000D01*
X111746000Y-109966000D01*
X111712000Y-109999000D01*
X111676000Y-110029000D01*
X111639000Y-110058000D01*
X111600000Y-110085000D01*
X111560000Y-110109000D01*
X111519000Y-110132000D01*
X111476000Y-110152000D01*
X111433000Y-110170000D01*
X111388000Y-110186000D01*
X111343000Y-110199000D01*
X111297000Y-110210000D01*
X111251000Y-110219000D01*
X111204000Y-110225000D01*
X111157000Y-110229000D01*
X111110000Y-110230000D01*
X108610000Y-110230000D01*
X108610000Y-108430000D01*
X111110000Y-108430000D01*
X111157000Y-108431000D01*
G36*
X111157000Y-108431000D02*
G01*
X111204000Y-108435000D01*
X111251000Y-108441000D01*
X111297000Y-108450000D01*
X111343000Y-108461000D01*
X111388000Y-108474000D01*
X111433000Y-108490000D01*
X111476000Y-108508000D01*
X111519000Y-108528000D01*
X111560000Y-108551000D01*
X111600000Y-108575000D01*
X111639000Y-108602000D01*
X111676000Y-108631000D01*
X111712000Y-108661000D01*
X111746000Y-108694000D01*
X111779000Y-108728000D01*
X111809000Y-108764000D01*
X111838000Y-108801000D01*
X111865000Y-108840000D01*
X111889000Y-108880000D01*
X111912000Y-108921000D01*
X111932000Y-108964000D01*
X111950000Y-109007000D01*
X111966000Y-109052000D01*
X111979000Y-109097000D01*
X111990000Y-109143000D01*
X111999000Y-109189000D01*
X112005000Y-109236000D01*
X112009000Y-109283000D01*
X112010000Y-109330000D01*
X112009000Y-109377000D01*
X112005000Y-109424000D01*
X111999000Y-109471000D01*
X111990000Y-109517000D01*
X111979000Y-109563000D01*
X111966000Y-109608000D01*
X111950000Y-109653000D01*
X111932000Y-109696000D01*
X111912000Y-109739000D01*
X111889000Y-109780000D01*
X111865000Y-109820000D01*
X111838000Y-109859000D01*
X111809000Y-109896000D01*
X111779000Y-109932000D01*
X111746000Y-109966000D01*
X111712000Y-109999000D01*
X111676000Y-110029000D01*
X111639000Y-110058000D01*
X111600000Y-110085000D01*
X111560000Y-110109000D01*
X111519000Y-110132000D01*
X111476000Y-110152000D01*
X111433000Y-110170000D01*
X111388000Y-110186000D01*
X111343000Y-110199000D01*
X111297000Y-110210000D01*
X111251000Y-110219000D01*
X111204000Y-110225000D01*
X111157000Y-110229000D01*
X111110000Y-110230000D01*
X108610000Y-110230000D01*
X108610000Y-108430000D01*
X111110000Y-108430000D01*
X111157000Y-108431000D01*
G37*
X111157000Y-105891000D02*
X111204000Y-105895000D01*
X111251000Y-105901000D01*
X111297000Y-105910000D01*
X111343000Y-105921000D01*
X111388000Y-105934000D01*
X111433000Y-105950000D01*
X111476000Y-105968000D01*
X111519000Y-105988000D01*
X111560000Y-106011000D01*
X111600000Y-106035000D01*
X111639000Y-106062000D01*
X111676000Y-106091000D01*
X111712000Y-106121000D01*
X111746000Y-106154000D01*
X111779000Y-106188000D01*
X111809000Y-106224000D01*
X111838000Y-106261000D01*
X111865000Y-106300000D01*
X111889000Y-106340000D01*
X111912000Y-106381000D01*
X111932000Y-106424000D01*
X111950000Y-106467000D01*
X111966000Y-106512000D01*
X111979000Y-106557000D01*
X111990000Y-106603000D01*
X111999000Y-106649000D01*
X112005000Y-106696000D01*
X112009000Y-106743000D01*
X112010000Y-106790000D01*
X112009000Y-106837000D01*
X112005000Y-106884000D01*
X111999000Y-106931000D01*
X111990000Y-106977000D01*
X111979000Y-107023000D01*
X111966000Y-107068000D01*
X111950000Y-107113000D01*
X111932000Y-107156000D01*
X111912000Y-107199000D01*
X111889000Y-107240000D01*
X111865000Y-107280000D01*
X111838000Y-107319000D01*
X111809000Y-107356000D01*
X111779000Y-107392000D01*
X111746000Y-107426000D01*
X111712000Y-107459000D01*
X111676000Y-107489000D01*
X111639000Y-107518000D01*
X111600000Y-107545000D01*
X111560000Y-107569000D01*
X111519000Y-107592000D01*
X111476000Y-107612000D01*
X111433000Y-107630000D01*
X111388000Y-107646000D01*
X111343000Y-107659000D01*
X111297000Y-107670000D01*
X111251000Y-107679000D01*
X111204000Y-107685000D01*
X111157000Y-107689000D01*
X111110000Y-107690000D01*
X108610000Y-107690000D01*
X108610000Y-105890000D01*
X111110000Y-105890000D01*
X111157000Y-105891000D01*
G36*
X111157000Y-105891000D02*
G01*
X111204000Y-105895000D01*
X111251000Y-105901000D01*
X111297000Y-105910000D01*
X111343000Y-105921000D01*
X111388000Y-105934000D01*
X111433000Y-105950000D01*
X111476000Y-105968000D01*
X111519000Y-105988000D01*
X111560000Y-106011000D01*
X111600000Y-106035000D01*
X111639000Y-106062000D01*
X111676000Y-106091000D01*
X111712000Y-106121000D01*
X111746000Y-106154000D01*
X111779000Y-106188000D01*
X111809000Y-106224000D01*
X111838000Y-106261000D01*
X111865000Y-106300000D01*
X111889000Y-106340000D01*
X111912000Y-106381000D01*
X111932000Y-106424000D01*
X111950000Y-106467000D01*
X111966000Y-106512000D01*
X111979000Y-106557000D01*
X111990000Y-106603000D01*
X111999000Y-106649000D01*
X112005000Y-106696000D01*
X112009000Y-106743000D01*
X112010000Y-106790000D01*
X112009000Y-106837000D01*
X112005000Y-106884000D01*
X111999000Y-106931000D01*
X111990000Y-106977000D01*
X111979000Y-107023000D01*
X111966000Y-107068000D01*
X111950000Y-107113000D01*
X111932000Y-107156000D01*
X111912000Y-107199000D01*
X111889000Y-107240000D01*
X111865000Y-107280000D01*
X111838000Y-107319000D01*
X111809000Y-107356000D01*
X111779000Y-107392000D01*
X111746000Y-107426000D01*
X111712000Y-107459000D01*
X111676000Y-107489000D01*
X111639000Y-107518000D01*
X111600000Y-107545000D01*
X111560000Y-107569000D01*
X111519000Y-107592000D01*
X111476000Y-107612000D01*
X111433000Y-107630000D01*
X111388000Y-107646000D01*
X111343000Y-107659000D01*
X111297000Y-107670000D01*
X111251000Y-107679000D01*
X111204000Y-107685000D01*
X111157000Y-107689000D01*
X111110000Y-107690000D01*
X108610000Y-107690000D01*
X108610000Y-105890000D01*
X111110000Y-105890000D01*
X111157000Y-105891000D01*
G37*
X111157000Y-100811000D02*
X111204000Y-100815000D01*
X111251000Y-100821000D01*
X111297000Y-100830000D01*
X111343000Y-100841000D01*
X111388000Y-100854000D01*
X111433000Y-100870000D01*
X111476000Y-100888000D01*
X111519000Y-100908000D01*
X111560000Y-100931000D01*
X111600000Y-100955000D01*
X111639000Y-100982000D01*
X111676000Y-101011000D01*
X111712000Y-101041000D01*
X111746000Y-101074000D01*
X111779000Y-101108000D01*
X111809000Y-101144000D01*
X111838000Y-101181000D01*
X111865000Y-101220000D01*
X111889000Y-101260000D01*
X111912000Y-101301000D01*
X111932000Y-101344000D01*
X111950000Y-101387000D01*
X111966000Y-101432000D01*
X111979000Y-101477000D01*
X111990000Y-101523000D01*
X111999000Y-101569000D01*
X112005000Y-101616000D01*
X112009000Y-101663000D01*
X112010000Y-101710000D01*
X112009000Y-101757000D01*
X112005000Y-101804000D01*
X111999000Y-101851000D01*
X111990000Y-101897000D01*
X111979000Y-101943000D01*
X111966000Y-101988000D01*
X111950000Y-102033000D01*
X111932000Y-102076000D01*
X111912000Y-102119000D01*
X111889000Y-102160000D01*
X111865000Y-102200000D01*
X111838000Y-102239000D01*
X111809000Y-102276000D01*
X111779000Y-102312000D01*
X111746000Y-102346000D01*
X111712000Y-102379000D01*
X111676000Y-102409000D01*
X111639000Y-102438000D01*
X111600000Y-102465000D01*
X111560000Y-102489000D01*
X111519000Y-102512000D01*
X111476000Y-102532000D01*
X111433000Y-102550000D01*
X111388000Y-102566000D01*
X111343000Y-102579000D01*
X111297000Y-102590000D01*
X111251000Y-102599000D01*
X111204000Y-102605000D01*
X111157000Y-102609000D01*
X111110000Y-102610000D01*
X108610000Y-102610000D01*
X108610000Y-100810000D01*
X111110000Y-100810000D01*
X111157000Y-100811000D01*
G36*
X111157000Y-100811000D02*
G01*
X111204000Y-100815000D01*
X111251000Y-100821000D01*
X111297000Y-100830000D01*
X111343000Y-100841000D01*
X111388000Y-100854000D01*
X111433000Y-100870000D01*
X111476000Y-100888000D01*
X111519000Y-100908000D01*
X111560000Y-100931000D01*
X111600000Y-100955000D01*
X111639000Y-100982000D01*
X111676000Y-101011000D01*
X111712000Y-101041000D01*
X111746000Y-101074000D01*
X111779000Y-101108000D01*
X111809000Y-101144000D01*
X111838000Y-101181000D01*
X111865000Y-101220000D01*
X111889000Y-101260000D01*
X111912000Y-101301000D01*
X111932000Y-101344000D01*
X111950000Y-101387000D01*
X111966000Y-101432000D01*
X111979000Y-101477000D01*
X111990000Y-101523000D01*
X111999000Y-101569000D01*
X112005000Y-101616000D01*
X112009000Y-101663000D01*
X112010000Y-101710000D01*
X112009000Y-101757000D01*
X112005000Y-101804000D01*
X111999000Y-101851000D01*
X111990000Y-101897000D01*
X111979000Y-101943000D01*
X111966000Y-101988000D01*
X111950000Y-102033000D01*
X111932000Y-102076000D01*
X111912000Y-102119000D01*
X111889000Y-102160000D01*
X111865000Y-102200000D01*
X111838000Y-102239000D01*
X111809000Y-102276000D01*
X111779000Y-102312000D01*
X111746000Y-102346000D01*
X111712000Y-102379000D01*
X111676000Y-102409000D01*
X111639000Y-102438000D01*
X111600000Y-102465000D01*
X111560000Y-102489000D01*
X111519000Y-102512000D01*
X111476000Y-102532000D01*
X111433000Y-102550000D01*
X111388000Y-102566000D01*
X111343000Y-102579000D01*
X111297000Y-102590000D01*
X111251000Y-102599000D01*
X111204000Y-102605000D01*
X111157000Y-102609000D01*
X111110000Y-102610000D01*
X108610000Y-102610000D01*
X108610000Y-100810000D01*
X111110000Y-100810000D01*
X111157000Y-100811000D01*
G37*
X111157000Y-98271000D02*
X111204000Y-98275000D01*
X111251000Y-98281000D01*
X111297000Y-98290000D01*
X111343000Y-98301000D01*
X111388000Y-98314000D01*
X111433000Y-98330000D01*
X111476000Y-98348000D01*
X111519000Y-98368000D01*
X111560000Y-98391000D01*
X111600000Y-98415000D01*
X111639000Y-98442000D01*
X111676000Y-98471000D01*
X111712000Y-98501000D01*
X111746000Y-98534000D01*
X111779000Y-98568000D01*
X111809000Y-98604000D01*
X111838000Y-98641000D01*
X111865000Y-98680000D01*
X111889000Y-98720000D01*
X111912000Y-98761000D01*
X111932000Y-98804000D01*
X111950000Y-98847000D01*
X111966000Y-98892000D01*
X111979000Y-98937000D01*
X111990000Y-98983000D01*
X111999000Y-99029000D01*
X112005000Y-99076000D01*
X112009000Y-99123000D01*
X112010000Y-99170000D01*
X112009000Y-99217000D01*
X112005000Y-99264000D01*
X111999000Y-99311000D01*
X111990000Y-99357000D01*
X111979000Y-99403000D01*
X111966000Y-99448000D01*
X111950000Y-99493000D01*
X111932000Y-99536000D01*
X111912000Y-99579000D01*
X111889000Y-99620000D01*
X111865000Y-99660000D01*
X111838000Y-99699000D01*
X111809000Y-99736000D01*
X111779000Y-99772000D01*
X111746000Y-99806000D01*
X111712000Y-99839000D01*
X111676000Y-99869000D01*
X111639000Y-99898000D01*
X111600000Y-99925000D01*
X111560000Y-99949000D01*
X111519000Y-99972000D01*
X111476000Y-99992000D01*
X111433000Y-100010000D01*
X111388000Y-100026000D01*
X111343000Y-100039000D01*
X111297000Y-100050000D01*
X111251000Y-100059000D01*
X111204000Y-100065000D01*
X111157000Y-100069000D01*
X111110000Y-100070000D01*
X108610000Y-100070000D01*
X108610000Y-98270000D01*
X111110000Y-98270000D01*
X111157000Y-98271000D01*
G36*
X111157000Y-98271000D02*
G01*
X111204000Y-98275000D01*
X111251000Y-98281000D01*
X111297000Y-98290000D01*
X111343000Y-98301000D01*
X111388000Y-98314000D01*
X111433000Y-98330000D01*
X111476000Y-98348000D01*
X111519000Y-98368000D01*
X111560000Y-98391000D01*
X111600000Y-98415000D01*
X111639000Y-98442000D01*
X111676000Y-98471000D01*
X111712000Y-98501000D01*
X111746000Y-98534000D01*
X111779000Y-98568000D01*
X111809000Y-98604000D01*
X111838000Y-98641000D01*
X111865000Y-98680000D01*
X111889000Y-98720000D01*
X111912000Y-98761000D01*
X111932000Y-98804000D01*
X111950000Y-98847000D01*
X111966000Y-98892000D01*
X111979000Y-98937000D01*
X111990000Y-98983000D01*
X111999000Y-99029000D01*
X112005000Y-99076000D01*
X112009000Y-99123000D01*
X112010000Y-99170000D01*
X112009000Y-99217000D01*
X112005000Y-99264000D01*
X111999000Y-99311000D01*
X111990000Y-99357000D01*
X111979000Y-99403000D01*
X111966000Y-99448000D01*
X111950000Y-99493000D01*
X111932000Y-99536000D01*
X111912000Y-99579000D01*
X111889000Y-99620000D01*
X111865000Y-99660000D01*
X111838000Y-99699000D01*
X111809000Y-99736000D01*
X111779000Y-99772000D01*
X111746000Y-99806000D01*
X111712000Y-99839000D01*
X111676000Y-99869000D01*
X111639000Y-99898000D01*
X111600000Y-99925000D01*
X111560000Y-99949000D01*
X111519000Y-99972000D01*
X111476000Y-99992000D01*
X111433000Y-100010000D01*
X111388000Y-100026000D01*
X111343000Y-100039000D01*
X111297000Y-100050000D01*
X111251000Y-100059000D01*
X111204000Y-100065000D01*
X111157000Y-100069000D01*
X111110000Y-100070000D01*
X108610000Y-100070000D01*
X108610000Y-98270000D01*
X111110000Y-98270000D01*
X111157000Y-98271000D01*
G37*
X111157000Y-95731000D02*
X111204000Y-95735000D01*
X111251000Y-95741000D01*
X111297000Y-95750000D01*
X111343000Y-95761000D01*
X111388000Y-95774000D01*
X111433000Y-95790000D01*
X111476000Y-95808000D01*
X111519000Y-95828000D01*
X111560000Y-95851000D01*
X111600000Y-95875000D01*
X111639000Y-95902000D01*
X111676000Y-95931000D01*
X111712000Y-95961000D01*
X111746000Y-95994000D01*
X111779000Y-96028000D01*
X111809000Y-96064000D01*
X111838000Y-96101000D01*
X111865000Y-96140000D01*
X111889000Y-96180000D01*
X111912000Y-96221000D01*
X111932000Y-96264000D01*
X111950000Y-96307000D01*
X111966000Y-96352000D01*
X111979000Y-96397000D01*
X111990000Y-96443000D01*
X111999000Y-96489000D01*
X112005000Y-96536000D01*
X112009000Y-96583000D01*
X112010000Y-96630000D01*
X112009000Y-96677000D01*
X112005000Y-96724000D01*
X111999000Y-96771000D01*
X111990000Y-96817000D01*
X111979000Y-96863000D01*
X111966000Y-96908000D01*
X111950000Y-96953000D01*
X111932000Y-96996000D01*
X111912000Y-97039000D01*
X111889000Y-97080000D01*
X111865000Y-97120000D01*
X111838000Y-97159000D01*
X111809000Y-97196000D01*
X111779000Y-97232000D01*
X111746000Y-97266000D01*
X111712000Y-97299000D01*
X111676000Y-97329000D01*
X111639000Y-97358000D01*
X111600000Y-97385000D01*
X111560000Y-97409000D01*
X111519000Y-97432000D01*
X111476000Y-97452000D01*
X111433000Y-97470000D01*
X111388000Y-97486000D01*
X111343000Y-97499000D01*
X111297000Y-97510000D01*
X111251000Y-97519000D01*
X111204000Y-97525000D01*
X111157000Y-97529000D01*
X111110000Y-97530000D01*
X108610000Y-97530000D01*
X108610000Y-95730000D01*
X111110000Y-95730000D01*
X111157000Y-95731000D01*
G36*
X111157000Y-95731000D02*
G01*
X111204000Y-95735000D01*
X111251000Y-95741000D01*
X111297000Y-95750000D01*
X111343000Y-95761000D01*
X111388000Y-95774000D01*
X111433000Y-95790000D01*
X111476000Y-95808000D01*
X111519000Y-95828000D01*
X111560000Y-95851000D01*
X111600000Y-95875000D01*
X111639000Y-95902000D01*
X111676000Y-95931000D01*
X111712000Y-95961000D01*
X111746000Y-95994000D01*
X111779000Y-96028000D01*
X111809000Y-96064000D01*
X111838000Y-96101000D01*
X111865000Y-96140000D01*
X111889000Y-96180000D01*
X111912000Y-96221000D01*
X111932000Y-96264000D01*
X111950000Y-96307000D01*
X111966000Y-96352000D01*
X111979000Y-96397000D01*
X111990000Y-96443000D01*
X111999000Y-96489000D01*
X112005000Y-96536000D01*
X112009000Y-96583000D01*
X112010000Y-96630000D01*
X112009000Y-96677000D01*
X112005000Y-96724000D01*
X111999000Y-96771000D01*
X111990000Y-96817000D01*
X111979000Y-96863000D01*
X111966000Y-96908000D01*
X111950000Y-96953000D01*
X111932000Y-96996000D01*
X111912000Y-97039000D01*
X111889000Y-97080000D01*
X111865000Y-97120000D01*
X111838000Y-97159000D01*
X111809000Y-97196000D01*
X111779000Y-97232000D01*
X111746000Y-97266000D01*
X111712000Y-97299000D01*
X111676000Y-97329000D01*
X111639000Y-97358000D01*
X111600000Y-97385000D01*
X111560000Y-97409000D01*
X111519000Y-97432000D01*
X111476000Y-97452000D01*
X111433000Y-97470000D01*
X111388000Y-97486000D01*
X111343000Y-97499000D01*
X111297000Y-97510000D01*
X111251000Y-97519000D01*
X111204000Y-97525000D01*
X111157000Y-97529000D01*
X111110000Y-97530000D01*
X108610000Y-97530000D01*
X108610000Y-95730000D01*
X111110000Y-95730000D01*
X111157000Y-95731000D01*
G37*
X111157000Y-93191000D02*
X111204000Y-93195000D01*
X111251000Y-93201000D01*
X111297000Y-93210000D01*
X111343000Y-93221000D01*
X111388000Y-93234000D01*
X111433000Y-93250000D01*
X111476000Y-93268000D01*
X111519000Y-93288000D01*
X111560000Y-93311000D01*
X111600000Y-93335000D01*
X111639000Y-93362000D01*
X111676000Y-93391000D01*
X111712000Y-93421000D01*
X111746000Y-93454000D01*
X111779000Y-93488000D01*
X111809000Y-93524000D01*
X111838000Y-93561000D01*
X111865000Y-93600000D01*
X111889000Y-93640000D01*
X111912000Y-93681000D01*
X111932000Y-93724000D01*
X111950000Y-93767000D01*
X111966000Y-93812000D01*
X111979000Y-93857000D01*
X111990000Y-93903000D01*
X111999000Y-93949000D01*
X112005000Y-93996000D01*
X112009000Y-94043000D01*
X112010000Y-94090000D01*
X112009000Y-94137000D01*
X112005000Y-94184000D01*
X111999000Y-94231000D01*
X111990000Y-94277000D01*
X111979000Y-94323000D01*
X111966000Y-94368000D01*
X111950000Y-94413000D01*
X111932000Y-94456000D01*
X111912000Y-94499000D01*
X111889000Y-94540000D01*
X111865000Y-94580000D01*
X111838000Y-94619000D01*
X111809000Y-94656000D01*
X111779000Y-94692000D01*
X111746000Y-94726000D01*
X111712000Y-94759000D01*
X111676000Y-94789000D01*
X111639000Y-94818000D01*
X111600000Y-94845000D01*
X111560000Y-94869000D01*
X111519000Y-94892000D01*
X111476000Y-94912000D01*
X111433000Y-94930000D01*
X111388000Y-94946000D01*
X111343000Y-94959000D01*
X111297000Y-94970000D01*
X111251000Y-94979000D01*
X111204000Y-94985000D01*
X111157000Y-94989000D01*
X111110000Y-94990000D01*
X108610000Y-94990000D01*
X108610000Y-93190000D01*
X111110000Y-93190000D01*
X111157000Y-93191000D01*
G36*
X111157000Y-93191000D02*
G01*
X111204000Y-93195000D01*
X111251000Y-93201000D01*
X111297000Y-93210000D01*
X111343000Y-93221000D01*
X111388000Y-93234000D01*
X111433000Y-93250000D01*
X111476000Y-93268000D01*
X111519000Y-93288000D01*
X111560000Y-93311000D01*
X111600000Y-93335000D01*
X111639000Y-93362000D01*
X111676000Y-93391000D01*
X111712000Y-93421000D01*
X111746000Y-93454000D01*
X111779000Y-93488000D01*
X111809000Y-93524000D01*
X111838000Y-93561000D01*
X111865000Y-93600000D01*
X111889000Y-93640000D01*
X111912000Y-93681000D01*
X111932000Y-93724000D01*
X111950000Y-93767000D01*
X111966000Y-93812000D01*
X111979000Y-93857000D01*
X111990000Y-93903000D01*
X111999000Y-93949000D01*
X112005000Y-93996000D01*
X112009000Y-94043000D01*
X112010000Y-94090000D01*
X112009000Y-94137000D01*
X112005000Y-94184000D01*
X111999000Y-94231000D01*
X111990000Y-94277000D01*
X111979000Y-94323000D01*
X111966000Y-94368000D01*
X111950000Y-94413000D01*
X111932000Y-94456000D01*
X111912000Y-94499000D01*
X111889000Y-94540000D01*
X111865000Y-94580000D01*
X111838000Y-94619000D01*
X111809000Y-94656000D01*
X111779000Y-94692000D01*
X111746000Y-94726000D01*
X111712000Y-94759000D01*
X111676000Y-94789000D01*
X111639000Y-94818000D01*
X111600000Y-94845000D01*
X111560000Y-94869000D01*
X111519000Y-94892000D01*
X111476000Y-94912000D01*
X111433000Y-94930000D01*
X111388000Y-94946000D01*
X111343000Y-94959000D01*
X111297000Y-94970000D01*
X111251000Y-94979000D01*
X111204000Y-94985000D01*
X111157000Y-94989000D01*
X111110000Y-94990000D01*
X108610000Y-94990000D01*
X108610000Y-93190000D01*
X111110000Y-93190000D01*
X111157000Y-93191000D01*
G37*
X111157000Y-88111000D02*
X111204000Y-88115000D01*
X111251000Y-88121000D01*
X111297000Y-88130000D01*
X111343000Y-88141000D01*
X111388000Y-88154000D01*
X111433000Y-88170000D01*
X111476000Y-88188000D01*
X111519000Y-88208000D01*
X111560000Y-88231000D01*
X111600000Y-88255000D01*
X111639000Y-88282000D01*
X111676000Y-88311000D01*
X111712000Y-88341000D01*
X111746000Y-88374000D01*
X111779000Y-88408000D01*
X111809000Y-88444000D01*
X111838000Y-88481000D01*
X111865000Y-88520000D01*
X111889000Y-88560000D01*
X111912000Y-88601000D01*
X111932000Y-88644000D01*
X111950000Y-88687000D01*
X111966000Y-88732000D01*
X111979000Y-88777000D01*
X111990000Y-88823000D01*
X111999000Y-88869000D01*
X112005000Y-88916000D01*
X112009000Y-88963000D01*
X112010000Y-89010000D01*
X112009000Y-89057000D01*
X112005000Y-89104000D01*
X111999000Y-89151000D01*
X111990000Y-89197000D01*
X111979000Y-89243000D01*
X111966000Y-89288000D01*
X111950000Y-89333000D01*
X111932000Y-89376000D01*
X111912000Y-89419000D01*
X111889000Y-89460000D01*
X111865000Y-89500000D01*
X111838000Y-89539000D01*
X111809000Y-89576000D01*
X111779000Y-89612000D01*
X111746000Y-89646000D01*
X111712000Y-89679000D01*
X111676000Y-89709000D01*
X111639000Y-89738000D01*
X111600000Y-89765000D01*
X111560000Y-89789000D01*
X111519000Y-89812000D01*
X111476000Y-89832000D01*
X111433000Y-89850000D01*
X111388000Y-89866000D01*
X111343000Y-89879000D01*
X111297000Y-89890000D01*
X111251000Y-89899000D01*
X111204000Y-89905000D01*
X111157000Y-89909000D01*
X111110000Y-89910000D01*
X108610000Y-89910000D01*
X108610000Y-88110000D01*
X111110000Y-88110000D01*
X111157000Y-88111000D01*
G36*
X111157000Y-88111000D02*
G01*
X111204000Y-88115000D01*
X111251000Y-88121000D01*
X111297000Y-88130000D01*
X111343000Y-88141000D01*
X111388000Y-88154000D01*
X111433000Y-88170000D01*
X111476000Y-88188000D01*
X111519000Y-88208000D01*
X111560000Y-88231000D01*
X111600000Y-88255000D01*
X111639000Y-88282000D01*
X111676000Y-88311000D01*
X111712000Y-88341000D01*
X111746000Y-88374000D01*
X111779000Y-88408000D01*
X111809000Y-88444000D01*
X111838000Y-88481000D01*
X111865000Y-88520000D01*
X111889000Y-88560000D01*
X111912000Y-88601000D01*
X111932000Y-88644000D01*
X111950000Y-88687000D01*
X111966000Y-88732000D01*
X111979000Y-88777000D01*
X111990000Y-88823000D01*
X111999000Y-88869000D01*
X112005000Y-88916000D01*
X112009000Y-88963000D01*
X112010000Y-89010000D01*
X112009000Y-89057000D01*
X112005000Y-89104000D01*
X111999000Y-89151000D01*
X111990000Y-89197000D01*
X111979000Y-89243000D01*
X111966000Y-89288000D01*
X111950000Y-89333000D01*
X111932000Y-89376000D01*
X111912000Y-89419000D01*
X111889000Y-89460000D01*
X111865000Y-89500000D01*
X111838000Y-89539000D01*
X111809000Y-89576000D01*
X111779000Y-89612000D01*
X111746000Y-89646000D01*
X111712000Y-89679000D01*
X111676000Y-89709000D01*
X111639000Y-89738000D01*
X111600000Y-89765000D01*
X111560000Y-89789000D01*
X111519000Y-89812000D01*
X111476000Y-89832000D01*
X111433000Y-89850000D01*
X111388000Y-89866000D01*
X111343000Y-89879000D01*
X111297000Y-89890000D01*
X111251000Y-89899000D01*
X111204000Y-89905000D01*
X111157000Y-89909000D01*
X111110000Y-89910000D01*
X108610000Y-89910000D01*
X108610000Y-88110000D01*
X111110000Y-88110000D01*
X111157000Y-88111000D01*
G37*
X111157000Y-85571000D02*
X111204000Y-85575000D01*
X111251000Y-85581000D01*
X111297000Y-85590000D01*
X111343000Y-85601000D01*
X111388000Y-85614000D01*
X111433000Y-85630000D01*
X111476000Y-85648000D01*
X111519000Y-85668000D01*
X111560000Y-85691000D01*
X111600000Y-85715000D01*
X111639000Y-85742000D01*
X111676000Y-85771000D01*
X111712000Y-85801000D01*
X111746000Y-85834000D01*
X111779000Y-85868000D01*
X111809000Y-85904000D01*
X111838000Y-85941000D01*
X111865000Y-85980000D01*
X111889000Y-86020000D01*
X111912000Y-86061000D01*
X111932000Y-86104000D01*
X111950000Y-86147000D01*
X111966000Y-86192000D01*
X111979000Y-86237000D01*
X111990000Y-86283000D01*
X111999000Y-86329000D01*
X112005000Y-86376000D01*
X112009000Y-86423000D01*
X112010000Y-86470000D01*
X112009000Y-86517000D01*
X112005000Y-86564000D01*
X111999000Y-86611000D01*
X111990000Y-86657000D01*
X111979000Y-86703000D01*
X111966000Y-86748000D01*
X111950000Y-86793000D01*
X111932000Y-86836000D01*
X111912000Y-86879000D01*
X111889000Y-86920000D01*
X111865000Y-86960000D01*
X111838000Y-86999000D01*
X111809000Y-87036000D01*
X111779000Y-87072000D01*
X111746000Y-87106000D01*
X111712000Y-87139000D01*
X111676000Y-87169000D01*
X111639000Y-87198000D01*
X111600000Y-87225000D01*
X111560000Y-87249000D01*
X111519000Y-87272000D01*
X111476000Y-87292000D01*
X111433000Y-87310000D01*
X111388000Y-87326000D01*
X111343000Y-87339000D01*
X111297000Y-87350000D01*
X111251000Y-87359000D01*
X111204000Y-87365000D01*
X111157000Y-87369000D01*
X111110000Y-87370000D01*
X108610000Y-87370000D01*
X108610000Y-85570000D01*
X111110000Y-85570000D01*
X111157000Y-85571000D01*
G36*
X111157000Y-85571000D02*
G01*
X111204000Y-85575000D01*
X111251000Y-85581000D01*
X111297000Y-85590000D01*
X111343000Y-85601000D01*
X111388000Y-85614000D01*
X111433000Y-85630000D01*
X111476000Y-85648000D01*
X111519000Y-85668000D01*
X111560000Y-85691000D01*
X111600000Y-85715000D01*
X111639000Y-85742000D01*
X111676000Y-85771000D01*
X111712000Y-85801000D01*
X111746000Y-85834000D01*
X111779000Y-85868000D01*
X111809000Y-85904000D01*
X111838000Y-85941000D01*
X111865000Y-85980000D01*
X111889000Y-86020000D01*
X111912000Y-86061000D01*
X111932000Y-86104000D01*
X111950000Y-86147000D01*
X111966000Y-86192000D01*
X111979000Y-86237000D01*
X111990000Y-86283000D01*
X111999000Y-86329000D01*
X112005000Y-86376000D01*
X112009000Y-86423000D01*
X112010000Y-86470000D01*
X112009000Y-86517000D01*
X112005000Y-86564000D01*
X111999000Y-86611000D01*
X111990000Y-86657000D01*
X111979000Y-86703000D01*
X111966000Y-86748000D01*
X111950000Y-86793000D01*
X111932000Y-86836000D01*
X111912000Y-86879000D01*
X111889000Y-86920000D01*
X111865000Y-86960000D01*
X111838000Y-86999000D01*
X111809000Y-87036000D01*
X111779000Y-87072000D01*
X111746000Y-87106000D01*
X111712000Y-87139000D01*
X111676000Y-87169000D01*
X111639000Y-87198000D01*
X111600000Y-87225000D01*
X111560000Y-87249000D01*
X111519000Y-87272000D01*
X111476000Y-87292000D01*
X111433000Y-87310000D01*
X111388000Y-87326000D01*
X111343000Y-87339000D01*
X111297000Y-87350000D01*
X111251000Y-87359000D01*
X111204000Y-87365000D01*
X111157000Y-87369000D01*
X111110000Y-87370000D01*
X108610000Y-87370000D01*
X108610000Y-85570000D01*
X111110000Y-85570000D01*
X111157000Y-85571000D01*
G37*
X111157000Y-83031000D02*
X111204000Y-83035000D01*
X111251000Y-83041000D01*
X111297000Y-83050000D01*
X111343000Y-83061000D01*
X111388000Y-83074000D01*
X111433000Y-83090000D01*
X111476000Y-83108000D01*
X111519000Y-83128000D01*
X111560000Y-83151000D01*
X111600000Y-83175000D01*
X111639000Y-83202000D01*
X111676000Y-83231000D01*
X111712000Y-83261000D01*
X111746000Y-83294000D01*
X111779000Y-83328000D01*
X111809000Y-83364000D01*
X111838000Y-83401000D01*
X111865000Y-83440000D01*
X111889000Y-83480000D01*
X111912000Y-83521000D01*
X111932000Y-83564000D01*
X111950000Y-83607000D01*
X111966000Y-83652000D01*
X111979000Y-83697000D01*
X111990000Y-83743000D01*
X111999000Y-83789000D01*
X112005000Y-83836000D01*
X112009000Y-83883000D01*
X112010000Y-83930000D01*
X112009000Y-83977000D01*
X112005000Y-84024000D01*
X111999000Y-84071000D01*
X111990000Y-84117000D01*
X111979000Y-84163000D01*
X111966000Y-84208000D01*
X111950000Y-84253000D01*
X111932000Y-84296000D01*
X111912000Y-84339000D01*
X111889000Y-84380000D01*
X111865000Y-84420000D01*
X111838000Y-84459000D01*
X111809000Y-84496000D01*
X111779000Y-84532000D01*
X111746000Y-84566000D01*
X111712000Y-84599000D01*
X111676000Y-84629000D01*
X111639000Y-84658000D01*
X111600000Y-84685000D01*
X111560000Y-84709000D01*
X111519000Y-84732000D01*
X111476000Y-84752000D01*
X111433000Y-84770000D01*
X111388000Y-84786000D01*
X111343000Y-84799000D01*
X111297000Y-84810000D01*
X111251000Y-84819000D01*
X111204000Y-84825000D01*
X111157000Y-84829000D01*
X111110000Y-84830000D01*
X108610000Y-84830000D01*
X108610000Y-83030000D01*
X111110000Y-83030000D01*
X111157000Y-83031000D01*
G36*
X111157000Y-83031000D02*
G01*
X111204000Y-83035000D01*
X111251000Y-83041000D01*
X111297000Y-83050000D01*
X111343000Y-83061000D01*
X111388000Y-83074000D01*
X111433000Y-83090000D01*
X111476000Y-83108000D01*
X111519000Y-83128000D01*
X111560000Y-83151000D01*
X111600000Y-83175000D01*
X111639000Y-83202000D01*
X111676000Y-83231000D01*
X111712000Y-83261000D01*
X111746000Y-83294000D01*
X111779000Y-83328000D01*
X111809000Y-83364000D01*
X111838000Y-83401000D01*
X111865000Y-83440000D01*
X111889000Y-83480000D01*
X111912000Y-83521000D01*
X111932000Y-83564000D01*
X111950000Y-83607000D01*
X111966000Y-83652000D01*
X111979000Y-83697000D01*
X111990000Y-83743000D01*
X111999000Y-83789000D01*
X112005000Y-83836000D01*
X112009000Y-83883000D01*
X112010000Y-83930000D01*
X112009000Y-83977000D01*
X112005000Y-84024000D01*
X111999000Y-84071000D01*
X111990000Y-84117000D01*
X111979000Y-84163000D01*
X111966000Y-84208000D01*
X111950000Y-84253000D01*
X111932000Y-84296000D01*
X111912000Y-84339000D01*
X111889000Y-84380000D01*
X111865000Y-84420000D01*
X111838000Y-84459000D01*
X111809000Y-84496000D01*
X111779000Y-84532000D01*
X111746000Y-84566000D01*
X111712000Y-84599000D01*
X111676000Y-84629000D01*
X111639000Y-84658000D01*
X111600000Y-84685000D01*
X111560000Y-84709000D01*
X111519000Y-84732000D01*
X111476000Y-84752000D01*
X111433000Y-84770000D01*
X111388000Y-84786000D01*
X111343000Y-84799000D01*
X111297000Y-84810000D01*
X111251000Y-84819000D01*
X111204000Y-84825000D01*
X111157000Y-84829000D01*
X111110000Y-84830000D01*
X108610000Y-84830000D01*
X108610000Y-83030000D01*
X111110000Y-83030000D01*
X111157000Y-83031000D01*
G37*
X111157000Y-80491000D02*
X111204000Y-80495000D01*
X111251000Y-80501000D01*
X111297000Y-80510000D01*
X111343000Y-80521000D01*
X111388000Y-80534000D01*
X111433000Y-80550000D01*
X111476000Y-80568000D01*
X111519000Y-80588000D01*
X111560000Y-80611000D01*
X111600000Y-80635000D01*
X111639000Y-80662000D01*
X111676000Y-80691000D01*
X111712000Y-80721000D01*
X111746000Y-80754000D01*
X111779000Y-80788000D01*
X111809000Y-80824000D01*
X111838000Y-80861000D01*
X111865000Y-80900000D01*
X111889000Y-80940000D01*
X111912000Y-80981000D01*
X111932000Y-81024000D01*
X111950000Y-81067000D01*
X111966000Y-81112000D01*
X111979000Y-81157000D01*
X111990000Y-81203000D01*
X111999000Y-81249000D01*
X112005000Y-81296000D01*
X112009000Y-81343000D01*
X112010000Y-81390000D01*
X112009000Y-81437000D01*
X112005000Y-81484000D01*
X111999000Y-81531000D01*
X111990000Y-81577000D01*
X111979000Y-81623000D01*
X111966000Y-81668000D01*
X111950000Y-81713000D01*
X111932000Y-81756000D01*
X111912000Y-81799000D01*
X111889000Y-81840000D01*
X111865000Y-81880000D01*
X111838000Y-81919000D01*
X111809000Y-81956000D01*
X111779000Y-81992000D01*
X111746000Y-82026000D01*
X111712000Y-82059000D01*
X111676000Y-82089000D01*
X111639000Y-82118000D01*
X111600000Y-82145000D01*
X111560000Y-82169000D01*
X111519000Y-82192000D01*
X111476000Y-82212000D01*
X111433000Y-82230000D01*
X111388000Y-82246000D01*
X111343000Y-82259000D01*
X111297000Y-82270000D01*
X111251000Y-82279000D01*
X111204000Y-82285000D01*
X111157000Y-82289000D01*
X111110000Y-82290000D01*
X108610000Y-82290000D01*
X108610000Y-80490000D01*
X111110000Y-80490000D01*
X111157000Y-80491000D01*
G36*
X111157000Y-80491000D02*
G01*
X111204000Y-80495000D01*
X111251000Y-80501000D01*
X111297000Y-80510000D01*
X111343000Y-80521000D01*
X111388000Y-80534000D01*
X111433000Y-80550000D01*
X111476000Y-80568000D01*
X111519000Y-80588000D01*
X111560000Y-80611000D01*
X111600000Y-80635000D01*
X111639000Y-80662000D01*
X111676000Y-80691000D01*
X111712000Y-80721000D01*
X111746000Y-80754000D01*
X111779000Y-80788000D01*
X111809000Y-80824000D01*
X111838000Y-80861000D01*
X111865000Y-80900000D01*
X111889000Y-80940000D01*
X111912000Y-80981000D01*
X111932000Y-81024000D01*
X111950000Y-81067000D01*
X111966000Y-81112000D01*
X111979000Y-81157000D01*
X111990000Y-81203000D01*
X111999000Y-81249000D01*
X112005000Y-81296000D01*
X112009000Y-81343000D01*
X112010000Y-81390000D01*
X112009000Y-81437000D01*
X112005000Y-81484000D01*
X111999000Y-81531000D01*
X111990000Y-81577000D01*
X111979000Y-81623000D01*
X111966000Y-81668000D01*
X111950000Y-81713000D01*
X111932000Y-81756000D01*
X111912000Y-81799000D01*
X111889000Y-81840000D01*
X111865000Y-81880000D01*
X111838000Y-81919000D01*
X111809000Y-81956000D01*
X111779000Y-81992000D01*
X111746000Y-82026000D01*
X111712000Y-82059000D01*
X111676000Y-82089000D01*
X111639000Y-82118000D01*
X111600000Y-82145000D01*
X111560000Y-82169000D01*
X111519000Y-82192000D01*
X111476000Y-82212000D01*
X111433000Y-82230000D01*
X111388000Y-82246000D01*
X111343000Y-82259000D01*
X111297000Y-82270000D01*
X111251000Y-82279000D01*
X111204000Y-82285000D01*
X111157000Y-82289000D01*
X111110000Y-82290000D01*
X108610000Y-82290000D01*
X108610000Y-80490000D01*
X111110000Y-80490000D01*
X111157000Y-80491000D01*
G37*
X111157000Y-75411000D02*
X111204000Y-75415000D01*
X111251000Y-75421000D01*
X111297000Y-75430000D01*
X111343000Y-75441000D01*
X111388000Y-75454000D01*
X111433000Y-75470000D01*
X111476000Y-75488000D01*
X111519000Y-75508000D01*
X111560000Y-75531000D01*
X111600000Y-75555000D01*
X111639000Y-75582000D01*
X111676000Y-75611000D01*
X111712000Y-75641000D01*
X111746000Y-75674000D01*
X111779000Y-75708000D01*
X111809000Y-75744000D01*
X111838000Y-75781000D01*
X111865000Y-75820000D01*
X111889000Y-75860000D01*
X111912000Y-75901000D01*
X111932000Y-75944000D01*
X111950000Y-75987000D01*
X111966000Y-76032000D01*
X111979000Y-76077000D01*
X111990000Y-76123000D01*
X111999000Y-76169000D01*
X112005000Y-76216000D01*
X112009000Y-76263000D01*
X112010000Y-76310000D01*
X112009000Y-76357000D01*
X112005000Y-76404000D01*
X111999000Y-76451000D01*
X111990000Y-76497000D01*
X111979000Y-76543000D01*
X111966000Y-76588000D01*
X111950000Y-76633000D01*
X111932000Y-76676000D01*
X111912000Y-76719000D01*
X111889000Y-76760000D01*
X111865000Y-76800000D01*
X111838000Y-76839000D01*
X111809000Y-76876000D01*
X111779000Y-76912000D01*
X111746000Y-76946000D01*
X111712000Y-76979000D01*
X111676000Y-77009000D01*
X111639000Y-77038000D01*
X111600000Y-77065000D01*
X111560000Y-77089000D01*
X111519000Y-77112000D01*
X111476000Y-77132000D01*
X111433000Y-77150000D01*
X111388000Y-77166000D01*
X111343000Y-77179000D01*
X111297000Y-77190000D01*
X111251000Y-77199000D01*
X111204000Y-77205000D01*
X111157000Y-77209000D01*
X111110000Y-77210000D01*
X108610000Y-77210000D01*
X108610000Y-75410000D01*
X111110000Y-75410000D01*
X111157000Y-75411000D01*
G36*
X111157000Y-75411000D02*
G01*
X111204000Y-75415000D01*
X111251000Y-75421000D01*
X111297000Y-75430000D01*
X111343000Y-75441000D01*
X111388000Y-75454000D01*
X111433000Y-75470000D01*
X111476000Y-75488000D01*
X111519000Y-75508000D01*
X111560000Y-75531000D01*
X111600000Y-75555000D01*
X111639000Y-75582000D01*
X111676000Y-75611000D01*
X111712000Y-75641000D01*
X111746000Y-75674000D01*
X111779000Y-75708000D01*
X111809000Y-75744000D01*
X111838000Y-75781000D01*
X111865000Y-75820000D01*
X111889000Y-75860000D01*
X111912000Y-75901000D01*
X111932000Y-75944000D01*
X111950000Y-75987000D01*
X111966000Y-76032000D01*
X111979000Y-76077000D01*
X111990000Y-76123000D01*
X111999000Y-76169000D01*
X112005000Y-76216000D01*
X112009000Y-76263000D01*
X112010000Y-76310000D01*
X112009000Y-76357000D01*
X112005000Y-76404000D01*
X111999000Y-76451000D01*
X111990000Y-76497000D01*
X111979000Y-76543000D01*
X111966000Y-76588000D01*
X111950000Y-76633000D01*
X111932000Y-76676000D01*
X111912000Y-76719000D01*
X111889000Y-76760000D01*
X111865000Y-76800000D01*
X111838000Y-76839000D01*
X111809000Y-76876000D01*
X111779000Y-76912000D01*
X111746000Y-76946000D01*
X111712000Y-76979000D01*
X111676000Y-77009000D01*
X111639000Y-77038000D01*
X111600000Y-77065000D01*
X111560000Y-77089000D01*
X111519000Y-77112000D01*
X111476000Y-77132000D01*
X111433000Y-77150000D01*
X111388000Y-77166000D01*
X111343000Y-77179000D01*
X111297000Y-77190000D01*
X111251000Y-77199000D01*
X111204000Y-77205000D01*
X111157000Y-77209000D01*
X111110000Y-77210000D01*
X108610000Y-77210000D01*
X108610000Y-75410000D01*
X111110000Y-75410000D01*
X111157000Y-75411000D01*
G37*
X111157000Y-72871000D02*
X111204000Y-72875000D01*
X111251000Y-72881000D01*
X111297000Y-72890000D01*
X111343000Y-72901000D01*
X111388000Y-72914000D01*
X111433000Y-72930000D01*
X111476000Y-72948000D01*
X111519000Y-72968000D01*
X111560000Y-72991000D01*
X111600000Y-73015000D01*
X111639000Y-73042000D01*
X111676000Y-73071000D01*
X111712000Y-73101000D01*
X111746000Y-73134000D01*
X111779000Y-73168000D01*
X111809000Y-73204000D01*
X111838000Y-73241000D01*
X111865000Y-73280000D01*
X111889000Y-73320000D01*
X111912000Y-73361000D01*
X111932000Y-73404000D01*
X111950000Y-73447000D01*
X111966000Y-73492000D01*
X111979000Y-73537000D01*
X111990000Y-73583000D01*
X111999000Y-73629000D01*
X112005000Y-73676000D01*
X112009000Y-73723000D01*
X112010000Y-73770000D01*
X112009000Y-73817000D01*
X112005000Y-73864000D01*
X111999000Y-73911000D01*
X111990000Y-73957000D01*
X111979000Y-74003000D01*
X111966000Y-74048000D01*
X111950000Y-74093000D01*
X111932000Y-74136000D01*
X111912000Y-74179000D01*
X111889000Y-74220000D01*
X111865000Y-74260000D01*
X111838000Y-74299000D01*
X111809000Y-74336000D01*
X111779000Y-74372000D01*
X111746000Y-74406000D01*
X111712000Y-74439000D01*
X111676000Y-74469000D01*
X111639000Y-74498000D01*
X111600000Y-74525000D01*
X111560000Y-74549000D01*
X111519000Y-74572000D01*
X111476000Y-74592000D01*
X111433000Y-74610000D01*
X111388000Y-74626000D01*
X111343000Y-74639000D01*
X111297000Y-74650000D01*
X111251000Y-74659000D01*
X111204000Y-74665000D01*
X111157000Y-74669000D01*
X111110000Y-74670000D01*
X108610000Y-74670000D01*
X108610000Y-72870000D01*
X111110000Y-72870000D01*
X111157000Y-72871000D01*
G36*
X111157000Y-72871000D02*
G01*
X111204000Y-72875000D01*
X111251000Y-72881000D01*
X111297000Y-72890000D01*
X111343000Y-72901000D01*
X111388000Y-72914000D01*
X111433000Y-72930000D01*
X111476000Y-72948000D01*
X111519000Y-72968000D01*
X111560000Y-72991000D01*
X111600000Y-73015000D01*
X111639000Y-73042000D01*
X111676000Y-73071000D01*
X111712000Y-73101000D01*
X111746000Y-73134000D01*
X111779000Y-73168000D01*
X111809000Y-73204000D01*
X111838000Y-73241000D01*
X111865000Y-73280000D01*
X111889000Y-73320000D01*
X111912000Y-73361000D01*
X111932000Y-73404000D01*
X111950000Y-73447000D01*
X111966000Y-73492000D01*
X111979000Y-73537000D01*
X111990000Y-73583000D01*
X111999000Y-73629000D01*
X112005000Y-73676000D01*
X112009000Y-73723000D01*
X112010000Y-73770000D01*
X112009000Y-73817000D01*
X112005000Y-73864000D01*
X111999000Y-73911000D01*
X111990000Y-73957000D01*
X111979000Y-74003000D01*
X111966000Y-74048000D01*
X111950000Y-74093000D01*
X111932000Y-74136000D01*
X111912000Y-74179000D01*
X111889000Y-74220000D01*
X111865000Y-74260000D01*
X111838000Y-74299000D01*
X111809000Y-74336000D01*
X111779000Y-74372000D01*
X111746000Y-74406000D01*
X111712000Y-74439000D01*
X111676000Y-74469000D01*
X111639000Y-74498000D01*
X111600000Y-74525000D01*
X111560000Y-74549000D01*
X111519000Y-74572000D01*
X111476000Y-74592000D01*
X111433000Y-74610000D01*
X111388000Y-74626000D01*
X111343000Y-74639000D01*
X111297000Y-74650000D01*
X111251000Y-74659000D01*
X111204000Y-74665000D01*
X111157000Y-74669000D01*
X111110000Y-74670000D01*
X108610000Y-74670000D01*
X108610000Y-72870000D01*
X111110000Y-72870000D01*
X111157000Y-72871000D01*
G37*
X111157000Y-70331000D02*
X111204000Y-70335000D01*
X111251000Y-70341000D01*
X111297000Y-70350000D01*
X111343000Y-70361000D01*
X111388000Y-70374000D01*
X111433000Y-70390000D01*
X111476000Y-70408000D01*
X111519000Y-70428000D01*
X111560000Y-70451000D01*
X111600000Y-70475000D01*
X111639000Y-70502000D01*
X111676000Y-70531000D01*
X111712000Y-70561000D01*
X111746000Y-70594000D01*
X111779000Y-70628000D01*
X111809000Y-70664000D01*
X111838000Y-70701000D01*
X111865000Y-70740000D01*
X111889000Y-70780000D01*
X111912000Y-70821000D01*
X111932000Y-70864000D01*
X111950000Y-70907000D01*
X111966000Y-70952000D01*
X111979000Y-70997000D01*
X111990000Y-71043000D01*
X111999000Y-71089000D01*
X112005000Y-71136000D01*
X112009000Y-71183000D01*
X112010000Y-71230000D01*
X112009000Y-71277000D01*
X112005000Y-71324000D01*
X111999000Y-71371000D01*
X111990000Y-71417000D01*
X111979000Y-71463000D01*
X111966000Y-71508000D01*
X111950000Y-71553000D01*
X111932000Y-71596000D01*
X111912000Y-71639000D01*
X111889000Y-71680000D01*
X111865000Y-71720000D01*
X111838000Y-71759000D01*
X111809000Y-71796000D01*
X111779000Y-71832000D01*
X111746000Y-71866000D01*
X111712000Y-71899000D01*
X111676000Y-71929000D01*
X111639000Y-71958000D01*
X111600000Y-71985000D01*
X111560000Y-72009000D01*
X111519000Y-72032000D01*
X111476000Y-72052000D01*
X111433000Y-72070000D01*
X111388000Y-72086000D01*
X111343000Y-72099000D01*
X111297000Y-72110000D01*
X111251000Y-72119000D01*
X111204000Y-72125000D01*
X111157000Y-72129000D01*
X111110000Y-72130000D01*
X108610000Y-72130000D01*
X108610000Y-70330000D01*
X111110000Y-70330000D01*
X111157000Y-70331000D01*
G36*
X111157000Y-70331000D02*
G01*
X111204000Y-70335000D01*
X111251000Y-70341000D01*
X111297000Y-70350000D01*
X111343000Y-70361000D01*
X111388000Y-70374000D01*
X111433000Y-70390000D01*
X111476000Y-70408000D01*
X111519000Y-70428000D01*
X111560000Y-70451000D01*
X111600000Y-70475000D01*
X111639000Y-70502000D01*
X111676000Y-70531000D01*
X111712000Y-70561000D01*
X111746000Y-70594000D01*
X111779000Y-70628000D01*
X111809000Y-70664000D01*
X111838000Y-70701000D01*
X111865000Y-70740000D01*
X111889000Y-70780000D01*
X111912000Y-70821000D01*
X111932000Y-70864000D01*
X111950000Y-70907000D01*
X111966000Y-70952000D01*
X111979000Y-70997000D01*
X111990000Y-71043000D01*
X111999000Y-71089000D01*
X112005000Y-71136000D01*
X112009000Y-71183000D01*
X112010000Y-71230000D01*
X112009000Y-71277000D01*
X112005000Y-71324000D01*
X111999000Y-71371000D01*
X111990000Y-71417000D01*
X111979000Y-71463000D01*
X111966000Y-71508000D01*
X111950000Y-71553000D01*
X111932000Y-71596000D01*
X111912000Y-71639000D01*
X111889000Y-71680000D01*
X111865000Y-71720000D01*
X111838000Y-71759000D01*
X111809000Y-71796000D01*
X111779000Y-71832000D01*
X111746000Y-71866000D01*
X111712000Y-71899000D01*
X111676000Y-71929000D01*
X111639000Y-71958000D01*
X111600000Y-71985000D01*
X111560000Y-72009000D01*
X111519000Y-72032000D01*
X111476000Y-72052000D01*
X111433000Y-72070000D01*
X111388000Y-72086000D01*
X111343000Y-72099000D01*
X111297000Y-72110000D01*
X111251000Y-72119000D01*
X111204000Y-72125000D01*
X111157000Y-72129000D01*
X111110000Y-72130000D01*
X108610000Y-72130000D01*
X108610000Y-70330000D01*
X111110000Y-70330000D01*
X111157000Y-70331000D01*
G37*
X111157000Y-67791000D02*
X111204000Y-67795000D01*
X111251000Y-67801000D01*
X111297000Y-67810000D01*
X111343000Y-67821000D01*
X111388000Y-67834000D01*
X111433000Y-67850000D01*
X111476000Y-67868000D01*
X111519000Y-67888000D01*
X111560000Y-67911000D01*
X111600000Y-67935000D01*
X111639000Y-67962000D01*
X111676000Y-67991000D01*
X111712000Y-68021000D01*
X111746000Y-68054000D01*
X111779000Y-68088000D01*
X111809000Y-68124000D01*
X111838000Y-68161000D01*
X111865000Y-68200000D01*
X111889000Y-68240000D01*
X111912000Y-68281000D01*
X111932000Y-68324000D01*
X111950000Y-68367000D01*
X111966000Y-68412000D01*
X111979000Y-68457000D01*
X111990000Y-68503000D01*
X111999000Y-68549000D01*
X112005000Y-68596000D01*
X112009000Y-68643000D01*
X112010000Y-68690000D01*
X112009000Y-68737000D01*
X112005000Y-68784000D01*
X111999000Y-68831000D01*
X111990000Y-68877000D01*
X111979000Y-68923000D01*
X111966000Y-68968000D01*
X111950000Y-69013000D01*
X111932000Y-69056000D01*
X111912000Y-69099000D01*
X111889000Y-69140000D01*
X111865000Y-69180000D01*
X111838000Y-69219000D01*
X111809000Y-69256000D01*
X111779000Y-69292000D01*
X111746000Y-69326000D01*
X111712000Y-69359000D01*
X111676000Y-69389000D01*
X111639000Y-69418000D01*
X111600000Y-69445000D01*
X111560000Y-69469000D01*
X111519000Y-69492000D01*
X111476000Y-69512000D01*
X111433000Y-69530000D01*
X111388000Y-69546000D01*
X111343000Y-69559000D01*
X111297000Y-69570000D01*
X111251000Y-69579000D01*
X111204000Y-69585000D01*
X111157000Y-69589000D01*
X111110000Y-69590000D01*
X108610000Y-69590000D01*
X108610000Y-67790000D01*
X111110000Y-67790000D01*
X111157000Y-67791000D01*
G36*
X111157000Y-67791000D02*
G01*
X111204000Y-67795000D01*
X111251000Y-67801000D01*
X111297000Y-67810000D01*
X111343000Y-67821000D01*
X111388000Y-67834000D01*
X111433000Y-67850000D01*
X111476000Y-67868000D01*
X111519000Y-67888000D01*
X111560000Y-67911000D01*
X111600000Y-67935000D01*
X111639000Y-67962000D01*
X111676000Y-67991000D01*
X111712000Y-68021000D01*
X111746000Y-68054000D01*
X111779000Y-68088000D01*
X111809000Y-68124000D01*
X111838000Y-68161000D01*
X111865000Y-68200000D01*
X111889000Y-68240000D01*
X111912000Y-68281000D01*
X111932000Y-68324000D01*
X111950000Y-68367000D01*
X111966000Y-68412000D01*
X111979000Y-68457000D01*
X111990000Y-68503000D01*
X111999000Y-68549000D01*
X112005000Y-68596000D01*
X112009000Y-68643000D01*
X112010000Y-68690000D01*
X112009000Y-68737000D01*
X112005000Y-68784000D01*
X111999000Y-68831000D01*
X111990000Y-68877000D01*
X111979000Y-68923000D01*
X111966000Y-68968000D01*
X111950000Y-69013000D01*
X111932000Y-69056000D01*
X111912000Y-69099000D01*
X111889000Y-69140000D01*
X111865000Y-69180000D01*
X111838000Y-69219000D01*
X111809000Y-69256000D01*
X111779000Y-69292000D01*
X111746000Y-69326000D01*
X111712000Y-69359000D01*
X111676000Y-69389000D01*
X111639000Y-69418000D01*
X111600000Y-69445000D01*
X111560000Y-69469000D01*
X111519000Y-69492000D01*
X111476000Y-69512000D01*
X111433000Y-69530000D01*
X111388000Y-69546000D01*
X111343000Y-69559000D01*
X111297000Y-69570000D01*
X111251000Y-69579000D01*
X111204000Y-69585000D01*
X111157000Y-69589000D01*
X111110000Y-69590000D01*
X108610000Y-69590000D01*
X108610000Y-67790000D01*
X111110000Y-67790000D01*
X111157000Y-67791000D01*
G37*
X111157000Y-62711000D02*
X111204000Y-62715000D01*
X111251000Y-62721000D01*
X111297000Y-62730000D01*
X111343000Y-62741000D01*
X111388000Y-62754000D01*
X111433000Y-62770000D01*
X111476000Y-62788000D01*
X111519000Y-62808000D01*
X111560000Y-62831000D01*
X111600000Y-62855000D01*
X111639000Y-62882000D01*
X111676000Y-62911000D01*
X111712000Y-62941000D01*
X111746000Y-62974000D01*
X111779000Y-63008000D01*
X111809000Y-63044000D01*
X111838000Y-63081000D01*
X111865000Y-63120000D01*
X111889000Y-63160000D01*
X111912000Y-63201000D01*
X111932000Y-63244000D01*
X111950000Y-63287000D01*
X111966000Y-63332000D01*
X111979000Y-63377000D01*
X111990000Y-63423000D01*
X111999000Y-63469000D01*
X112005000Y-63516000D01*
X112009000Y-63563000D01*
X112010000Y-63610000D01*
X112009000Y-63657000D01*
X112005000Y-63704000D01*
X111999000Y-63751000D01*
X111990000Y-63797000D01*
X111979000Y-63843000D01*
X111966000Y-63888000D01*
X111950000Y-63933000D01*
X111932000Y-63976000D01*
X111912000Y-64019000D01*
X111889000Y-64060000D01*
X111865000Y-64100000D01*
X111838000Y-64139000D01*
X111809000Y-64176000D01*
X111779000Y-64212000D01*
X111746000Y-64246000D01*
X111712000Y-64279000D01*
X111676000Y-64309000D01*
X111639000Y-64338000D01*
X111600000Y-64365000D01*
X111560000Y-64389000D01*
X111519000Y-64412000D01*
X111476000Y-64432000D01*
X111433000Y-64450000D01*
X111388000Y-64466000D01*
X111343000Y-64479000D01*
X111297000Y-64490000D01*
X111251000Y-64499000D01*
X111204000Y-64505000D01*
X111157000Y-64509000D01*
X111110000Y-64510000D01*
X108610000Y-64510000D01*
X108610000Y-62710000D01*
X111110000Y-62710000D01*
X111157000Y-62711000D01*
G36*
X111157000Y-62711000D02*
G01*
X111204000Y-62715000D01*
X111251000Y-62721000D01*
X111297000Y-62730000D01*
X111343000Y-62741000D01*
X111388000Y-62754000D01*
X111433000Y-62770000D01*
X111476000Y-62788000D01*
X111519000Y-62808000D01*
X111560000Y-62831000D01*
X111600000Y-62855000D01*
X111639000Y-62882000D01*
X111676000Y-62911000D01*
X111712000Y-62941000D01*
X111746000Y-62974000D01*
X111779000Y-63008000D01*
X111809000Y-63044000D01*
X111838000Y-63081000D01*
X111865000Y-63120000D01*
X111889000Y-63160000D01*
X111912000Y-63201000D01*
X111932000Y-63244000D01*
X111950000Y-63287000D01*
X111966000Y-63332000D01*
X111979000Y-63377000D01*
X111990000Y-63423000D01*
X111999000Y-63469000D01*
X112005000Y-63516000D01*
X112009000Y-63563000D01*
X112010000Y-63610000D01*
X112009000Y-63657000D01*
X112005000Y-63704000D01*
X111999000Y-63751000D01*
X111990000Y-63797000D01*
X111979000Y-63843000D01*
X111966000Y-63888000D01*
X111950000Y-63933000D01*
X111932000Y-63976000D01*
X111912000Y-64019000D01*
X111889000Y-64060000D01*
X111865000Y-64100000D01*
X111838000Y-64139000D01*
X111809000Y-64176000D01*
X111779000Y-64212000D01*
X111746000Y-64246000D01*
X111712000Y-64279000D01*
X111676000Y-64309000D01*
X111639000Y-64338000D01*
X111600000Y-64365000D01*
X111560000Y-64389000D01*
X111519000Y-64412000D01*
X111476000Y-64432000D01*
X111433000Y-64450000D01*
X111388000Y-64466000D01*
X111343000Y-64479000D01*
X111297000Y-64490000D01*
X111251000Y-64499000D01*
X111204000Y-64505000D01*
X111157000Y-64509000D01*
X111110000Y-64510000D01*
X108610000Y-64510000D01*
X108610000Y-62710000D01*
X111110000Y-62710000D01*
X111157000Y-62711000D01*
G37*
X111157000Y-60171000D02*
X111204000Y-60175000D01*
X111251000Y-60181000D01*
X111297000Y-60190000D01*
X111343000Y-60201000D01*
X111388000Y-60214000D01*
X111433000Y-60230000D01*
X111476000Y-60248000D01*
X111519000Y-60268000D01*
X111560000Y-60291000D01*
X111600000Y-60315000D01*
X111639000Y-60342000D01*
X111676000Y-60371000D01*
X111712000Y-60401000D01*
X111746000Y-60434000D01*
X111779000Y-60468000D01*
X111809000Y-60504000D01*
X111838000Y-60541000D01*
X111865000Y-60580000D01*
X111889000Y-60620000D01*
X111912000Y-60661000D01*
X111932000Y-60704000D01*
X111950000Y-60747000D01*
X111966000Y-60792000D01*
X111979000Y-60837000D01*
X111990000Y-60883000D01*
X111999000Y-60929000D01*
X112005000Y-60976000D01*
X112009000Y-61023000D01*
X112010000Y-61070000D01*
X112009000Y-61117000D01*
X112005000Y-61164000D01*
X111999000Y-61211000D01*
X111990000Y-61257000D01*
X111979000Y-61303000D01*
X111966000Y-61348000D01*
X111950000Y-61393000D01*
X111932000Y-61436000D01*
X111912000Y-61479000D01*
X111889000Y-61520000D01*
X111865000Y-61560000D01*
X111838000Y-61599000D01*
X111809000Y-61636000D01*
X111779000Y-61672000D01*
X111746000Y-61706000D01*
X111712000Y-61739000D01*
X111676000Y-61769000D01*
X111639000Y-61798000D01*
X111600000Y-61825000D01*
X111560000Y-61849000D01*
X111519000Y-61872000D01*
X111476000Y-61892000D01*
X111433000Y-61910000D01*
X111388000Y-61926000D01*
X111343000Y-61939000D01*
X111297000Y-61950000D01*
X111251000Y-61959000D01*
X111204000Y-61965000D01*
X111157000Y-61969000D01*
X111110000Y-61970000D01*
X108610000Y-61970000D01*
X108610000Y-60170000D01*
X111110000Y-60170000D01*
X111157000Y-60171000D01*
G36*
X111157000Y-60171000D02*
G01*
X111204000Y-60175000D01*
X111251000Y-60181000D01*
X111297000Y-60190000D01*
X111343000Y-60201000D01*
X111388000Y-60214000D01*
X111433000Y-60230000D01*
X111476000Y-60248000D01*
X111519000Y-60268000D01*
X111560000Y-60291000D01*
X111600000Y-60315000D01*
X111639000Y-60342000D01*
X111676000Y-60371000D01*
X111712000Y-60401000D01*
X111746000Y-60434000D01*
X111779000Y-60468000D01*
X111809000Y-60504000D01*
X111838000Y-60541000D01*
X111865000Y-60580000D01*
X111889000Y-60620000D01*
X111912000Y-60661000D01*
X111932000Y-60704000D01*
X111950000Y-60747000D01*
X111966000Y-60792000D01*
X111979000Y-60837000D01*
X111990000Y-60883000D01*
X111999000Y-60929000D01*
X112005000Y-60976000D01*
X112009000Y-61023000D01*
X112010000Y-61070000D01*
X112009000Y-61117000D01*
X112005000Y-61164000D01*
X111999000Y-61211000D01*
X111990000Y-61257000D01*
X111979000Y-61303000D01*
X111966000Y-61348000D01*
X111950000Y-61393000D01*
X111932000Y-61436000D01*
X111912000Y-61479000D01*
X111889000Y-61520000D01*
X111865000Y-61560000D01*
X111838000Y-61599000D01*
X111809000Y-61636000D01*
X111779000Y-61672000D01*
X111746000Y-61706000D01*
X111712000Y-61739000D01*
X111676000Y-61769000D01*
X111639000Y-61798000D01*
X111600000Y-61825000D01*
X111560000Y-61849000D01*
X111519000Y-61872000D01*
X111476000Y-61892000D01*
X111433000Y-61910000D01*
X111388000Y-61926000D01*
X111343000Y-61939000D01*
X111297000Y-61950000D01*
X111251000Y-61959000D01*
X111204000Y-61965000D01*
X111157000Y-61969000D01*
X111110000Y-61970000D01*
X108610000Y-61970000D01*
X108610000Y-60170000D01*
X111110000Y-60170000D01*
X111157000Y-60171000D01*
G37*
%TD*%
D11*
%TO.C,U9*%
X161700000Y-130505000D03*
X161700000Y-129235000D03*
X161700000Y-127965000D03*
X161700000Y-126695000D03*
X156300000Y-126695000D03*
X156300000Y-127965000D03*
X156300000Y-129235000D03*
X156300000Y-130505000D03*
%TD*%
%TO.C,U3*%
X123200000Y-130605000D03*
X123200000Y-129335000D03*
X123200000Y-128065000D03*
X123200000Y-126795000D03*
X117800000Y-126795000D03*
X117800000Y-128065000D03*
X117800000Y-129335000D03*
X117800000Y-130605000D03*
%TD*%
%TO.C,U7*%
X142100000Y-130505000D03*
X142100000Y-129235000D03*
X142100000Y-127965000D03*
X142100000Y-126695000D03*
X136700000Y-126695000D03*
X136700000Y-127965000D03*
X136700000Y-129235000D03*
X136700000Y-130505000D03*
%TD*%
D12*
%TO.C,TP2*%
X164300000Y-108400000D03*
%TD*%
D13*
%TO.C,C7*%
X115050000Y-121000000D03*
X113150000Y-121000000D03*
%TD*%
%TO.C,C12*%
X132800000Y-130100000D03*
X130900000Y-130100000D03*
%TD*%
%TO.C,C16*%
X152600000Y-130200000D03*
X150700000Y-130200000D03*
%TD*%
D14*
%TO.C,H2*%
X192000000Y-64000000D03*
%TD*%
D15*
%TO.C,J5*%
X137520000Y-134725000D03*
D16*
X134980000Y-134725000D03*
%TD*%
D17*
%TO.C,U2*%
X117500000Y-72700000D03*
X117500000Y-70200000D03*
X117500000Y-67700000D03*
X119000000Y-60900000D03*
X121000000Y-60900000D03*
X120000000Y-64200000D03*
D18*
X122425000Y-64230000D03*
X117575000Y-64230000D03*
D19*
X122725000Y-61200000D03*
X117275000Y-61200000D03*
%TD*%
D20*
%TO.C,L1*%
X151015000Y-90400000D03*
X153385000Y-90400000D03*
%TD*%
D14*
%TO.C,H4*%
X192000000Y-134000000D03*
%TD*%
D13*
%TO.C,C15*%
X153200000Y-118690000D03*
X151300000Y-118690000D03*
%TD*%
D21*
%TO.C,Q1*%
X174950000Y-126062500D03*
X173050000Y-126062500D03*
X174000000Y-127937500D03*
%TD*%
D15*
%TO.C,J1*%
X175500000Y-134725000D03*
D16*
X172960000Y-134725000D03*
%TD*%
D22*
%TO.C,J8*%
X135960000Y-109535000D03*
X135960000Y-105465000D03*
X137230000Y-109535000D03*
X137230000Y-105465000D03*
X138500000Y-109535000D03*
X138500000Y-105465000D03*
X139770000Y-109535000D03*
X139770000Y-105465000D03*
X141040000Y-109535000D03*
X141040000Y-105465000D03*
%TD*%
D23*
%TO.C,U8*%
X156525000Y-117190000D03*
X156525000Y-118460000D03*
X156525000Y-119730000D03*
X156525000Y-121000000D03*
X156525000Y-122270000D03*
X156525000Y-123540000D03*
X156525000Y-124810000D03*
X161475000Y-124810000D03*
X161475000Y-123540000D03*
X161475000Y-122270000D03*
X161475000Y-121000000D03*
X161475000Y-119730000D03*
X161475000Y-118460000D03*
X161475000Y-117190000D03*
%TD*%
D24*
%TO.C,R2*%
X158500000Y-94375000D03*
X158500000Y-96200000D03*
%TD*%
D25*
%TO.C,D1*%
X175650000Y-131500000D03*
X172350000Y-131500000D03*
%TD*%
D26*
%TO.C,R1*%
X156500000Y-96200000D03*
X156500000Y-94375000D03*
%TD*%
D27*
%TO.C,C3*%
X148000000Y-94250000D03*
X148000000Y-96150000D03*
%TD*%
D28*
%TO.C,U5*%
X157500000Y-109600000D03*
X159400000Y-109600000D03*
X158450000Y-107325000D03*
%TD*%
D29*
%TO.C,R3*%
X174912500Y-123000000D03*
X173087500Y-123000000D03*
%TD*%
D14*
%TO.C,H1*%
X102000000Y-64000000D03*
%TD*%
D13*
%TO.C,C10*%
X133700000Y-121000000D03*
X131800000Y-121000000D03*
%TD*%
D15*
%TO.C,J7*%
X118500000Y-134725000D03*
D16*
X115960000Y-134725000D03*
%TD*%
D15*
%TO.C,J3*%
X156700000Y-134850000D03*
D16*
X154160000Y-134850000D03*
%TD*%
D14*
%TO.C,H3*%
X102000000Y-134000000D03*
%TD*%
D15*
%TO.C,J2*%
X164275000Y-134850000D03*
D16*
X161735000Y-134850000D03*
%TD*%
D13*
%TO.C,C1*%
X153150000Y-100600000D03*
X151250000Y-100600000D03*
%TD*%
%TO.C,C9*%
X115000000Y-118600000D03*
X113100000Y-118600000D03*
%TD*%
%TO.C,C4*%
X153150000Y-98400000D03*
X151250000Y-98400000D03*
%TD*%
D15*
%TO.C,J9*%
X142400000Y-98300000D03*
D16*
X139860000Y-98300000D03*
X137320000Y-98300000D03*
X134780000Y-98300000D03*
%TD*%
D13*
%TO.C,C11*%
X133700000Y-118590000D03*
X131800000Y-118590000D03*
%TD*%
%TO.C,C17*%
X152600000Y-127690000D03*
X150700000Y-127690000D03*
%TD*%
D23*
%TO.C,U6*%
X137000000Y-117190000D03*
X137000000Y-118460000D03*
X137000000Y-119730000D03*
X137000000Y-121000000D03*
X137000000Y-122270000D03*
X137000000Y-123540000D03*
X137000000Y-124810000D03*
X141950000Y-124810000D03*
X141950000Y-123540000D03*
X141950000Y-122270000D03*
X141950000Y-121000000D03*
X141950000Y-119730000D03*
X141950000Y-118460000D03*
X141950000Y-117190000D03*
%TD*%
D12*
%TO.C,TP1*%
X164700000Y-95700000D03*
%TD*%
D13*
%TO.C,C14*%
X153200000Y-121000000D03*
X151300000Y-121000000D03*
%TD*%
%TO.C,C5*%
X159300000Y-112200000D03*
X157400000Y-112200000D03*
%TD*%
%TO.C,C8*%
X113850000Y-127900000D03*
X111950000Y-127900000D03*
%TD*%
D15*
%TO.C,J6*%
X125700000Y-134725000D03*
D16*
X123160000Y-134725000D03*
%TD*%
D15*
%TO.C,J4*%
X144520000Y-134725000D03*
D16*
X141980000Y-134725000D03*
%TD*%
D23*
%TO.C,U4*%
X118025000Y-117190000D03*
X118025000Y-118460000D03*
X118025000Y-119730000D03*
X118025000Y-121000000D03*
X118025000Y-122270000D03*
X118025000Y-123540000D03*
X118025000Y-124810000D03*
X122975000Y-124810000D03*
X122975000Y-123540000D03*
X122975000Y-122270000D03*
X122975000Y-121000000D03*
X122975000Y-119730000D03*
X122975000Y-118460000D03*
X122975000Y-117190000D03*
%TD*%
D30*
%TO.C,U1*%
X151475000Y-94800000D03*
X151475000Y-95300000D03*
X151475000Y-95800000D03*
X152900000Y-95800000D03*
X152900000Y-95300000D03*
X152900000Y-94800000D03*
%TD*%
D27*
%TO.C,C2*%
X145900000Y-94250000D03*
X145900000Y-96150000D03*
%TD*%
D13*
%TO.C,C6*%
X113850000Y-130300000D03*
X111950000Y-130300000D03*
%TD*%
%TO.C,C13*%
X132800000Y-127820000D03*
X130900000Y-127820000D03*
%TD*%
M02*
