%TF.GenerationSoftware,KiCad,Pcbnew,8.0.8*%
%TF.CreationDate,2025-02-18T11:26:51+01:00*%
%TF.ProjectId,laser_controller,6c617365-725f-4636-9f6e-74726f6c6c65,rev?*%
%TF.SameCoordinates,Original*%
%TF.FileFunction,Copper,L2,Bot*%
%TF.FilePolarity,Positive*%
%FSLAX46Y46*%
G04 Gerber Fmt 4.6, Leading zero omitted, Abs format (unit mm)*
G04 Created by KiCad (PCBNEW 8.0.8) date 2025-02-18 11:26:51*
%MOMM*%
%LPD*%
G01*
G04 APERTURE LIST*
G04 Aperture macros list*
%AMRoundRect*
0 Rectangle with rounded corners*
0 $1 Rounding radius*
0 $2 $3 $4 $5 $6 $7 $8 $9 X,Y pos of 4 corners*
0 Add a 4 corners polygon primitive as box body*
4,1,4,$2,$3,$4,$5,$6,$7,$8,$9,$2,$3,0*
0 Add four circle primitives for the rounded corners*
1,1,$1+$1,$2,$3*
1,1,$1+$1,$4,$5*
1,1,$1+$1,$6,$7*
1,1,$1+$1,$8,$9*
0 Add four rect primitives between the rounded corners*
20,1,$1+$1,$2,$3,$4,$5,0*
20,1,$1+$1,$4,$5,$6,$7,0*
20,1,$1+$1,$6,$7,$8,$9,0*
20,1,$1+$1,$8,$9,$2,$3,0*%
G04 Aperture macros list end*
%TA.AperFunction,ComponentPad*%
%ADD10C,6.400000*%
%TD*%
%TA.AperFunction,ComponentPad*%
%ADD11RoundRect,0.250000X-0.350000X-0.625000X0.350000X-0.625000X0.350000X0.625000X-0.350000X0.625000X0*%
%TD*%
%TA.AperFunction,ComponentPad*%
%ADD12O,1.200000X1.750000*%
%TD*%
%TA.AperFunction,ComponentPad*%
%ADD13R,1.700000X1.700000*%
%TD*%
%TA.AperFunction,ComponentPad*%
%ADD14O,1.700000X1.700000*%
%TD*%
%TA.AperFunction,ViaPad*%
%ADD15C,0.600000*%
%TD*%
%TA.AperFunction,Conductor*%
%ADD16C,0.300000*%
%TD*%
%TA.AperFunction,Conductor*%
%ADD17C,0.200000*%
%TD*%
G04 APERTURE END LIST*
D10*
%TO.P,H2,1,1*%
%TO.N,GND*%
X192000000Y-64000000D03*
%TD*%
D11*
%TO.P,J4,1,1*%
%TO.N,Motor- A*%
X170000000Y-132150000D03*
D12*
%TO.P,J4,2,2*%
%TO.N,+3.3V*%
X172000000Y-132150000D03*
%TO.P,J4,3,3*%
%TO.N,Motor- B*%
X174000000Y-132150000D03*
%TD*%
D10*
%TO.P,H4,1,1*%
%TO.N,GND*%
X192000000Y-134000000D03*
%TD*%
%TO.P,H1,1,1*%
%TO.N,GND*%
X102000000Y-64000000D03*
%TD*%
D11*
%TO.P,J1,1,1*%
%TO.N,DAC_A1*%
X150000000Y-132000000D03*
D12*
%TO.P,J1,2,2*%
%TO.N,GND*%
X152000000Y-132000000D03*
%TO.P,J1,3,3*%
%TO.N,DAC_A0*%
X154000000Y-132000000D03*
%TD*%
D10*
%TO.P,H3,1,1*%
%TO.N,GND*%
X102000000Y-134000000D03*
%TD*%
D13*
%TO.P,J9,1,Pin_1*%
%TO.N,GND*%
X163800000Y-114000000D03*
D14*
%TO.P,J9,2,Pin_2*%
%TO.N,CLK_B*%
X163800000Y-116540000D03*
%TO.P,J9,3,Pin_3*%
%TO.N,MOSI_B*%
X163800000Y-119080000D03*
%TO.P,J9,4,Pin_4*%
%TO.N,CS_A_B*%
X163800000Y-121620000D03*
%TD*%
D11*
%TO.P,J3,1,1*%
%TO.N,DAC_C1*%
X120000000Y-132000000D03*
D12*
%TO.P,J3,2,2*%
%TO.N,GND*%
X122000000Y-132000000D03*
%TO.P,J3,3,3*%
%TO.N,DAC_C0*%
X124000000Y-132000000D03*
%TD*%
D11*
%TO.P,J2,1,1*%
%TO.N,DAC_B1*%
X135000000Y-132000000D03*
D12*
%TO.P,J2,2,2*%
%TO.N,GND*%
X137000000Y-132000000D03*
%TO.P,J2,3,3*%
%TO.N,DAC_B0*%
X139000000Y-132000000D03*
%TD*%
D15*
%TO.N,GND*%
X139550000Y-116625000D03*
X150960000Y-78865000D03*
X166900000Y-121600000D03*
X151250000Y-98500000D03*
X138500000Y-107350000D03*
X129690000Y-104250000D03*
X151250000Y-100700000D03*
X148300000Y-124595000D03*
X128090000Y-113750000D03*
X110300000Y-104250000D03*
X149050000Y-113600000D03*
X120000000Y-109900000D03*
X128500000Y-124695000D03*
X148000000Y-96200000D03*
X129690000Y-78850000D03*
X129690000Y-66150000D03*
X129690000Y-91550000D03*
X145900000Y-96200000D03*
X149900000Y-105500000D03*
X148300000Y-127195000D03*
X139550000Y-121705000D03*
X166900000Y-118600000D03*
X152260000Y-78865000D03*
X154200000Y-95900000D03*
X109600000Y-127195000D03*
X110900000Y-113400000D03*
X159300000Y-123590000D03*
X110310000Y-78850000D03*
X149050000Y-115900000D03*
X158500000Y-96300000D03*
X159100000Y-121695000D03*
X128500000Y-126995000D03*
X110300000Y-66150000D03*
X110310000Y-91550000D03*
X120800000Y-123690000D03*
X120575000Y-116625000D03*
X175950000Y-118500000D03*
X120000000Y-64200000D03*
X175850000Y-121700000D03*
X157100000Y-109700000D03*
X158100000Y-104800000D03*
X110900000Y-115800000D03*
X117575000Y-64230000D03*
X122425000Y-64230000D03*
X122700000Y-61200000D03*
X117275000Y-61200000D03*
X139700000Y-123590000D03*
X120600000Y-121695000D03*
X130490000Y-113750000D03*
X159075000Y-116625000D03*
X109600000Y-124795000D03*
X140000000Y-109400000D03*
%TO.N,+2V5*%
X120600000Y-115400000D03*
X159100000Y-115400000D03*
X159050000Y-109650000D03*
X139550000Y-115355000D03*
%TO.N,SWO*%
X152260000Y-74830000D03*
X110400000Y-61000000D03*
%TO.N,SWDCLK*%
X136600000Y-90500000D03*
X125500000Y-101600000D03*
%TO.N,SWDIO*%
X137400000Y-91100000D03*
X126100000Y-102300000D03*
%TO.N,CLK*%
X110310000Y-68700000D03*
%TO.N,MOSI*%
X110310000Y-71230000D03*
%TO.N,PWM*%
X138100000Y-109400000D03*
X151400000Y-111400000D03*
%TO.N,Net-(U1-FB)*%
X156500000Y-94475000D03*
X150900000Y-94000000D03*
%TO.N,Net-(U3A-+)*%
X117100000Y-121000000D03*
X117671488Y-122571488D03*
%TO.N,Net-(U6-VoutA)*%
X136100000Y-120200000D03*
X136200000Y-122800000D03*
%TO.N,Net-(U8-VoutA)*%
X155600000Y-118100000D03*
X156000000Y-120825735D03*
%TO.N,CLK_B*%
X134600000Y-117900000D03*
X115600000Y-117895000D03*
X146600000Y-117860000D03*
X154100000Y-117900000D03*
%TO.N,CS_A_B*%
X145150000Y-113000000D03*
X155800000Y-116625000D03*
X147700000Y-114195000D03*
X157790878Y-118509255D03*
%TO.N,MOSI_B*%
X145000000Y-118680000D03*
X115600000Y-119200000D03*
X154100000Y-119200000D03*
X134600000Y-119200000D03*
%TD*%
D16*
%TO.N,+2V5*%
X140060000Y-114845000D02*
X139550000Y-115355000D01*
X158545000Y-114845000D02*
X159100000Y-115400000D01*
X159050000Y-109650000D02*
X159100000Y-109700000D01*
X140100000Y-114845000D02*
X121155000Y-114845000D01*
X159100000Y-109700000D02*
X159100000Y-115400000D01*
X140100000Y-114845000D02*
X140060000Y-114845000D01*
X158545000Y-114845000D02*
X140100000Y-114845000D01*
X121155000Y-114845000D02*
X120600000Y-115400000D01*
D17*
%TO.N,SWO*%
X110400000Y-61000000D02*
X124400000Y-75000000D01*
X152090000Y-75000000D02*
X152260000Y-74830000D01*
X124400000Y-75000000D02*
X152090000Y-75000000D01*
%TO.N,SWDCLK*%
X136600000Y-90500000D02*
X125500000Y-101600000D01*
%TO.N,SWDIO*%
X126200000Y-102300000D02*
X126100000Y-102300000D01*
X137400000Y-91100000D02*
X126200000Y-102300000D01*
%TO.N,CLK*%
X110310000Y-68750000D02*
X110310000Y-68700000D01*
X110310000Y-68700000D02*
X110310000Y-68690000D01*
%TO.N,MOSI*%
X110310000Y-71290000D02*
X110310000Y-71230000D01*
%TO.N,PWM*%
X140400000Y-111700000D02*
X151100000Y-111700000D01*
X138100000Y-109400000D02*
X140400000Y-111700000D01*
X151100000Y-111700000D02*
X151400000Y-111400000D01*
%TO.N,Net-(U1-FB)*%
X156025000Y-94000000D02*
X156500000Y-94475000D01*
X150900000Y-94000000D02*
X156025000Y-94000000D01*
%TO.N,Net-(U3A-+)*%
X117100000Y-121000000D02*
X117671488Y-121571488D01*
X117671488Y-121571488D02*
X117671488Y-122571488D01*
%TO.N,Net-(U6-VoutA)*%
X136100000Y-122700000D02*
X136100000Y-120200000D01*
X136200000Y-122800000D02*
X136100000Y-122700000D01*
%TO.N,Net-(U8-VoutA)*%
X155600000Y-120425735D02*
X155600000Y-118100000D01*
X156000000Y-120825735D02*
X155600000Y-120425735D01*
%TO.N,CLK_B*%
X146600000Y-117860000D02*
X141840000Y-117860000D01*
X160500000Y-122500000D02*
X156700000Y-122500000D01*
X162000000Y-121000000D02*
X160500000Y-122500000D01*
X116205000Y-118500000D02*
X134000000Y-118500000D01*
X156700000Y-122500000D02*
X154700000Y-120500000D01*
X154100000Y-117860000D02*
X146600000Y-117860000D01*
X135200000Y-118460000D02*
X134600000Y-117860000D01*
X162000000Y-118340000D02*
X162000000Y-121000000D01*
X154700000Y-118500000D02*
X154100000Y-117900000D01*
X141840000Y-117860000D02*
X141240000Y-118460000D01*
X154700000Y-120500000D02*
X154700000Y-118500000D01*
X163800000Y-116540000D02*
X162000000Y-118340000D01*
X115600000Y-117895000D02*
X116205000Y-118500000D01*
X134000000Y-118500000D02*
X134600000Y-117900000D01*
X141240000Y-118460000D02*
X135200000Y-118460000D01*
%TO.N,CS_A_B*%
X146345000Y-114195000D02*
X147700000Y-114195000D01*
X145150000Y-113000000D02*
X146345000Y-114195000D01*
X155800000Y-116625000D02*
X155906623Y-116625000D01*
X155906623Y-116625000D02*
X157790878Y-118509255D01*
%TO.N,MOSI_B*%
X159558529Y-123000000D02*
X160900000Y-123000000D01*
X134600000Y-119200000D02*
X115600000Y-119200000D01*
X153580000Y-118680000D02*
X145000000Y-118680000D01*
X162650000Y-120230000D02*
X163800000Y-119080000D01*
X141600000Y-119200000D02*
X134600000Y-119200000D01*
X154100000Y-119200000D02*
X154100000Y-120500000D01*
X159041471Y-123000000D02*
X159051471Y-122990000D01*
X154100000Y-119200000D02*
X153580000Y-118680000D01*
X159548529Y-122990000D02*
X159558529Y-123000000D01*
X156600000Y-123000000D02*
X159041471Y-123000000D01*
X159051471Y-122990000D02*
X159548529Y-122990000D01*
X142120000Y-118680000D02*
X141600000Y-119200000D01*
X160900000Y-123000000D02*
X162650000Y-121250000D01*
X154100000Y-120500000D02*
X156600000Y-123000000D01*
X162650000Y-121250000D02*
X162650000Y-120230000D01*
X145000000Y-118680000D02*
X142120000Y-118680000D01*
%TD*%
%TA.AperFunction,Conductor*%
%TO.N,GND*%
G36*
X196442539Y-59520185D02*
G01*
X196488294Y-59572989D01*
X196499500Y-59624500D01*
X196499500Y-138375500D01*
X196479815Y-138442539D01*
X196427011Y-138488294D01*
X196375500Y-138499500D01*
X97624500Y-138499500D01*
X97557461Y-138479815D01*
X97511706Y-138427011D01*
X97500500Y-138375500D01*
X97500500Y-133999999D01*
X98294922Y-133999999D01*
X98294922Y-134000000D01*
X98315219Y-134387287D01*
X98375886Y-134770323D01*
X98375887Y-134770330D01*
X98476262Y-135144936D01*
X98615244Y-135506994D01*
X98791310Y-135852543D01*
X99002523Y-136177783D01*
X99002525Y-136177785D01*
X99211096Y-136435348D01*
X100705747Y-134940697D01*
X100779588Y-135042330D01*
X100957670Y-135220412D01*
X101059301Y-135294251D01*
X99564650Y-136788902D01*
X99822214Y-136997475D01*
X99822216Y-136997476D01*
X100147456Y-137208689D01*
X100493005Y-137384755D01*
X100855063Y-137523737D01*
X101229669Y-137624112D01*
X101229676Y-137624113D01*
X101612712Y-137684780D01*
X101999999Y-137705078D01*
X102000001Y-137705078D01*
X102387287Y-137684780D01*
X102770323Y-137624113D01*
X102770330Y-137624112D01*
X103144936Y-137523737D01*
X103506994Y-137384755D01*
X103852543Y-137208689D01*
X104177771Y-136997484D01*
X104177784Y-136997474D01*
X104435348Y-136788902D01*
X102940698Y-135294252D01*
X103042330Y-135220412D01*
X103220412Y-135042330D01*
X103294252Y-134940698D01*
X104788902Y-136435348D01*
X104997474Y-136177784D01*
X104997484Y-136177771D01*
X105208689Y-135852543D01*
X105384755Y-135506994D01*
X105523737Y-135144936D01*
X105624112Y-134770330D01*
X105624113Y-134770323D01*
X105684780Y-134387287D01*
X105705078Y-134000000D01*
X105705078Y-133999999D01*
X188294922Y-133999999D01*
X188294922Y-134000000D01*
X188315219Y-134387287D01*
X188375886Y-134770323D01*
X188375887Y-134770330D01*
X188476262Y-135144936D01*
X188615244Y-135506994D01*
X188791310Y-135852543D01*
X189002523Y-136177783D01*
X189002525Y-136177785D01*
X189211096Y-136435348D01*
X190705747Y-134940697D01*
X190779588Y-135042330D01*
X190957670Y-135220412D01*
X191059301Y-135294251D01*
X189564650Y-136788902D01*
X189822214Y-136997475D01*
X189822216Y-136997476D01*
X190147456Y-137208689D01*
X190493005Y-137384755D01*
X190855063Y-137523737D01*
X191229669Y-137624112D01*
X191229676Y-137624113D01*
X191612712Y-137684780D01*
X191999999Y-137705078D01*
X192000001Y-137705078D01*
X192387287Y-137684780D01*
X192770323Y-137624113D01*
X192770330Y-137624112D01*
X193144936Y-137523737D01*
X193506994Y-137384755D01*
X193852543Y-137208689D01*
X194177771Y-136997484D01*
X194177784Y-136997474D01*
X194435348Y-136788902D01*
X192940698Y-135294252D01*
X193042330Y-135220412D01*
X193220412Y-135042330D01*
X193294252Y-134940698D01*
X194788902Y-136435348D01*
X194997474Y-136177784D01*
X194997484Y-136177771D01*
X195208689Y-135852543D01*
X195384755Y-135506994D01*
X195523737Y-135144936D01*
X195624112Y-134770330D01*
X195624113Y-134770323D01*
X195684780Y-134387287D01*
X195705078Y-134000000D01*
X195705078Y-133999999D01*
X195684780Y-133612712D01*
X195624113Y-133229676D01*
X195624112Y-133229669D01*
X195523737Y-132855063D01*
X195384755Y-132493005D01*
X195208689Y-132147456D01*
X194997476Y-131822216D01*
X194997475Y-131822214D01*
X194788902Y-131564650D01*
X193294251Y-133059301D01*
X193220412Y-132957670D01*
X193042330Y-132779588D01*
X192940698Y-132705748D01*
X194435349Y-131211096D01*
X194177785Y-131002525D01*
X194177783Y-131002523D01*
X193852543Y-130791310D01*
X193506994Y-130615244D01*
X193144936Y-130476262D01*
X192770330Y-130375887D01*
X192770323Y-130375886D01*
X192387287Y-130315219D01*
X192000001Y-130294922D01*
X191999999Y-130294922D01*
X191612712Y-130315219D01*
X191229676Y-130375886D01*
X191229669Y-130375887D01*
X190855063Y-130476262D01*
X190493005Y-130615244D01*
X190147456Y-130791310D01*
X189822206Y-131002531D01*
X189564649Y-131211095D01*
X189564649Y-131211096D01*
X191059301Y-132705748D01*
X190957670Y-132779588D01*
X190779588Y-132957670D01*
X190705748Y-133059301D01*
X189211096Y-131564649D01*
X189211095Y-131564649D01*
X189002531Y-131822206D01*
X188791310Y-132147456D01*
X188615244Y-132493005D01*
X188476262Y-132855063D01*
X188375887Y-133229669D01*
X188375886Y-133229676D01*
X188315219Y-133612712D01*
X188294922Y-133999999D01*
X105705078Y-133999999D01*
X105684780Y-133612712D01*
X105624113Y-133229676D01*
X105624112Y-133229669D01*
X105523737Y-132855063D01*
X105384755Y-132493005D01*
X105208689Y-132147456D01*
X104997476Y-131822216D01*
X104997475Y-131822214D01*
X104788902Y-131564650D01*
X103294251Y-133059301D01*
X103220412Y-132957670D01*
X103042330Y-132779588D01*
X102940698Y-132705748D01*
X104321462Y-131324983D01*
X118899500Y-131324983D01*
X118899500Y-132675001D01*
X118899501Y-132675018D01*
X118910000Y-132777796D01*
X118910001Y-132777799D01*
X118965185Y-132944331D01*
X118965187Y-132944336D01*
X118981677Y-132971071D01*
X119057288Y-133093656D01*
X119181344Y-133217712D01*
X119330666Y-133309814D01*
X119497203Y-133364999D01*
X119599991Y-133375500D01*
X120400008Y-133375499D01*
X120400016Y-133375498D01*
X120400019Y-133375498D01*
X120476238Y-133367712D01*
X120502797Y-133364999D01*
X120669334Y-133309814D01*
X120818656Y-133217712D01*
X120942712Y-133093656D01*
X120982581Y-133029016D01*
X121034525Y-132982294D01*
X121103488Y-132971071D01*
X121167570Y-132998914D01*
X121175799Y-133006434D01*
X121283397Y-133114032D01*
X121423475Y-133215804D01*
X121577744Y-133294408D01*
X121742415Y-133347914D01*
X121742414Y-133347914D01*
X121749999Y-133349115D01*
X121750000Y-133349114D01*
X121750000Y-132280330D01*
X121769745Y-132300075D01*
X121855255Y-132349444D01*
X121950630Y-132375000D01*
X122049370Y-132375000D01*
X122144745Y-132349444D01*
X122230255Y-132300075D01*
X122250000Y-132280330D01*
X122250000Y-133349115D01*
X122257584Y-133347914D01*
X122422255Y-133294408D01*
X122576524Y-133215804D01*
X122716602Y-133114032D01*
X122839036Y-132991598D01*
X122899371Y-132908552D01*
X122954700Y-132865886D01*
X123024313Y-132859905D01*
X123086109Y-132892510D01*
X123100008Y-132908550D01*
X123113991Y-132927796D01*
X123160586Y-132991928D01*
X123283072Y-133114414D01*
X123423212Y-133216232D01*
X123577555Y-133294873D01*
X123742299Y-133348402D01*
X123913389Y-133375500D01*
X123913390Y-133375500D01*
X124086610Y-133375500D01*
X124086611Y-133375500D01*
X124257701Y-133348402D01*
X124422445Y-133294873D01*
X124576788Y-133216232D01*
X124716928Y-133114414D01*
X124839414Y-132991928D01*
X124941232Y-132851788D01*
X125019873Y-132697445D01*
X125073402Y-132532701D01*
X125100500Y-132361611D01*
X125100500Y-131638389D01*
X125073402Y-131467299D01*
X125027160Y-131324983D01*
X133899500Y-131324983D01*
X133899500Y-132675001D01*
X133899501Y-132675018D01*
X133910000Y-132777796D01*
X133910001Y-132777799D01*
X133965185Y-132944331D01*
X133965187Y-132944336D01*
X133981677Y-132971071D01*
X134057288Y-133093656D01*
X134181344Y-133217712D01*
X134330666Y-133309814D01*
X134497203Y-133364999D01*
X134599991Y-133375500D01*
X135400008Y-133375499D01*
X135400016Y-133375498D01*
X135400019Y-133375498D01*
X135476238Y-133367712D01*
X135502797Y-133364999D01*
X135669334Y-133309814D01*
X135818656Y-133217712D01*
X135942712Y-133093656D01*
X135982581Y-133029016D01*
X136034525Y-132982294D01*
X136103488Y-132971071D01*
X136167570Y-132998914D01*
X136175799Y-133006434D01*
X136283397Y-133114032D01*
X136423475Y-133215804D01*
X136577744Y-133294408D01*
X136742415Y-133347914D01*
X136742414Y-133347914D01*
X136749999Y-133349115D01*
X136750000Y-133349114D01*
X136750000Y-132280330D01*
X136769745Y-132300075D01*
X136855255Y-132349444D01*
X136950630Y-132375000D01*
X137049370Y-132375000D01*
X137144745Y-132349444D01*
X137230255Y-132300075D01*
X137250000Y-132280330D01*
X137250000Y-133349115D01*
X137257584Y-133347914D01*
X137422255Y-133294408D01*
X137576524Y-133215804D01*
X137716602Y-133114032D01*
X137839036Y-132991598D01*
X137899371Y-132908552D01*
X137954700Y-132865886D01*
X138024313Y-132859905D01*
X138086109Y-132892510D01*
X138100008Y-132908550D01*
X138113991Y-132927796D01*
X138160586Y-132991928D01*
X138283072Y-133114414D01*
X138423212Y-133216232D01*
X138577555Y-133294873D01*
X138742299Y-133348402D01*
X138913389Y-133375500D01*
X138913390Y-133375500D01*
X139086610Y-133375500D01*
X139086611Y-133375500D01*
X139257701Y-133348402D01*
X139422445Y-133294873D01*
X139576788Y-133216232D01*
X139716928Y-133114414D01*
X139839414Y-132991928D01*
X139941232Y-132851788D01*
X140019873Y-132697445D01*
X140073402Y-132532701D01*
X140100500Y-132361611D01*
X140100500Y-131638389D01*
X140073402Y-131467299D01*
X140027160Y-131324983D01*
X148899500Y-131324983D01*
X148899500Y-132675001D01*
X148899501Y-132675018D01*
X148910000Y-132777796D01*
X148910001Y-132777799D01*
X148965185Y-132944331D01*
X148965187Y-132944336D01*
X148981677Y-132971071D01*
X149057288Y-133093656D01*
X149181344Y-133217712D01*
X149330666Y-133309814D01*
X149497203Y-133364999D01*
X149599991Y-133375500D01*
X150400008Y-133375499D01*
X150400016Y-133375498D01*
X150400019Y-133375498D01*
X150476238Y-133367712D01*
X150502797Y-133364999D01*
X150669334Y-133309814D01*
X150818656Y-133217712D01*
X150942712Y-133093656D01*
X150982581Y-133029016D01*
X151034525Y-132982294D01*
X151103488Y-132971071D01*
X151167570Y-132998914D01*
X151175799Y-133006434D01*
X151283397Y-133114032D01*
X151423475Y-133215804D01*
X151577744Y-133294408D01*
X151742415Y-133347914D01*
X151742414Y-133347914D01*
X151749999Y-133349115D01*
X151750000Y-133349114D01*
X151750000Y-132280330D01*
X151769745Y-132300075D01*
X151855255Y-132349444D01*
X151950630Y-132375000D01*
X152049370Y-132375000D01*
X152144745Y-132349444D01*
X152230255Y-132300075D01*
X152250000Y-132280330D01*
X152250000Y-133349115D01*
X152257584Y-133347914D01*
X152422255Y-133294408D01*
X152576524Y-133215804D01*
X152716602Y-133114032D01*
X152839036Y-132991598D01*
X152899371Y-132908552D01*
X152954700Y-132865886D01*
X153024313Y-132859905D01*
X153086109Y-132892510D01*
X153100008Y-132908550D01*
X153113991Y-132927796D01*
X153160586Y-132991928D01*
X153283072Y-133114414D01*
X153423212Y-133216232D01*
X153577555Y-133294873D01*
X153742299Y-133348402D01*
X153913389Y-133375500D01*
X153913390Y-133375500D01*
X154086610Y-133375500D01*
X154086611Y-133375500D01*
X154257701Y-133348402D01*
X154422445Y-133294873D01*
X154576788Y-133216232D01*
X154716928Y-133114414D01*
X154839414Y-132991928D01*
X154941232Y-132851788D01*
X155019873Y-132697445D01*
X155073402Y-132532701D01*
X155100500Y-132361611D01*
X155100500Y-131638389D01*
X155074619Y-131474983D01*
X168899500Y-131474983D01*
X168899500Y-132825001D01*
X168899501Y-132825018D01*
X168910000Y-132927796D01*
X168910001Y-132927799D01*
X168965185Y-133094331D01*
X168965187Y-133094336D01*
X168988870Y-133132732D01*
X169057288Y-133243656D01*
X169181344Y-133367712D01*
X169330666Y-133459814D01*
X169497203Y-133514999D01*
X169599991Y-133525500D01*
X170400008Y-133525499D01*
X170400016Y-133525498D01*
X170400019Y-133525498D01*
X170456302Y-133519748D01*
X170502797Y-133514999D01*
X170669334Y-133459814D01*
X170818656Y-133367712D01*
X170942712Y-133243656D01*
X170982310Y-133179456D01*
X171034258Y-133132732D01*
X171103220Y-133121509D01*
X171167303Y-133149352D01*
X171175530Y-133156872D01*
X171283072Y-133264414D01*
X171423212Y-133366232D01*
X171577555Y-133444873D01*
X171742299Y-133498402D01*
X171913389Y-133525500D01*
X171913390Y-133525500D01*
X172086610Y-133525500D01*
X172086611Y-133525500D01*
X172257701Y-133498402D01*
X172422445Y-133444873D01*
X172576788Y-133366232D01*
X172716928Y-133264414D01*
X172839414Y-133141928D01*
X172899682Y-133058975D01*
X172955012Y-133016311D01*
X173024626Y-133010332D01*
X173086421Y-133042938D01*
X173100315Y-133058973D01*
X173160586Y-133141928D01*
X173283072Y-133264414D01*
X173423212Y-133366232D01*
X173577555Y-133444873D01*
X173742299Y-133498402D01*
X173913389Y-133525500D01*
X173913390Y-133525500D01*
X174086610Y-133525500D01*
X174086611Y-133525500D01*
X174257701Y-133498402D01*
X174422445Y-133444873D01*
X174576788Y-133366232D01*
X174716928Y-133264414D01*
X174839414Y-133141928D01*
X174941232Y-133001788D01*
X175019873Y-132847445D01*
X175073402Y-132682701D01*
X175100500Y-132511611D01*
X175100500Y-131788389D01*
X175073402Y-131617299D01*
X175019873Y-131452555D01*
X174941232Y-131298212D01*
X174839414Y-131158072D01*
X174716928Y-131035586D01*
X174576788Y-130933768D01*
X174422445Y-130855127D01*
X174257701Y-130801598D01*
X174257699Y-130801597D01*
X174257698Y-130801597D01*
X174126271Y-130780781D01*
X174086611Y-130774500D01*
X173913389Y-130774500D01*
X173873728Y-130780781D01*
X173742302Y-130801597D01*
X173577552Y-130855128D01*
X173423211Y-130933768D01*
X173371994Y-130970980D01*
X173283072Y-131035586D01*
X173283070Y-131035588D01*
X173283069Y-131035588D01*
X173160588Y-131158069D01*
X173160581Y-131158078D01*
X173100317Y-131241023D01*
X173044987Y-131283689D01*
X172975374Y-131289667D01*
X172913579Y-131257061D01*
X172899683Y-131241023D01*
X172839418Y-131158078D01*
X172839414Y-131158072D01*
X172716928Y-131035586D01*
X172576788Y-130933768D01*
X172422445Y-130855127D01*
X172257701Y-130801598D01*
X172257699Y-130801597D01*
X172257698Y-130801597D01*
X172126271Y-130780781D01*
X172086611Y-130774500D01*
X171913389Y-130774500D01*
X171873728Y-130780781D01*
X171742302Y-130801597D01*
X171577552Y-130855128D01*
X171423211Y-130933768D01*
X171283073Y-131035585D01*
X171175530Y-131143128D01*
X171114207Y-131176612D01*
X171044515Y-131171628D01*
X170988582Y-131129756D01*
X170982310Y-131120543D01*
X170964365Y-131091450D01*
X170942712Y-131056344D01*
X170818656Y-130932288D01*
X170693559Y-130855128D01*
X170669336Y-130840187D01*
X170669331Y-130840185D01*
X170667862Y-130839698D01*
X170502797Y-130785001D01*
X170502795Y-130785000D01*
X170400010Y-130774500D01*
X169599998Y-130774500D01*
X169599980Y-130774501D01*
X169497203Y-130785000D01*
X169497200Y-130785001D01*
X169330668Y-130840185D01*
X169330663Y-130840187D01*
X169181342Y-130932289D01*
X169057289Y-131056342D01*
X168965187Y-131205663D01*
X168965185Y-131205668D01*
X168959706Y-131222203D01*
X168910001Y-131372203D01*
X168910001Y-131372204D01*
X168910000Y-131372204D01*
X168899500Y-131474983D01*
X155074619Y-131474983D01*
X155073402Y-131467299D01*
X155019873Y-131302555D01*
X154941232Y-131148212D01*
X154839414Y-131008072D01*
X154716928Y-130885586D01*
X154576788Y-130783768D01*
X154422445Y-130705127D01*
X154257701Y-130651598D01*
X154257699Y-130651597D01*
X154257698Y-130651597D01*
X154126271Y-130630781D01*
X154086611Y-130624500D01*
X153913389Y-130624500D01*
X153873728Y-130630781D01*
X153742302Y-130651597D01*
X153577552Y-130705128D01*
X153423211Y-130783768D01*
X153345561Y-130840185D01*
X153283072Y-130885586D01*
X153283070Y-130885588D01*
X153283069Y-130885588D01*
X153160585Y-131008072D01*
X153100007Y-131091450D01*
X153044677Y-131134115D01*
X152975063Y-131140093D01*
X152913269Y-131107486D01*
X152899371Y-131091447D01*
X152839036Y-131008401D01*
X152716602Y-130885967D01*
X152576524Y-130784195D01*
X152422257Y-130705591D01*
X152257589Y-130652087D01*
X152257581Y-130652085D01*
X152250000Y-130650884D01*
X152250000Y-131719670D01*
X152230255Y-131699925D01*
X152144745Y-131650556D01*
X152049370Y-131625000D01*
X151950630Y-131625000D01*
X151855255Y-131650556D01*
X151769745Y-131699925D01*
X151750000Y-131719670D01*
X151750000Y-130650884D01*
X151749999Y-130650884D01*
X151742418Y-130652085D01*
X151742410Y-130652087D01*
X151577742Y-130705591D01*
X151423475Y-130784195D01*
X151283401Y-130885964D01*
X151175799Y-130993566D01*
X151114476Y-131027050D01*
X151044784Y-131022066D01*
X150988851Y-130980194D01*
X150982585Y-130970988D01*
X150942712Y-130906344D01*
X150818656Y-130782288D01*
X150693559Y-130705128D01*
X150669336Y-130690187D01*
X150669331Y-130690185D01*
X150667862Y-130689698D01*
X150502797Y-130635001D01*
X150502795Y-130635000D01*
X150400010Y-130624500D01*
X149599998Y-130624500D01*
X149599980Y-130624501D01*
X149497203Y-130635000D01*
X149497200Y-130635001D01*
X149330668Y-130690185D01*
X149330663Y-130690187D01*
X149181342Y-130782289D01*
X149057289Y-130906342D01*
X148965187Y-131055663D01*
X148965185Y-131055668D01*
X148943688Y-131120543D01*
X148910001Y-131222203D01*
X148910001Y-131222204D01*
X148910000Y-131222204D01*
X148899500Y-131324983D01*
X140027160Y-131324983D01*
X140019873Y-131302555D01*
X139941232Y-131148212D01*
X139839414Y-131008072D01*
X139716928Y-130885586D01*
X139576788Y-130783768D01*
X139422445Y-130705127D01*
X139257701Y-130651598D01*
X139257699Y-130651597D01*
X139257698Y-130651597D01*
X139126271Y-130630781D01*
X139086611Y-130624500D01*
X138913389Y-130624500D01*
X138873728Y-130630781D01*
X138742302Y-130651597D01*
X138577552Y-130705128D01*
X138423211Y-130783768D01*
X138345561Y-130840185D01*
X138283072Y-130885586D01*
X138283070Y-130885588D01*
X138283069Y-130885588D01*
X138160585Y-131008072D01*
X138100007Y-131091450D01*
X138044677Y-131134115D01*
X137975063Y-131140093D01*
X137913269Y-131107486D01*
X137899371Y-131091447D01*
X137839036Y-131008401D01*
X137716602Y-130885967D01*
X137576524Y-130784195D01*
X137422257Y-130705591D01*
X137257589Y-130652087D01*
X137257581Y-130652085D01*
X137250000Y-130650884D01*
X137250000Y-131719670D01*
X137230255Y-131699925D01*
X137144745Y-131650556D01*
X137049370Y-131625000D01*
X136950630Y-131625000D01*
X136855255Y-131650556D01*
X136769745Y-131699925D01*
X136750000Y-131719670D01*
X136750000Y-130650884D01*
X136749999Y-130650884D01*
X136742418Y-130652085D01*
X136742410Y-130652087D01*
X136577742Y-130705591D01*
X136423475Y-130784195D01*
X136283401Y-130885964D01*
X136175799Y-130993566D01*
X136114476Y-131027050D01*
X136044784Y-131022066D01*
X135988851Y-130980194D01*
X135982585Y-130970988D01*
X135942712Y-130906344D01*
X135818656Y-130782288D01*
X135693559Y-130705128D01*
X135669336Y-130690187D01*
X135669331Y-130690185D01*
X135667862Y-130689698D01*
X135502797Y-130635001D01*
X135502795Y-130635000D01*
X135400010Y-130624500D01*
X134599998Y-130624500D01*
X134599980Y-130624501D01*
X134497203Y-130635000D01*
X134497200Y-130635001D01*
X134330668Y-130690185D01*
X134330663Y-130690187D01*
X134181342Y-130782289D01*
X134057289Y-130906342D01*
X133965187Y-131055663D01*
X133965185Y-131055668D01*
X133943688Y-131120543D01*
X133910001Y-131222203D01*
X133910001Y-131222204D01*
X133910000Y-131222204D01*
X133899500Y-131324983D01*
X125027160Y-131324983D01*
X125019873Y-131302555D01*
X124941232Y-131148212D01*
X124839414Y-131008072D01*
X124716928Y-130885586D01*
X124576788Y-130783768D01*
X124422445Y-130705127D01*
X124257701Y-130651598D01*
X124257699Y-130651597D01*
X124257698Y-130651597D01*
X124126271Y-130630781D01*
X124086611Y-130624500D01*
X123913389Y-130624500D01*
X123873728Y-130630781D01*
X123742302Y-130651597D01*
X123577552Y-130705128D01*
X123423211Y-130783768D01*
X123345561Y-130840185D01*
X123283072Y-130885586D01*
X123283070Y-130885588D01*
X123283069Y-130885588D01*
X123160585Y-131008072D01*
X123100007Y-131091450D01*
X123044677Y-131134115D01*
X122975063Y-131140093D01*
X122913269Y-131107486D01*
X122899371Y-131091447D01*
X122839036Y-131008401D01*
X122716602Y-130885967D01*
X122576524Y-130784195D01*
X122422257Y-130705591D01*
X122257589Y-130652087D01*
X122257581Y-130652085D01*
X122250000Y-130650884D01*
X122250000Y-131719670D01*
X122230255Y-131699925D01*
X122144745Y-131650556D01*
X122049370Y-131625000D01*
X121950630Y-131625000D01*
X121855255Y-131650556D01*
X121769745Y-131699925D01*
X121750000Y-131719670D01*
X121750000Y-130650884D01*
X121749999Y-130650884D01*
X121742418Y-130652085D01*
X121742410Y-130652087D01*
X121577742Y-130705591D01*
X121423475Y-130784195D01*
X121283401Y-130885964D01*
X121175799Y-130993566D01*
X121114476Y-131027050D01*
X121044784Y-131022066D01*
X120988851Y-130980194D01*
X120982585Y-130970988D01*
X120942712Y-130906344D01*
X120818656Y-130782288D01*
X120693559Y-130705128D01*
X120669336Y-130690187D01*
X120669331Y-130690185D01*
X120667862Y-130689698D01*
X120502797Y-130635001D01*
X120502795Y-130635000D01*
X120400010Y-130624500D01*
X119599998Y-130624500D01*
X119599980Y-130624501D01*
X119497203Y-130635000D01*
X119497200Y-130635001D01*
X119330668Y-130690185D01*
X119330663Y-130690187D01*
X119181342Y-130782289D01*
X119057289Y-130906342D01*
X118965187Y-131055663D01*
X118965185Y-131055668D01*
X118943688Y-131120543D01*
X118910001Y-131222203D01*
X118910001Y-131222204D01*
X118910000Y-131222204D01*
X118899500Y-131324983D01*
X104321462Y-131324983D01*
X104435349Y-131211096D01*
X104177785Y-131002525D01*
X104177783Y-131002523D01*
X103852543Y-130791310D01*
X103506994Y-130615244D01*
X103144936Y-130476262D01*
X102770330Y-130375887D01*
X102770323Y-130375886D01*
X102387287Y-130315219D01*
X102000001Y-130294922D01*
X101999999Y-130294922D01*
X101612712Y-130315219D01*
X101229676Y-130375886D01*
X101229669Y-130375887D01*
X100855063Y-130476262D01*
X100493005Y-130615244D01*
X100147456Y-130791310D01*
X99822206Y-131002531D01*
X99564649Y-131211095D01*
X99564649Y-131211096D01*
X101059301Y-132705748D01*
X100957670Y-132779588D01*
X100779588Y-132957670D01*
X100705748Y-133059301D01*
X99211096Y-131564649D01*
X99211095Y-131564649D01*
X99002531Y-131822206D01*
X98791310Y-132147456D01*
X98615244Y-132493005D01*
X98476262Y-132855063D01*
X98375887Y-133229669D01*
X98375886Y-133229676D01*
X98315219Y-133612712D01*
X98294922Y-133999999D01*
X97500500Y-133999999D01*
X97500500Y-120999996D01*
X116294435Y-120999996D01*
X116294435Y-121000003D01*
X116314630Y-121179249D01*
X116314631Y-121179254D01*
X116374211Y-121349523D01*
X116456602Y-121480647D01*
X116470184Y-121502262D01*
X116597738Y-121629816D01*
X116750478Y-121725789D01*
X116920745Y-121785368D01*
X116960871Y-121789888D01*
X117025284Y-121816954D01*
X117064840Y-121874548D01*
X117070988Y-121913109D01*
X117070988Y-121989075D01*
X117051303Y-122056114D01*
X117043938Y-122066384D01*
X117041674Y-122069222D01*
X116945699Y-122221964D01*
X116886119Y-122392233D01*
X116886118Y-122392238D01*
X116865923Y-122571484D01*
X116865923Y-122571491D01*
X116886118Y-122750737D01*
X116886119Y-122750742D01*
X116945699Y-122921011D01*
X117041672Y-123073750D01*
X117169226Y-123201304D01*
X117321966Y-123297277D01*
X117492233Y-123356856D01*
X117492238Y-123356857D01*
X117671484Y-123377053D01*
X117671488Y-123377053D01*
X117671492Y-123377053D01*
X117850737Y-123356857D01*
X117850740Y-123356856D01*
X117850743Y-123356856D01*
X118021010Y-123297277D01*
X118173750Y-123201304D01*
X118301304Y-123073750D01*
X118397277Y-122921010D01*
X118456856Y-122750743D01*
X118456857Y-122750737D01*
X118477053Y-122571491D01*
X118477053Y-122571484D01*
X118456857Y-122392238D01*
X118456856Y-122392233D01*
X118397276Y-122221964D01*
X118301301Y-122069222D01*
X118299038Y-122066384D01*
X118298147Y-122064203D01*
X118297599Y-122063330D01*
X118297752Y-122063233D01*
X118272632Y-122001697D01*
X118271988Y-121989075D01*
X118271988Y-121492433D01*
X118271988Y-121492431D01*
X118254251Y-121426235D01*
X118231065Y-121339703D01*
X118185201Y-121260265D01*
X118152008Y-121202772D01*
X118040204Y-121090968D01*
X118040203Y-121090967D01*
X118035873Y-121086637D01*
X118035862Y-121086627D01*
X117930700Y-120981465D01*
X117897215Y-120920142D01*
X117895163Y-120907686D01*
X117885368Y-120820745D01*
X117825789Y-120650478D01*
X117729816Y-120497738D01*
X117602262Y-120370184D01*
X117449523Y-120274211D01*
X117279254Y-120214631D01*
X117279249Y-120214630D01*
X117100004Y-120194435D01*
X117099996Y-120194435D01*
X116920750Y-120214630D01*
X116920745Y-120214631D01*
X116750476Y-120274211D01*
X116597737Y-120370184D01*
X116470184Y-120497737D01*
X116374211Y-120650476D01*
X116314631Y-120820745D01*
X116314630Y-120820750D01*
X116294435Y-120999996D01*
X97500500Y-120999996D01*
X97500500Y-117894996D01*
X114794435Y-117894996D01*
X114794435Y-117895003D01*
X114814630Y-118074249D01*
X114814631Y-118074254D01*
X114874211Y-118244523D01*
X114970184Y-118397262D01*
X115032741Y-118459819D01*
X115066226Y-118521142D01*
X115061242Y-118590834D01*
X115032741Y-118635181D01*
X114970184Y-118697737D01*
X114874211Y-118850476D01*
X114814631Y-119020745D01*
X114814630Y-119020750D01*
X114794435Y-119199996D01*
X114794435Y-119200003D01*
X114814630Y-119379249D01*
X114814631Y-119379254D01*
X114874211Y-119549523D01*
X114970184Y-119702262D01*
X115097738Y-119829816D01*
X115250478Y-119925789D01*
X115420745Y-119985368D01*
X115420750Y-119985369D01*
X115599996Y-120005565D01*
X115600000Y-120005565D01*
X115600004Y-120005565D01*
X115779249Y-119985369D01*
X115779252Y-119985368D01*
X115779255Y-119985368D01*
X115949522Y-119925789D01*
X116102262Y-119829816D01*
X116102267Y-119829810D01*
X116105097Y-119827555D01*
X116107275Y-119826665D01*
X116108158Y-119826111D01*
X116108255Y-119826265D01*
X116169783Y-119801145D01*
X116182412Y-119800500D01*
X134017588Y-119800500D01*
X134084627Y-119820185D01*
X134094903Y-119827555D01*
X134097736Y-119829814D01*
X134097738Y-119829816D01*
X134250478Y-119925789D01*
X134420745Y-119985368D01*
X134420750Y-119985369D01*
X134599996Y-120005565D01*
X134600000Y-120005565D01*
X134600004Y-120005565D01*
X134779249Y-119985369D01*
X134779252Y-119985368D01*
X134779255Y-119985368D01*
X134949522Y-119925789D01*
X135102262Y-119829816D01*
X135102267Y-119829810D01*
X135105097Y-119827555D01*
X135107275Y-119826665D01*
X135108158Y-119826111D01*
X135108255Y-119826265D01*
X135169783Y-119801145D01*
X135182412Y-119800500D01*
X135216937Y-119800500D01*
X135283976Y-119820185D01*
X135329731Y-119872989D01*
X135339675Y-119942147D01*
X135333978Y-119965455D01*
X135314633Y-120020737D01*
X135314630Y-120020750D01*
X135294435Y-120199996D01*
X135294435Y-120200003D01*
X135314630Y-120379249D01*
X135314631Y-120379254D01*
X135374211Y-120549523D01*
X135470185Y-120702263D01*
X135472445Y-120705097D01*
X135473334Y-120707275D01*
X135473889Y-120708158D01*
X135473734Y-120708255D01*
X135498855Y-120769783D01*
X135499500Y-120782412D01*
X135499500Y-122374507D01*
X135480494Y-122440478D01*
X135474209Y-122450479D01*
X135414633Y-122620737D01*
X135414630Y-122620750D01*
X135394435Y-122799996D01*
X135394435Y-122800003D01*
X135414630Y-122979249D01*
X135414631Y-122979254D01*
X135474211Y-123149523D01*
X135567051Y-123297276D01*
X135570184Y-123302262D01*
X135697738Y-123429816D01*
X135850478Y-123525789D01*
X135947033Y-123559575D01*
X136020745Y-123585368D01*
X136020750Y-123585369D01*
X136199996Y-123605565D01*
X136200000Y-123605565D01*
X136200004Y-123605565D01*
X136379249Y-123585369D01*
X136379252Y-123585368D01*
X136379255Y-123585368D01*
X136549522Y-123525789D01*
X136702262Y-123429816D01*
X136829816Y-123302262D01*
X136925789Y-123149522D01*
X136985368Y-122979255D01*
X136988094Y-122955061D01*
X137005565Y-122800003D01*
X137005565Y-122799996D01*
X136985369Y-122620750D01*
X136985368Y-122620745D01*
X136940109Y-122491402D01*
X136925789Y-122450478D01*
X136900499Y-122410230D01*
X136878053Y-122374507D01*
X136829816Y-122297738D01*
X136736818Y-122204740D01*
X136703334Y-122143416D01*
X136700500Y-122117059D01*
X136700500Y-120782412D01*
X136720185Y-120715373D01*
X136727555Y-120705097D01*
X136729810Y-120702267D01*
X136729816Y-120702262D01*
X136825789Y-120549522D01*
X136885368Y-120379255D01*
X136886390Y-120370184D01*
X136905565Y-120200003D01*
X136905565Y-120199996D01*
X136885369Y-120020750D01*
X136885366Y-120020737D01*
X136866022Y-119965455D01*
X136862460Y-119895676D01*
X136897188Y-119835049D01*
X136959182Y-119802821D01*
X136983063Y-119800500D01*
X141513331Y-119800500D01*
X141513347Y-119800501D01*
X141520943Y-119800501D01*
X141679054Y-119800501D01*
X141679057Y-119800501D01*
X141831785Y-119759577D01*
X141881904Y-119730639D01*
X141968716Y-119680520D01*
X142080520Y-119568716D01*
X142080521Y-119568713D01*
X142332417Y-119316816D01*
X142393739Y-119283334D01*
X142420097Y-119280500D01*
X144417588Y-119280500D01*
X144484627Y-119300185D01*
X144494903Y-119307555D01*
X144497736Y-119309814D01*
X144497738Y-119309816D01*
X144650478Y-119405789D01*
X144820745Y-119465368D01*
X144820750Y-119465369D01*
X144999996Y-119485565D01*
X145000000Y-119485565D01*
X145000004Y-119485565D01*
X145179249Y-119465369D01*
X145179252Y-119465368D01*
X145179255Y-119465368D01*
X145349522Y-119405789D01*
X145502262Y-119309816D01*
X145502267Y-119309810D01*
X145505097Y-119307555D01*
X145507275Y-119306665D01*
X145508158Y-119306111D01*
X145508255Y-119306265D01*
X145569783Y-119281145D01*
X145582412Y-119280500D01*
X153193205Y-119280500D01*
X153260244Y-119300185D01*
X153305999Y-119352989D01*
X153314095Y-119376901D01*
X153314631Y-119379249D01*
X153314632Y-119379255D01*
X153323917Y-119405789D01*
X153374210Y-119549521D01*
X153470185Y-119702263D01*
X153472445Y-119705097D01*
X153473334Y-119707275D01*
X153473889Y-119708158D01*
X153473734Y-119708255D01*
X153498855Y-119769783D01*
X153499500Y-119782412D01*
X153499500Y-120413330D01*
X153499499Y-120413348D01*
X153499499Y-120579054D01*
X153499498Y-120579054D01*
X153531880Y-120699903D01*
X153540423Y-120731785D01*
X153560721Y-120766942D01*
X153569358Y-120781900D01*
X153569359Y-120781904D01*
X153569360Y-120781904D01*
X153591784Y-120820745D01*
X153619479Y-120868714D01*
X153619481Y-120868717D01*
X153738349Y-120987585D01*
X153738355Y-120987590D01*
X156115139Y-123364374D01*
X156115149Y-123364385D01*
X156119479Y-123368715D01*
X156119480Y-123368716D01*
X156231284Y-123480520D01*
X156309693Y-123525789D01*
X156368215Y-123559577D01*
X156520943Y-123600501D01*
X156520946Y-123600501D01*
X156686653Y-123600501D01*
X156686669Y-123600500D01*
X158954802Y-123600500D01*
X158954818Y-123600501D01*
X158962414Y-123600501D01*
X159120526Y-123600501D01*
X159120528Y-123600501D01*
X159137140Y-123596049D01*
X159142085Y-123594725D01*
X159174177Y-123590500D01*
X159425827Y-123590500D01*
X159457918Y-123594724D01*
X159479472Y-123600500D01*
X159637586Y-123600500D01*
X160813331Y-123600500D01*
X160813347Y-123600501D01*
X160820943Y-123600501D01*
X160979054Y-123600501D01*
X160979057Y-123600501D01*
X161131785Y-123559577D01*
X161190307Y-123525789D01*
X161268716Y-123480520D01*
X161380520Y-123368716D01*
X161380520Y-123368714D01*
X161390724Y-123358511D01*
X161390727Y-123358506D01*
X162449581Y-122299652D01*
X162510903Y-122266169D01*
X162580595Y-122271153D01*
X162636528Y-122313025D01*
X162638836Y-122316212D01*
X162761500Y-122491395D01*
X162761505Y-122491401D01*
X162928599Y-122658495D01*
X163025384Y-122726265D01*
X163122165Y-122794032D01*
X163122167Y-122794033D01*
X163122170Y-122794035D01*
X163336337Y-122893903D01*
X163564592Y-122955063D01*
X163752918Y-122971539D01*
X163799999Y-122975659D01*
X163800000Y-122975659D01*
X163800001Y-122975659D01*
X163839234Y-122972226D01*
X164035408Y-122955063D01*
X164263663Y-122893903D01*
X164477830Y-122794035D01*
X164671401Y-122658495D01*
X164838495Y-122491401D01*
X164974035Y-122297830D01*
X165073903Y-122083663D01*
X165135063Y-121855408D01*
X165155659Y-121620000D01*
X165135063Y-121384592D01*
X165073903Y-121156337D01*
X164974035Y-120942171D01*
X164958611Y-120920142D01*
X164838494Y-120748597D01*
X164671402Y-120581506D01*
X164671396Y-120581501D01*
X164485842Y-120451575D01*
X164442217Y-120396998D01*
X164435023Y-120327500D01*
X164466546Y-120265145D01*
X164485842Y-120248425D01*
X164534106Y-120214630D01*
X164671401Y-120118495D01*
X164838495Y-119951401D01*
X164974035Y-119757830D01*
X165073903Y-119543663D01*
X165135063Y-119315408D01*
X165155659Y-119080000D01*
X165135063Y-118844592D01*
X165073903Y-118616337D01*
X164974035Y-118402171D01*
X164863650Y-118244523D01*
X164838494Y-118208597D01*
X164671402Y-118041506D01*
X164671396Y-118041501D01*
X164485842Y-117911575D01*
X164442217Y-117856998D01*
X164435023Y-117787500D01*
X164466546Y-117725145D01*
X164485842Y-117708425D01*
X164516404Y-117687025D01*
X164671401Y-117578495D01*
X164838495Y-117411401D01*
X164974035Y-117217830D01*
X165073903Y-117003663D01*
X165135063Y-116775408D01*
X165155659Y-116540000D01*
X165135063Y-116304592D01*
X165073903Y-116076337D01*
X164974035Y-115862171D01*
X164958252Y-115839631D01*
X164838496Y-115668600D01*
X164838495Y-115668599D01*
X164716179Y-115546283D01*
X164682696Y-115484963D01*
X164687680Y-115415271D01*
X164729551Y-115359337D01*
X164760529Y-115342422D01*
X164892086Y-115293354D01*
X164892093Y-115293350D01*
X165007187Y-115207190D01*
X165007190Y-115207187D01*
X165093350Y-115092093D01*
X165093354Y-115092086D01*
X165143596Y-114957379D01*
X165143598Y-114957372D01*
X165149999Y-114897844D01*
X165150000Y-114897827D01*
X165150000Y-114250000D01*
X164233012Y-114250000D01*
X164265925Y-114192993D01*
X164300000Y-114065826D01*
X164300000Y-113934174D01*
X164265925Y-113807007D01*
X164233012Y-113750000D01*
X165150000Y-113750000D01*
X165150000Y-113102172D01*
X165149999Y-113102155D01*
X165143598Y-113042627D01*
X165143596Y-113042620D01*
X165093354Y-112907913D01*
X165093350Y-112907906D01*
X165007190Y-112792812D01*
X165007187Y-112792809D01*
X164892093Y-112706649D01*
X164892086Y-112706645D01*
X164757379Y-112656403D01*
X164757372Y-112656401D01*
X164697844Y-112650000D01*
X164050000Y-112650000D01*
X164050000Y-113566988D01*
X163992993Y-113534075D01*
X163865826Y-113500000D01*
X163734174Y-113500000D01*
X163607007Y-113534075D01*
X163550000Y-113566988D01*
X163550000Y-112650000D01*
X162902155Y-112650000D01*
X162842627Y-112656401D01*
X162842620Y-112656403D01*
X162707913Y-112706645D01*
X162707906Y-112706649D01*
X162592812Y-112792809D01*
X162592809Y-112792812D01*
X162506649Y-112907906D01*
X162506645Y-112907913D01*
X162456403Y-113042620D01*
X162456401Y-113042627D01*
X162450000Y-113102155D01*
X162450000Y-113750000D01*
X163366988Y-113750000D01*
X163334075Y-113807007D01*
X163300000Y-113934174D01*
X163300000Y-114065826D01*
X163334075Y-114192993D01*
X163366988Y-114250000D01*
X162450000Y-114250000D01*
X162450000Y-114897844D01*
X162456401Y-114957372D01*
X162456403Y-114957379D01*
X162506645Y-115092086D01*
X162506649Y-115092093D01*
X162592809Y-115207187D01*
X162592812Y-115207190D01*
X162707906Y-115293350D01*
X162707913Y-115293354D01*
X162839470Y-115342421D01*
X162895403Y-115384292D01*
X162919821Y-115449756D01*
X162904970Y-115518029D01*
X162883819Y-115546284D01*
X162761503Y-115668600D01*
X162625965Y-115862169D01*
X162625964Y-115862171D01*
X162526098Y-116076335D01*
X162526094Y-116076344D01*
X162464938Y-116304586D01*
X162464936Y-116304596D01*
X162444341Y-116539999D01*
X162444341Y-116540000D01*
X162464936Y-116775403D01*
X162464938Y-116775413D01*
X162499327Y-116903756D01*
X162497664Y-116973606D01*
X162467233Y-117023530D01*
X161631286Y-117859478D01*
X161519481Y-117971282D01*
X161519479Y-117971285D01*
X161496232Y-118011551D01*
X161472984Y-118051818D01*
X161440423Y-118108215D01*
X161399499Y-118260943D01*
X161399499Y-118260945D01*
X161399499Y-118429046D01*
X161399500Y-118429059D01*
X161399500Y-120699903D01*
X161379815Y-120766942D01*
X161363181Y-120787584D01*
X160287584Y-121863181D01*
X160226261Y-121896666D01*
X160199903Y-121899500D01*
X157000097Y-121899500D01*
X156933058Y-121879815D01*
X156912416Y-121863181D01*
X156591205Y-121541970D01*
X156557720Y-121480647D01*
X156562704Y-121410955D01*
X156591205Y-121366608D01*
X156608291Y-121349522D01*
X156629816Y-121327997D01*
X156725789Y-121175257D01*
X156785368Y-121004990D01*
X156785930Y-121000003D01*
X156805565Y-120825738D01*
X156805565Y-120825731D01*
X156785369Y-120646485D01*
X156785368Y-120646480D01*
X156725789Y-120476213D01*
X156629816Y-120323473D01*
X156502262Y-120195919D01*
X156499900Y-120194435D01*
X156349524Y-120099947D01*
X156349523Y-120099946D01*
X156283544Y-120076859D01*
X156226769Y-120036137D01*
X156201022Y-119971184D01*
X156200500Y-119959818D01*
X156200500Y-118682412D01*
X156220185Y-118615373D01*
X156227555Y-118605097D01*
X156229810Y-118602267D01*
X156229816Y-118602262D01*
X156325789Y-118449522D01*
X156385368Y-118279255D01*
X156389578Y-118241888D01*
X156416643Y-118177476D01*
X156474237Y-118137920D01*
X156544074Y-118135781D01*
X156600479Y-118168091D01*
X156960176Y-118527788D01*
X156993661Y-118589111D01*
X156995715Y-118601585D01*
X157005508Y-118688504D01*
X157065088Y-118858776D01*
X157161062Y-119011517D01*
X157288616Y-119139071D01*
X157441356Y-119235044D01*
X157571262Y-119280500D01*
X157611623Y-119294623D01*
X157611628Y-119294624D01*
X157790874Y-119314820D01*
X157790878Y-119314820D01*
X157790882Y-119314820D01*
X157970127Y-119294624D01*
X157970130Y-119294623D01*
X157970133Y-119294623D01*
X158140400Y-119235044D01*
X158293140Y-119139071D01*
X158420694Y-119011517D01*
X158516667Y-118858777D01*
X158576246Y-118688510D01*
X158584378Y-118616335D01*
X158596443Y-118509258D01*
X158596443Y-118509251D01*
X158576247Y-118330005D01*
X158576246Y-118330000D01*
X158516667Y-118159733D01*
X158420694Y-118006993D01*
X158293140Y-117879439D01*
X158261407Y-117859500D01*
X158140399Y-117783465D01*
X157970127Y-117723885D01*
X157883208Y-117714092D01*
X157818794Y-117687025D01*
X157809411Y-117678553D01*
X156610098Y-116479240D01*
X156580739Y-116432516D01*
X156525789Y-116275478D01*
X156429816Y-116122738D01*
X156302262Y-115995184D01*
X156149523Y-115899211D01*
X155979254Y-115839631D01*
X155979249Y-115839630D01*
X155800004Y-115819435D01*
X155799996Y-115819435D01*
X155620750Y-115839630D01*
X155620745Y-115839631D01*
X155450476Y-115899211D01*
X155297737Y-115995184D01*
X155170184Y-116122737D01*
X155074211Y-116275476D01*
X155014631Y-116445745D01*
X155014630Y-116445750D01*
X154994435Y-116624996D01*
X154994435Y-116625003D01*
X155014630Y-116804249D01*
X155014631Y-116804254D01*
X155074211Y-116974523D01*
X155170184Y-117127262D01*
X155242875Y-117199953D01*
X155276360Y-117261276D01*
X155271376Y-117330968D01*
X155229504Y-117386901D01*
X155221167Y-117392627D01*
X155097740Y-117470182D01*
X155009693Y-117558229D01*
X154948369Y-117591713D01*
X154878678Y-117586729D01*
X154822744Y-117544857D01*
X154817018Y-117536519D01*
X154775337Y-117470184D01*
X154729816Y-117397738D01*
X154602262Y-117270184D01*
X154544499Y-117233889D01*
X154449523Y-117174211D01*
X154279254Y-117114631D01*
X154279249Y-117114630D01*
X154100004Y-117094435D01*
X154099996Y-117094435D01*
X153920750Y-117114630D01*
X153920737Y-117114633D01*
X153750481Y-117174209D01*
X153750477Y-117174210D01*
X153644989Y-117240494D01*
X153579017Y-117259500D01*
X147182412Y-117259500D01*
X147115373Y-117239815D01*
X147105097Y-117232445D01*
X147102263Y-117230185D01*
X147102262Y-117230184D01*
X147013180Y-117174210D01*
X146949523Y-117134211D01*
X146779254Y-117074631D01*
X146779249Y-117074630D01*
X146600004Y-117054435D01*
X146599996Y-117054435D01*
X146420750Y-117074630D01*
X146420745Y-117074631D01*
X146250476Y-117134211D01*
X146097736Y-117230185D01*
X146094903Y-117232445D01*
X146092724Y-117233334D01*
X146091842Y-117233889D01*
X146091744Y-117233734D01*
X146030217Y-117258855D01*
X146017588Y-117259500D01*
X141919057Y-117259500D01*
X141760943Y-117259500D01*
X141608215Y-117300423D01*
X141608214Y-117300423D01*
X141608212Y-117300424D01*
X141608209Y-117300425D01*
X141573066Y-117320716D01*
X141573064Y-117320717D01*
X141471290Y-117379475D01*
X141471282Y-117379481D01*
X141359478Y-117491286D01*
X141027584Y-117823181D01*
X140966261Y-117856666D01*
X140939903Y-117859500D01*
X135511815Y-117859500D01*
X135444776Y-117839815D01*
X135399021Y-117787011D01*
X135388595Y-117749382D01*
X135385369Y-117720747D01*
X135325789Y-117550478D01*
X135275337Y-117470184D01*
X135229816Y-117397738D01*
X135102262Y-117270184D01*
X135044499Y-117233889D01*
X134949523Y-117174211D01*
X134779254Y-117114631D01*
X134779249Y-117114630D01*
X134600004Y-117094435D01*
X134599996Y-117094435D01*
X134420750Y-117114630D01*
X134420745Y-117114631D01*
X134250476Y-117174211D01*
X134097737Y-117270184D01*
X133970184Y-117397737D01*
X133874210Y-117550478D01*
X133814630Y-117720750D01*
X133806898Y-117789383D01*
X133779832Y-117853797D01*
X133722237Y-117893352D01*
X133683678Y-117899500D01*
X116516885Y-117899500D01*
X116449846Y-117879815D01*
X116404091Y-117827011D01*
X116393665Y-117789383D01*
X116385932Y-117720750D01*
X116385368Y-117715745D01*
X116325789Y-117545478D01*
X116229816Y-117392738D01*
X116102262Y-117265184D01*
X115949523Y-117169211D01*
X115779254Y-117109631D01*
X115779249Y-117109630D01*
X115600004Y-117089435D01*
X115599996Y-117089435D01*
X115420750Y-117109630D01*
X115420745Y-117109631D01*
X115250476Y-117169211D01*
X115097737Y-117265184D01*
X114970184Y-117392737D01*
X114874211Y-117545476D01*
X114814631Y-117715745D01*
X114814630Y-117715750D01*
X114794435Y-117894996D01*
X97500500Y-117894996D01*
X97500500Y-115399996D01*
X119794435Y-115399996D01*
X119794435Y-115400003D01*
X119814630Y-115579249D01*
X119814631Y-115579254D01*
X119874211Y-115749523D01*
X119944992Y-115862169D01*
X119970184Y-115902262D01*
X120097738Y-116029816D01*
X120171776Y-116076337D01*
X120245620Y-116122737D01*
X120250478Y-116125789D01*
X120349862Y-116160565D01*
X120420745Y-116185368D01*
X120420750Y-116185369D01*
X120599996Y-116205565D01*
X120600000Y-116205565D01*
X120600004Y-116205565D01*
X120779249Y-116185369D01*
X120779252Y-116185368D01*
X120779255Y-116185368D01*
X120949522Y-116125789D01*
X121102262Y-116029816D01*
X121229816Y-115902262D01*
X121325789Y-115749522D01*
X121385368Y-115579255D01*
X121385368Y-115579254D01*
X121385616Y-115578546D01*
X121426338Y-115521770D01*
X121491291Y-115496022D01*
X121502658Y-115495500D01*
X138663088Y-115495500D01*
X138730127Y-115515185D01*
X138775882Y-115567989D01*
X138780130Y-115578546D01*
X138824210Y-115704521D01*
X138824211Y-115704522D01*
X138920184Y-115857262D01*
X139047738Y-115984816D01*
X139119355Y-116029816D01*
X139193403Y-116076344D01*
X139200478Y-116080789D01*
X139329078Y-116125788D01*
X139370745Y-116140368D01*
X139370750Y-116140369D01*
X139549996Y-116160565D01*
X139550000Y-116160565D01*
X139550004Y-116160565D01*
X139729249Y-116140369D01*
X139729252Y-116140368D01*
X139729255Y-116140368D01*
X139899522Y-116080789D01*
X140052262Y-115984816D01*
X140179816Y-115857262D01*
X140275789Y-115704522D01*
X140319870Y-115578546D01*
X140360592Y-115521769D01*
X140425545Y-115496022D01*
X140436912Y-115495500D01*
X158197343Y-115495500D01*
X158264382Y-115515185D01*
X158310137Y-115567989D01*
X158314385Y-115578546D01*
X158314631Y-115579249D01*
X158314632Y-115579255D01*
X158345895Y-115668599D01*
X158374210Y-115749521D01*
X158444992Y-115862169D01*
X158470184Y-115902262D01*
X158597738Y-116029816D01*
X158671776Y-116076337D01*
X158745620Y-116122737D01*
X158750478Y-116125789D01*
X158849862Y-116160565D01*
X158920745Y-116185368D01*
X158920750Y-116185369D01*
X159099996Y-116205565D01*
X159100000Y-116205565D01*
X159100004Y-116205565D01*
X159279249Y-116185369D01*
X159279252Y-116185368D01*
X159279255Y-116185368D01*
X159449522Y-116125789D01*
X159602262Y-116029816D01*
X159729816Y-115902262D01*
X159825789Y-115749522D01*
X159885368Y-115579255D01*
X159885448Y-115578546D01*
X159905565Y-115400003D01*
X159905565Y-115399996D01*
X159885369Y-115220750D01*
X159885366Y-115220737D01*
X159825790Y-115050481D01*
X159825789Y-115050478D01*
X159804008Y-115015814D01*
X159769506Y-114960903D01*
X159750500Y-114894931D01*
X159750500Y-110075493D01*
X159769508Y-110009519D01*
X159775787Y-109999525D01*
X159775788Y-109999523D01*
X159775789Y-109999522D01*
X159835368Y-109829255D01*
X159855565Y-109650000D01*
X159847593Y-109579249D01*
X159835369Y-109470750D01*
X159835368Y-109470745D01*
X159810612Y-109399996D01*
X159775789Y-109300478D01*
X159679816Y-109147738D01*
X159552262Y-109020184D01*
X159399523Y-108924211D01*
X159229254Y-108864631D01*
X159229249Y-108864630D01*
X159050004Y-108844435D01*
X159049996Y-108844435D01*
X158870750Y-108864630D01*
X158870745Y-108864631D01*
X158700476Y-108924211D01*
X158547737Y-109020184D01*
X158420184Y-109147737D01*
X158324211Y-109300476D01*
X158264631Y-109470745D01*
X158264630Y-109470750D01*
X158244435Y-109649996D01*
X158244435Y-109650003D01*
X158264630Y-109829249D01*
X158264631Y-109829254D01*
X158324211Y-109999523D01*
X158420185Y-110152263D01*
X158422445Y-110155097D01*
X158423334Y-110157275D01*
X158423889Y-110158158D01*
X158423734Y-110158255D01*
X158448855Y-110219783D01*
X158449500Y-110232412D01*
X158449500Y-114070500D01*
X158429815Y-114137539D01*
X158377011Y-114183294D01*
X158325500Y-114194500D01*
X148616322Y-114194500D01*
X148549283Y-114174815D01*
X148503528Y-114122011D01*
X148493102Y-114084383D01*
X148485369Y-114015750D01*
X148485368Y-114015748D01*
X148485368Y-114015745D01*
X148425789Y-113845478D01*
X148329816Y-113692738D01*
X148202262Y-113565184D01*
X148191117Y-113558181D01*
X148049523Y-113469211D01*
X147879254Y-113409631D01*
X147879249Y-113409630D01*
X147700004Y-113389435D01*
X147699996Y-113389435D01*
X147520750Y-113409630D01*
X147520745Y-113409631D01*
X147350476Y-113469211D01*
X147197736Y-113565185D01*
X147194903Y-113567445D01*
X147192724Y-113568334D01*
X147191842Y-113568889D01*
X147191744Y-113568734D01*
X147130217Y-113593855D01*
X147117588Y-113594500D01*
X146645097Y-113594500D01*
X146578058Y-113574815D01*
X146557416Y-113558181D01*
X145980700Y-112981465D01*
X145947215Y-112920142D01*
X145945163Y-112907686D01*
X145935368Y-112820745D01*
X145875789Y-112650478D01*
X145779816Y-112497738D01*
X145779815Y-112497737D01*
X145776111Y-112491842D01*
X145778409Y-112490397D01*
X145756659Y-112437151D01*
X145769401Y-112368453D01*
X145817261Y-112317550D01*
X145880012Y-112300500D01*
X151013331Y-112300500D01*
X151013347Y-112300501D01*
X151020943Y-112300501D01*
X151179054Y-112300501D01*
X151179057Y-112300501D01*
X151331785Y-112259577D01*
X151381904Y-112230639D01*
X151409074Y-112214953D01*
X151457187Y-112199121D01*
X151509220Y-112193258D01*
X151579249Y-112185369D01*
X151579252Y-112185368D01*
X151579255Y-112185368D01*
X151749522Y-112125789D01*
X151902262Y-112029816D01*
X152029816Y-111902262D01*
X152125789Y-111749522D01*
X152185368Y-111579255D01*
X152205565Y-111400000D01*
X152185368Y-111220745D01*
X152125789Y-111050478D01*
X152029816Y-110897738D01*
X151902262Y-110770184D01*
X151749523Y-110674211D01*
X151579254Y-110614631D01*
X151579249Y-110614630D01*
X151400004Y-110594435D01*
X151399996Y-110594435D01*
X151220750Y-110614630D01*
X151220745Y-110614631D01*
X151050476Y-110674211D01*
X150897737Y-110770184D01*
X150770184Y-110897737D01*
X150679870Y-111041472D01*
X150627535Y-111087763D01*
X150574876Y-111099500D01*
X140700097Y-111099500D01*
X140633058Y-111079815D01*
X140612416Y-111063181D01*
X138930700Y-109381465D01*
X138897215Y-109320142D01*
X138895163Y-109307686D01*
X138885368Y-109220745D01*
X138825789Y-109050478D01*
X138729816Y-108897738D01*
X138602262Y-108770184D01*
X138449523Y-108674211D01*
X138279254Y-108614631D01*
X138279249Y-108614630D01*
X138100004Y-108594435D01*
X138099996Y-108594435D01*
X137920750Y-108614630D01*
X137920745Y-108614631D01*
X137750476Y-108674211D01*
X137597737Y-108770184D01*
X137470184Y-108897737D01*
X137374211Y-109050476D01*
X137314631Y-109220745D01*
X137314630Y-109220750D01*
X137294435Y-109399996D01*
X137294435Y-109400003D01*
X137314630Y-109579249D01*
X137314631Y-109579254D01*
X137374211Y-109749523D01*
X137470184Y-109902262D01*
X137597738Y-110029816D01*
X137750478Y-110125789D01*
X137920745Y-110185368D01*
X138007669Y-110195161D01*
X138072080Y-110222226D01*
X138081465Y-110230700D01*
X139915139Y-112064374D01*
X139915149Y-112064385D01*
X139919479Y-112068715D01*
X139919480Y-112068716D01*
X140031284Y-112180520D01*
X140063503Y-112199121D01*
X140118095Y-112230639D01*
X140118097Y-112230641D01*
X140168213Y-112259576D01*
X140168215Y-112259577D01*
X140320942Y-112300500D01*
X140320943Y-112300500D01*
X144419988Y-112300500D01*
X144487027Y-112320185D01*
X144532782Y-112372989D01*
X144542726Y-112442147D01*
X144521805Y-112490532D01*
X144523889Y-112491842D01*
X144424211Y-112650476D01*
X144364631Y-112820745D01*
X144364630Y-112820750D01*
X144344435Y-112999996D01*
X144344435Y-113000003D01*
X144364630Y-113179249D01*
X144364631Y-113179254D01*
X144424211Y-113349523D01*
X144499417Y-113469211D01*
X144520184Y-113502262D01*
X144647738Y-113629816D01*
X144800478Y-113725789D01*
X144970745Y-113785368D01*
X145057669Y-113795161D01*
X145122080Y-113822226D01*
X145131465Y-113830700D01*
X145283584Y-113982819D01*
X145317069Y-114044142D01*
X145312085Y-114113834D01*
X145270213Y-114169767D01*
X145204749Y-114194184D01*
X145195903Y-114194500D01*
X121090929Y-114194500D01*
X120965261Y-114219497D01*
X120965251Y-114219500D01*
X120916220Y-114239810D01*
X120846881Y-114268530D01*
X120846863Y-114268540D01*
X120740336Y-114339719D01*
X120740333Y-114339721D01*
X120501775Y-114578278D01*
X120440452Y-114611762D01*
X120427988Y-114613815D01*
X120420752Y-114614630D01*
X120420744Y-114614632D01*
X120250478Y-114674210D01*
X120097737Y-114770184D01*
X119970184Y-114897737D01*
X119874211Y-115050476D01*
X119814631Y-115220745D01*
X119814630Y-115220750D01*
X119794435Y-115399996D01*
X97500500Y-115399996D01*
X97500500Y-101599996D01*
X124694435Y-101599996D01*
X124694435Y-101600003D01*
X124714630Y-101779249D01*
X124714631Y-101779254D01*
X124774211Y-101949523D01*
X124870184Y-102102262D01*
X124997738Y-102229816D01*
X125150478Y-102325789D01*
X125229826Y-102353553D01*
X125286601Y-102394274D01*
X125312091Y-102456711D01*
X125314630Y-102479249D01*
X125374210Y-102649521D01*
X125374211Y-102649522D01*
X125470184Y-102802262D01*
X125597738Y-102929816D01*
X125750478Y-103025789D01*
X125920745Y-103085368D01*
X125920750Y-103085369D01*
X126099996Y-103105565D01*
X126100000Y-103105565D01*
X126100004Y-103105565D01*
X126279249Y-103085369D01*
X126279252Y-103085368D01*
X126279255Y-103085368D01*
X126449522Y-103025789D01*
X126602262Y-102929816D01*
X126729816Y-102802262D01*
X126825789Y-102649522D01*
X126884305Y-102482292D01*
X126913662Y-102435571D01*
X135349237Y-93999996D01*
X150094435Y-93999996D01*
X150094435Y-94000003D01*
X150114630Y-94179249D01*
X150114631Y-94179254D01*
X150174211Y-94349523D01*
X150253052Y-94474996D01*
X150270184Y-94502262D01*
X150397738Y-94629816D01*
X150550478Y-94725789D01*
X150720745Y-94785368D01*
X150720750Y-94785369D01*
X150899996Y-94805565D01*
X150900000Y-94805565D01*
X150900004Y-94805565D01*
X151079249Y-94785369D01*
X151079252Y-94785368D01*
X151079255Y-94785368D01*
X151249522Y-94725789D01*
X151402262Y-94629816D01*
X151402267Y-94629810D01*
X151405097Y-94627555D01*
X151407275Y-94626665D01*
X151408158Y-94626111D01*
X151408255Y-94626265D01*
X151469783Y-94601145D01*
X151482412Y-94600500D01*
X155607840Y-94600500D01*
X155674879Y-94620185D01*
X155720634Y-94672989D01*
X155724877Y-94683533D01*
X155739663Y-94725789D01*
X155774210Y-94824521D01*
X155870184Y-94977262D01*
X155997738Y-95104816D01*
X156150478Y-95200789D01*
X156320745Y-95260368D01*
X156320750Y-95260369D01*
X156499996Y-95280565D01*
X156500000Y-95280565D01*
X156500004Y-95280565D01*
X156679249Y-95260369D01*
X156679252Y-95260368D01*
X156679255Y-95260368D01*
X156849522Y-95200789D01*
X157002262Y-95104816D01*
X157129816Y-94977262D01*
X157225789Y-94824522D01*
X157285368Y-94654255D01*
X157288122Y-94629814D01*
X157305565Y-94475003D01*
X157305565Y-94474996D01*
X157285369Y-94295750D01*
X157285368Y-94295745D01*
X157225788Y-94125476D01*
X157186582Y-94063080D01*
X157129816Y-93972738D01*
X157002262Y-93845184D01*
X156963368Y-93820745D01*
X156849521Y-93749210D01*
X156679249Y-93689630D01*
X156592330Y-93679837D01*
X156527916Y-93652770D01*
X156518533Y-93644298D01*
X156512590Y-93638355D01*
X156512588Y-93638352D01*
X156393717Y-93519481D01*
X156393709Y-93519475D01*
X156291936Y-93460717D01*
X156291934Y-93460716D01*
X156256790Y-93440425D01*
X156256789Y-93440424D01*
X156244263Y-93437067D01*
X156104057Y-93399499D01*
X155945943Y-93399499D01*
X155938347Y-93399499D01*
X155938331Y-93399500D01*
X151482412Y-93399500D01*
X151415373Y-93379815D01*
X151405097Y-93372445D01*
X151402263Y-93370185D01*
X151402262Y-93370184D01*
X151345496Y-93334515D01*
X151249523Y-93274211D01*
X151079254Y-93214631D01*
X151079249Y-93214630D01*
X150900004Y-93194435D01*
X150899996Y-93194435D01*
X150720750Y-93214630D01*
X150720745Y-93214631D01*
X150550476Y-93274211D01*
X150397737Y-93370184D01*
X150270184Y-93497737D01*
X150174211Y-93650476D01*
X150114631Y-93820745D01*
X150114630Y-93820750D01*
X150094435Y-93999996D01*
X135349237Y-93999996D01*
X137418535Y-91930698D01*
X137479856Y-91897215D01*
X137492311Y-91895163D01*
X137579255Y-91885368D01*
X137749522Y-91825789D01*
X137902262Y-91729816D01*
X138029816Y-91602262D01*
X138125789Y-91449522D01*
X138185368Y-91279255D01*
X138205565Y-91100000D01*
X138185368Y-90920745D01*
X138125789Y-90750478D01*
X138029816Y-90597738D01*
X137902262Y-90470184D01*
X137871386Y-90450783D01*
X137749523Y-90374211D01*
X137579254Y-90314631D01*
X137579250Y-90314630D01*
X137452607Y-90300361D01*
X137388193Y-90273294D01*
X137349449Y-90218095D01*
X137325788Y-90150476D01*
X137229815Y-89997737D01*
X137102262Y-89870184D01*
X136949523Y-89774211D01*
X136779254Y-89714631D01*
X136779249Y-89714630D01*
X136600004Y-89694435D01*
X136599996Y-89694435D01*
X136420750Y-89714630D01*
X136420745Y-89714631D01*
X136250476Y-89774211D01*
X136097737Y-89870184D01*
X135970184Y-89997737D01*
X135874210Y-90150478D01*
X135814630Y-90320750D01*
X135804837Y-90407667D01*
X135777770Y-90472081D01*
X135769298Y-90481464D01*
X125481465Y-100769298D01*
X125420142Y-100802783D01*
X125407668Y-100804837D01*
X125320750Y-100814630D01*
X125150478Y-100874210D01*
X124997737Y-100970184D01*
X124870184Y-101097737D01*
X124774211Y-101250476D01*
X124714631Y-101420745D01*
X124714630Y-101420750D01*
X124694435Y-101599996D01*
X97500500Y-101599996D01*
X97500500Y-71229996D01*
X109504435Y-71229996D01*
X109504435Y-71230003D01*
X109524630Y-71409249D01*
X109524631Y-71409254D01*
X109584211Y-71579523D01*
X109680184Y-71732262D01*
X109807738Y-71859816D01*
X109960478Y-71955789D01*
X110130745Y-72015368D01*
X110130750Y-72015369D01*
X110309996Y-72035565D01*
X110310000Y-72035565D01*
X110310004Y-72035565D01*
X110489249Y-72015369D01*
X110489252Y-72015368D01*
X110489255Y-72015368D01*
X110659522Y-71955789D01*
X110812262Y-71859816D01*
X110939816Y-71732262D01*
X111035789Y-71579522D01*
X111095368Y-71409255D01*
X111115565Y-71230000D01*
X111095368Y-71050745D01*
X111035789Y-70880478D01*
X110939816Y-70727738D01*
X110812262Y-70600184D01*
X110659523Y-70504211D01*
X110489254Y-70444631D01*
X110489249Y-70444630D01*
X110310004Y-70424435D01*
X110309996Y-70424435D01*
X110130750Y-70444630D01*
X110130745Y-70444631D01*
X109960476Y-70504211D01*
X109807737Y-70600184D01*
X109680184Y-70727737D01*
X109584211Y-70880476D01*
X109524631Y-71050745D01*
X109524630Y-71050750D01*
X109504435Y-71229996D01*
X97500500Y-71229996D01*
X97500500Y-68699996D01*
X109504435Y-68699996D01*
X109504435Y-68700003D01*
X109524630Y-68879249D01*
X109524631Y-68879254D01*
X109584211Y-69049523D01*
X109680184Y-69202262D01*
X109807738Y-69329816D01*
X109960478Y-69425789D01*
X110130745Y-69485368D01*
X110130750Y-69485369D01*
X110309996Y-69505565D01*
X110310000Y-69505565D01*
X110310004Y-69505565D01*
X110489249Y-69485369D01*
X110489252Y-69485368D01*
X110489255Y-69485368D01*
X110659522Y-69425789D01*
X110812262Y-69329816D01*
X110939816Y-69202262D01*
X111035789Y-69049522D01*
X111095368Y-68879255D01*
X111115565Y-68700000D01*
X111095368Y-68520745D01*
X111035789Y-68350478D01*
X110939816Y-68197738D01*
X110812262Y-68070184D01*
X110659523Y-67974211D01*
X110489254Y-67914631D01*
X110489249Y-67914630D01*
X110310004Y-67894435D01*
X110309996Y-67894435D01*
X110130750Y-67914630D01*
X110130745Y-67914631D01*
X109960476Y-67974211D01*
X109807737Y-68070184D01*
X109680184Y-68197737D01*
X109584211Y-68350476D01*
X109524631Y-68520745D01*
X109524630Y-68520750D01*
X109504435Y-68699996D01*
X97500500Y-68699996D01*
X97500500Y-63999999D01*
X98294922Y-63999999D01*
X98294922Y-64000000D01*
X98315219Y-64387287D01*
X98375886Y-64770323D01*
X98375887Y-64770330D01*
X98476262Y-65144936D01*
X98615244Y-65506994D01*
X98791310Y-65852543D01*
X99002523Y-66177783D01*
X99002525Y-66177785D01*
X99211096Y-66435348D01*
X100705747Y-64940697D01*
X100779588Y-65042330D01*
X100957670Y-65220412D01*
X101059301Y-65294251D01*
X99564650Y-66788902D01*
X99822214Y-66997475D01*
X99822216Y-66997476D01*
X100147456Y-67208689D01*
X100493005Y-67384755D01*
X100855063Y-67523737D01*
X101229669Y-67624112D01*
X101229676Y-67624113D01*
X101612712Y-67684780D01*
X101999999Y-67705078D01*
X102000001Y-67705078D01*
X102387287Y-67684780D01*
X102770323Y-67624113D01*
X102770330Y-67624112D01*
X103144936Y-67523737D01*
X103506994Y-67384755D01*
X103852543Y-67208689D01*
X104177771Y-66997484D01*
X104177784Y-66997474D01*
X104435348Y-66788902D01*
X102940698Y-65294252D01*
X103042330Y-65220412D01*
X103220412Y-65042330D01*
X103294252Y-64940698D01*
X104788902Y-66435348D01*
X104997474Y-66177784D01*
X104997484Y-66177771D01*
X105208689Y-65852543D01*
X105384755Y-65506994D01*
X105523737Y-65144936D01*
X105624112Y-64770330D01*
X105624113Y-64770323D01*
X105684780Y-64387287D01*
X105705078Y-64000000D01*
X105705078Y-63999999D01*
X105684780Y-63612712D01*
X105624113Y-63229676D01*
X105624112Y-63229669D01*
X105523737Y-62855063D01*
X105384755Y-62493005D01*
X105208689Y-62147456D01*
X104997476Y-61822216D01*
X104997475Y-61822214D01*
X104788902Y-61564650D01*
X103294251Y-63059301D01*
X103220412Y-62957670D01*
X103042330Y-62779588D01*
X102940698Y-62705748D01*
X104435349Y-61211096D01*
X104177785Y-61002525D01*
X104177783Y-61002523D01*
X104173892Y-60999996D01*
X109594435Y-60999996D01*
X109594435Y-61000003D01*
X109614630Y-61179249D01*
X109614631Y-61179254D01*
X109674211Y-61349523D01*
X109770184Y-61502262D01*
X109897738Y-61629816D01*
X110050478Y-61725789D01*
X110220745Y-61785368D01*
X110307669Y-61795161D01*
X110372080Y-61822226D01*
X110381465Y-61830700D01*
X123915139Y-75364374D01*
X123915149Y-75364385D01*
X123919479Y-75368715D01*
X123919480Y-75368716D01*
X124031284Y-75480520D01*
X124118095Y-75530639D01*
X124118097Y-75530641D01*
X124156151Y-75552611D01*
X124168215Y-75559577D01*
X124320943Y-75600501D01*
X124320946Y-75600501D01*
X124486653Y-75600501D01*
X124486669Y-75600500D01*
X152003331Y-75600500D01*
X152003347Y-75600501D01*
X152010943Y-75600501D01*
X152017190Y-75600501D01*
X152058141Y-75607458D01*
X152080745Y-75615368D01*
X152080748Y-75615368D01*
X152080750Y-75615369D01*
X152259996Y-75635565D01*
X152260000Y-75635565D01*
X152260004Y-75635565D01*
X152439249Y-75615369D01*
X152439252Y-75615368D01*
X152439255Y-75615368D01*
X152609522Y-75555789D01*
X152762262Y-75459816D01*
X152889816Y-75332262D01*
X152985789Y-75179522D01*
X153045368Y-75009255D01*
X153065565Y-74830000D01*
X153045368Y-74650745D01*
X152985789Y-74480478D01*
X152889816Y-74327738D01*
X152762262Y-74200184D01*
X152609523Y-74104211D01*
X152439254Y-74044631D01*
X152439249Y-74044630D01*
X152260004Y-74024435D01*
X152259996Y-74024435D01*
X152080750Y-74044630D01*
X152080745Y-74044631D01*
X151910476Y-74104211D01*
X151757737Y-74200184D01*
X151630186Y-74327735D01*
X151630184Y-74327737D01*
X151630184Y-74327738D01*
X151621553Y-74341473D01*
X151569222Y-74387762D01*
X151516561Y-74399500D01*
X124700097Y-74399500D01*
X124633058Y-74379815D01*
X124612416Y-74363181D01*
X114249234Y-63999999D01*
X188294922Y-63999999D01*
X188294922Y-64000000D01*
X188315219Y-64387287D01*
X188375886Y-64770323D01*
X188375887Y-64770330D01*
X188476262Y-65144936D01*
X188615244Y-65506994D01*
X188791310Y-65852543D01*
X189002523Y-66177783D01*
X189002525Y-66177785D01*
X189211096Y-66435348D01*
X190705747Y-64940697D01*
X190779588Y-65042330D01*
X190957670Y-65220412D01*
X191059301Y-65294251D01*
X189564650Y-66788902D01*
X189822214Y-66997475D01*
X189822216Y-66997476D01*
X190147456Y-67208689D01*
X190493005Y-67384755D01*
X190855063Y-67523737D01*
X191229669Y-67624112D01*
X191229676Y-67624113D01*
X191612712Y-67684780D01*
X191999999Y-67705078D01*
X192000001Y-67705078D01*
X192387287Y-67684780D01*
X192770323Y-67624113D01*
X192770330Y-67624112D01*
X193144936Y-67523737D01*
X193506994Y-67384755D01*
X193852543Y-67208689D01*
X194177771Y-66997484D01*
X194177784Y-66997474D01*
X194435348Y-66788902D01*
X192940698Y-65294252D01*
X193042330Y-65220412D01*
X193220412Y-65042330D01*
X193294252Y-64940698D01*
X194788902Y-66435348D01*
X194997474Y-66177784D01*
X194997484Y-66177771D01*
X195208689Y-65852543D01*
X195384755Y-65506994D01*
X195523737Y-65144936D01*
X195624112Y-64770330D01*
X195624113Y-64770323D01*
X195684780Y-64387287D01*
X195705078Y-64000000D01*
X195705078Y-63999999D01*
X195684780Y-63612712D01*
X195624113Y-63229676D01*
X195624112Y-63229669D01*
X195523737Y-62855063D01*
X195384755Y-62493005D01*
X195208689Y-62147456D01*
X194997476Y-61822216D01*
X194997475Y-61822214D01*
X194788902Y-61564650D01*
X193294251Y-63059301D01*
X193220412Y-62957670D01*
X193042330Y-62779588D01*
X192940698Y-62705748D01*
X194435349Y-61211096D01*
X194177785Y-61002525D01*
X194177783Y-61002523D01*
X193852543Y-60791310D01*
X193506994Y-60615244D01*
X193144936Y-60476262D01*
X192770330Y-60375887D01*
X192770323Y-60375886D01*
X192387287Y-60315219D01*
X192000001Y-60294922D01*
X191999999Y-60294922D01*
X191612712Y-60315219D01*
X191229676Y-60375886D01*
X191229669Y-60375887D01*
X190855063Y-60476262D01*
X190493005Y-60615244D01*
X190147456Y-60791310D01*
X189822206Y-61002531D01*
X189564649Y-61211095D01*
X189564649Y-61211096D01*
X191059301Y-62705748D01*
X190957670Y-62779588D01*
X190779588Y-62957670D01*
X190705748Y-63059301D01*
X189211096Y-61564649D01*
X189211095Y-61564649D01*
X189002531Y-61822206D01*
X188791310Y-62147456D01*
X188615244Y-62493005D01*
X188476262Y-62855063D01*
X188375887Y-63229669D01*
X188375886Y-63229676D01*
X188315219Y-63612712D01*
X188294922Y-63999999D01*
X114249234Y-63999999D01*
X111230700Y-60981465D01*
X111197215Y-60920142D01*
X111195163Y-60907686D01*
X111185368Y-60820745D01*
X111125789Y-60650478D01*
X111029816Y-60497738D01*
X110902262Y-60370184D01*
X110814786Y-60315219D01*
X110749523Y-60274211D01*
X110579254Y-60214631D01*
X110579249Y-60214630D01*
X110400004Y-60194435D01*
X110399996Y-60194435D01*
X110220750Y-60214630D01*
X110220745Y-60214631D01*
X110050476Y-60274211D01*
X109897737Y-60370184D01*
X109770184Y-60497737D01*
X109674211Y-60650476D01*
X109614631Y-60820745D01*
X109614630Y-60820750D01*
X109594435Y-60999996D01*
X104173892Y-60999996D01*
X103852543Y-60791310D01*
X103506994Y-60615244D01*
X103144936Y-60476262D01*
X102770330Y-60375887D01*
X102770323Y-60375886D01*
X102387287Y-60315219D01*
X102000001Y-60294922D01*
X101999999Y-60294922D01*
X101612712Y-60315219D01*
X101229676Y-60375886D01*
X101229669Y-60375887D01*
X100855063Y-60476262D01*
X100493005Y-60615244D01*
X100147456Y-60791310D01*
X99822206Y-61002531D01*
X99564649Y-61211095D01*
X99564649Y-61211096D01*
X101059301Y-62705748D01*
X100957670Y-62779588D01*
X100779588Y-62957670D01*
X100705748Y-63059301D01*
X99211096Y-61564649D01*
X99211095Y-61564649D01*
X99002531Y-61822206D01*
X98791310Y-62147456D01*
X98615244Y-62493005D01*
X98476262Y-62855063D01*
X98375887Y-63229669D01*
X98375886Y-63229676D01*
X98315219Y-63612712D01*
X98294922Y-63999999D01*
X97500500Y-63999999D01*
X97500500Y-59624500D01*
X97520185Y-59557461D01*
X97572989Y-59511706D01*
X97624500Y-59500500D01*
X196375500Y-59500500D01*
X196442539Y-59520185D01*
G37*
%TD.AperFunction*%
%TD*%
M02*
