%TF.GenerationSoftware,KiCad,Pcbnew,8.0.8*%
%TF.CreationDate,2025-01-22T12:02:44+01:00*%
%TF.ProjectId,laser_controller,6c617365-725f-4636-9f6e-74726f6c6c65,rev?*%
%TF.SameCoordinates,Original*%
%TF.FileFunction,Legend,Top*%
%TF.FilePolarity,Positive*%
%FSLAX46Y46*%
G04 Gerber Fmt 4.6, Leading zero omitted, Abs format (unit mm)*
G04 Created by KiCad (PCBNEW 8.0.8) date 2025-01-22 12:02:44*
%MOMM*%
%LPD*%
G01*
G04 APERTURE LIST*
%ADD10C,0.100000*%
%ADD11C,0.150000*%
%ADD12C,0.120000*%
%ADD13C,0.200000*%
%ADD14C,0.127000*%
G04 APERTURE END LIST*
D10*
G36*
X170396580Y-71810000D02*
G01*
X169803803Y-71810000D01*
X169803803Y-70793949D01*
X169939846Y-70793949D01*
X169939846Y-71688855D01*
X170396580Y-71688855D01*
X170396580Y-71810000D01*
G37*
G36*
X170784608Y-71029894D02*
G01*
X170834033Y-71034857D01*
X170866503Y-71040879D01*
X170914921Y-71056675D01*
X170958509Y-71081165D01*
X170963956Y-71085087D01*
X171000593Y-71121174D01*
X171026482Y-71166420D01*
X171040507Y-71214224D01*
X171046498Y-71266149D01*
X171046999Y-71288053D01*
X171046999Y-71810000D01*
X170918771Y-71810000D01*
X170918771Y-71722561D01*
X170879559Y-71752700D01*
X170876273Y-71755289D01*
X170834537Y-71783617D01*
X170825226Y-71788506D01*
X170779028Y-71809097D01*
X170758792Y-71815861D01*
X170708990Y-71824257D01*
X170669399Y-71825631D01*
X170620365Y-71820737D01*
X170579274Y-71808290D01*
X170534709Y-71784024D01*
X170504535Y-71758953D01*
X170473581Y-71719497D01*
X170454954Y-71682505D01*
X170440470Y-71632789D01*
X170436392Y-71586517D01*
X170437079Y-71577725D01*
X170569748Y-71577725D01*
X170576854Y-71626758D01*
X170604589Y-71670461D01*
X170606873Y-71672491D01*
X170652547Y-71696488D01*
X170702245Y-71704205D01*
X170715317Y-71704487D01*
X170766501Y-71699578D01*
X170813197Y-71684852D01*
X170825715Y-71678841D01*
X170867930Y-71653990D01*
X170907807Y-71624745D01*
X170918771Y-71615582D01*
X170918771Y-71415303D01*
X170866564Y-71419944D01*
X170815244Y-71424793D01*
X170802267Y-71426050D01*
X170753289Y-71431969D01*
X170702692Y-71441589D01*
X170688450Y-71445345D01*
X170641372Y-71464274D01*
X170603210Y-71491263D01*
X170576153Y-71533887D01*
X170569748Y-71577725D01*
X170437079Y-71577725D01*
X170440374Y-71535554D01*
X170453804Y-71486279D01*
X170470097Y-71453649D01*
X170500872Y-71415627D01*
X170542637Y-71383994D01*
X170576587Y-71366454D01*
X170623688Y-71348608D01*
X170671315Y-71336091D01*
X170723522Y-71327103D01*
X170728995Y-71326399D01*
X170779555Y-71320543D01*
X170832318Y-71315614D01*
X170881067Y-71312011D01*
X170918771Y-71309790D01*
X170918771Y-71284877D01*
X170913333Y-71234750D01*
X170904849Y-71211360D01*
X170873944Y-71173178D01*
X170866503Y-71168129D01*
X170821101Y-71149650D01*
X170805931Y-71146880D01*
X170755860Y-71142252D01*
X170732414Y-71141751D01*
X170680634Y-71146025D01*
X170631160Y-71155962D01*
X170627390Y-71156894D01*
X170578333Y-71171257D01*
X170529195Y-71190134D01*
X170506489Y-71200369D01*
X170498918Y-71200369D01*
X170498918Y-71064570D01*
X170548849Y-71052060D01*
X170597119Y-71042159D01*
X170601256Y-71041367D01*
X170651058Y-71033479D01*
X170700449Y-71029231D01*
X170733147Y-71028422D01*
X170784608Y-71029894D01*
G37*
G36*
X171432170Y-71825631D02*
G01*
X171380430Y-71823264D01*
X171331000Y-71816165D01*
X171288066Y-71805603D01*
X171241103Y-71790239D01*
X171194474Y-71771445D01*
X171177180Y-71763105D01*
X171177180Y-71622421D01*
X171184263Y-71622421D01*
X171222854Y-71649532D01*
X171266908Y-71673324D01*
X171282449Y-71680307D01*
X171328461Y-71697532D01*
X171354745Y-71705464D01*
X171402850Y-71714437D01*
X171437055Y-71716210D01*
X171487674Y-71711887D01*
X171502756Y-71709127D01*
X171550467Y-71693740D01*
X171555024Y-71691053D01*
X171589706Y-71658080D01*
X171600411Y-71609408D01*
X171600453Y-71605080D01*
X171590626Y-71557071D01*
X171575296Y-71536692D01*
X171531935Y-71512011D01*
X171486392Y-71498101D01*
X171438605Y-71487368D01*
X171421912Y-71483935D01*
X171372289Y-71472510D01*
X171348394Y-71466106D01*
X171298139Y-71447687D01*
X171253711Y-71421201D01*
X171220655Y-71388192D01*
X171196395Y-71345499D01*
X171183332Y-71296555D01*
X171180844Y-71260453D01*
X171185729Y-71211528D01*
X171202902Y-71162144D01*
X171232440Y-71118749D01*
X171259002Y-71093147D01*
X171301408Y-71064830D01*
X171350226Y-71044603D01*
X171398201Y-71033542D01*
X171451085Y-71028675D01*
X171467096Y-71028422D01*
X171519170Y-71030962D01*
X171571405Y-71038580D01*
X171595568Y-71043810D01*
X171644730Y-71057484D01*
X171692941Y-71076668D01*
X171704256Y-71082400D01*
X171704256Y-71216001D01*
X171697418Y-71216001D01*
X171655278Y-71189130D01*
X171609431Y-71167257D01*
X171587020Y-71158848D01*
X171537445Y-71145248D01*
X171487548Y-71138582D01*
X171464410Y-71137843D01*
X171412418Y-71142892D01*
X171365116Y-71159507D01*
X171356699Y-71164221D01*
X171322395Y-71199900D01*
X171312735Y-71244089D01*
X171321862Y-71292122D01*
X171338625Y-71315163D01*
X171380853Y-71339790D01*
X171422644Y-71353265D01*
X171471553Y-71364798D01*
X171486636Y-71367920D01*
X171534801Y-71378268D01*
X171561374Y-71384528D01*
X171610395Y-71400399D01*
X171654840Y-71424194D01*
X171689357Y-71454626D01*
X171715553Y-71496392D01*
X171729658Y-71548049D01*
X171732344Y-71587983D01*
X171726830Y-71638696D01*
X171712805Y-71681039D01*
X171686874Y-71724166D01*
X171655408Y-71756266D01*
X171614403Y-71784552D01*
X171568783Y-71805754D01*
X171562351Y-71808046D01*
X171511948Y-71820067D01*
X171460635Y-71825013D01*
X171432170Y-71825631D01*
G37*
G36*
X172202558Y-71031239D02*
G01*
X172252901Y-71040646D01*
X172277739Y-71048450D01*
X172323159Y-71070322D01*
X172363250Y-71100890D01*
X172373726Y-71111221D01*
X172406150Y-71152267D01*
X172429644Y-71196911D01*
X172436985Y-71215757D01*
X172450380Y-71265834D01*
X172457228Y-71318618D01*
X172458967Y-71366699D01*
X172458967Y-71434842D01*
X171927250Y-71434842D01*
X171930464Y-71490788D01*
X171940106Y-71540657D01*
X171958997Y-71590208D01*
X171986283Y-71631821D01*
X171994417Y-71640983D01*
X172036412Y-71675459D01*
X172080586Y-71696632D01*
X172131201Y-71708890D01*
X172180774Y-71712302D01*
X172230638Y-71709030D01*
X172264061Y-71703021D01*
X172312203Y-71689321D01*
X172338066Y-71679085D01*
X172382596Y-71657597D01*
X172396929Y-71649532D01*
X172436985Y-71622421D01*
X172444556Y-71622421D01*
X172444556Y-71761151D01*
X172398401Y-71779531D01*
X172388136Y-71783621D01*
X172341654Y-71800245D01*
X172327808Y-71804382D01*
X172279217Y-71816178D01*
X172259420Y-71820013D01*
X172209822Y-71825082D01*
X172182240Y-71825631D01*
X172126922Y-71823139D01*
X172075612Y-71815661D01*
X172028309Y-71803198D01*
X171976835Y-71781663D01*
X171931131Y-71752949D01*
X171897452Y-71723538D01*
X171863006Y-71682147D01*
X171835686Y-71634729D01*
X171815493Y-71581282D01*
X171804109Y-71532139D01*
X171797675Y-71478810D01*
X171796092Y-71433133D01*
X171798489Y-71377050D01*
X171803967Y-71337145D01*
X171927250Y-71337145D01*
X172333182Y-71337145D01*
X172329127Y-71288135D01*
X172320969Y-71251416D01*
X172300123Y-71205258D01*
X172289218Y-71190355D01*
X172250229Y-71157495D01*
X172231332Y-71148346D01*
X172183336Y-71136314D01*
X172143649Y-71133935D01*
X172093236Y-71138140D01*
X172055966Y-71148834D01*
X172011577Y-71173854D01*
X171990509Y-71191577D01*
X171959826Y-71230083D01*
X171946545Y-71255568D01*
X171931910Y-71303806D01*
X171927250Y-71337145D01*
X171803967Y-71337145D01*
X171805680Y-71324664D01*
X171817666Y-71275975D01*
X171838377Y-71222429D01*
X171865991Y-71174206D01*
X171894277Y-71138087D01*
X171933226Y-71100818D01*
X171976434Y-71071260D01*
X172023901Y-71049413D01*
X172075628Y-71035276D01*
X172131613Y-71028851D01*
X172151221Y-71028422D01*
X172202558Y-71031239D01*
G37*
G36*
X172992393Y-71184738D02*
G01*
X172985310Y-71184738D01*
X172954780Y-71178387D01*
X172915945Y-71176922D01*
X172867280Y-71181913D01*
X172818830Y-71196886D01*
X172812386Y-71199637D01*
X172768321Y-71223506D01*
X172729246Y-71253205D01*
X172714689Y-71266559D01*
X172714689Y-71810000D01*
X172585729Y-71810000D01*
X172585729Y-71044054D01*
X172714689Y-71044054D01*
X172714689Y-71157871D01*
X172753082Y-71125736D01*
X172796071Y-71094330D01*
X172838032Y-71069944D01*
X172886618Y-71051361D01*
X172937023Y-71044079D01*
X172940125Y-71044054D01*
X172969923Y-71045275D01*
X172992393Y-71048206D01*
X172992393Y-71184738D01*
G37*
G36*
X173936636Y-71825631D02*
G01*
X173887452Y-71823555D01*
X173834528Y-71816256D01*
X173784154Y-71803703D01*
X173751988Y-71792414D01*
X173706543Y-71771141D01*
X173664731Y-71744689D01*
X173626550Y-71713060D01*
X173606908Y-71693251D01*
X173574607Y-71653706D01*
X173546673Y-71608982D01*
X173525507Y-71564881D01*
X173511898Y-71529120D01*
X173497258Y-71478073D01*
X173486802Y-71423363D01*
X173481083Y-71372486D01*
X173478567Y-71318804D01*
X173478436Y-71302951D01*
X173479991Y-71248952D01*
X173484654Y-71198085D01*
X173493790Y-71143787D01*
X173506987Y-71093580D01*
X173510921Y-71081667D01*
X173529147Y-71036055D01*
X173554104Y-70988390D01*
X173583776Y-70944590D01*
X173606175Y-70917536D01*
X173642319Y-70881893D01*
X173682056Y-70851350D01*
X173725386Y-70825908D01*
X173751011Y-70813977D01*
X173799719Y-70796739D01*
X173851596Y-70785143D01*
X173900368Y-70779571D01*
X173938590Y-70778318D01*
X173988476Y-70780211D01*
X174035066Y-70785889D01*
X174083615Y-70795644D01*
X174118597Y-70804940D01*
X174164743Y-70821585D01*
X174186252Y-70830830D01*
X174231352Y-70852288D01*
X174254640Y-70864535D01*
X174254640Y-71028422D01*
X174243649Y-71028422D01*
X174206085Y-70996113D01*
X174197487Y-70989099D01*
X174157512Y-70960592D01*
X174128855Y-70943670D01*
X174082650Y-70922435D01*
X174043614Y-70909232D01*
X173994033Y-70898974D01*
X173944639Y-70895608D01*
X173937124Y-70895554D01*
X173885268Y-70899908D01*
X173835668Y-70912968D01*
X173813538Y-70921933D01*
X173768487Y-70947476D01*
X173728193Y-70981243D01*
X173711200Y-70999602D01*
X173681456Y-71041814D01*
X173658897Y-71087086D01*
X173643789Y-71128806D01*
X173631166Y-71179258D01*
X173623803Y-71227927D01*
X173620227Y-71279687D01*
X173619853Y-71303684D01*
X173621441Y-71353555D01*
X173627022Y-71405391D01*
X173637936Y-71457684D01*
X173645254Y-71481737D01*
X173664911Y-71530349D01*
X173688955Y-71573420D01*
X173714619Y-71607766D01*
X173751806Y-71644377D01*
X173793911Y-71672845D01*
X173815003Y-71683237D01*
X173862965Y-71699526D01*
X173913185Y-71707510D01*
X173937124Y-71708394D01*
X173987113Y-71705636D01*
X174036833Y-71696559D01*
X174046301Y-71693984D01*
X174093806Y-71677620D01*
X174135694Y-71657348D01*
X174178913Y-71630405D01*
X174200907Y-71613872D01*
X174238016Y-71581712D01*
X174244382Y-71575526D01*
X174254640Y-71575526D01*
X174254640Y-71737704D01*
X174210027Y-71758840D01*
X174190893Y-71767990D01*
X174143918Y-71787458D01*
X174118597Y-71796078D01*
X174070400Y-71810125D01*
X174035799Y-71818060D01*
X173985670Y-71824182D01*
X173936636Y-71825631D01*
G37*
G36*
X174711919Y-71032097D02*
G01*
X174763562Y-71043123D01*
X174810860Y-71061498D01*
X174853814Y-71087224D01*
X174892422Y-71120300D01*
X174904326Y-71132958D01*
X174936117Y-71175082D01*
X174961330Y-71223233D01*
X174979966Y-71277412D01*
X174990472Y-71327165D01*
X174996409Y-71381105D01*
X174997871Y-71427271D01*
X174995587Y-71484759D01*
X174988736Y-71538001D01*
X174977317Y-71586997D01*
X174957585Y-71640189D01*
X174931275Y-71687267D01*
X174904326Y-71721828D01*
X174867166Y-71757105D01*
X174825661Y-71785083D01*
X174779811Y-71805762D01*
X174729616Y-71819143D01*
X174675077Y-71825226D01*
X174655931Y-71825631D01*
X174598252Y-71821861D01*
X174545381Y-71810553D01*
X174497318Y-71791705D01*
X174454064Y-71765318D01*
X174415619Y-71731392D01*
X174403872Y-71718408D01*
X174372746Y-71675504D01*
X174348059Y-71627207D01*
X174329813Y-71573517D01*
X174319526Y-71524657D01*
X174313713Y-71472051D01*
X174312281Y-71427271D01*
X174445638Y-71427271D01*
X174447553Y-71477466D01*
X174454627Y-71530014D01*
X174469095Y-71582141D01*
X174493509Y-71630675D01*
X174500104Y-71640006D01*
X174534550Y-71674954D01*
X174581433Y-71700371D01*
X174631377Y-71711173D01*
X174655931Y-71712302D01*
X174708312Y-71706680D01*
X174758219Y-71687246D01*
X174799397Y-71653930D01*
X174810048Y-71641228D01*
X174836495Y-71595568D01*
X174852737Y-71545445D01*
X174861339Y-71494224D01*
X174864545Y-71444851D01*
X174864759Y-71427271D01*
X174862844Y-71375576D01*
X174855770Y-71321886D01*
X174841302Y-71269256D01*
X174816888Y-71221177D01*
X174810293Y-71212093D01*
X174771920Y-71174999D01*
X174724579Y-71151643D01*
X174674304Y-71142369D01*
X174655931Y-71141751D01*
X174602724Y-71147315D01*
X174552215Y-71166549D01*
X174510770Y-71199522D01*
X174500104Y-71212093D01*
X174473775Y-71257553D01*
X174457606Y-71307856D01*
X174449042Y-71359509D01*
X174445851Y-71409457D01*
X174445638Y-71427271D01*
X174312281Y-71427271D01*
X174314589Y-71370182D01*
X174321512Y-71317219D01*
X174333050Y-71268382D01*
X174352989Y-71215225D01*
X174379573Y-71168010D01*
X174406803Y-71133203D01*
X174444361Y-71097594D01*
X174486144Y-71069352D01*
X174532152Y-71048478D01*
X174582383Y-71034971D01*
X174636840Y-71028832D01*
X174655931Y-71028422D01*
X174711919Y-71032097D01*
G37*
G36*
X175729867Y-71810000D02*
G01*
X175600662Y-71810000D01*
X175600662Y-71376468D01*
X175599380Y-71325788D01*
X175595533Y-71278771D01*
X175585496Y-71229140D01*
X175575994Y-71206231D01*
X175542134Y-71169233D01*
X175532030Y-71163489D01*
X175483597Y-71150926D01*
X175455094Y-71149567D01*
X175406184Y-71155978D01*
X175358889Y-71173635D01*
X175355687Y-71175212D01*
X175311442Y-71200430D01*
X175271110Y-71229205D01*
X175255792Y-71241646D01*
X175255792Y-71810000D01*
X175126831Y-71810000D01*
X175126831Y-71044054D01*
X175255792Y-71044054D01*
X175255792Y-71133935D01*
X175295386Y-71101669D01*
X175338119Y-71072921D01*
X175369853Y-71055778D01*
X175416702Y-71038066D01*
X175465567Y-71029384D01*
X175488799Y-71028422D01*
X175542365Y-71033048D01*
X175589733Y-71046924D01*
X175635613Y-71073592D01*
X175665875Y-71102428D01*
X175693872Y-71143461D01*
X175713869Y-71192798D01*
X175724805Y-71242780D01*
X175729617Y-71299120D01*
X175729867Y-71316385D01*
X175729867Y-71810000D01*
G37*
G36*
X176139462Y-71825631D02*
G01*
X176089499Y-71821891D01*
X176040261Y-71808743D01*
X175994208Y-71783030D01*
X175974598Y-71765792D01*
X175943429Y-71721618D01*
X175925246Y-71670278D01*
X175916935Y-71615430D01*
X175915491Y-71576748D01*
X175915491Y-71153475D01*
X175828297Y-71153475D01*
X175828297Y-71044054D01*
X175915491Y-71044054D01*
X175915491Y-70825212D01*
X176044696Y-70825212D01*
X176044696Y-71044054D01*
X176282344Y-71044054D01*
X176282344Y-71153475D01*
X176044696Y-71153475D01*
X176044696Y-71516175D01*
X176045184Y-71567650D01*
X176046650Y-71605812D01*
X176057800Y-71654035D01*
X176062526Y-71664431D01*
X176098764Y-71699575D01*
X176100383Y-71700334D01*
X176150026Y-71711554D01*
X176171214Y-71712302D01*
X176221123Y-71705530D01*
X176232274Y-71702044D01*
X176274773Y-71684947D01*
X176282344Y-71684947D01*
X176282344Y-71803161D01*
X176234159Y-71814947D01*
X176208583Y-71819525D01*
X176159855Y-71825035D01*
X176139462Y-71825631D01*
G37*
G36*
X176782065Y-71184738D02*
G01*
X176774982Y-71184738D01*
X176744452Y-71178387D01*
X176705617Y-71176922D01*
X176656952Y-71181913D01*
X176608502Y-71196886D01*
X176602058Y-71199637D01*
X176557993Y-71223506D01*
X176518918Y-71253205D01*
X176504361Y-71266559D01*
X176504361Y-71810000D01*
X176375401Y-71810000D01*
X176375401Y-71044054D01*
X176504361Y-71044054D01*
X176504361Y-71157871D01*
X176542754Y-71125736D01*
X176585743Y-71094330D01*
X176627704Y-71069944D01*
X176676290Y-71051361D01*
X176726695Y-71044079D01*
X176729797Y-71044054D01*
X176759595Y-71045275D01*
X176782065Y-71048206D01*
X176782065Y-71184738D01*
G37*
G36*
X177221759Y-71032097D02*
G01*
X177273402Y-71043123D01*
X177320700Y-71061498D01*
X177363653Y-71087224D01*
X177402262Y-71120300D01*
X177414166Y-71132958D01*
X177445956Y-71175082D01*
X177471170Y-71223233D01*
X177489805Y-71277412D01*
X177500311Y-71327165D01*
X177506249Y-71381105D01*
X177507711Y-71427271D01*
X177505427Y-71484759D01*
X177498575Y-71538001D01*
X177487156Y-71586997D01*
X177467424Y-71640189D01*
X177441115Y-71687267D01*
X177414166Y-71721828D01*
X177377005Y-71757105D01*
X177335500Y-71785083D01*
X177289650Y-71805762D01*
X177239456Y-71819143D01*
X177184916Y-71825226D01*
X177165771Y-71825631D01*
X177108091Y-71821861D01*
X177055220Y-71810553D01*
X177007158Y-71791705D01*
X176963904Y-71765318D01*
X176925459Y-71731392D01*
X176913712Y-71718408D01*
X176882585Y-71675504D01*
X176857899Y-71627207D01*
X176839652Y-71573517D01*
X176829366Y-71524657D01*
X176823552Y-71472051D01*
X176822121Y-71427271D01*
X176955478Y-71427271D01*
X176957392Y-71477466D01*
X176964467Y-71530014D01*
X176978934Y-71582141D01*
X177003348Y-71630675D01*
X177009944Y-71640006D01*
X177044389Y-71674954D01*
X177091272Y-71700371D01*
X177141217Y-71711173D01*
X177165771Y-71712302D01*
X177218151Y-71706680D01*
X177268059Y-71687246D01*
X177309237Y-71653930D01*
X177319888Y-71641228D01*
X177346335Y-71595568D01*
X177362577Y-71545445D01*
X177371179Y-71494224D01*
X177374385Y-71444851D01*
X177374598Y-71427271D01*
X177372683Y-71375576D01*
X177365609Y-71321886D01*
X177351142Y-71269256D01*
X177326728Y-71221177D01*
X177320132Y-71212093D01*
X177281759Y-71174999D01*
X177234418Y-71151643D01*
X177184143Y-71142369D01*
X177165771Y-71141751D01*
X177112563Y-71147315D01*
X177062055Y-71166549D01*
X177020610Y-71199522D01*
X177009944Y-71212093D01*
X176983615Y-71257553D01*
X176967445Y-71307856D01*
X176958882Y-71359509D01*
X176955690Y-71409457D01*
X176955478Y-71427271D01*
X176822121Y-71427271D01*
X176824429Y-71370182D01*
X176831352Y-71317219D01*
X176842890Y-71268382D01*
X176862828Y-71215225D01*
X176889412Y-71168010D01*
X176916643Y-71133203D01*
X176954201Y-71097594D01*
X176995984Y-71069352D01*
X177041991Y-71048478D01*
X177092223Y-71034971D01*
X177146680Y-71028832D01*
X177165771Y-71028422D01*
X177221759Y-71032097D01*
G37*
G36*
X177764654Y-71810000D02*
G01*
X177635450Y-71810000D01*
X177635450Y-70747055D01*
X177764654Y-70747055D01*
X177764654Y-71810000D01*
G37*
G36*
X178086078Y-71810000D02*
G01*
X177956873Y-71810000D01*
X177956873Y-70747055D01*
X178086078Y-70747055D01*
X178086078Y-71810000D01*
G37*
G36*
X178629075Y-71031239D02*
G01*
X178679419Y-71040646D01*
X178704256Y-71048450D01*
X178749677Y-71070322D01*
X178789768Y-71100890D01*
X178800244Y-71111221D01*
X178832668Y-71152267D01*
X178856162Y-71196911D01*
X178863503Y-71215757D01*
X178876898Y-71265834D01*
X178883746Y-71318618D01*
X178885484Y-71366699D01*
X178885484Y-71434842D01*
X178353768Y-71434842D01*
X178356982Y-71490788D01*
X178366624Y-71540657D01*
X178385515Y-71590208D01*
X178412801Y-71631821D01*
X178420935Y-71640983D01*
X178462930Y-71675459D01*
X178507103Y-71696632D01*
X178557719Y-71708890D01*
X178607292Y-71712302D01*
X178657156Y-71709030D01*
X178690579Y-71703021D01*
X178738721Y-71689321D01*
X178764584Y-71679085D01*
X178809114Y-71657597D01*
X178823447Y-71649532D01*
X178863503Y-71622421D01*
X178871074Y-71622421D01*
X178871074Y-71761151D01*
X178824919Y-71779531D01*
X178814654Y-71783621D01*
X178768172Y-71800245D01*
X178754326Y-71804382D01*
X178705735Y-71816178D01*
X178685938Y-71820013D01*
X178636340Y-71825082D01*
X178608757Y-71825631D01*
X178553440Y-71823139D01*
X178502130Y-71815661D01*
X178454827Y-71803198D01*
X178403353Y-71781663D01*
X178357649Y-71752949D01*
X178323970Y-71723538D01*
X178289523Y-71682147D01*
X178262203Y-71634729D01*
X178242010Y-71581282D01*
X178230627Y-71532139D01*
X178224193Y-71478810D01*
X178222609Y-71433133D01*
X178225007Y-71377050D01*
X178230485Y-71337145D01*
X178353768Y-71337145D01*
X178759699Y-71337145D01*
X178755645Y-71288135D01*
X178747487Y-71251416D01*
X178726641Y-71205258D01*
X178715736Y-71190355D01*
X178676747Y-71157495D01*
X178657850Y-71148346D01*
X178609853Y-71136314D01*
X178570167Y-71133935D01*
X178519753Y-71138140D01*
X178482484Y-71148834D01*
X178438095Y-71173854D01*
X178417027Y-71191577D01*
X178386344Y-71230083D01*
X178373063Y-71255568D01*
X178358428Y-71303806D01*
X178353768Y-71337145D01*
X178230485Y-71337145D01*
X178232198Y-71324664D01*
X178244183Y-71275975D01*
X178264894Y-71222429D01*
X178292509Y-71174206D01*
X178320795Y-71138087D01*
X178359744Y-71100818D01*
X178402952Y-71071260D01*
X178450419Y-71049413D01*
X178502145Y-71035276D01*
X178558130Y-71028851D01*
X178577739Y-71028422D01*
X178629075Y-71031239D01*
G37*
G36*
X179418911Y-71184738D02*
G01*
X179411828Y-71184738D01*
X179381297Y-71178387D01*
X179342463Y-71176922D01*
X179293798Y-71181913D01*
X179245348Y-71196886D01*
X179238904Y-71199637D01*
X179194839Y-71223506D01*
X179155764Y-71253205D01*
X179141207Y-71266559D01*
X179141207Y-71810000D01*
X179012247Y-71810000D01*
X179012247Y-71044054D01*
X179141207Y-71044054D01*
X179141207Y-71157871D01*
X179179600Y-71125736D01*
X179222589Y-71094330D01*
X179264549Y-71069944D01*
X179313136Y-71051361D01*
X179363541Y-71044079D01*
X179366643Y-71044054D01*
X179396441Y-71045275D01*
X179418911Y-71048206D01*
X179418911Y-71184738D01*
G37*
G36*
X170231716Y-73505631D02*
G01*
X170178639Y-73503601D01*
X170127852Y-73497510D01*
X170079354Y-73487359D01*
X170033147Y-73473147D01*
X169984578Y-73452189D01*
X169939990Y-73425860D01*
X169899382Y-73394160D01*
X169878541Y-73374228D01*
X169844647Y-73333935D01*
X169815506Y-73288619D01*
X169793593Y-73244121D01*
X169779623Y-73208143D01*
X169764663Y-73156715D01*
X169755079Y-73108685D01*
X169748768Y-73057826D01*
X169745729Y-73004139D01*
X169745429Y-72980265D01*
X169747088Y-72928064D01*
X169752067Y-72878317D01*
X169761822Y-72824469D01*
X169775911Y-72773827D01*
X169780111Y-72761667D01*
X169799315Y-72715078D01*
X169825371Y-72666898D01*
X169856141Y-72623201D01*
X169879274Y-72596559D01*
X169916724Y-72561605D01*
X169958735Y-72531481D01*
X170005304Y-72506187D01*
X170033147Y-72494221D01*
X170079904Y-72478514D01*
X170128829Y-72467294D01*
X170179921Y-72460562D01*
X170233182Y-72458318D01*
X170283496Y-72460211D01*
X170331856Y-72465889D01*
X170381219Y-72475260D01*
X170422714Y-72486161D01*
X170471065Y-72502991D01*
X170499162Y-72514494D01*
X170545683Y-72535082D01*
X170567550Y-72545512D01*
X170567550Y-72708422D01*
X170555826Y-72708422D01*
X170516763Y-72676228D01*
X170503314Y-72666168D01*
X170460743Y-72639893D01*
X170426866Y-72622937D01*
X170379494Y-72603328D01*
X170331856Y-72589232D01*
X170283463Y-72579882D01*
X170231892Y-72575768D01*
X170216573Y-72575554D01*
X170163153Y-72579401D01*
X170113716Y-72590942D01*
X170068264Y-72610176D01*
X170026796Y-72637103D01*
X169989313Y-72671725D01*
X169977704Y-72684975D01*
X169946826Y-72728550D01*
X169922337Y-72777207D01*
X169904236Y-72830948D01*
X169894032Y-72879616D01*
X169888265Y-72931813D01*
X169886845Y-72976113D01*
X169888341Y-73025190D01*
X169893601Y-73076571D01*
X169903886Y-73128901D01*
X169910781Y-73153189D01*
X169929916Y-73202530D01*
X169954072Y-73246445D01*
X169980390Y-73281660D01*
X170015905Y-73317209D01*
X170056502Y-73345820D01*
X170086392Y-73361039D01*
X170135233Y-73377709D01*
X170183745Y-73386231D01*
X170226099Y-73388394D01*
X170276561Y-73386852D01*
X170326650Y-73382224D01*
X170340893Y-73380334D01*
X170390502Y-73370832D01*
X170437124Y-73355910D01*
X170437124Y-73095303D01*
X170200697Y-73095303D01*
X170200697Y-72974159D01*
X170571702Y-72974159D01*
X170571702Y-73418192D01*
X170525050Y-73438199D01*
X170501849Y-73447745D01*
X170454717Y-73465211D01*
X170420516Y-73475589D01*
X170372827Y-73488656D01*
X170329902Y-73498060D01*
X170278880Y-73504182D01*
X170231716Y-73505631D01*
G37*
G36*
X171134193Y-72864738D02*
G01*
X171127110Y-72864738D01*
X171096580Y-72858387D01*
X171057745Y-72856922D01*
X171009081Y-72861913D01*
X170960630Y-72876886D01*
X170954187Y-72879637D01*
X170910122Y-72903506D01*
X170871046Y-72933205D01*
X170856489Y-72946559D01*
X170856489Y-73490000D01*
X170727529Y-73490000D01*
X170727529Y-72724054D01*
X170856489Y-72724054D01*
X170856489Y-72837871D01*
X170894882Y-72805736D01*
X170937872Y-72774330D01*
X170979832Y-72749944D01*
X171028418Y-72731361D01*
X171078824Y-72724079D01*
X171081926Y-72724054D01*
X171111723Y-72725275D01*
X171134193Y-72728206D01*
X171134193Y-72864738D01*
G37*
G36*
X171829064Y-73490000D02*
G01*
X171700104Y-73490000D01*
X171700104Y-73399141D01*
X171659686Y-73432103D01*
X171617239Y-73461280D01*
X171586531Y-73478520D01*
X171537344Y-73497053D01*
X171487400Y-73504969D01*
X171467096Y-73505631D01*
X171415483Y-73501013D01*
X171372575Y-73489267D01*
X171328774Y-73466503D01*
X171295394Y-73437487D01*
X171266085Y-73397493D01*
X171245262Y-73351679D01*
X171244103Y-73348339D01*
X171232401Y-73300851D01*
X171226894Y-73250218D01*
X171226029Y-73217669D01*
X171226029Y-72724054D01*
X171355233Y-72724054D01*
X171355233Y-73157585D01*
X171356075Y-73206659D01*
X171359359Y-73255690D01*
X171359630Y-73258213D01*
X171370344Y-73306153D01*
X171379902Y-73327822D01*
X171413117Y-73365130D01*
X171422889Y-73370809D01*
X171471364Y-73383151D01*
X171500802Y-73384487D01*
X171549712Y-73377648D01*
X171598337Y-73358814D01*
X171601674Y-73357131D01*
X171646961Y-73330811D01*
X171688789Y-73299723D01*
X171700104Y-73289965D01*
X171700104Y-72724054D01*
X171829064Y-72724054D01*
X171829064Y-73490000D01*
G37*
G36*
X172219609Y-73505631D02*
G01*
X172167869Y-73503264D01*
X172118439Y-73496165D01*
X172075505Y-73485603D01*
X172028542Y-73470239D01*
X171981913Y-73451445D01*
X171964619Y-73443105D01*
X171964619Y-73302421D01*
X171971702Y-73302421D01*
X172010293Y-73329532D01*
X172054347Y-73353324D01*
X172069888Y-73360307D01*
X172115899Y-73377532D01*
X172142184Y-73385464D01*
X172190289Y-73394437D01*
X172224494Y-73396210D01*
X172275113Y-73391887D01*
X172290195Y-73389127D01*
X172337906Y-73373740D01*
X172342463Y-73371053D01*
X172377145Y-73338080D01*
X172387850Y-73289408D01*
X172387892Y-73285080D01*
X172378065Y-73237071D01*
X172362735Y-73216692D01*
X172319374Y-73192011D01*
X172273831Y-73178101D01*
X172226043Y-73167368D01*
X172209351Y-73163935D01*
X172159727Y-73152510D01*
X172135833Y-73146106D01*
X172085578Y-73127687D01*
X172041150Y-73101201D01*
X172008094Y-73068192D01*
X171983834Y-73025499D01*
X171970771Y-72976555D01*
X171968283Y-72940453D01*
X171973168Y-72891528D01*
X171990341Y-72842144D01*
X172019879Y-72798749D01*
X172046441Y-72773147D01*
X172088847Y-72744830D01*
X172137665Y-72724603D01*
X172185640Y-72713542D01*
X172238524Y-72708675D01*
X172254535Y-72708422D01*
X172306609Y-72710962D01*
X172358844Y-72718580D01*
X172383007Y-72723810D01*
X172432169Y-72737484D01*
X172480380Y-72756668D01*
X172491695Y-72762400D01*
X172491695Y-72896001D01*
X172484856Y-72896001D01*
X172442717Y-72869130D01*
X172396870Y-72847257D01*
X172374459Y-72838848D01*
X172324884Y-72825248D01*
X172274987Y-72818582D01*
X172251849Y-72817843D01*
X172199857Y-72822892D01*
X172152555Y-72839507D01*
X172144138Y-72844221D01*
X172109834Y-72879900D01*
X172100174Y-72924089D01*
X172109301Y-72972122D01*
X172126064Y-72995163D01*
X172168291Y-73019790D01*
X172210083Y-73033265D01*
X172258991Y-73044798D01*
X172274075Y-73047920D01*
X172322240Y-73058268D01*
X172348813Y-73064528D01*
X172397833Y-73080399D01*
X172442279Y-73104194D01*
X172476796Y-73134626D01*
X172502991Y-73176392D01*
X172517096Y-73228049D01*
X172519783Y-73267983D01*
X172514269Y-73318696D01*
X172500244Y-73361039D01*
X172474313Y-73404166D01*
X172442847Y-73436266D01*
X172401842Y-73464552D01*
X172356222Y-73485754D01*
X172349790Y-73488046D01*
X172299387Y-73500067D01*
X172248073Y-73505013D01*
X172219609Y-73505631D01*
G37*
G36*
X172843893Y-73505631D02*
G01*
X172792154Y-73503264D01*
X172742723Y-73496165D01*
X172699790Y-73485603D01*
X172652827Y-73470239D01*
X172606197Y-73451445D01*
X172588904Y-73443105D01*
X172588904Y-73302421D01*
X172595987Y-73302421D01*
X172634577Y-73329532D01*
X172678632Y-73353324D01*
X172694173Y-73360307D01*
X172740184Y-73377532D01*
X172766468Y-73385464D01*
X172814574Y-73394437D01*
X172848778Y-73396210D01*
X172899398Y-73391887D01*
X172914480Y-73389127D01*
X172962191Y-73373740D01*
X172966748Y-73371053D01*
X173001430Y-73338080D01*
X173012135Y-73289408D01*
X173012177Y-73285080D01*
X173002350Y-73237071D01*
X172987020Y-73216692D01*
X172943659Y-73192011D01*
X172898115Y-73178101D01*
X172850328Y-73167368D01*
X172833635Y-73163935D01*
X172784012Y-73152510D01*
X172760118Y-73146106D01*
X172709862Y-73127687D01*
X172665435Y-73101201D01*
X172632379Y-73068192D01*
X172608119Y-73025499D01*
X172595056Y-72976555D01*
X172592568Y-72940453D01*
X172597452Y-72891528D01*
X172614626Y-72842144D01*
X172644164Y-72798749D01*
X172670725Y-72773147D01*
X172713132Y-72744830D01*
X172761950Y-72724603D01*
X172809925Y-72713542D01*
X172862809Y-72708675D01*
X172878820Y-72708422D01*
X172930894Y-72710962D01*
X172983129Y-72718580D01*
X173007292Y-72723810D01*
X173056454Y-72737484D01*
X173104665Y-72756668D01*
X173115980Y-72762400D01*
X173115980Y-72896001D01*
X173109141Y-72896001D01*
X173067002Y-72869130D01*
X173021155Y-72847257D01*
X172998743Y-72838848D01*
X172949169Y-72825248D01*
X172899272Y-72818582D01*
X172876133Y-72817843D01*
X172824141Y-72822892D01*
X172776839Y-72839507D01*
X172768422Y-72844221D01*
X172734119Y-72879900D01*
X172724459Y-72924089D01*
X172733586Y-72972122D01*
X172750348Y-72995163D01*
X172792576Y-73019790D01*
X172834368Y-73033265D01*
X172883276Y-73044798D01*
X172898360Y-73047920D01*
X172946525Y-73058268D01*
X172973098Y-73064528D01*
X173022118Y-73080399D01*
X173066564Y-73104194D01*
X173101081Y-73134626D01*
X173127276Y-73176392D01*
X173141381Y-73228049D01*
X173144068Y-73267983D01*
X173138553Y-73318696D01*
X173124528Y-73361039D01*
X173098598Y-73404166D01*
X173067131Y-73436266D01*
X173026126Y-73464552D01*
X172980506Y-73485754D01*
X172974075Y-73488046D01*
X172923672Y-73500067D01*
X172872358Y-73505013D01*
X172843893Y-73505631D01*
G37*
G36*
X174131786Y-73490000D02*
G01*
X174131786Y-73049630D01*
X174130748Y-72999132D01*
X174127634Y-72952665D01*
X174119009Y-72904427D01*
X174110537Y-72882812D01*
X174077385Y-72845973D01*
X174071214Y-72842512D01*
X174023083Y-72830376D01*
X174002581Y-72829567D01*
X173953239Y-72838350D01*
X173917096Y-72854480D01*
X173873580Y-72882665D01*
X173834737Y-72914907D01*
X173822575Y-72926287D01*
X173824284Y-72953886D01*
X173825261Y-72991500D01*
X173825261Y-73490000D01*
X173696301Y-73490000D01*
X173696301Y-73049630D01*
X173695263Y-72999132D01*
X173692149Y-72952665D01*
X173683429Y-72904427D01*
X173674808Y-72882812D01*
X173641896Y-72845973D01*
X173635729Y-72842512D01*
X173587598Y-72830376D01*
X173567096Y-72829567D01*
X173518522Y-72837990D01*
X173478925Y-72856189D01*
X173436467Y-72884368D01*
X173397906Y-72916478D01*
X173389776Y-72924089D01*
X173389776Y-73490000D01*
X173260816Y-73490000D01*
X173260816Y-72724054D01*
X173389776Y-72724054D01*
X173389776Y-72814912D01*
X173427741Y-72780039D01*
X173468559Y-72749546D01*
X173490404Y-72736266D01*
X173535918Y-72717232D01*
X173585266Y-72708857D01*
X173600069Y-72708422D01*
X173648830Y-72712784D01*
X173696771Y-72727355D01*
X173720481Y-72739441D01*
X173759153Y-72771056D01*
X173787409Y-72811975D01*
X173800593Y-72841046D01*
X173836814Y-72803365D01*
X173876052Y-72769023D01*
X173914654Y-72742128D01*
X173961472Y-72720305D01*
X174011434Y-72709607D01*
X174035554Y-72708422D01*
X174085615Y-72712765D01*
X174125436Y-72723810D01*
X174169966Y-72748508D01*
X174196266Y-72773147D01*
X174225226Y-72814822D01*
X174244138Y-72859609D01*
X174255658Y-72909965D01*
X174260398Y-72961164D01*
X174260990Y-72989546D01*
X174260990Y-73490000D01*
X174131786Y-73490000D01*
G37*
G36*
X174730595Y-72709894D02*
G01*
X174780020Y-72714857D01*
X174812491Y-72720879D01*
X174860909Y-72736675D01*
X174904497Y-72761165D01*
X174909944Y-72765087D01*
X174946580Y-72801174D01*
X174972470Y-72846420D01*
X174986495Y-72894224D01*
X174992485Y-72946149D01*
X174992986Y-72968053D01*
X174992986Y-73490000D01*
X174864759Y-73490000D01*
X174864759Y-73402561D01*
X174825546Y-73432700D01*
X174822260Y-73435289D01*
X174780525Y-73463617D01*
X174771214Y-73468506D01*
X174725016Y-73489097D01*
X174704780Y-73495861D01*
X174654977Y-73504257D01*
X174615387Y-73505631D01*
X174566352Y-73500737D01*
X174525261Y-73488290D01*
X174480696Y-73464024D01*
X174450523Y-73438953D01*
X174419568Y-73399497D01*
X174400942Y-73362505D01*
X174386458Y-73312789D01*
X174382379Y-73266517D01*
X174383066Y-73257725D01*
X174515736Y-73257725D01*
X174522842Y-73306758D01*
X174550577Y-73350461D01*
X174552861Y-73352491D01*
X174598534Y-73376488D01*
X174648233Y-73384205D01*
X174661304Y-73384487D01*
X174712489Y-73379578D01*
X174759185Y-73364852D01*
X174771702Y-73358841D01*
X174813917Y-73333990D01*
X174853795Y-73304745D01*
X174864759Y-73295582D01*
X174864759Y-73095303D01*
X174812552Y-73099944D01*
X174761232Y-73104793D01*
X174748255Y-73106050D01*
X174699277Y-73111969D01*
X174648680Y-73121589D01*
X174634438Y-73125345D01*
X174587360Y-73144274D01*
X174549197Y-73171263D01*
X174522140Y-73213887D01*
X174515736Y-73257725D01*
X174383066Y-73257725D01*
X174386362Y-73215554D01*
X174399791Y-73166279D01*
X174416085Y-73133649D01*
X174446859Y-73095627D01*
X174488625Y-73063994D01*
X174522575Y-73046454D01*
X174569675Y-73028608D01*
X174617303Y-73016091D01*
X174669509Y-73007103D01*
X174674982Y-73006399D01*
X174725542Y-73000543D01*
X174778305Y-72995614D01*
X174827055Y-72992011D01*
X174864759Y-72989790D01*
X174864759Y-72964877D01*
X174859321Y-72914750D01*
X174850837Y-72891360D01*
X174819931Y-72853178D01*
X174812491Y-72848129D01*
X174767089Y-72829650D01*
X174751919Y-72826880D01*
X174701848Y-72822252D01*
X174678401Y-72821751D01*
X174626621Y-72826025D01*
X174577147Y-72835962D01*
X174573377Y-72836894D01*
X174524320Y-72851257D01*
X174475183Y-72870134D01*
X174452477Y-72880369D01*
X174444905Y-72880369D01*
X174444905Y-72744570D01*
X174494837Y-72732060D01*
X174543106Y-72722159D01*
X174547243Y-72721367D01*
X174597046Y-72713479D01*
X174646436Y-72709231D01*
X174679134Y-72708422D01*
X174730595Y-72709894D01*
G37*
G36*
X175768946Y-72724054D02*
G01*
X175356175Y-73771367D01*
X175217934Y-73771367D01*
X175355443Y-73452142D01*
X175076517Y-72724054D01*
X175215980Y-72724054D01*
X175425540Y-73290453D01*
X175634368Y-72724054D01*
X175768946Y-72724054D01*
G37*
G36*
X176206186Y-72711239D02*
G01*
X176256530Y-72720646D01*
X176281367Y-72728450D01*
X176326788Y-72750322D01*
X176366879Y-72780890D01*
X176377355Y-72791221D01*
X176409779Y-72832267D01*
X176433273Y-72876911D01*
X176440614Y-72895757D01*
X176454009Y-72945834D01*
X176460857Y-72998618D01*
X176462595Y-73046699D01*
X176462595Y-73114842D01*
X175930879Y-73114842D01*
X175934093Y-73170788D01*
X175943735Y-73220657D01*
X175962626Y-73270208D01*
X175989912Y-73311821D01*
X175998046Y-73320983D01*
X176040041Y-73355459D01*
X176084214Y-73376632D01*
X176134830Y-73388890D01*
X176184403Y-73392302D01*
X176234267Y-73389030D01*
X176267690Y-73383021D01*
X176315832Y-73369321D01*
X176341695Y-73359085D01*
X176386224Y-73337597D01*
X176400558Y-73329532D01*
X176440614Y-73302421D01*
X176448185Y-73302421D01*
X176448185Y-73441151D01*
X176402030Y-73459531D01*
X176391765Y-73463621D01*
X176345283Y-73480245D01*
X176331437Y-73484382D01*
X176282846Y-73496178D01*
X176263049Y-73500013D01*
X176213451Y-73505082D01*
X176185868Y-73505631D01*
X176130551Y-73503139D01*
X176079241Y-73495661D01*
X176031938Y-73483198D01*
X175980464Y-73461663D01*
X175934760Y-73432949D01*
X175901081Y-73403538D01*
X175866634Y-73362147D01*
X175839314Y-73314729D01*
X175819121Y-73261282D01*
X175807738Y-73212139D01*
X175801304Y-73158810D01*
X175799720Y-73113133D01*
X175802117Y-73057050D01*
X175807596Y-73017145D01*
X175930879Y-73017145D01*
X176336810Y-73017145D01*
X176332756Y-72968135D01*
X176324598Y-72931416D01*
X176303752Y-72885258D01*
X176292847Y-72870355D01*
X176253858Y-72837495D01*
X176234961Y-72828346D01*
X176186964Y-72816314D01*
X176147278Y-72813935D01*
X176096864Y-72818140D01*
X176059595Y-72828834D01*
X176015206Y-72853854D01*
X175994138Y-72871577D01*
X175963455Y-72910083D01*
X175950174Y-72935568D01*
X175935538Y-72983806D01*
X175930879Y-73017145D01*
X175807596Y-73017145D01*
X175809309Y-73004664D01*
X175821294Y-72955975D01*
X175842005Y-72902429D01*
X175869620Y-72854206D01*
X175897906Y-72818087D01*
X175936855Y-72780818D01*
X175980063Y-72751260D01*
X176027530Y-72729413D01*
X176079256Y-72715276D01*
X176135241Y-72708851D01*
X176154849Y-72708422D01*
X176206186Y-72711239D01*
G37*
G36*
X176990160Y-72864738D02*
G01*
X176983077Y-72864738D01*
X176952547Y-72858387D01*
X176913712Y-72856922D01*
X176865047Y-72861913D01*
X176816597Y-72876886D01*
X176810153Y-72879637D01*
X176766088Y-72903506D01*
X176727013Y-72933205D01*
X176712456Y-72946559D01*
X176712456Y-73490000D01*
X176583496Y-73490000D01*
X176583496Y-72724054D01*
X176712456Y-72724054D01*
X176712456Y-72837871D01*
X176750849Y-72805736D01*
X176793838Y-72774330D01*
X176835799Y-72749944D01*
X176884385Y-72731361D01*
X176934790Y-72724079D01*
X176937892Y-72724054D01*
X176967690Y-72725275D01*
X176990160Y-72728206D01*
X176990160Y-72864738D01*
G37*
G36*
X178127355Y-73490000D02*
G01*
X177534577Y-73490000D01*
X177534577Y-72473949D01*
X177670621Y-72473949D01*
X177670621Y-73368855D01*
X178127355Y-73368855D01*
X178127355Y-73490000D01*
G37*
G36*
X178515383Y-72709894D02*
G01*
X178564807Y-72714857D01*
X178597278Y-72720879D01*
X178645696Y-72736675D01*
X178689284Y-72761165D01*
X178694731Y-72765087D01*
X178731367Y-72801174D01*
X178757257Y-72846420D01*
X178771282Y-72894224D01*
X178777273Y-72946149D01*
X178777773Y-72968053D01*
X178777773Y-73490000D01*
X178649546Y-73490000D01*
X178649546Y-73402561D01*
X178610333Y-73432700D01*
X178607048Y-73435289D01*
X178565312Y-73463617D01*
X178556001Y-73468506D01*
X178509803Y-73489097D01*
X178489567Y-73495861D01*
X178439764Y-73504257D01*
X178400174Y-73505631D01*
X178351139Y-73500737D01*
X178310048Y-73488290D01*
X178265484Y-73464024D01*
X178235310Y-73438953D01*
X178204355Y-73399497D01*
X178185729Y-73362505D01*
X178171245Y-73312789D01*
X178167166Y-73266517D01*
X178167853Y-73257725D01*
X178300523Y-73257725D01*
X178307629Y-73306758D01*
X178335364Y-73350461D01*
X178337648Y-73352491D01*
X178383321Y-73376488D01*
X178433020Y-73384205D01*
X178446092Y-73384487D01*
X178497276Y-73379578D01*
X178543972Y-73364852D01*
X178556489Y-73358841D01*
X178598704Y-73333990D01*
X178638582Y-73304745D01*
X178649546Y-73295582D01*
X178649546Y-73095303D01*
X178597339Y-73099944D01*
X178546019Y-73104793D01*
X178533042Y-73106050D01*
X178484064Y-73111969D01*
X178433467Y-73121589D01*
X178419225Y-73125345D01*
X178372147Y-73144274D01*
X178333984Y-73171263D01*
X178306928Y-73213887D01*
X178300523Y-73257725D01*
X178167853Y-73257725D01*
X178171149Y-73215554D01*
X178184579Y-73166279D01*
X178200872Y-73133649D01*
X178231646Y-73095627D01*
X178273412Y-73063994D01*
X178307362Y-73046454D01*
X178354462Y-73028608D01*
X178402090Y-73016091D01*
X178454297Y-73007103D01*
X178459769Y-73006399D01*
X178510330Y-73000543D01*
X178563093Y-72995614D01*
X178611842Y-72992011D01*
X178649546Y-72989790D01*
X178649546Y-72964877D01*
X178644108Y-72914750D01*
X178635624Y-72891360D01*
X178604719Y-72853178D01*
X178597278Y-72848129D01*
X178551876Y-72829650D01*
X178536706Y-72826880D01*
X178486635Y-72822252D01*
X178463189Y-72821751D01*
X178411409Y-72826025D01*
X178361934Y-72835962D01*
X178358164Y-72836894D01*
X178309107Y-72851257D01*
X178259970Y-72870134D01*
X178237264Y-72880369D01*
X178229692Y-72880369D01*
X178229692Y-72744570D01*
X178279624Y-72732060D01*
X178327893Y-72722159D01*
X178332030Y-72721367D01*
X178381833Y-72713479D01*
X178431223Y-72709231D01*
X178463921Y-72708422D01*
X178515383Y-72709894D01*
G37*
G36*
X179084542Y-72810027D02*
G01*
X179125562Y-72776806D01*
X179169242Y-72748583D01*
X179190300Y-72737243D01*
X179239195Y-72718583D01*
X179288694Y-72709802D01*
X179319504Y-72708422D01*
X179373710Y-72713331D01*
X179422634Y-72728057D01*
X179466274Y-72752601D01*
X179504632Y-72786962D01*
X179524180Y-72811004D01*
X179553396Y-72859552D01*
X179572728Y-72907174D01*
X179586787Y-72960342D01*
X179594476Y-73008887D01*
X179598503Y-73061283D01*
X179599162Y-73094570D01*
X179596932Y-73150666D01*
X179590242Y-73203244D01*
X179579091Y-73252304D01*
X179559822Y-73306531D01*
X179534131Y-73355693D01*
X179507815Y-73392791D01*
X179471937Y-73431139D01*
X179432814Y-73461553D01*
X179383067Y-73487008D01*
X179328903Y-73501664D01*
X179278960Y-73505631D01*
X179227709Y-73502686D01*
X179177608Y-73492107D01*
X179171981Y-73490244D01*
X179125286Y-73470862D01*
X179084542Y-73448722D01*
X179076482Y-73490000D01*
X178955582Y-73490000D01*
X178955582Y-72918715D01*
X179084542Y-72918715D01*
X179084542Y-73345652D01*
X179130582Y-73365680D01*
X179171004Y-73378869D01*
X179221284Y-73387055D01*
X179254291Y-73388394D01*
X179306552Y-73382966D01*
X179356688Y-73364199D01*
X179398477Y-73332028D01*
X179409385Y-73319762D01*
X179436659Y-73274897D01*
X179453409Y-73224507D01*
X179462279Y-73172301D01*
X179465585Y-73121525D01*
X179465806Y-73103363D01*
X179463795Y-73047594D01*
X179457765Y-72998043D01*
X179445949Y-72949026D01*
X179426380Y-72903590D01*
X179423796Y-72899176D01*
X179389050Y-72859545D01*
X179342241Y-72836365D01*
X179289218Y-72829567D01*
X179239490Y-72835148D01*
X179192594Y-72850429D01*
X179182484Y-72854968D01*
X179137170Y-72879552D01*
X179095690Y-72909278D01*
X179084542Y-72918715D01*
X178955582Y-72918715D01*
X178955582Y-72427055D01*
X179084542Y-72427055D01*
X179084542Y-72810027D01*
G37*
G36*
X180521667Y-73095303D02*
G01*
X180134298Y-73095303D01*
X180134298Y-72974159D01*
X180521667Y-72974159D01*
X180521667Y-73095303D01*
G37*
G36*
X181359909Y-73490000D02*
G01*
X181359909Y-72595094D01*
X181016503Y-72595094D01*
X181016503Y-72473949D01*
X181839602Y-72473949D01*
X181839602Y-72595094D01*
X181495952Y-72595094D01*
X181495952Y-73490000D01*
X181359909Y-73490000D01*
G37*
G36*
X182294870Y-73505631D02*
G01*
X182240889Y-73503341D01*
X182191296Y-73496472D01*
X182141813Y-73483626D01*
X182137578Y-73482184D01*
X182089951Y-73461404D01*
X182047819Y-73434236D01*
X182022784Y-73412575D01*
X181989733Y-73373822D01*
X181964128Y-73330106D01*
X181947313Y-73286057D01*
X181935721Y-73236640D01*
X181928959Y-73186497D01*
X181925868Y-73137415D01*
X181925331Y-73104584D01*
X181925331Y-72473949D01*
X182061374Y-72473949D01*
X182061374Y-73108248D01*
X182062611Y-73157730D01*
X182067179Y-73207645D01*
X182070167Y-73226461D01*
X182084594Y-73274827D01*
X182105338Y-73312923D01*
X182139986Y-73350937D01*
X182179832Y-73375205D01*
X182228586Y-73390282D01*
X182278220Y-73395882D01*
X182294870Y-73396210D01*
X182344445Y-73392744D01*
X182392423Y-73381257D01*
X182408199Y-73375205D01*
X182452224Y-73349010D01*
X182485136Y-73312923D01*
X182507575Y-73269318D01*
X182519818Y-73226950D01*
X182526480Y-73178088D01*
X182528954Y-73128188D01*
X182529099Y-73111423D01*
X182529099Y-72473949D01*
X182665143Y-72473949D01*
X182665143Y-73104584D01*
X182663784Y-73155249D01*
X182659008Y-73207832D01*
X182649667Y-73260774D01*
X182643405Y-73285080D01*
X182624761Y-73334085D01*
X182598382Y-73377665D01*
X182567690Y-73412575D01*
X182528786Y-73444414D01*
X182485349Y-73469590D01*
X182453872Y-73482672D01*
X182405882Y-73495744D01*
X182356194Y-73502918D01*
X182306540Y-73505541D01*
X182294870Y-73505631D01*
G37*
G36*
X183576574Y-72474705D02*
G01*
X183631637Y-72477497D01*
X183680739Y-72482345D01*
X183729557Y-72490405D01*
X183751046Y-72495443D01*
X183799952Y-72510450D01*
X183848239Y-72530595D01*
X183890753Y-72554549D01*
X183931891Y-72584912D01*
X183968752Y-72619364D01*
X184001334Y-72657908D01*
X184029640Y-72700542D01*
X184043893Y-72726741D01*
X184065116Y-72775733D01*
X184081126Y-72828675D01*
X184090700Y-72877198D01*
X184096445Y-72928624D01*
X184098360Y-72982951D01*
X184096367Y-73034205D01*
X184090391Y-73083553D01*
X184078383Y-73138716D01*
X184060952Y-73191284D01*
X184041695Y-73234277D01*
X184015046Y-73280868D01*
X183984681Y-73322761D01*
X183950599Y-73359955D01*
X183912800Y-73392451D01*
X183889532Y-73408911D01*
X183845650Y-73433583D01*
X183796439Y-73455059D01*
X183746751Y-73470286D01*
X183731751Y-73473635D01*
X183683191Y-73481546D01*
X183634156Y-73486404D01*
X183579594Y-73489216D01*
X183527320Y-73490000D01*
X183291870Y-73490000D01*
X183291870Y-73372763D01*
X183427913Y-73372763D01*
X183531472Y-73372763D01*
X183580764Y-73371642D01*
X183631272Y-73367769D01*
X183681653Y-73360312D01*
X183690230Y-73358597D01*
X183739540Y-73344354D01*
X183785622Y-73323243D01*
X183814549Y-73305352D01*
X183855384Y-73272508D01*
X183889349Y-73233510D01*
X183916444Y-73188359D01*
X183921039Y-73178590D01*
X183938277Y-73130867D01*
X183949873Y-73077001D01*
X183955445Y-73023962D01*
X183956699Y-72980997D01*
X183954829Y-72931461D01*
X183948112Y-72878884D01*
X183936511Y-72830612D01*
X183917620Y-72781451D01*
X183892643Y-72737775D01*
X183861678Y-72699895D01*
X183824723Y-72667811D01*
X183801605Y-72652491D01*
X183756141Y-72628962D01*
X183708260Y-72611561D01*
X183685345Y-72605596D01*
X183634741Y-72596815D01*
X183586064Y-72592593D01*
X183537197Y-72591200D01*
X183531472Y-72591186D01*
X183427913Y-72591186D01*
X183427913Y-73372763D01*
X183291870Y-73372763D01*
X183291870Y-72473949D01*
X183524633Y-72473949D01*
X183576574Y-72474705D01*
G37*
G36*
X184584693Y-72711239D02*
G01*
X184635036Y-72720646D01*
X184659874Y-72728450D01*
X184705294Y-72750322D01*
X184745386Y-72780890D01*
X184755861Y-72791221D01*
X184788286Y-72832267D01*
X184811780Y-72876911D01*
X184819120Y-72895757D01*
X184832515Y-72945834D01*
X184839363Y-72998618D01*
X184841102Y-73046699D01*
X184841102Y-73114842D01*
X184309385Y-73114842D01*
X184312599Y-73170788D01*
X184322242Y-73220657D01*
X184341132Y-73270208D01*
X184368419Y-73311821D01*
X184376552Y-73320983D01*
X184418547Y-73355459D01*
X184462721Y-73376632D01*
X184513337Y-73388890D01*
X184562909Y-73392302D01*
X184612773Y-73389030D01*
X184646196Y-73383021D01*
X184694339Y-73369321D01*
X184720202Y-73359085D01*
X184764731Y-73337597D01*
X184779064Y-73329532D01*
X184819120Y-73302421D01*
X184826692Y-73302421D01*
X184826692Y-73441151D01*
X184780536Y-73459531D01*
X184770272Y-73463621D01*
X184723789Y-73480245D01*
X184709944Y-73484382D01*
X184661353Y-73496178D01*
X184641556Y-73500013D01*
X184591957Y-73505082D01*
X184564375Y-73505631D01*
X184509058Y-73503139D01*
X184457748Y-73495661D01*
X184410445Y-73483198D01*
X184358971Y-73461663D01*
X184313267Y-73432949D01*
X184279588Y-73403538D01*
X184245141Y-73362147D01*
X184217821Y-73314729D01*
X184197628Y-73261282D01*
X184186245Y-73212139D01*
X184179811Y-73158810D01*
X184178227Y-73113133D01*
X184180624Y-73057050D01*
X184186102Y-73017145D01*
X184309385Y-73017145D01*
X184715317Y-73017145D01*
X184711262Y-72968135D01*
X184703105Y-72931416D01*
X184682258Y-72885258D01*
X184671353Y-72870355D01*
X184632365Y-72837495D01*
X184613468Y-72828346D01*
X184565471Y-72816314D01*
X184525785Y-72813935D01*
X184475371Y-72818140D01*
X184438101Y-72828834D01*
X184393713Y-72853854D01*
X184372644Y-72871577D01*
X184341961Y-72910083D01*
X184328681Y-72935568D01*
X184314045Y-72983806D01*
X184309385Y-73017145D01*
X184186102Y-73017145D01*
X184187815Y-73004664D01*
X184199801Y-72955975D01*
X184220512Y-72902429D01*
X184248127Y-72854206D01*
X184276413Y-72818087D01*
X184315362Y-72780818D01*
X184358570Y-72751260D01*
X184406037Y-72729413D01*
X184457763Y-72715276D01*
X184513748Y-72708851D01*
X184533356Y-72708422D01*
X184584693Y-72711239D01*
G37*
G36*
X185099755Y-73490000D02*
G01*
X184970551Y-73490000D01*
X184970551Y-72427055D01*
X185099755Y-72427055D01*
X185099755Y-73490000D01*
G37*
G36*
X185692044Y-72552107D02*
G01*
X185685205Y-72552107D01*
X185635624Y-72544291D01*
X185586088Y-72540479D01*
X185577983Y-72540383D01*
X185527440Y-72544453D01*
X185479141Y-72561403D01*
X185461723Y-72574822D01*
X185436829Y-72619397D01*
X185428260Y-72667707D01*
X185427041Y-72699630D01*
X185427041Y-72724054D01*
X185640509Y-72724054D01*
X185640509Y-72833475D01*
X185431193Y-72833475D01*
X185431193Y-73490000D01*
X185301988Y-73490000D01*
X185301988Y-72833475D01*
X185214794Y-72833475D01*
X185214794Y-72724054D01*
X185301988Y-72724054D01*
X185301988Y-72699630D01*
X185305167Y-72644253D01*
X185314704Y-72595024D01*
X185333389Y-72546290D01*
X185364335Y-72501062D01*
X185368422Y-72496664D01*
X185410488Y-72463015D01*
X185455536Y-72442350D01*
X185507789Y-72430386D01*
X185559420Y-72427055D01*
X185610149Y-72428947D01*
X185629518Y-72430718D01*
X185679452Y-72437039D01*
X185692044Y-72439023D01*
X185692044Y-72552107D01*
G37*
G36*
X185966817Y-73505631D02*
G01*
X185916854Y-73501891D01*
X185867616Y-73488743D01*
X185821563Y-73463030D01*
X185801953Y-73445792D01*
X185770784Y-73401618D01*
X185752602Y-73350278D01*
X185744290Y-73295430D01*
X185742847Y-73256748D01*
X185742847Y-72833475D01*
X185655652Y-72833475D01*
X185655652Y-72724054D01*
X185742847Y-72724054D01*
X185742847Y-72505212D01*
X185872051Y-72505212D01*
X185872051Y-72724054D01*
X186109699Y-72724054D01*
X186109699Y-72833475D01*
X185872051Y-72833475D01*
X185872051Y-73196175D01*
X185872540Y-73247650D01*
X185874005Y-73285812D01*
X185885155Y-73334035D01*
X185889881Y-73344431D01*
X185926119Y-73379575D01*
X185927739Y-73380334D01*
X185977381Y-73391554D01*
X185998569Y-73392302D01*
X186048478Y-73385530D01*
X186059630Y-73382044D01*
X186102128Y-73364947D01*
X186109699Y-73364947D01*
X186109699Y-73483161D01*
X186061514Y-73494947D01*
X186035938Y-73499525D01*
X185987211Y-73505035D01*
X185966817Y-73505631D01*
G37*
G36*
X170189218Y-76586950D02*
G01*
X170185279Y-76642574D01*
X170173463Y-76692330D01*
X170150314Y-76742011D01*
X170116875Y-76784028D01*
X170106908Y-76793335D01*
X170062380Y-76824965D01*
X170017682Y-76845227D01*
X169967631Y-76858571D01*
X169912228Y-76864996D01*
X169886845Y-76865631D01*
X169836852Y-76863246D01*
X169798429Y-76859525D01*
X169747749Y-76852808D01*
X169706106Y-76844870D01*
X169706106Y-76709316D01*
X169713677Y-76709316D01*
X169761218Y-76727079D01*
X169783531Y-76734717D01*
X169833440Y-76746137D01*
X169868283Y-76748394D01*
X169918679Y-76745683D01*
X169966550Y-76735100D01*
X169968911Y-76734228D01*
X170011173Y-76708642D01*
X170024354Y-76693196D01*
X170043873Y-76647789D01*
X170047801Y-76626517D01*
X170052288Y-76575226D01*
X170053175Y-76535170D01*
X170053175Y-75943370D01*
X169836775Y-75943370D01*
X169836775Y-75833949D01*
X170189218Y-75833949D01*
X170189218Y-76586950D01*
G37*
G36*
X170729285Y-76071239D02*
G01*
X170779628Y-76080646D01*
X170804466Y-76088450D01*
X170849886Y-76110322D01*
X170889977Y-76140890D01*
X170900453Y-76151221D01*
X170932877Y-76192267D01*
X170956372Y-76236911D01*
X170963712Y-76255757D01*
X170977107Y-76305834D01*
X170983955Y-76358618D01*
X170985694Y-76406699D01*
X170985694Y-76474842D01*
X170453977Y-76474842D01*
X170457191Y-76530788D01*
X170466833Y-76580657D01*
X170485724Y-76630208D01*
X170513010Y-76671821D01*
X170521144Y-76680983D01*
X170563139Y-76715459D01*
X170607313Y-76736632D01*
X170657928Y-76748890D01*
X170707501Y-76752302D01*
X170757365Y-76749030D01*
X170790788Y-76743021D01*
X170838931Y-76729321D01*
X170864794Y-76719085D01*
X170909323Y-76697597D01*
X170923656Y-76689532D01*
X170963712Y-76662421D01*
X170971284Y-76662421D01*
X170971284Y-76801151D01*
X170925128Y-76819531D01*
X170914863Y-76823621D01*
X170868381Y-76840245D01*
X170854535Y-76844382D01*
X170805944Y-76856178D01*
X170786147Y-76860013D01*
X170736549Y-76865082D01*
X170708967Y-76865631D01*
X170653650Y-76863139D01*
X170602339Y-76855661D01*
X170555036Y-76843198D01*
X170503562Y-76821663D01*
X170457858Y-76792949D01*
X170424180Y-76763538D01*
X170389733Y-76722147D01*
X170362413Y-76674729D01*
X170342220Y-76621282D01*
X170330837Y-76572139D01*
X170324403Y-76518810D01*
X170322819Y-76473133D01*
X170325216Y-76417050D01*
X170330694Y-76377145D01*
X170453977Y-76377145D01*
X170859909Y-76377145D01*
X170855854Y-76328135D01*
X170847697Y-76291416D01*
X170826850Y-76245258D01*
X170815945Y-76230355D01*
X170776957Y-76197495D01*
X170758060Y-76188346D01*
X170710063Y-76176314D01*
X170670376Y-76173935D01*
X170619963Y-76178140D01*
X170582693Y-76188834D01*
X170538304Y-76213854D01*
X170517236Y-76231577D01*
X170486553Y-76270083D01*
X170473272Y-76295568D01*
X170458637Y-76343806D01*
X170453977Y-76377145D01*
X170330694Y-76377145D01*
X170332407Y-76364664D01*
X170344393Y-76315975D01*
X170365104Y-76262429D01*
X170392718Y-76214206D01*
X170421004Y-76178087D01*
X170459953Y-76140818D01*
X170503162Y-76111260D01*
X170550629Y-76089413D01*
X170602355Y-76075276D01*
X170658340Y-76068851D01*
X170677948Y-76068422D01*
X170729285Y-76071239D01*
G37*
G36*
X171244347Y-76850000D02*
G01*
X171115143Y-76850000D01*
X171115143Y-75787055D01*
X171244347Y-75787055D01*
X171244347Y-76850000D01*
G37*
G36*
X171565771Y-76850000D02*
G01*
X171436566Y-76850000D01*
X171436566Y-75787055D01*
X171565771Y-75787055D01*
X171565771Y-76850000D01*
G37*
G36*
X172108768Y-76071239D02*
G01*
X172159112Y-76080646D01*
X172183949Y-76088450D01*
X172229370Y-76110322D01*
X172269461Y-76140890D01*
X172279937Y-76151221D01*
X172312361Y-76192267D01*
X172335855Y-76236911D01*
X172343196Y-76255757D01*
X172356591Y-76305834D01*
X172363439Y-76358618D01*
X172365177Y-76406699D01*
X172365177Y-76474842D01*
X171833461Y-76474842D01*
X171836675Y-76530788D01*
X171846317Y-76580657D01*
X171865208Y-76630208D01*
X171892494Y-76671821D01*
X171900628Y-76680983D01*
X171942623Y-76715459D01*
X171986796Y-76736632D01*
X172037412Y-76748890D01*
X172086985Y-76752302D01*
X172136849Y-76749030D01*
X172170272Y-76743021D01*
X172218414Y-76729321D01*
X172244277Y-76719085D01*
X172288806Y-76697597D01*
X172303140Y-76689532D01*
X172343196Y-76662421D01*
X172350767Y-76662421D01*
X172350767Y-76801151D01*
X172304612Y-76819531D01*
X172294347Y-76823621D01*
X172247865Y-76840245D01*
X172234019Y-76844382D01*
X172185428Y-76856178D01*
X172165631Y-76860013D01*
X172116033Y-76865082D01*
X172088450Y-76865631D01*
X172033133Y-76863139D01*
X171981823Y-76855661D01*
X171934520Y-76843198D01*
X171883046Y-76821663D01*
X171837342Y-76792949D01*
X171803663Y-76763538D01*
X171769216Y-76722147D01*
X171741896Y-76674729D01*
X171721703Y-76621282D01*
X171710320Y-76572139D01*
X171703886Y-76518810D01*
X171702302Y-76473133D01*
X171704699Y-76417050D01*
X171710178Y-76377145D01*
X171833461Y-76377145D01*
X172239392Y-76377145D01*
X172235338Y-76328135D01*
X172227180Y-76291416D01*
X172206334Y-76245258D01*
X172195429Y-76230355D01*
X172156440Y-76197495D01*
X172137543Y-76188346D01*
X172089546Y-76176314D01*
X172049860Y-76173935D01*
X171999446Y-76178140D01*
X171962177Y-76188834D01*
X171917788Y-76213854D01*
X171896720Y-76231577D01*
X171866037Y-76270083D01*
X171852756Y-76295568D01*
X171838120Y-76343806D01*
X171833461Y-76377145D01*
X171710178Y-76377145D01*
X171711891Y-76364664D01*
X171723876Y-76315975D01*
X171744587Y-76262429D01*
X171772202Y-76214206D01*
X171800488Y-76178087D01*
X171839437Y-76140818D01*
X171882645Y-76111260D01*
X171930112Y-76089413D01*
X171981838Y-76075276D01*
X172037823Y-76068851D01*
X172057431Y-76068422D01*
X172108768Y-76071239D01*
G37*
G36*
X173684089Y-76850000D02*
G01*
X173507501Y-76850000D01*
X173134542Y-76377145D01*
X173074947Y-76444068D01*
X173074947Y-76850000D01*
X172938904Y-76850000D01*
X172938904Y-75833949D01*
X173074947Y-75833949D01*
X173074947Y-76301430D01*
X173493824Y-75833949D01*
X173659420Y-75833949D01*
X173236392Y-76287752D01*
X173684089Y-76850000D01*
G37*
G36*
X174076888Y-76072097D02*
G01*
X174128531Y-76083123D01*
X174175829Y-76101498D01*
X174218782Y-76127224D01*
X174257391Y-76160300D01*
X174269295Y-76172958D01*
X174301085Y-76215082D01*
X174326299Y-76263233D01*
X174344935Y-76317412D01*
X174355440Y-76367165D01*
X174361378Y-76421105D01*
X174362840Y-76467271D01*
X174360556Y-76524759D01*
X174353704Y-76578001D01*
X174342285Y-76626997D01*
X174322553Y-76680189D01*
X174296244Y-76727267D01*
X174269295Y-76761828D01*
X174232134Y-76797105D01*
X174190629Y-76825083D01*
X174144779Y-76845762D01*
X174094585Y-76859143D01*
X174040045Y-76865226D01*
X174020900Y-76865631D01*
X173963220Y-76861861D01*
X173910349Y-76850553D01*
X173862287Y-76831705D01*
X173819033Y-76805318D01*
X173780588Y-76771392D01*
X173768841Y-76758408D01*
X173737714Y-76715504D01*
X173713028Y-76667207D01*
X173694781Y-76613517D01*
X173684495Y-76564657D01*
X173678681Y-76512051D01*
X173677250Y-76467271D01*
X173810607Y-76467271D01*
X173812521Y-76517466D01*
X173819596Y-76570014D01*
X173834063Y-76622141D01*
X173858477Y-76670675D01*
X173865073Y-76680006D01*
X173899518Y-76714954D01*
X173946401Y-76740371D01*
X173996346Y-76751173D01*
X174020900Y-76752302D01*
X174073280Y-76746680D01*
X174123188Y-76727246D01*
X174164366Y-76693930D01*
X174175017Y-76681228D01*
X174201464Y-76635568D01*
X174217706Y-76585445D01*
X174226308Y-76534224D01*
X174229514Y-76484851D01*
X174229727Y-76467271D01*
X174227813Y-76415576D01*
X174220738Y-76361886D01*
X174206271Y-76309256D01*
X174181857Y-76261177D01*
X174175261Y-76252093D01*
X174136888Y-76214999D01*
X174089547Y-76191643D01*
X174039272Y-76182369D01*
X174020900Y-76181751D01*
X173967692Y-76187315D01*
X173917184Y-76206549D01*
X173875739Y-76239522D01*
X173865073Y-76252093D01*
X173838744Y-76297553D01*
X173822574Y-76347856D01*
X173814011Y-76399509D01*
X173810819Y-76449457D01*
X173810607Y-76467271D01*
X173677250Y-76467271D01*
X173679558Y-76410182D01*
X173686481Y-76357219D01*
X173698019Y-76308382D01*
X173717957Y-76255225D01*
X173744542Y-76208010D01*
X173771772Y-76173203D01*
X173809330Y-76137594D01*
X173851113Y-76109352D01*
X173897120Y-76088478D01*
X173947352Y-76074971D01*
X174001809Y-76068832D01*
X174020900Y-76068422D01*
X174076888Y-76072097D01*
G37*
G36*
X175343230Y-76850000D02*
G01*
X175343230Y-76409630D01*
X175342192Y-76359132D01*
X175339078Y-76312665D01*
X175330454Y-76264427D01*
X175321981Y-76242812D01*
X175288829Y-76205973D01*
X175282658Y-76202512D01*
X175234527Y-76190376D01*
X175214026Y-76189567D01*
X175164683Y-76198350D01*
X175128541Y-76214480D01*
X175085025Y-76242665D01*
X175046182Y-76274907D01*
X175034019Y-76286287D01*
X175035729Y-76313886D01*
X175036706Y-76351500D01*
X175036706Y-76850000D01*
X174907745Y-76850000D01*
X174907745Y-76409630D01*
X174906707Y-76359132D01*
X174903593Y-76312665D01*
X174894873Y-76264427D01*
X174886252Y-76242812D01*
X174853340Y-76205973D01*
X174847173Y-76202512D01*
X174799042Y-76190376D01*
X174778541Y-76189567D01*
X174729966Y-76197990D01*
X174690369Y-76216189D01*
X174647912Y-76244368D01*
X174609350Y-76276478D01*
X174601221Y-76284089D01*
X174601221Y-76850000D01*
X174472260Y-76850000D01*
X174472260Y-76084054D01*
X174601221Y-76084054D01*
X174601221Y-76174912D01*
X174639185Y-76140039D01*
X174680003Y-76109546D01*
X174701849Y-76096266D01*
X174747363Y-76077232D01*
X174796710Y-76068857D01*
X174811514Y-76068422D01*
X174860275Y-76072784D01*
X174908215Y-76087355D01*
X174931926Y-76099441D01*
X174970598Y-76131056D01*
X174998854Y-76171975D01*
X175012037Y-76201046D01*
X175048259Y-76163365D01*
X175087496Y-76129023D01*
X175126099Y-76102128D01*
X175172917Y-76080305D01*
X175222879Y-76069607D01*
X175246999Y-76068422D01*
X175297060Y-76072765D01*
X175336880Y-76083810D01*
X175381410Y-76108508D01*
X175407711Y-76133147D01*
X175436670Y-76174822D01*
X175455582Y-76219609D01*
X175467103Y-76269965D01*
X175471842Y-76321164D01*
X175472435Y-76349546D01*
X175472435Y-76850000D01*
X175343230Y-76850000D01*
G37*
G36*
X176001022Y-76071239D02*
G01*
X176051366Y-76080646D01*
X176076203Y-76088450D01*
X176121624Y-76110322D01*
X176161715Y-76140890D01*
X176172191Y-76151221D01*
X176204615Y-76192267D01*
X176228109Y-76236911D01*
X176235450Y-76255757D01*
X176248845Y-76305834D01*
X176255693Y-76358618D01*
X176257431Y-76406699D01*
X176257431Y-76474842D01*
X175725715Y-76474842D01*
X175728929Y-76530788D01*
X175738571Y-76580657D01*
X175757462Y-76630208D01*
X175784748Y-76671821D01*
X175792882Y-76680983D01*
X175834877Y-76715459D01*
X175879050Y-76736632D01*
X175929666Y-76748890D01*
X175979239Y-76752302D01*
X176029103Y-76749030D01*
X176062526Y-76743021D01*
X176110668Y-76729321D01*
X176136531Y-76719085D01*
X176181060Y-76697597D01*
X176195394Y-76689532D01*
X176235450Y-76662421D01*
X176243021Y-76662421D01*
X176243021Y-76801151D01*
X176196866Y-76819531D01*
X176186601Y-76823621D01*
X176140119Y-76840245D01*
X176126273Y-76844382D01*
X176077682Y-76856178D01*
X176057885Y-76860013D01*
X176008287Y-76865082D01*
X175980704Y-76865631D01*
X175925387Y-76863139D01*
X175874077Y-76855661D01*
X175826774Y-76843198D01*
X175775300Y-76821663D01*
X175729596Y-76792949D01*
X175695917Y-76763538D01*
X175661470Y-76722147D01*
X175634150Y-76674729D01*
X175613957Y-76621282D01*
X175602574Y-76572139D01*
X175596140Y-76518810D01*
X175594556Y-76473133D01*
X175596953Y-76417050D01*
X175602432Y-76377145D01*
X175725715Y-76377145D01*
X176131646Y-76377145D01*
X176127592Y-76328135D01*
X176119434Y-76291416D01*
X176098588Y-76245258D01*
X176087683Y-76230355D01*
X176048694Y-76197495D01*
X176029797Y-76188346D01*
X175981800Y-76176314D01*
X175942114Y-76173935D01*
X175891700Y-76178140D01*
X175854431Y-76188834D01*
X175810042Y-76213854D01*
X175788974Y-76231577D01*
X175758291Y-76270083D01*
X175745010Y-76295568D01*
X175730374Y-76343806D01*
X175725715Y-76377145D01*
X175602432Y-76377145D01*
X175604145Y-76364664D01*
X175616130Y-76315975D01*
X175636841Y-76262429D01*
X175664456Y-76214206D01*
X175692742Y-76178087D01*
X175731691Y-76140818D01*
X175774899Y-76111260D01*
X175822366Y-76089413D01*
X175874092Y-76075276D01*
X175930077Y-76068851D01*
X175949685Y-76068422D01*
X176001022Y-76071239D01*
G37*
G36*
X176987229Y-76850000D02*
G01*
X176858025Y-76850000D01*
X176858025Y-76416468D01*
X176856742Y-76365788D01*
X176852896Y-76318771D01*
X176842859Y-76269140D01*
X176833356Y-76246231D01*
X176799496Y-76209233D01*
X176789392Y-76203489D01*
X176740959Y-76190926D01*
X176712456Y-76189567D01*
X176663546Y-76195978D01*
X176616252Y-76213635D01*
X176613049Y-76215212D01*
X176568804Y-76240430D01*
X176528473Y-76269205D01*
X176513154Y-76281646D01*
X176513154Y-76850000D01*
X176384193Y-76850000D01*
X176384193Y-76084054D01*
X176513154Y-76084054D01*
X176513154Y-76173935D01*
X176552748Y-76141669D01*
X176595481Y-76112921D01*
X176627215Y-76095778D01*
X176674064Y-76078066D01*
X176722929Y-76069384D01*
X176746161Y-76068422D01*
X176799727Y-76073048D01*
X176847095Y-76086924D01*
X176892975Y-76113592D01*
X176923237Y-76142428D01*
X176951234Y-76183461D01*
X176971231Y-76232798D01*
X176982167Y-76282780D01*
X176986979Y-76339120D01*
X176987229Y-76356385D01*
X176987229Y-76850000D01*
G37*
G36*
X170406106Y-78530000D02*
G01*
X169774982Y-78530000D01*
X169774982Y-78386629D01*
X169812577Y-78351215D01*
X169848973Y-78316691D01*
X169888009Y-78279372D01*
X169903210Y-78264752D01*
X169940781Y-78227815D01*
X169977780Y-78189971D01*
X170014206Y-78151222D01*
X170021423Y-78143363D01*
X170056094Y-78104984D01*
X170092914Y-78062188D01*
X170124513Y-78022947D01*
X170154780Y-77981659D01*
X170180669Y-77940397D01*
X170203209Y-77892269D01*
X170217401Y-77843139D01*
X170223245Y-77793007D01*
X170223412Y-77782861D01*
X170217627Y-77732141D01*
X170209979Y-77709099D01*
X170184333Y-77667288D01*
X170173342Y-77656099D01*
X170131089Y-77630684D01*
X170117655Y-77625812D01*
X170069082Y-77616366D01*
X170048290Y-77615554D01*
X169997673Y-77619826D01*
X169974284Y-77624591D01*
X169926605Y-77638240D01*
X169902721Y-77646817D01*
X169857177Y-77668535D01*
X169847034Y-77674417D01*
X169804836Y-77700821D01*
X169803803Y-77701528D01*
X169796231Y-77701528D01*
X169796231Y-77558890D01*
X169843426Y-77539642D01*
X169891769Y-77524552D01*
X169914689Y-77518346D01*
X169965959Y-77506943D01*
X170015324Y-77500274D01*
X170058548Y-77498318D01*
X170109956Y-77500954D01*
X170164441Y-77510693D01*
X170213013Y-77527608D01*
X170255670Y-77551699D01*
X170282519Y-77573300D01*
X170317995Y-77614012D01*
X170343335Y-77661411D01*
X170357193Y-77708369D01*
X170363291Y-77760447D01*
X170363607Y-77776266D01*
X170360896Y-77826135D01*
X170351973Y-77875934D01*
X170349441Y-77885443D01*
X170332772Y-77933681D01*
X170310607Y-77978255D01*
X170282641Y-78022096D01*
X170251765Y-78062976D01*
X170249546Y-78065694D01*
X170217549Y-78103454D01*
X170183963Y-78140654D01*
X170174075Y-78151179D01*
X170136508Y-78190484D01*
X170101169Y-78226136D01*
X170063999Y-78262460D01*
X170029972Y-78294794D01*
X169992389Y-78330102D01*
X169954852Y-78365189D01*
X169919036Y-78398420D01*
X169903454Y-78412763D01*
X170406106Y-78412763D01*
X170406106Y-78530000D01*
G37*
G36*
X171118073Y-78530000D02*
G01*
X170619330Y-78530000D01*
X170619330Y-78424487D01*
X170804710Y-78424487D01*
X170804710Y-77748422D01*
X170619330Y-77748422D01*
X170619330Y-77654633D01*
X170668392Y-77652801D01*
X170720017Y-77645360D01*
X170767736Y-77628873D01*
X170774180Y-77625324D01*
X170809409Y-77589460D01*
X170826284Y-77542795D01*
X170830111Y-77513949D01*
X170936601Y-77513949D01*
X170936601Y-78424487D01*
X171118073Y-78424487D01*
X171118073Y-78530000D01*
G37*
G36*
X171677145Y-78135303D02*
G01*
X171289776Y-78135303D01*
X171289776Y-78014159D01*
X171677145Y-78014159D01*
X171677145Y-78135303D01*
G37*
G36*
X172170575Y-77501502D02*
G01*
X172225507Y-77513729D01*
X172274101Y-77535127D01*
X172316359Y-77565696D01*
X172352280Y-77605435D01*
X172367864Y-77628743D01*
X172390662Y-77672715D01*
X172409595Y-77723116D01*
X172424665Y-77779944D01*
X172433938Y-77830035D01*
X172440739Y-77884239D01*
X172445067Y-77942558D01*
X172446922Y-78004991D01*
X172446999Y-78021242D01*
X172446295Y-78070806D01*
X172443165Y-78132945D01*
X172437532Y-78190573D01*
X172429396Y-78243690D01*
X172418756Y-78292296D01*
X172401936Y-78346711D01*
X172381204Y-78394077D01*
X172366887Y-78419113D01*
X172333871Y-78462110D01*
X172294725Y-78496210D01*
X172249447Y-78521415D01*
X172198039Y-78537724D01*
X172140500Y-78545137D01*
X172119958Y-78545631D01*
X172069334Y-78542483D01*
X172014380Y-78530393D01*
X171965745Y-78509235D01*
X171923430Y-78479010D01*
X171887435Y-78439717D01*
X171871807Y-78416671D01*
X171849080Y-78372985D01*
X171830205Y-78322680D01*
X171815181Y-78265757D01*
X171805936Y-78215452D01*
X171799157Y-78160912D01*
X171794842Y-78102135D01*
X171792993Y-78039122D01*
X171792916Y-78022707D01*
X171932379Y-78022707D01*
X171932791Y-78072975D01*
X171934240Y-78124455D01*
X171937074Y-78175354D01*
X171938974Y-78198318D01*
X171946083Y-78249162D01*
X171958669Y-78299515D01*
X171967550Y-78324591D01*
X171991547Y-78370448D01*
X172023970Y-78404459D01*
X172069429Y-78426184D01*
X172119958Y-78432302D01*
X172169030Y-78426453D01*
X172213747Y-78405680D01*
X172248314Y-78370156D01*
X172271144Y-78326789D01*
X172286378Y-78278190D01*
X172295789Y-78228570D01*
X172299232Y-78201004D01*
X172303611Y-78150706D01*
X172306166Y-78100869D01*
X172307406Y-78046704D01*
X172307536Y-78021242D01*
X172307017Y-77971508D01*
X172305192Y-77919571D01*
X172301624Y-77866849D01*
X172299232Y-77842456D01*
X172292190Y-77793125D01*
X172279998Y-77742713D01*
X172270411Y-77715938D01*
X172245987Y-77670997D01*
X172213747Y-77638269D01*
X172169274Y-77617496D01*
X172119958Y-77611646D01*
X172071006Y-77617496D01*
X172026168Y-77638269D01*
X171991585Y-77673793D01*
X171968283Y-77717159D01*
X171952642Y-77767181D01*
X171943254Y-77818243D01*
X171939951Y-77846608D01*
X171935958Y-77897284D01*
X171933629Y-77946277D01*
X171932497Y-77998477D01*
X171932379Y-78022707D01*
X171792916Y-78022707D01*
X171793621Y-77972931D01*
X171796750Y-77910563D01*
X171802383Y-77852767D01*
X171810519Y-77799543D01*
X171821159Y-77750891D01*
X171837979Y-77696506D01*
X171858711Y-77649263D01*
X171873028Y-77624347D01*
X171906118Y-77581517D01*
X171945305Y-77547548D01*
X171990588Y-77522441D01*
X172041968Y-77506195D01*
X172099444Y-77498810D01*
X172119958Y-77498318D01*
X172170575Y-77501502D01*
G37*
G36*
X173154082Y-78530000D02*
G01*
X172655338Y-78530000D01*
X172655338Y-78424487D01*
X172840718Y-78424487D01*
X172840718Y-77748422D01*
X172655338Y-77748422D01*
X172655338Y-77654633D01*
X172704400Y-77652801D01*
X172756025Y-77645360D01*
X172803744Y-77628873D01*
X172810188Y-77625324D01*
X172845417Y-77589460D01*
X172862293Y-77542795D01*
X172866120Y-77513949D01*
X172972609Y-77513949D01*
X172972609Y-78424487D01*
X173154082Y-78424487D01*
X173154082Y-78530000D01*
G37*
G36*
X173713154Y-78135303D02*
G01*
X173325785Y-78135303D01*
X173325785Y-78014159D01*
X173713154Y-78014159D01*
X173713154Y-78135303D01*
G37*
G36*
X174478122Y-78530000D02*
G01*
X173846999Y-78530000D01*
X173846999Y-78386629D01*
X173884593Y-78351215D01*
X173920990Y-78316691D01*
X173960026Y-78279372D01*
X173975226Y-78264752D01*
X174012798Y-78227815D01*
X174049797Y-78189971D01*
X174086223Y-78151222D01*
X174093440Y-78143363D01*
X174128111Y-78104984D01*
X174164930Y-78062188D01*
X174196529Y-78022947D01*
X174226796Y-77981659D01*
X174252686Y-77940397D01*
X174275226Y-77892269D01*
X174289418Y-77843139D01*
X174295262Y-77793007D01*
X174295429Y-77782861D01*
X174289643Y-77732141D01*
X174281995Y-77709099D01*
X174256350Y-77667288D01*
X174245359Y-77656099D01*
X174203105Y-77630684D01*
X174189672Y-77625812D01*
X174141099Y-77616366D01*
X174120307Y-77615554D01*
X174069690Y-77619826D01*
X174046301Y-77624591D01*
X173998621Y-77638240D01*
X173974738Y-77646817D01*
X173929194Y-77668535D01*
X173919050Y-77674417D01*
X173876852Y-77700821D01*
X173875819Y-77701528D01*
X173868248Y-77701528D01*
X173868248Y-77558890D01*
X173915442Y-77539642D01*
X173963785Y-77524552D01*
X173986706Y-77518346D01*
X174037975Y-77506943D01*
X174087340Y-77500274D01*
X174130565Y-77498318D01*
X174181973Y-77500954D01*
X174236458Y-77510693D01*
X174285029Y-77527608D01*
X174327687Y-77551699D01*
X174354535Y-77573300D01*
X174390012Y-77614012D01*
X174415352Y-77661411D01*
X174429210Y-77708369D01*
X174435307Y-77760447D01*
X174435624Y-77776266D01*
X174432913Y-77826135D01*
X174423990Y-77875934D01*
X174421458Y-77885443D01*
X174404788Y-77933681D01*
X174382623Y-77978255D01*
X174354658Y-78022096D01*
X174323781Y-78062976D01*
X174321563Y-78065694D01*
X174289566Y-78103454D01*
X174255980Y-78140654D01*
X174246092Y-78151179D01*
X174208525Y-78190484D01*
X174173186Y-78226136D01*
X174136015Y-78262460D01*
X174101988Y-78294794D01*
X174064405Y-78330102D01*
X174026869Y-78365189D01*
X173991053Y-78398420D01*
X173975471Y-78412763D01*
X174478122Y-78412763D01*
X174478122Y-78530000D01*
G37*
G36*
X174970575Y-77501502D02*
G01*
X175025507Y-77513729D01*
X175074101Y-77535127D01*
X175116359Y-77565696D01*
X175152280Y-77605435D01*
X175167864Y-77628743D01*
X175190662Y-77672715D01*
X175209595Y-77723116D01*
X175224665Y-77779944D01*
X175233938Y-77830035D01*
X175240739Y-77884239D01*
X175245067Y-77942558D01*
X175246922Y-78004991D01*
X175246999Y-78021242D01*
X175246295Y-78070806D01*
X175243165Y-78132945D01*
X175237532Y-78190573D01*
X175229396Y-78243690D01*
X175218756Y-78292296D01*
X175201936Y-78346711D01*
X175181204Y-78394077D01*
X175166887Y-78419113D01*
X175133871Y-78462110D01*
X175094725Y-78496210D01*
X175049447Y-78521415D01*
X174998039Y-78537724D01*
X174940500Y-78545137D01*
X174919958Y-78545631D01*
X174869334Y-78542483D01*
X174814380Y-78530393D01*
X174765745Y-78509235D01*
X174723430Y-78479010D01*
X174687435Y-78439717D01*
X174671807Y-78416671D01*
X174649080Y-78372985D01*
X174630205Y-78322680D01*
X174615181Y-78265757D01*
X174605936Y-78215452D01*
X174599157Y-78160912D01*
X174594842Y-78102135D01*
X174592993Y-78039122D01*
X174592916Y-78022707D01*
X174732379Y-78022707D01*
X174732791Y-78072975D01*
X174734240Y-78124455D01*
X174737074Y-78175354D01*
X174738974Y-78198318D01*
X174746083Y-78249162D01*
X174758669Y-78299515D01*
X174767550Y-78324591D01*
X174791547Y-78370448D01*
X174823970Y-78404459D01*
X174869429Y-78426184D01*
X174919958Y-78432302D01*
X174969030Y-78426453D01*
X175013747Y-78405680D01*
X175048314Y-78370156D01*
X175071144Y-78326789D01*
X175086378Y-78278190D01*
X175095789Y-78228570D01*
X175099232Y-78201004D01*
X175103611Y-78150706D01*
X175106166Y-78100869D01*
X175107406Y-78046704D01*
X175107536Y-78021242D01*
X175107017Y-77971508D01*
X175105192Y-77919571D01*
X175101624Y-77866849D01*
X175099232Y-77842456D01*
X175092190Y-77793125D01*
X175079998Y-77742713D01*
X175070411Y-77715938D01*
X175045987Y-77670997D01*
X175013747Y-77638269D01*
X174969274Y-77617496D01*
X174919958Y-77611646D01*
X174871006Y-77617496D01*
X174826168Y-77638269D01*
X174791585Y-77673793D01*
X174768283Y-77717159D01*
X174752642Y-77767181D01*
X174743254Y-77818243D01*
X174739951Y-77846608D01*
X174735958Y-77897284D01*
X174733629Y-77946277D01*
X174732497Y-77998477D01*
X174732379Y-78022707D01*
X174592916Y-78022707D01*
X174593621Y-77972931D01*
X174596750Y-77910563D01*
X174602383Y-77852767D01*
X174610519Y-77799543D01*
X174621159Y-77750891D01*
X174637979Y-77696506D01*
X174658711Y-77649263D01*
X174673028Y-77624347D01*
X174706118Y-77581517D01*
X174745305Y-77547548D01*
X174790588Y-77522441D01*
X174841968Y-77506195D01*
X174899444Y-77498810D01*
X174919958Y-77498318D01*
X174970575Y-77501502D01*
G37*
G36*
X176006106Y-78530000D02*
G01*
X175374982Y-78530000D01*
X175374982Y-78386629D01*
X175412577Y-78351215D01*
X175448973Y-78316691D01*
X175488009Y-78279372D01*
X175503210Y-78264752D01*
X175540781Y-78227815D01*
X175577780Y-78189971D01*
X175614206Y-78151222D01*
X175621423Y-78143363D01*
X175656094Y-78104984D01*
X175692914Y-78062188D01*
X175724513Y-78022947D01*
X175754780Y-77981659D01*
X175780669Y-77940397D01*
X175803209Y-77892269D01*
X175817401Y-77843139D01*
X175823245Y-77793007D01*
X175823412Y-77782861D01*
X175817627Y-77732141D01*
X175809979Y-77709099D01*
X175784333Y-77667288D01*
X175773342Y-77656099D01*
X175731089Y-77630684D01*
X175717655Y-77625812D01*
X175669082Y-77616366D01*
X175648290Y-77615554D01*
X175597673Y-77619826D01*
X175574284Y-77624591D01*
X175526605Y-77638240D01*
X175502721Y-77646817D01*
X175457177Y-77668535D01*
X175447034Y-77674417D01*
X175404836Y-77700821D01*
X175403803Y-77701528D01*
X175396231Y-77701528D01*
X175396231Y-77558890D01*
X175443426Y-77539642D01*
X175491769Y-77524552D01*
X175514689Y-77518346D01*
X175565959Y-77506943D01*
X175615324Y-77500274D01*
X175658548Y-77498318D01*
X175709956Y-77500954D01*
X175764441Y-77510693D01*
X175813013Y-77527608D01*
X175855670Y-77551699D01*
X175882519Y-77573300D01*
X175917995Y-77614012D01*
X175943335Y-77661411D01*
X175957193Y-77708369D01*
X175963291Y-77760447D01*
X175963607Y-77776266D01*
X175960896Y-77826135D01*
X175951973Y-77875934D01*
X175949441Y-77885443D01*
X175932772Y-77933681D01*
X175910607Y-77978255D01*
X175882641Y-78022096D01*
X175851765Y-78062976D01*
X175849546Y-78065694D01*
X175817549Y-78103454D01*
X175783963Y-78140654D01*
X175774075Y-78151179D01*
X175736508Y-78190484D01*
X175701169Y-78226136D01*
X175663999Y-78262460D01*
X175629972Y-78294794D01*
X175592389Y-78330102D01*
X175554852Y-78365189D01*
X175519036Y-78398420D01*
X175503454Y-78412763D01*
X176006106Y-78412763D01*
X176006106Y-78530000D01*
G37*
G36*
X176758374Y-78199295D02*
G01*
X176755574Y-78248904D01*
X176746134Y-78300126D01*
X176734682Y-78336559D01*
X176714269Y-78381416D01*
X176686185Y-78424584D01*
X176668492Y-78445491D01*
X176629900Y-78480130D01*
X176588123Y-78506308D01*
X176561025Y-78519009D01*
X176510685Y-78535232D01*
X176460737Y-78543525D01*
X176417166Y-78545631D01*
X176366912Y-78543726D01*
X176317235Y-78538012D01*
X176272575Y-78529511D01*
X176221913Y-78516013D01*
X176172999Y-78498211D01*
X176149232Y-78487257D01*
X176149232Y-78342421D01*
X176158757Y-78342421D01*
X176202353Y-78368589D01*
X176204187Y-78369532D01*
X176249824Y-78390066D01*
X176269399Y-78397620D01*
X176317408Y-78413362D01*
X176343649Y-78420334D01*
X176393804Y-78427607D01*
X176419120Y-78428394D01*
X176469858Y-78422575D01*
X176499476Y-78413496D01*
X176542094Y-78389345D01*
X176566887Y-78365380D01*
X176593964Y-78323420D01*
X176605722Y-78294305D01*
X176616584Y-78243781D01*
X176619155Y-78198073D01*
X176615430Y-78148431D01*
X176604256Y-78108436D01*
X176577641Y-78065628D01*
X176561270Y-78050062D01*
X176519080Y-78023405D01*
X176488729Y-78013182D01*
X176440420Y-78004796D01*
X176392986Y-78002435D01*
X176344120Y-78004258D01*
X176294972Y-78009728D01*
X176280879Y-78011960D01*
X176230321Y-78021181D01*
X176190997Y-78029790D01*
X176190997Y-77513949D01*
X176752267Y-77513949D01*
X176752267Y-77631186D01*
X176323621Y-77631186D01*
X176323621Y-77894480D01*
X176372226Y-77890572D01*
X176416434Y-77889106D01*
X176467339Y-77890665D01*
X176516420Y-77895920D01*
X176548813Y-77902295D01*
X176595630Y-77918344D01*
X176640763Y-77943836D01*
X176653349Y-77952854D01*
X176690716Y-77987352D01*
X176720263Y-78028140D01*
X176731263Y-78049085D01*
X176747783Y-78097113D01*
X176756229Y-78149889D01*
X176758374Y-78199295D01*
G37*
D11*
X158238095Y-131459819D02*
X158238095Y-132269342D01*
X158238095Y-132269342D02*
X158285714Y-132364580D01*
X158285714Y-132364580D02*
X158333333Y-132412200D01*
X158333333Y-132412200D02*
X158428571Y-132459819D01*
X158428571Y-132459819D02*
X158619047Y-132459819D01*
X158619047Y-132459819D02*
X158714285Y-132412200D01*
X158714285Y-132412200D02*
X158761904Y-132364580D01*
X158761904Y-132364580D02*
X158809523Y-132269342D01*
X158809523Y-132269342D02*
X158809523Y-131459819D01*
X159333333Y-132459819D02*
X159523809Y-132459819D01*
X159523809Y-132459819D02*
X159619047Y-132412200D01*
X159619047Y-132412200D02*
X159666666Y-132364580D01*
X159666666Y-132364580D02*
X159761904Y-132221723D01*
X159761904Y-132221723D02*
X159809523Y-132031247D01*
X159809523Y-132031247D02*
X159809523Y-131650295D01*
X159809523Y-131650295D02*
X159761904Y-131555057D01*
X159761904Y-131555057D02*
X159714285Y-131507438D01*
X159714285Y-131507438D02*
X159619047Y-131459819D01*
X159619047Y-131459819D02*
X159428571Y-131459819D01*
X159428571Y-131459819D02*
X159333333Y-131507438D01*
X159333333Y-131507438D02*
X159285714Y-131555057D01*
X159285714Y-131555057D02*
X159238095Y-131650295D01*
X159238095Y-131650295D02*
X159238095Y-131888390D01*
X159238095Y-131888390D02*
X159285714Y-131983628D01*
X159285714Y-131983628D02*
X159333333Y-132031247D01*
X159333333Y-132031247D02*
X159428571Y-132078866D01*
X159428571Y-132078866D02*
X159619047Y-132078866D01*
X159619047Y-132078866D02*
X159714285Y-132031247D01*
X159714285Y-132031247D02*
X159761904Y-131983628D01*
X159761904Y-131983628D02*
X159809523Y-131888390D01*
X119738095Y-131559819D02*
X119738095Y-132369342D01*
X119738095Y-132369342D02*
X119785714Y-132464580D01*
X119785714Y-132464580D02*
X119833333Y-132512200D01*
X119833333Y-132512200D02*
X119928571Y-132559819D01*
X119928571Y-132559819D02*
X120119047Y-132559819D01*
X120119047Y-132559819D02*
X120214285Y-132512200D01*
X120214285Y-132512200D02*
X120261904Y-132464580D01*
X120261904Y-132464580D02*
X120309523Y-132369342D01*
X120309523Y-132369342D02*
X120309523Y-131559819D01*
X120690476Y-131559819D02*
X121309523Y-131559819D01*
X121309523Y-131559819D02*
X120976190Y-131940771D01*
X120976190Y-131940771D02*
X121119047Y-131940771D01*
X121119047Y-131940771D02*
X121214285Y-131988390D01*
X121214285Y-131988390D02*
X121261904Y-132036009D01*
X121261904Y-132036009D02*
X121309523Y-132131247D01*
X121309523Y-132131247D02*
X121309523Y-132369342D01*
X121309523Y-132369342D02*
X121261904Y-132464580D01*
X121261904Y-132464580D02*
X121214285Y-132512200D01*
X121214285Y-132512200D02*
X121119047Y-132559819D01*
X121119047Y-132559819D02*
X120833333Y-132559819D01*
X120833333Y-132559819D02*
X120738095Y-132512200D01*
X120738095Y-132512200D02*
X120690476Y-132464580D01*
X138638095Y-131459819D02*
X138638095Y-132269342D01*
X138638095Y-132269342D02*
X138685714Y-132364580D01*
X138685714Y-132364580D02*
X138733333Y-132412200D01*
X138733333Y-132412200D02*
X138828571Y-132459819D01*
X138828571Y-132459819D02*
X139019047Y-132459819D01*
X139019047Y-132459819D02*
X139114285Y-132412200D01*
X139114285Y-132412200D02*
X139161904Y-132364580D01*
X139161904Y-132364580D02*
X139209523Y-132269342D01*
X139209523Y-132269342D02*
X139209523Y-131459819D01*
X139590476Y-131459819D02*
X140257142Y-131459819D01*
X140257142Y-131459819D02*
X139828571Y-132459819D01*
X163038095Y-105856819D02*
X163609523Y-105856819D01*
X163323809Y-106856819D02*
X163323809Y-105856819D01*
X163942857Y-106856819D02*
X163942857Y-105856819D01*
X163942857Y-105856819D02*
X164323809Y-105856819D01*
X164323809Y-105856819D02*
X164419047Y-105904438D01*
X164419047Y-105904438D02*
X164466666Y-105952057D01*
X164466666Y-105952057D02*
X164514285Y-106047295D01*
X164514285Y-106047295D02*
X164514285Y-106190152D01*
X164514285Y-106190152D02*
X164466666Y-106285390D01*
X164466666Y-106285390D02*
X164419047Y-106333009D01*
X164419047Y-106333009D02*
X164323809Y-106380628D01*
X164323809Y-106380628D02*
X163942857Y-106380628D01*
X164895238Y-105952057D02*
X164942857Y-105904438D01*
X164942857Y-105904438D02*
X165038095Y-105856819D01*
X165038095Y-105856819D02*
X165276190Y-105856819D01*
X165276190Y-105856819D02*
X165371428Y-105904438D01*
X165371428Y-105904438D02*
X165419047Y-105952057D01*
X165419047Y-105952057D02*
X165466666Y-106047295D01*
X165466666Y-106047295D02*
X165466666Y-106142533D01*
X165466666Y-106142533D02*
X165419047Y-106285390D01*
X165419047Y-106285390D02*
X164847619Y-106856819D01*
X164847619Y-106856819D02*
X165466666Y-106856819D01*
X111033333Y-121359580D02*
X110985714Y-121407200D01*
X110985714Y-121407200D02*
X110842857Y-121454819D01*
X110842857Y-121454819D02*
X110747619Y-121454819D01*
X110747619Y-121454819D02*
X110604762Y-121407200D01*
X110604762Y-121407200D02*
X110509524Y-121311961D01*
X110509524Y-121311961D02*
X110461905Y-121216723D01*
X110461905Y-121216723D02*
X110414286Y-121026247D01*
X110414286Y-121026247D02*
X110414286Y-120883390D01*
X110414286Y-120883390D02*
X110461905Y-120692914D01*
X110461905Y-120692914D02*
X110509524Y-120597676D01*
X110509524Y-120597676D02*
X110604762Y-120502438D01*
X110604762Y-120502438D02*
X110747619Y-120454819D01*
X110747619Y-120454819D02*
X110842857Y-120454819D01*
X110842857Y-120454819D02*
X110985714Y-120502438D01*
X110985714Y-120502438D02*
X111033333Y-120550057D01*
X111366667Y-120454819D02*
X112033333Y-120454819D01*
X112033333Y-120454819D02*
X111604762Y-121454819D01*
X127757142Y-130459580D02*
X127709523Y-130507200D01*
X127709523Y-130507200D02*
X127566666Y-130554819D01*
X127566666Y-130554819D02*
X127471428Y-130554819D01*
X127471428Y-130554819D02*
X127328571Y-130507200D01*
X127328571Y-130507200D02*
X127233333Y-130411961D01*
X127233333Y-130411961D02*
X127185714Y-130316723D01*
X127185714Y-130316723D02*
X127138095Y-130126247D01*
X127138095Y-130126247D02*
X127138095Y-129983390D01*
X127138095Y-129983390D02*
X127185714Y-129792914D01*
X127185714Y-129792914D02*
X127233333Y-129697676D01*
X127233333Y-129697676D02*
X127328571Y-129602438D01*
X127328571Y-129602438D02*
X127471428Y-129554819D01*
X127471428Y-129554819D02*
X127566666Y-129554819D01*
X127566666Y-129554819D02*
X127709523Y-129602438D01*
X127709523Y-129602438D02*
X127757142Y-129650057D01*
X128709523Y-130554819D02*
X128138095Y-130554819D01*
X128423809Y-130554819D02*
X128423809Y-129554819D01*
X128423809Y-129554819D02*
X128328571Y-129697676D01*
X128328571Y-129697676D02*
X128233333Y-129792914D01*
X128233333Y-129792914D02*
X128138095Y-129840533D01*
X129090476Y-129650057D02*
X129138095Y-129602438D01*
X129138095Y-129602438D02*
X129233333Y-129554819D01*
X129233333Y-129554819D02*
X129471428Y-129554819D01*
X129471428Y-129554819D02*
X129566666Y-129602438D01*
X129566666Y-129602438D02*
X129614285Y-129650057D01*
X129614285Y-129650057D02*
X129661904Y-129745295D01*
X129661904Y-129745295D02*
X129661904Y-129840533D01*
X129661904Y-129840533D02*
X129614285Y-129983390D01*
X129614285Y-129983390D02*
X129042857Y-130554819D01*
X129042857Y-130554819D02*
X129661904Y-130554819D01*
X147657142Y-130459580D02*
X147609523Y-130507200D01*
X147609523Y-130507200D02*
X147466666Y-130554819D01*
X147466666Y-130554819D02*
X147371428Y-130554819D01*
X147371428Y-130554819D02*
X147228571Y-130507200D01*
X147228571Y-130507200D02*
X147133333Y-130411961D01*
X147133333Y-130411961D02*
X147085714Y-130316723D01*
X147085714Y-130316723D02*
X147038095Y-130126247D01*
X147038095Y-130126247D02*
X147038095Y-129983390D01*
X147038095Y-129983390D02*
X147085714Y-129792914D01*
X147085714Y-129792914D02*
X147133333Y-129697676D01*
X147133333Y-129697676D02*
X147228571Y-129602438D01*
X147228571Y-129602438D02*
X147371428Y-129554819D01*
X147371428Y-129554819D02*
X147466666Y-129554819D01*
X147466666Y-129554819D02*
X147609523Y-129602438D01*
X147609523Y-129602438D02*
X147657142Y-129650057D01*
X148609523Y-130554819D02*
X148038095Y-130554819D01*
X148323809Y-130554819D02*
X148323809Y-129554819D01*
X148323809Y-129554819D02*
X148228571Y-129697676D01*
X148228571Y-129697676D02*
X148133333Y-129792914D01*
X148133333Y-129792914D02*
X148038095Y-129840533D01*
X149466666Y-129554819D02*
X149276190Y-129554819D01*
X149276190Y-129554819D02*
X149180952Y-129602438D01*
X149180952Y-129602438D02*
X149133333Y-129650057D01*
X149133333Y-129650057D02*
X149038095Y-129792914D01*
X149038095Y-129792914D02*
X148990476Y-129983390D01*
X148990476Y-129983390D02*
X148990476Y-130364342D01*
X148990476Y-130364342D02*
X149038095Y-130459580D01*
X149038095Y-130459580D02*
X149085714Y-130507200D01*
X149085714Y-130507200D02*
X149180952Y-130554819D01*
X149180952Y-130554819D02*
X149371428Y-130554819D01*
X149371428Y-130554819D02*
X149466666Y-130507200D01*
X149466666Y-130507200D02*
X149514285Y-130459580D01*
X149514285Y-130459580D02*
X149561904Y-130364342D01*
X149561904Y-130364342D02*
X149561904Y-130126247D01*
X149561904Y-130126247D02*
X149514285Y-130031009D01*
X149514285Y-130031009D02*
X149466666Y-129983390D01*
X149466666Y-129983390D02*
X149371428Y-129935771D01*
X149371428Y-129935771D02*
X149180952Y-129935771D01*
X149180952Y-129935771D02*
X149085714Y-129983390D01*
X149085714Y-129983390D02*
X149038095Y-130031009D01*
X149038095Y-130031009D02*
X148990476Y-130126247D01*
X191238095Y-60254819D02*
X191238095Y-59254819D01*
X191238095Y-59731009D02*
X191809523Y-59731009D01*
X191809523Y-60254819D02*
X191809523Y-59254819D01*
X192238095Y-59350057D02*
X192285714Y-59302438D01*
X192285714Y-59302438D02*
X192380952Y-59254819D01*
X192380952Y-59254819D02*
X192619047Y-59254819D01*
X192619047Y-59254819D02*
X192714285Y-59302438D01*
X192714285Y-59302438D02*
X192761904Y-59350057D01*
X192761904Y-59350057D02*
X192809523Y-59445295D01*
X192809523Y-59445295D02*
X192809523Y-59540533D01*
X192809523Y-59540533D02*
X192761904Y-59683390D01*
X192761904Y-59683390D02*
X192190476Y-60254819D01*
X192190476Y-60254819D02*
X192809523Y-60254819D01*
X147166666Y-133179819D02*
X147166666Y-133894104D01*
X147166666Y-133894104D02*
X147119047Y-134036961D01*
X147119047Y-134036961D02*
X147023809Y-134132200D01*
X147023809Y-134132200D02*
X146880952Y-134179819D01*
X146880952Y-134179819D02*
X146785714Y-134179819D01*
X148119047Y-133179819D02*
X147642857Y-133179819D01*
X147642857Y-133179819D02*
X147595238Y-133656009D01*
X147595238Y-133656009D02*
X147642857Y-133608390D01*
X147642857Y-133608390D02*
X147738095Y-133560771D01*
X147738095Y-133560771D02*
X147976190Y-133560771D01*
X147976190Y-133560771D02*
X148071428Y-133608390D01*
X148071428Y-133608390D02*
X148119047Y-133656009D01*
X148119047Y-133656009D02*
X148166666Y-133751247D01*
X148166666Y-133751247D02*
X148166666Y-133989342D01*
X148166666Y-133989342D02*
X148119047Y-134084580D01*
X148119047Y-134084580D02*
X148071428Y-134132200D01*
X148071428Y-134132200D02*
X147976190Y-134179819D01*
X147976190Y-134179819D02*
X147738095Y-134179819D01*
X147738095Y-134179819D02*
X147642857Y-134132200D01*
X147642857Y-134132200D02*
X147595238Y-134084580D01*
X119238095Y-84654819D02*
X119238095Y-85464342D01*
X119238095Y-85464342D02*
X119285714Y-85559580D01*
X119285714Y-85559580D02*
X119333333Y-85607200D01*
X119333333Y-85607200D02*
X119428571Y-85654819D01*
X119428571Y-85654819D02*
X119619047Y-85654819D01*
X119619047Y-85654819D02*
X119714285Y-85607200D01*
X119714285Y-85607200D02*
X119761904Y-85559580D01*
X119761904Y-85559580D02*
X119809523Y-85464342D01*
X119809523Y-85464342D02*
X119809523Y-84654819D01*
X120238095Y-84750057D02*
X120285714Y-84702438D01*
X120285714Y-84702438D02*
X120380952Y-84654819D01*
X120380952Y-84654819D02*
X120619047Y-84654819D01*
X120619047Y-84654819D02*
X120714285Y-84702438D01*
X120714285Y-84702438D02*
X120761904Y-84750057D01*
X120761904Y-84750057D02*
X120809523Y-84845295D01*
X120809523Y-84845295D02*
X120809523Y-84940533D01*
X120809523Y-84940533D02*
X120761904Y-85083390D01*
X120761904Y-85083390D02*
X120190476Y-85654819D01*
X120190476Y-85654819D02*
X120809523Y-85654819D01*
X152208333Y-87719819D02*
X151732143Y-87719819D01*
X151732143Y-87719819D02*
X151732143Y-86719819D01*
X153065476Y-87719819D02*
X152494048Y-87719819D01*
X152779762Y-87719819D02*
X152779762Y-86719819D01*
X152779762Y-86719819D02*
X152684524Y-86862676D01*
X152684524Y-86862676D02*
X152589286Y-86957914D01*
X152589286Y-86957914D02*
X152494048Y-87005533D01*
X191238095Y-130254819D02*
X191238095Y-129254819D01*
X191238095Y-129731009D02*
X191809523Y-129731009D01*
X191809523Y-130254819D02*
X191809523Y-129254819D01*
X192714285Y-129588152D02*
X192714285Y-130254819D01*
X192476190Y-129207200D02*
X192238095Y-129921485D01*
X192238095Y-129921485D02*
X192857142Y-129921485D01*
X148357142Y-119059580D02*
X148309523Y-119107200D01*
X148309523Y-119107200D02*
X148166666Y-119154819D01*
X148166666Y-119154819D02*
X148071428Y-119154819D01*
X148071428Y-119154819D02*
X147928571Y-119107200D01*
X147928571Y-119107200D02*
X147833333Y-119011961D01*
X147833333Y-119011961D02*
X147785714Y-118916723D01*
X147785714Y-118916723D02*
X147738095Y-118726247D01*
X147738095Y-118726247D02*
X147738095Y-118583390D01*
X147738095Y-118583390D02*
X147785714Y-118392914D01*
X147785714Y-118392914D02*
X147833333Y-118297676D01*
X147833333Y-118297676D02*
X147928571Y-118202438D01*
X147928571Y-118202438D02*
X148071428Y-118154819D01*
X148071428Y-118154819D02*
X148166666Y-118154819D01*
X148166666Y-118154819D02*
X148309523Y-118202438D01*
X148309523Y-118202438D02*
X148357142Y-118250057D01*
X149309523Y-119154819D02*
X148738095Y-119154819D01*
X149023809Y-119154819D02*
X149023809Y-118154819D01*
X149023809Y-118154819D02*
X148928571Y-118297676D01*
X148928571Y-118297676D02*
X148833333Y-118392914D01*
X148833333Y-118392914D02*
X148738095Y-118440533D01*
X150214285Y-118154819D02*
X149738095Y-118154819D01*
X149738095Y-118154819D02*
X149690476Y-118631009D01*
X149690476Y-118631009D02*
X149738095Y-118583390D01*
X149738095Y-118583390D02*
X149833333Y-118535771D01*
X149833333Y-118535771D02*
X150071428Y-118535771D01*
X150071428Y-118535771D02*
X150166666Y-118583390D01*
X150166666Y-118583390D02*
X150214285Y-118631009D01*
X150214285Y-118631009D02*
X150261904Y-118726247D01*
X150261904Y-118726247D02*
X150261904Y-118964342D01*
X150261904Y-118964342D02*
X150214285Y-119059580D01*
X150214285Y-119059580D02*
X150166666Y-119107200D01*
X150166666Y-119107200D02*
X150071428Y-119154819D01*
X150071428Y-119154819D02*
X149833333Y-119154819D01*
X149833333Y-119154819D02*
X149738095Y-119107200D01*
X149738095Y-119107200D02*
X149690476Y-119059580D01*
X177104761Y-126350057D02*
X177009523Y-126302438D01*
X177009523Y-126302438D02*
X176914285Y-126207200D01*
X176914285Y-126207200D02*
X176771428Y-126064342D01*
X176771428Y-126064342D02*
X176676190Y-126016723D01*
X176676190Y-126016723D02*
X176580952Y-126016723D01*
X176628571Y-126254819D02*
X176533333Y-126207200D01*
X176533333Y-126207200D02*
X176438095Y-126111961D01*
X176438095Y-126111961D02*
X176390476Y-125921485D01*
X176390476Y-125921485D02*
X176390476Y-125588152D01*
X176390476Y-125588152D02*
X176438095Y-125397676D01*
X176438095Y-125397676D02*
X176533333Y-125302438D01*
X176533333Y-125302438D02*
X176628571Y-125254819D01*
X176628571Y-125254819D02*
X176819047Y-125254819D01*
X176819047Y-125254819D02*
X176914285Y-125302438D01*
X176914285Y-125302438D02*
X177009523Y-125397676D01*
X177009523Y-125397676D02*
X177057142Y-125588152D01*
X177057142Y-125588152D02*
X177057142Y-125921485D01*
X177057142Y-125921485D02*
X177009523Y-126111961D01*
X177009523Y-126111961D02*
X176914285Y-126207200D01*
X176914285Y-126207200D02*
X176819047Y-126254819D01*
X176819047Y-126254819D02*
X176628571Y-126254819D01*
X178009523Y-126254819D02*
X177438095Y-126254819D01*
X177723809Y-126254819D02*
X177723809Y-125254819D01*
X177723809Y-125254819D02*
X177628571Y-125397676D01*
X177628571Y-125397676D02*
X177533333Y-125492914D01*
X177533333Y-125492914D02*
X177438095Y-125540533D01*
X178066666Y-133179819D02*
X178066666Y-133894104D01*
X178066666Y-133894104D02*
X178019047Y-134036961D01*
X178019047Y-134036961D02*
X177923809Y-134132200D01*
X177923809Y-134132200D02*
X177780952Y-134179819D01*
X177780952Y-134179819D02*
X177685714Y-134179819D01*
X179066666Y-134179819D02*
X178495238Y-134179819D01*
X178780952Y-134179819D02*
X178780952Y-133179819D01*
X178780952Y-133179819D02*
X178685714Y-133322676D01*
X178685714Y-133322676D02*
X178590476Y-133417914D01*
X178590476Y-133417914D02*
X178495238Y-133465533D01*
X142666666Y-106954819D02*
X142666666Y-107669104D01*
X142666666Y-107669104D02*
X142619047Y-107811961D01*
X142619047Y-107811961D02*
X142523809Y-107907200D01*
X142523809Y-107907200D02*
X142380952Y-107954819D01*
X142380952Y-107954819D02*
X142285714Y-107954819D01*
X143285714Y-107383390D02*
X143190476Y-107335771D01*
X143190476Y-107335771D02*
X143142857Y-107288152D01*
X143142857Y-107288152D02*
X143095238Y-107192914D01*
X143095238Y-107192914D02*
X143095238Y-107145295D01*
X143095238Y-107145295D02*
X143142857Y-107050057D01*
X143142857Y-107050057D02*
X143190476Y-107002438D01*
X143190476Y-107002438D02*
X143285714Y-106954819D01*
X143285714Y-106954819D02*
X143476190Y-106954819D01*
X143476190Y-106954819D02*
X143571428Y-107002438D01*
X143571428Y-107002438D02*
X143619047Y-107050057D01*
X143619047Y-107050057D02*
X143666666Y-107145295D01*
X143666666Y-107145295D02*
X143666666Y-107192914D01*
X143666666Y-107192914D02*
X143619047Y-107288152D01*
X143619047Y-107288152D02*
X143571428Y-107335771D01*
X143571428Y-107335771D02*
X143476190Y-107383390D01*
X143476190Y-107383390D02*
X143285714Y-107383390D01*
X143285714Y-107383390D02*
X143190476Y-107431009D01*
X143190476Y-107431009D02*
X143142857Y-107478628D01*
X143142857Y-107478628D02*
X143095238Y-107573866D01*
X143095238Y-107573866D02*
X143095238Y-107764342D01*
X143095238Y-107764342D02*
X143142857Y-107859580D01*
X143142857Y-107859580D02*
X143190476Y-107907200D01*
X143190476Y-107907200D02*
X143285714Y-107954819D01*
X143285714Y-107954819D02*
X143476190Y-107954819D01*
X143476190Y-107954819D02*
X143571428Y-107907200D01*
X143571428Y-107907200D02*
X143619047Y-107859580D01*
X143619047Y-107859580D02*
X143666666Y-107764342D01*
X143666666Y-107764342D02*
X143666666Y-107573866D01*
X143666666Y-107573866D02*
X143619047Y-107478628D01*
X143619047Y-107478628D02*
X143571428Y-107431009D01*
X143571428Y-107431009D02*
X143476190Y-107383390D01*
X158238095Y-115174819D02*
X158238095Y-115984342D01*
X158238095Y-115984342D02*
X158285714Y-116079580D01*
X158285714Y-116079580D02*
X158333333Y-116127200D01*
X158333333Y-116127200D02*
X158428571Y-116174819D01*
X158428571Y-116174819D02*
X158619047Y-116174819D01*
X158619047Y-116174819D02*
X158714285Y-116127200D01*
X158714285Y-116127200D02*
X158761904Y-116079580D01*
X158761904Y-116079580D02*
X158809523Y-115984342D01*
X158809523Y-115984342D02*
X158809523Y-115174819D01*
X159428571Y-115603390D02*
X159333333Y-115555771D01*
X159333333Y-115555771D02*
X159285714Y-115508152D01*
X159285714Y-115508152D02*
X159238095Y-115412914D01*
X159238095Y-115412914D02*
X159238095Y-115365295D01*
X159238095Y-115365295D02*
X159285714Y-115270057D01*
X159285714Y-115270057D02*
X159333333Y-115222438D01*
X159333333Y-115222438D02*
X159428571Y-115174819D01*
X159428571Y-115174819D02*
X159619047Y-115174819D01*
X159619047Y-115174819D02*
X159714285Y-115222438D01*
X159714285Y-115222438D02*
X159761904Y-115270057D01*
X159761904Y-115270057D02*
X159809523Y-115365295D01*
X159809523Y-115365295D02*
X159809523Y-115412914D01*
X159809523Y-115412914D02*
X159761904Y-115508152D01*
X159761904Y-115508152D02*
X159714285Y-115555771D01*
X159714285Y-115555771D02*
X159619047Y-115603390D01*
X159619047Y-115603390D02*
X159428571Y-115603390D01*
X159428571Y-115603390D02*
X159333333Y-115651009D01*
X159333333Y-115651009D02*
X159285714Y-115698628D01*
X159285714Y-115698628D02*
X159238095Y-115793866D01*
X159238095Y-115793866D02*
X159238095Y-115984342D01*
X159238095Y-115984342D02*
X159285714Y-116079580D01*
X159285714Y-116079580D02*
X159333333Y-116127200D01*
X159333333Y-116127200D02*
X159428571Y-116174819D01*
X159428571Y-116174819D02*
X159619047Y-116174819D01*
X159619047Y-116174819D02*
X159714285Y-116127200D01*
X159714285Y-116127200D02*
X159761904Y-116079580D01*
X159761904Y-116079580D02*
X159809523Y-115984342D01*
X159809523Y-115984342D02*
X159809523Y-115793866D01*
X159809523Y-115793866D02*
X159761904Y-115698628D01*
X159761904Y-115698628D02*
X159714285Y-115651009D01*
X159714285Y-115651009D02*
X159619047Y-115603390D01*
X158954819Y-92666666D02*
X158478628Y-92999999D01*
X158954819Y-93238094D02*
X157954819Y-93238094D01*
X157954819Y-93238094D02*
X157954819Y-92857142D01*
X157954819Y-92857142D02*
X158002438Y-92761904D01*
X158002438Y-92761904D02*
X158050057Y-92714285D01*
X158050057Y-92714285D02*
X158145295Y-92666666D01*
X158145295Y-92666666D02*
X158288152Y-92666666D01*
X158288152Y-92666666D02*
X158383390Y-92714285D01*
X158383390Y-92714285D02*
X158431009Y-92761904D01*
X158431009Y-92761904D02*
X158478628Y-92857142D01*
X158478628Y-92857142D02*
X158478628Y-93238094D01*
X158050057Y-92285713D02*
X158002438Y-92238094D01*
X158002438Y-92238094D02*
X157954819Y-92142856D01*
X157954819Y-92142856D02*
X157954819Y-91904761D01*
X157954819Y-91904761D02*
X158002438Y-91809523D01*
X158002438Y-91809523D02*
X158050057Y-91761904D01*
X158050057Y-91761904D02*
X158145295Y-91714285D01*
X158145295Y-91714285D02*
X158240533Y-91714285D01*
X158240533Y-91714285D02*
X158383390Y-91761904D01*
X158383390Y-91761904D02*
X158954819Y-92333332D01*
X158954819Y-92333332D02*
X158954819Y-91714285D01*
X169761905Y-131954819D02*
X169761905Y-130954819D01*
X169761905Y-130954819D02*
X170000000Y-130954819D01*
X170000000Y-130954819D02*
X170142857Y-131002438D01*
X170142857Y-131002438D02*
X170238095Y-131097676D01*
X170238095Y-131097676D02*
X170285714Y-131192914D01*
X170285714Y-131192914D02*
X170333333Y-131383390D01*
X170333333Y-131383390D02*
X170333333Y-131526247D01*
X170333333Y-131526247D02*
X170285714Y-131716723D01*
X170285714Y-131716723D02*
X170238095Y-131811961D01*
X170238095Y-131811961D02*
X170142857Y-131907200D01*
X170142857Y-131907200D02*
X170000000Y-131954819D01*
X170000000Y-131954819D02*
X169761905Y-131954819D01*
X171285714Y-131954819D02*
X170714286Y-131954819D01*
X171000000Y-131954819D02*
X171000000Y-130954819D01*
X171000000Y-130954819D02*
X170904762Y-131097676D01*
X170904762Y-131097676D02*
X170809524Y-131192914D01*
X170809524Y-131192914D02*
X170714286Y-131240533D01*
X156954819Y-92666666D02*
X156478628Y-92999999D01*
X156954819Y-93238094D02*
X155954819Y-93238094D01*
X155954819Y-93238094D02*
X155954819Y-92857142D01*
X155954819Y-92857142D02*
X156002438Y-92761904D01*
X156002438Y-92761904D02*
X156050057Y-92714285D01*
X156050057Y-92714285D02*
X156145295Y-92666666D01*
X156145295Y-92666666D02*
X156288152Y-92666666D01*
X156288152Y-92666666D02*
X156383390Y-92714285D01*
X156383390Y-92714285D02*
X156431009Y-92761904D01*
X156431009Y-92761904D02*
X156478628Y-92857142D01*
X156478628Y-92857142D02*
X156478628Y-93238094D01*
X156954819Y-91714285D02*
X156954819Y-92285713D01*
X156954819Y-91999999D02*
X155954819Y-91999999D01*
X155954819Y-91999999D02*
X156097676Y-92095237D01*
X156097676Y-92095237D02*
X156192914Y-92190475D01*
X156192914Y-92190475D02*
X156240533Y-92285713D01*
X148359580Y-92366666D02*
X148407200Y-92414285D01*
X148407200Y-92414285D02*
X148454819Y-92557142D01*
X148454819Y-92557142D02*
X148454819Y-92652380D01*
X148454819Y-92652380D02*
X148407200Y-92795237D01*
X148407200Y-92795237D02*
X148311961Y-92890475D01*
X148311961Y-92890475D02*
X148216723Y-92938094D01*
X148216723Y-92938094D02*
X148026247Y-92985713D01*
X148026247Y-92985713D02*
X147883390Y-92985713D01*
X147883390Y-92985713D02*
X147692914Y-92938094D01*
X147692914Y-92938094D02*
X147597676Y-92890475D01*
X147597676Y-92890475D02*
X147502438Y-92795237D01*
X147502438Y-92795237D02*
X147454819Y-92652380D01*
X147454819Y-92652380D02*
X147454819Y-92557142D01*
X147454819Y-92557142D02*
X147502438Y-92414285D01*
X147502438Y-92414285D02*
X147550057Y-92366666D01*
X147454819Y-92033332D02*
X147454819Y-91414285D01*
X147454819Y-91414285D02*
X147835771Y-91747618D01*
X147835771Y-91747618D02*
X147835771Y-91604761D01*
X147835771Y-91604761D02*
X147883390Y-91509523D01*
X147883390Y-91509523D02*
X147931009Y-91461904D01*
X147931009Y-91461904D02*
X148026247Y-91414285D01*
X148026247Y-91414285D02*
X148264342Y-91414285D01*
X148264342Y-91414285D02*
X148359580Y-91461904D01*
X148359580Y-91461904D02*
X148407200Y-91509523D01*
X148407200Y-91509523D02*
X148454819Y-91604761D01*
X148454819Y-91604761D02*
X148454819Y-91890475D01*
X148454819Y-91890475D02*
X148407200Y-91985713D01*
X148407200Y-91985713D02*
X148359580Y-92033332D01*
X157638095Y-105154819D02*
X157638095Y-105964342D01*
X157638095Y-105964342D02*
X157685714Y-106059580D01*
X157685714Y-106059580D02*
X157733333Y-106107200D01*
X157733333Y-106107200D02*
X157828571Y-106154819D01*
X157828571Y-106154819D02*
X158019047Y-106154819D01*
X158019047Y-106154819D02*
X158114285Y-106107200D01*
X158114285Y-106107200D02*
X158161904Y-106059580D01*
X158161904Y-106059580D02*
X158209523Y-105964342D01*
X158209523Y-105964342D02*
X158209523Y-105154819D01*
X159161904Y-105154819D02*
X158685714Y-105154819D01*
X158685714Y-105154819D02*
X158638095Y-105631009D01*
X158638095Y-105631009D02*
X158685714Y-105583390D01*
X158685714Y-105583390D02*
X158780952Y-105535771D01*
X158780952Y-105535771D02*
X159019047Y-105535771D01*
X159019047Y-105535771D02*
X159114285Y-105583390D01*
X159114285Y-105583390D02*
X159161904Y-105631009D01*
X159161904Y-105631009D02*
X159209523Y-105726247D01*
X159209523Y-105726247D02*
X159209523Y-105964342D01*
X159209523Y-105964342D02*
X159161904Y-106059580D01*
X159161904Y-106059580D02*
X159114285Y-106107200D01*
X159114285Y-106107200D02*
X159019047Y-106154819D01*
X159019047Y-106154819D02*
X158780952Y-106154819D01*
X158780952Y-106154819D02*
X158685714Y-106107200D01*
X158685714Y-106107200D02*
X158638095Y-106059580D01*
X173833333Y-121754819D02*
X173500000Y-121278628D01*
X173261905Y-121754819D02*
X173261905Y-120754819D01*
X173261905Y-120754819D02*
X173642857Y-120754819D01*
X173642857Y-120754819D02*
X173738095Y-120802438D01*
X173738095Y-120802438D02*
X173785714Y-120850057D01*
X173785714Y-120850057D02*
X173833333Y-120945295D01*
X173833333Y-120945295D02*
X173833333Y-121088152D01*
X173833333Y-121088152D02*
X173785714Y-121183390D01*
X173785714Y-121183390D02*
X173738095Y-121231009D01*
X173738095Y-121231009D02*
X173642857Y-121278628D01*
X173642857Y-121278628D02*
X173261905Y-121278628D01*
X174166667Y-120754819D02*
X174785714Y-120754819D01*
X174785714Y-120754819D02*
X174452381Y-121135771D01*
X174452381Y-121135771D02*
X174595238Y-121135771D01*
X174595238Y-121135771D02*
X174690476Y-121183390D01*
X174690476Y-121183390D02*
X174738095Y-121231009D01*
X174738095Y-121231009D02*
X174785714Y-121326247D01*
X174785714Y-121326247D02*
X174785714Y-121564342D01*
X174785714Y-121564342D02*
X174738095Y-121659580D01*
X174738095Y-121659580D02*
X174690476Y-121707200D01*
X174690476Y-121707200D02*
X174595238Y-121754819D01*
X174595238Y-121754819D02*
X174309524Y-121754819D01*
X174309524Y-121754819D02*
X174214286Y-121707200D01*
X174214286Y-121707200D02*
X174166667Y-121659580D01*
X101238095Y-60254819D02*
X101238095Y-59254819D01*
X101238095Y-59731009D02*
X101809523Y-59731009D01*
X101809523Y-60254819D02*
X101809523Y-59254819D01*
X102809523Y-60254819D02*
X102238095Y-60254819D01*
X102523809Y-60254819D02*
X102523809Y-59254819D01*
X102523809Y-59254819D02*
X102428571Y-59397676D01*
X102428571Y-59397676D02*
X102333333Y-59492914D01*
X102333333Y-59492914D02*
X102238095Y-59540533D01*
X128757142Y-121359580D02*
X128709523Y-121407200D01*
X128709523Y-121407200D02*
X128566666Y-121454819D01*
X128566666Y-121454819D02*
X128471428Y-121454819D01*
X128471428Y-121454819D02*
X128328571Y-121407200D01*
X128328571Y-121407200D02*
X128233333Y-121311961D01*
X128233333Y-121311961D02*
X128185714Y-121216723D01*
X128185714Y-121216723D02*
X128138095Y-121026247D01*
X128138095Y-121026247D02*
X128138095Y-120883390D01*
X128138095Y-120883390D02*
X128185714Y-120692914D01*
X128185714Y-120692914D02*
X128233333Y-120597676D01*
X128233333Y-120597676D02*
X128328571Y-120502438D01*
X128328571Y-120502438D02*
X128471428Y-120454819D01*
X128471428Y-120454819D02*
X128566666Y-120454819D01*
X128566666Y-120454819D02*
X128709523Y-120502438D01*
X128709523Y-120502438D02*
X128757142Y-120550057D01*
X129709523Y-121454819D02*
X129138095Y-121454819D01*
X129423809Y-121454819D02*
X129423809Y-120454819D01*
X129423809Y-120454819D02*
X129328571Y-120597676D01*
X129328571Y-120597676D02*
X129233333Y-120692914D01*
X129233333Y-120692914D02*
X129138095Y-120740533D01*
X130328571Y-120454819D02*
X130423809Y-120454819D01*
X130423809Y-120454819D02*
X130519047Y-120502438D01*
X130519047Y-120502438D02*
X130566666Y-120550057D01*
X130566666Y-120550057D02*
X130614285Y-120645295D01*
X130614285Y-120645295D02*
X130661904Y-120835771D01*
X130661904Y-120835771D02*
X130661904Y-121073866D01*
X130661904Y-121073866D02*
X130614285Y-121264342D01*
X130614285Y-121264342D02*
X130566666Y-121359580D01*
X130566666Y-121359580D02*
X130519047Y-121407200D01*
X130519047Y-121407200D02*
X130423809Y-121454819D01*
X130423809Y-121454819D02*
X130328571Y-121454819D01*
X130328571Y-121454819D02*
X130233333Y-121407200D01*
X130233333Y-121407200D02*
X130185714Y-121359580D01*
X130185714Y-121359580D02*
X130138095Y-121264342D01*
X130138095Y-121264342D02*
X130090476Y-121073866D01*
X130090476Y-121073866D02*
X130090476Y-120835771D01*
X130090476Y-120835771D02*
X130138095Y-120645295D01*
X130138095Y-120645295D02*
X130185714Y-120550057D01*
X130185714Y-120550057D02*
X130233333Y-120502438D01*
X130233333Y-120502438D02*
X130328571Y-120454819D01*
X128366666Y-133279819D02*
X128366666Y-133994104D01*
X128366666Y-133994104D02*
X128319047Y-134136961D01*
X128319047Y-134136961D02*
X128223809Y-134232200D01*
X128223809Y-134232200D02*
X128080952Y-134279819D01*
X128080952Y-134279819D02*
X127985714Y-134279819D01*
X128747619Y-133279819D02*
X129414285Y-133279819D01*
X129414285Y-133279819D02*
X128985714Y-134279819D01*
X166866666Y-133379819D02*
X166866666Y-134094104D01*
X166866666Y-134094104D02*
X166819047Y-134236961D01*
X166819047Y-134236961D02*
X166723809Y-134332200D01*
X166723809Y-134332200D02*
X166580952Y-134379819D01*
X166580952Y-134379819D02*
X166485714Y-134379819D01*
X167247619Y-133379819D02*
X167866666Y-133379819D01*
X167866666Y-133379819D02*
X167533333Y-133760771D01*
X167533333Y-133760771D02*
X167676190Y-133760771D01*
X167676190Y-133760771D02*
X167771428Y-133808390D01*
X167771428Y-133808390D02*
X167819047Y-133856009D01*
X167819047Y-133856009D02*
X167866666Y-133951247D01*
X167866666Y-133951247D02*
X167866666Y-134189342D01*
X167866666Y-134189342D02*
X167819047Y-134284580D01*
X167819047Y-134284580D02*
X167771428Y-134332200D01*
X167771428Y-134332200D02*
X167676190Y-134379819D01*
X167676190Y-134379819D02*
X167390476Y-134379819D01*
X167390476Y-134379819D02*
X167295238Y-134332200D01*
X167295238Y-134332200D02*
X167247619Y-134284580D01*
X101238095Y-130254819D02*
X101238095Y-129254819D01*
X101238095Y-129731009D02*
X101809523Y-129731009D01*
X101809523Y-130254819D02*
X101809523Y-129254819D01*
X102190476Y-129254819D02*
X102809523Y-129254819D01*
X102809523Y-129254819D02*
X102476190Y-129635771D01*
X102476190Y-129635771D02*
X102619047Y-129635771D01*
X102619047Y-129635771D02*
X102714285Y-129683390D01*
X102714285Y-129683390D02*
X102761904Y-129731009D01*
X102761904Y-129731009D02*
X102809523Y-129826247D01*
X102809523Y-129826247D02*
X102809523Y-130064342D01*
X102809523Y-130064342D02*
X102761904Y-130159580D01*
X102761904Y-130159580D02*
X102714285Y-130207200D01*
X102714285Y-130207200D02*
X102619047Y-130254819D01*
X102619047Y-130254819D02*
X102333333Y-130254819D01*
X102333333Y-130254819D02*
X102238095Y-130207200D01*
X102238095Y-130207200D02*
X102190476Y-130159580D01*
X166766666Y-134879819D02*
X166766666Y-135594104D01*
X166766666Y-135594104D02*
X166719047Y-135736961D01*
X166719047Y-135736961D02*
X166623809Y-135832200D01*
X166623809Y-135832200D02*
X166480952Y-135879819D01*
X166480952Y-135879819D02*
X166385714Y-135879819D01*
X167195238Y-134975057D02*
X167242857Y-134927438D01*
X167242857Y-134927438D02*
X167338095Y-134879819D01*
X167338095Y-134879819D02*
X167576190Y-134879819D01*
X167576190Y-134879819D02*
X167671428Y-134927438D01*
X167671428Y-134927438D02*
X167719047Y-134975057D01*
X167719047Y-134975057D02*
X167766666Y-135070295D01*
X167766666Y-135070295D02*
X167766666Y-135165533D01*
X167766666Y-135165533D02*
X167719047Y-135308390D01*
X167719047Y-135308390D02*
X167147619Y-135879819D01*
X167147619Y-135879819D02*
X167766666Y-135879819D01*
X149333333Y-100959580D02*
X149285714Y-101007200D01*
X149285714Y-101007200D02*
X149142857Y-101054819D01*
X149142857Y-101054819D02*
X149047619Y-101054819D01*
X149047619Y-101054819D02*
X148904762Y-101007200D01*
X148904762Y-101007200D02*
X148809524Y-100911961D01*
X148809524Y-100911961D02*
X148761905Y-100816723D01*
X148761905Y-100816723D02*
X148714286Y-100626247D01*
X148714286Y-100626247D02*
X148714286Y-100483390D01*
X148714286Y-100483390D02*
X148761905Y-100292914D01*
X148761905Y-100292914D02*
X148809524Y-100197676D01*
X148809524Y-100197676D02*
X148904762Y-100102438D01*
X148904762Y-100102438D02*
X149047619Y-100054819D01*
X149047619Y-100054819D02*
X149142857Y-100054819D01*
X149142857Y-100054819D02*
X149285714Y-100102438D01*
X149285714Y-100102438D02*
X149333333Y-100150057D01*
X150285714Y-101054819D02*
X149714286Y-101054819D01*
X150000000Y-101054819D02*
X150000000Y-100054819D01*
X150000000Y-100054819D02*
X149904762Y-100197676D01*
X149904762Y-100197676D02*
X149809524Y-100292914D01*
X149809524Y-100292914D02*
X149714286Y-100340533D01*
X111033333Y-118959580D02*
X110985714Y-119007200D01*
X110985714Y-119007200D02*
X110842857Y-119054819D01*
X110842857Y-119054819D02*
X110747619Y-119054819D01*
X110747619Y-119054819D02*
X110604762Y-119007200D01*
X110604762Y-119007200D02*
X110509524Y-118911961D01*
X110509524Y-118911961D02*
X110461905Y-118816723D01*
X110461905Y-118816723D02*
X110414286Y-118626247D01*
X110414286Y-118626247D02*
X110414286Y-118483390D01*
X110414286Y-118483390D02*
X110461905Y-118292914D01*
X110461905Y-118292914D02*
X110509524Y-118197676D01*
X110509524Y-118197676D02*
X110604762Y-118102438D01*
X110604762Y-118102438D02*
X110747619Y-118054819D01*
X110747619Y-118054819D02*
X110842857Y-118054819D01*
X110842857Y-118054819D02*
X110985714Y-118102438D01*
X110985714Y-118102438D02*
X111033333Y-118150057D01*
X111509524Y-119054819D02*
X111700000Y-119054819D01*
X111700000Y-119054819D02*
X111795238Y-119007200D01*
X111795238Y-119007200D02*
X111842857Y-118959580D01*
X111842857Y-118959580D02*
X111938095Y-118816723D01*
X111938095Y-118816723D02*
X111985714Y-118626247D01*
X111985714Y-118626247D02*
X111985714Y-118245295D01*
X111985714Y-118245295D02*
X111938095Y-118150057D01*
X111938095Y-118150057D02*
X111890476Y-118102438D01*
X111890476Y-118102438D02*
X111795238Y-118054819D01*
X111795238Y-118054819D02*
X111604762Y-118054819D01*
X111604762Y-118054819D02*
X111509524Y-118102438D01*
X111509524Y-118102438D02*
X111461905Y-118150057D01*
X111461905Y-118150057D02*
X111414286Y-118245295D01*
X111414286Y-118245295D02*
X111414286Y-118483390D01*
X111414286Y-118483390D02*
X111461905Y-118578628D01*
X111461905Y-118578628D02*
X111509524Y-118626247D01*
X111509524Y-118626247D02*
X111604762Y-118673866D01*
X111604762Y-118673866D02*
X111795238Y-118673866D01*
X111795238Y-118673866D02*
X111890476Y-118626247D01*
X111890476Y-118626247D02*
X111938095Y-118578628D01*
X111938095Y-118578628D02*
X111985714Y-118483390D01*
X149233333Y-98759580D02*
X149185714Y-98807200D01*
X149185714Y-98807200D02*
X149042857Y-98854819D01*
X149042857Y-98854819D02*
X148947619Y-98854819D01*
X148947619Y-98854819D02*
X148804762Y-98807200D01*
X148804762Y-98807200D02*
X148709524Y-98711961D01*
X148709524Y-98711961D02*
X148661905Y-98616723D01*
X148661905Y-98616723D02*
X148614286Y-98426247D01*
X148614286Y-98426247D02*
X148614286Y-98283390D01*
X148614286Y-98283390D02*
X148661905Y-98092914D01*
X148661905Y-98092914D02*
X148709524Y-97997676D01*
X148709524Y-97997676D02*
X148804762Y-97902438D01*
X148804762Y-97902438D02*
X148947619Y-97854819D01*
X148947619Y-97854819D02*
X149042857Y-97854819D01*
X149042857Y-97854819D02*
X149185714Y-97902438D01*
X149185714Y-97902438D02*
X149233333Y-97950057D01*
X150090476Y-98188152D02*
X150090476Y-98854819D01*
X149852381Y-97807200D02*
X149614286Y-98521485D01*
X149614286Y-98521485D02*
X150233333Y-98521485D01*
X144396666Y-97754819D02*
X144396666Y-98469104D01*
X144396666Y-98469104D02*
X144349047Y-98611961D01*
X144349047Y-98611961D02*
X144253809Y-98707200D01*
X144253809Y-98707200D02*
X144110952Y-98754819D01*
X144110952Y-98754819D02*
X144015714Y-98754819D01*
X144920476Y-98754819D02*
X145110952Y-98754819D01*
X145110952Y-98754819D02*
X145206190Y-98707200D01*
X145206190Y-98707200D02*
X145253809Y-98659580D01*
X145253809Y-98659580D02*
X145349047Y-98516723D01*
X145349047Y-98516723D02*
X145396666Y-98326247D01*
X145396666Y-98326247D02*
X145396666Y-97945295D01*
X145396666Y-97945295D02*
X145349047Y-97850057D01*
X145349047Y-97850057D02*
X145301428Y-97802438D01*
X145301428Y-97802438D02*
X145206190Y-97754819D01*
X145206190Y-97754819D02*
X145015714Y-97754819D01*
X145015714Y-97754819D02*
X144920476Y-97802438D01*
X144920476Y-97802438D02*
X144872857Y-97850057D01*
X144872857Y-97850057D02*
X144825238Y-97945295D01*
X144825238Y-97945295D02*
X144825238Y-98183390D01*
X144825238Y-98183390D02*
X144872857Y-98278628D01*
X144872857Y-98278628D02*
X144920476Y-98326247D01*
X144920476Y-98326247D02*
X145015714Y-98373866D01*
X145015714Y-98373866D02*
X145206190Y-98373866D01*
X145206190Y-98373866D02*
X145301428Y-98326247D01*
X145301428Y-98326247D02*
X145349047Y-98278628D01*
X145349047Y-98278628D02*
X145396666Y-98183390D01*
X128857142Y-118959580D02*
X128809523Y-119007200D01*
X128809523Y-119007200D02*
X128666666Y-119054819D01*
X128666666Y-119054819D02*
X128571428Y-119054819D01*
X128571428Y-119054819D02*
X128428571Y-119007200D01*
X128428571Y-119007200D02*
X128333333Y-118911961D01*
X128333333Y-118911961D02*
X128285714Y-118816723D01*
X128285714Y-118816723D02*
X128238095Y-118626247D01*
X128238095Y-118626247D02*
X128238095Y-118483390D01*
X128238095Y-118483390D02*
X128285714Y-118292914D01*
X128285714Y-118292914D02*
X128333333Y-118197676D01*
X128333333Y-118197676D02*
X128428571Y-118102438D01*
X128428571Y-118102438D02*
X128571428Y-118054819D01*
X128571428Y-118054819D02*
X128666666Y-118054819D01*
X128666666Y-118054819D02*
X128809523Y-118102438D01*
X128809523Y-118102438D02*
X128857142Y-118150057D01*
X129809523Y-119054819D02*
X129238095Y-119054819D01*
X129523809Y-119054819D02*
X129523809Y-118054819D01*
X129523809Y-118054819D02*
X129428571Y-118197676D01*
X129428571Y-118197676D02*
X129333333Y-118292914D01*
X129333333Y-118292914D02*
X129238095Y-118340533D01*
X130761904Y-119054819D02*
X130190476Y-119054819D01*
X130476190Y-119054819D02*
X130476190Y-118054819D01*
X130476190Y-118054819D02*
X130380952Y-118197676D01*
X130380952Y-118197676D02*
X130285714Y-118292914D01*
X130285714Y-118292914D02*
X130190476Y-118340533D01*
X147657142Y-128059580D02*
X147609523Y-128107200D01*
X147609523Y-128107200D02*
X147466666Y-128154819D01*
X147466666Y-128154819D02*
X147371428Y-128154819D01*
X147371428Y-128154819D02*
X147228571Y-128107200D01*
X147228571Y-128107200D02*
X147133333Y-128011961D01*
X147133333Y-128011961D02*
X147085714Y-127916723D01*
X147085714Y-127916723D02*
X147038095Y-127726247D01*
X147038095Y-127726247D02*
X147038095Y-127583390D01*
X147038095Y-127583390D02*
X147085714Y-127392914D01*
X147085714Y-127392914D02*
X147133333Y-127297676D01*
X147133333Y-127297676D02*
X147228571Y-127202438D01*
X147228571Y-127202438D02*
X147371428Y-127154819D01*
X147371428Y-127154819D02*
X147466666Y-127154819D01*
X147466666Y-127154819D02*
X147609523Y-127202438D01*
X147609523Y-127202438D02*
X147657142Y-127250057D01*
X148609523Y-128154819D02*
X148038095Y-128154819D01*
X148323809Y-128154819D02*
X148323809Y-127154819D01*
X148323809Y-127154819D02*
X148228571Y-127297676D01*
X148228571Y-127297676D02*
X148133333Y-127392914D01*
X148133333Y-127392914D02*
X148038095Y-127440533D01*
X148942857Y-127154819D02*
X149609523Y-127154819D01*
X149609523Y-127154819D02*
X149180952Y-128154819D01*
X138713095Y-115174819D02*
X138713095Y-115984342D01*
X138713095Y-115984342D02*
X138760714Y-116079580D01*
X138760714Y-116079580D02*
X138808333Y-116127200D01*
X138808333Y-116127200D02*
X138903571Y-116174819D01*
X138903571Y-116174819D02*
X139094047Y-116174819D01*
X139094047Y-116174819D02*
X139189285Y-116127200D01*
X139189285Y-116127200D02*
X139236904Y-116079580D01*
X139236904Y-116079580D02*
X139284523Y-115984342D01*
X139284523Y-115984342D02*
X139284523Y-115174819D01*
X140189285Y-115174819D02*
X139998809Y-115174819D01*
X139998809Y-115174819D02*
X139903571Y-115222438D01*
X139903571Y-115222438D02*
X139855952Y-115270057D01*
X139855952Y-115270057D02*
X139760714Y-115412914D01*
X139760714Y-115412914D02*
X139713095Y-115603390D01*
X139713095Y-115603390D02*
X139713095Y-115984342D01*
X139713095Y-115984342D02*
X139760714Y-116079580D01*
X139760714Y-116079580D02*
X139808333Y-116127200D01*
X139808333Y-116127200D02*
X139903571Y-116174819D01*
X139903571Y-116174819D02*
X140094047Y-116174819D01*
X140094047Y-116174819D02*
X140189285Y-116127200D01*
X140189285Y-116127200D02*
X140236904Y-116079580D01*
X140236904Y-116079580D02*
X140284523Y-115984342D01*
X140284523Y-115984342D02*
X140284523Y-115746247D01*
X140284523Y-115746247D02*
X140236904Y-115651009D01*
X140236904Y-115651009D02*
X140189285Y-115603390D01*
X140189285Y-115603390D02*
X140094047Y-115555771D01*
X140094047Y-115555771D02*
X139903571Y-115555771D01*
X139903571Y-115555771D02*
X139808333Y-115603390D01*
X139808333Y-115603390D02*
X139760714Y-115651009D01*
X139760714Y-115651009D02*
X139713095Y-115746247D01*
X163438095Y-93156819D02*
X164009523Y-93156819D01*
X163723809Y-94156819D02*
X163723809Y-93156819D01*
X164342857Y-94156819D02*
X164342857Y-93156819D01*
X164342857Y-93156819D02*
X164723809Y-93156819D01*
X164723809Y-93156819D02*
X164819047Y-93204438D01*
X164819047Y-93204438D02*
X164866666Y-93252057D01*
X164866666Y-93252057D02*
X164914285Y-93347295D01*
X164914285Y-93347295D02*
X164914285Y-93490152D01*
X164914285Y-93490152D02*
X164866666Y-93585390D01*
X164866666Y-93585390D02*
X164819047Y-93633009D01*
X164819047Y-93633009D02*
X164723809Y-93680628D01*
X164723809Y-93680628D02*
X164342857Y-93680628D01*
X165866666Y-94156819D02*
X165295238Y-94156819D01*
X165580952Y-94156819D02*
X165580952Y-93156819D01*
X165580952Y-93156819D02*
X165485714Y-93299676D01*
X165485714Y-93299676D02*
X165390476Y-93394914D01*
X165390476Y-93394914D02*
X165295238Y-93442533D01*
X148257142Y-121259580D02*
X148209523Y-121307200D01*
X148209523Y-121307200D02*
X148066666Y-121354819D01*
X148066666Y-121354819D02*
X147971428Y-121354819D01*
X147971428Y-121354819D02*
X147828571Y-121307200D01*
X147828571Y-121307200D02*
X147733333Y-121211961D01*
X147733333Y-121211961D02*
X147685714Y-121116723D01*
X147685714Y-121116723D02*
X147638095Y-120926247D01*
X147638095Y-120926247D02*
X147638095Y-120783390D01*
X147638095Y-120783390D02*
X147685714Y-120592914D01*
X147685714Y-120592914D02*
X147733333Y-120497676D01*
X147733333Y-120497676D02*
X147828571Y-120402438D01*
X147828571Y-120402438D02*
X147971428Y-120354819D01*
X147971428Y-120354819D02*
X148066666Y-120354819D01*
X148066666Y-120354819D02*
X148209523Y-120402438D01*
X148209523Y-120402438D02*
X148257142Y-120450057D01*
X149209523Y-121354819D02*
X148638095Y-121354819D01*
X148923809Y-121354819D02*
X148923809Y-120354819D01*
X148923809Y-120354819D02*
X148828571Y-120497676D01*
X148828571Y-120497676D02*
X148733333Y-120592914D01*
X148733333Y-120592914D02*
X148638095Y-120640533D01*
X150066666Y-120688152D02*
X150066666Y-121354819D01*
X149828571Y-120307200D02*
X149590476Y-121021485D01*
X149590476Y-121021485D02*
X150209523Y-121021485D01*
X158183333Y-114239580D02*
X158135714Y-114287200D01*
X158135714Y-114287200D02*
X157992857Y-114334819D01*
X157992857Y-114334819D02*
X157897619Y-114334819D01*
X157897619Y-114334819D02*
X157754762Y-114287200D01*
X157754762Y-114287200D02*
X157659524Y-114191961D01*
X157659524Y-114191961D02*
X157611905Y-114096723D01*
X157611905Y-114096723D02*
X157564286Y-113906247D01*
X157564286Y-113906247D02*
X157564286Y-113763390D01*
X157564286Y-113763390D02*
X157611905Y-113572914D01*
X157611905Y-113572914D02*
X157659524Y-113477676D01*
X157659524Y-113477676D02*
X157754762Y-113382438D01*
X157754762Y-113382438D02*
X157897619Y-113334819D01*
X157897619Y-113334819D02*
X157992857Y-113334819D01*
X157992857Y-113334819D02*
X158135714Y-113382438D01*
X158135714Y-113382438D02*
X158183333Y-113430057D01*
X159088095Y-113334819D02*
X158611905Y-113334819D01*
X158611905Y-113334819D02*
X158564286Y-113811009D01*
X158564286Y-113811009D02*
X158611905Y-113763390D01*
X158611905Y-113763390D02*
X158707143Y-113715771D01*
X158707143Y-113715771D02*
X158945238Y-113715771D01*
X158945238Y-113715771D02*
X159040476Y-113763390D01*
X159040476Y-113763390D02*
X159088095Y-113811009D01*
X159088095Y-113811009D02*
X159135714Y-113906247D01*
X159135714Y-113906247D02*
X159135714Y-114144342D01*
X159135714Y-114144342D02*
X159088095Y-114239580D01*
X159088095Y-114239580D02*
X159040476Y-114287200D01*
X159040476Y-114287200D02*
X158945238Y-114334819D01*
X158945238Y-114334819D02*
X158707143Y-114334819D01*
X158707143Y-114334819D02*
X158611905Y-114287200D01*
X158611905Y-114287200D02*
X158564286Y-114239580D01*
X109733333Y-128259580D02*
X109685714Y-128307200D01*
X109685714Y-128307200D02*
X109542857Y-128354819D01*
X109542857Y-128354819D02*
X109447619Y-128354819D01*
X109447619Y-128354819D02*
X109304762Y-128307200D01*
X109304762Y-128307200D02*
X109209524Y-128211961D01*
X109209524Y-128211961D02*
X109161905Y-128116723D01*
X109161905Y-128116723D02*
X109114286Y-127926247D01*
X109114286Y-127926247D02*
X109114286Y-127783390D01*
X109114286Y-127783390D02*
X109161905Y-127592914D01*
X109161905Y-127592914D02*
X109209524Y-127497676D01*
X109209524Y-127497676D02*
X109304762Y-127402438D01*
X109304762Y-127402438D02*
X109447619Y-127354819D01*
X109447619Y-127354819D02*
X109542857Y-127354819D01*
X109542857Y-127354819D02*
X109685714Y-127402438D01*
X109685714Y-127402438D02*
X109733333Y-127450057D01*
X110304762Y-127783390D02*
X110209524Y-127735771D01*
X110209524Y-127735771D02*
X110161905Y-127688152D01*
X110161905Y-127688152D02*
X110114286Y-127592914D01*
X110114286Y-127592914D02*
X110114286Y-127545295D01*
X110114286Y-127545295D02*
X110161905Y-127450057D01*
X110161905Y-127450057D02*
X110209524Y-127402438D01*
X110209524Y-127402438D02*
X110304762Y-127354819D01*
X110304762Y-127354819D02*
X110495238Y-127354819D01*
X110495238Y-127354819D02*
X110590476Y-127402438D01*
X110590476Y-127402438D02*
X110638095Y-127450057D01*
X110638095Y-127450057D02*
X110685714Y-127545295D01*
X110685714Y-127545295D02*
X110685714Y-127592914D01*
X110685714Y-127592914D02*
X110638095Y-127688152D01*
X110638095Y-127688152D02*
X110590476Y-127735771D01*
X110590476Y-127735771D02*
X110495238Y-127783390D01*
X110495238Y-127783390D02*
X110304762Y-127783390D01*
X110304762Y-127783390D02*
X110209524Y-127831009D01*
X110209524Y-127831009D02*
X110161905Y-127878628D01*
X110161905Y-127878628D02*
X110114286Y-127973866D01*
X110114286Y-127973866D02*
X110114286Y-128164342D01*
X110114286Y-128164342D02*
X110161905Y-128259580D01*
X110161905Y-128259580D02*
X110209524Y-128307200D01*
X110209524Y-128307200D02*
X110304762Y-128354819D01*
X110304762Y-128354819D02*
X110495238Y-128354819D01*
X110495238Y-128354819D02*
X110590476Y-128307200D01*
X110590476Y-128307200D02*
X110638095Y-128259580D01*
X110638095Y-128259580D02*
X110685714Y-128164342D01*
X110685714Y-128164342D02*
X110685714Y-127973866D01*
X110685714Y-127973866D02*
X110638095Y-127878628D01*
X110638095Y-127878628D02*
X110590476Y-127831009D01*
X110590476Y-127831009D02*
X110495238Y-127783390D01*
X128166666Y-134679819D02*
X128166666Y-135394104D01*
X128166666Y-135394104D02*
X128119047Y-135536961D01*
X128119047Y-135536961D02*
X128023809Y-135632200D01*
X128023809Y-135632200D02*
X127880952Y-135679819D01*
X127880952Y-135679819D02*
X127785714Y-135679819D01*
X129071428Y-134679819D02*
X128880952Y-134679819D01*
X128880952Y-134679819D02*
X128785714Y-134727438D01*
X128785714Y-134727438D02*
X128738095Y-134775057D01*
X128738095Y-134775057D02*
X128642857Y-134917914D01*
X128642857Y-134917914D02*
X128595238Y-135108390D01*
X128595238Y-135108390D02*
X128595238Y-135489342D01*
X128595238Y-135489342D02*
X128642857Y-135584580D01*
X128642857Y-135584580D02*
X128690476Y-135632200D01*
X128690476Y-135632200D02*
X128785714Y-135679819D01*
X128785714Y-135679819D02*
X128976190Y-135679819D01*
X128976190Y-135679819D02*
X129071428Y-135632200D01*
X129071428Y-135632200D02*
X129119047Y-135584580D01*
X129119047Y-135584580D02*
X129166666Y-135489342D01*
X129166666Y-135489342D02*
X129166666Y-135251247D01*
X129166666Y-135251247D02*
X129119047Y-135156009D01*
X129119047Y-135156009D02*
X129071428Y-135108390D01*
X129071428Y-135108390D02*
X128976190Y-135060771D01*
X128976190Y-135060771D02*
X128785714Y-135060771D01*
X128785714Y-135060771D02*
X128690476Y-135108390D01*
X128690476Y-135108390D02*
X128642857Y-135156009D01*
X128642857Y-135156009D02*
X128595238Y-135251247D01*
X147066666Y-134679819D02*
X147066666Y-135394104D01*
X147066666Y-135394104D02*
X147019047Y-135536961D01*
X147019047Y-135536961D02*
X146923809Y-135632200D01*
X146923809Y-135632200D02*
X146780952Y-135679819D01*
X146780952Y-135679819D02*
X146685714Y-135679819D01*
X147971428Y-135013152D02*
X147971428Y-135679819D01*
X147733333Y-134632200D02*
X147495238Y-135346485D01*
X147495238Y-135346485D02*
X148114285Y-135346485D01*
X119738095Y-115174819D02*
X119738095Y-115984342D01*
X119738095Y-115984342D02*
X119785714Y-116079580D01*
X119785714Y-116079580D02*
X119833333Y-116127200D01*
X119833333Y-116127200D02*
X119928571Y-116174819D01*
X119928571Y-116174819D02*
X120119047Y-116174819D01*
X120119047Y-116174819D02*
X120214285Y-116127200D01*
X120214285Y-116127200D02*
X120261904Y-116079580D01*
X120261904Y-116079580D02*
X120309523Y-115984342D01*
X120309523Y-115984342D02*
X120309523Y-115174819D01*
X121214285Y-115508152D02*
X121214285Y-116174819D01*
X120976190Y-115127200D02*
X120738095Y-115841485D01*
X120738095Y-115841485D02*
X121357142Y-115841485D01*
X151425595Y-93104819D02*
X151425595Y-93914342D01*
X151425595Y-93914342D02*
X151473214Y-94009580D01*
X151473214Y-94009580D02*
X151520833Y-94057200D01*
X151520833Y-94057200D02*
X151616071Y-94104819D01*
X151616071Y-94104819D02*
X151806547Y-94104819D01*
X151806547Y-94104819D02*
X151901785Y-94057200D01*
X151901785Y-94057200D02*
X151949404Y-94009580D01*
X151949404Y-94009580D02*
X151997023Y-93914342D01*
X151997023Y-93914342D02*
X151997023Y-93104819D01*
X152997023Y-94104819D02*
X152425595Y-94104819D01*
X152711309Y-94104819D02*
X152711309Y-93104819D01*
X152711309Y-93104819D02*
X152616071Y-93247676D01*
X152616071Y-93247676D02*
X152520833Y-93342914D01*
X152520833Y-93342914D02*
X152425595Y-93390533D01*
X146259580Y-92366666D02*
X146307200Y-92414285D01*
X146307200Y-92414285D02*
X146354819Y-92557142D01*
X146354819Y-92557142D02*
X146354819Y-92652380D01*
X146354819Y-92652380D02*
X146307200Y-92795237D01*
X146307200Y-92795237D02*
X146211961Y-92890475D01*
X146211961Y-92890475D02*
X146116723Y-92938094D01*
X146116723Y-92938094D02*
X145926247Y-92985713D01*
X145926247Y-92985713D02*
X145783390Y-92985713D01*
X145783390Y-92985713D02*
X145592914Y-92938094D01*
X145592914Y-92938094D02*
X145497676Y-92890475D01*
X145497676Y-92890475D02*
X145402438Y-92795237D01*
X145402438Y-92795237D02*
X145354819Y-92652380D01*
X145354819Y-92652380D02*
X145354819Y-92557142D01*
X145354819Y-92557142D02*
X145402438Y-92414285D01*
X145402438Y-92414285D02*
X145450057Y-92366666D01*
X145450057Y-91985713D02*
X145402438Y-91938094D01*
X145402438Y-91938094D02*
X145354819Y-91842856D01*
X145354819Y-91842856D02*
X145354819Y-91604761D01*
X145354819Y-91604761D02*
X145402438Y-91509523D01*
X145402438Y-91509523D02*
X145450057Y-91461904D01*
X145450057Y-91461904D02*
X145545295Y-91414285D01*
X145545295Y-91414285D02*
X145640533Y-91414285D01*
X145640533Y-91414285D02*
X145783390Y-91461904D01*
X145783390Y-91461904D02*
X146354819Y-92033332D01*
X146354819Y-92033332D02*
X146354819Y-91414285D01*
X109733333Y-130659580D02*
X109685714Y-130707200D01*
X109685714Y-130707200D02*
X109542857Y-130754819D01*
X109542857Y-130754819D02*
X109447619Y-130754819D01*
X109447619Y-130754819D02*
X109304762Y-130707200D01*
X109304762Y-130707200D02*
X109209524Y-130611961D01*
X109209524Y-130611961D02*
X109161905Y-130516723D01*
X109161905Y-130516723D02*
X109114286Y-130326247D01*
X109114286Y-130326247D02*
X109114286Y-130183390D01*
X109114286Y-130183390D02*
X109161905Y-129992914D01*
X109161905Y-129992914D02*
X109209524Y-129897676D01*
X109209524Y-129897676D02*
X109304762Y-129802438D01*
X109304762Y-129802438D02*
X109447619Y-129754819D01*
X109447619Y-129754819D02*
X109542857Y-129754819D01*
X109542857Y-129754819D02*
X109685714Y-129802438D01*
X109685714Y-129802438D02*
X109733333Y-129850057D01*
X110590476Y-129754819D02*
X110400000Y-129754819D01*
X110400000Y-129754819D02*
X110304762Y-129802438D01*
X110304762Y-129802438D02*
X110257143Y-129850057D01*
X110257143Y-129850057D02*
X110161905Y-129992914D01*
X110161905Y-129992914D02*
X110114286Y-130183390D01*
X110114286Y-130183390D02*
X110114286Y-130564342D01*
X110114286Y-130564342D02*
X110161905Y-130659580D01*
X110161905Y-130659580D02*
X110209524Y-130707200D01*
X110209524Y-130707200D02*
X110304762Y-130754819D01*
X110304762Y-130754819D02*
X110495238Y-130754819D01*
X110495238Y-130754819D02*
X110590476Y-130707200D01*
X110590476Y-130707200D02*
X110638095Y-130659580D01*
X110638095Y-130659580D02*
X110685714Y-130564342D01*
X110685714Y-130564342D02*
X110685714Y-130326247D01*
X110685714Y-130326247D02*
X110638095Y-130231009D01*
X110638095Y-130231009D02*
X110590476Y-130183390D01*
X110590476Y-130183390D02*
X110495238Y-130135771D01*
X110495238Y-130135771D02*
X110304762Y-130135771D01*
X110304762Y-130135771D02*
X110209524Y-130183390D01*
X110209524Y-130183390D02*
X110161905Y-130231009D01*
X110161905Y-130231009D02*
X110114286Y-130326247D01*
X127757142Y-128159580D02*
X127709523Y-128207200D01*
X127709523Y-128207200D02*
X127566666Y-128254819D01*
X127566666Y-128254819D02*
X127471428Y-128254819D01*
X127471428Y-128254819D02*
X127328571Y-128207200D01*
X127328571Y-128207200D02*
X127233333Y-128111961D01*
X127233333Y-128111961D02*
X127185714Y-128016723D01*
X127185714Y-128016723D02*
X127138095Y-127826247D01*
X127138095Y-127826247D02*
X127138095Y-127683390D01*
X127138095Y-127683390D02*
X127185714Y-127492914D01*
X127185714Y-127492914D02*
X127233333Y-127397676D01*
X127233333Y-127397676D02*
X127328571Y-127302438D01*
X127328571Y-127302438D02*
X127471428Y-127254819D01*
X127471428Y-127254819D02*
X127566666Y-127254819D01*
X127566666Y-127254819D02*
X127709523Y-127302438D01*
X127709523Y-127302438D02*
X127757142Y-127350057D01*
X128709523Y-128254819D02*
X128138095Y-128254819D01*
X128423809Y-128254819D02*
X128423809Y-127254819D01*
X128423809Y-127254819D02*
X128328571Y-127397676D01*
X128328571Y-127397676D02*
X128233333Y-127492914D01*
X128233333Y-127492914D02*
X128138095Y-127540533D01*
X129042857Y-127254819D02*
X129661904Y-127254819D01*
X129661904Y-127254819D02*
X129328571Y-127635771D01*
X129328571Y-127635771D02*
X129471428Y-127635771D01*
X129471428Y-127635771D02*
X129566666Y-127683390D01*
X129566666Y-127683390D02*
X129614285Y-127731009D01*
X129614285Y-127731009D02*
X129661904Y-127826247D01*
X129661904Y-127826247D02*
X129661904Y-128064342D01*
X129661904Y-128064342D02*
X129614285Y-128159580D01*
X129614285Y-128159580D02*
X129566666Y-128207200D01*
X129566666Y-128207200D02*
X129471428Y-128254819D01*
X129471428Y-128254819D02*
X129185714Y-128254819D01*
X129185714Y-128254819D02*
X129090476Y-128207200D01*
X129090476Y-128207200D02*
X129042857Y-128159580D01*
D12*
%TO.C,U9*%
X157400000Y-131005000D02*
X157400000Y-126195000D01*
X159800000Y-131000000D02*
X157400000Y-131005000D01*
X160600000Y-130205000D02*
X159800000Y-131000000D01*
X157400000Y-126195000D02*
X160600000Y-126195000D01*
X160600000Y-126195000D02*
X160600000Y-130205000D01*
%TO.C,U3*%
X118900000Y-131105000D02*
X118900000Y-126295000D01*
X121300000Y-131100000D02*
X118900000Y-131105000D01*
X122100000Y-130305000D02*
X121300000Y-131100000D01*
X118900000Y-126295000D02*
X122100000Y-126295000D01*
X122100000Y-126295000D02*
X122100000Y-130305000D01*
%TO.C,U7*%
X137800000Y-131005000D02*
X137800000Y-126195000D01*
X140200000Y-131000000D02*
X137800000Y-131005000D01*
X141000000Y-130205000D02*
X140200000Y-131000000D01*
X137800000Y-126195000D02*
X141000000Y-126195000D01*
X141000000Y-126195000D02*
X141000000Y-130205000D01*
%TO.C,TP2*%
X165500000Y-108400000D02*
G75*
G02*
X163100000Y-108400000I-1200000J0D01*
G01*
X163100000Y-108400000D02*
G75*
G02*
X165500000Y-108400000I1200000J0D01*
G01*
%TO.C,C7*%
X114361252Y-120265000D02*
X113838748Y-120265000D01*
X114361252Y-121735000D02*
X113838748Y-121735000D01*
%TO.C,C12*%
X132111252Y-129365000D02*
X131588748Y-129365000D01*
X132111252Y-130835000D02*
X131588748Y-130835000D01*
%TO.C,C16*%
X151911252Y-129465000D02*
X151388748Y-129465000D01*
X151911252Y-130935000D02*
X151388748Y-130935000D01*
%TO.C,J5*%
X133650000Y-136165000D02*
X133650000Y-138825000D01*
X133650000Y-138825000D02*
X138850000Y-138825000D01*
X134600000Y-135767929D02*
X134600000Y-136165000D01*
X134600000Y-144825000D02*
X134600000Y-138825000D01*
X135360000Y-135767929D02*
X135360000Y-136165000D01*
X135360000Y-138825000D02*
X135360000Y-144825000D01*
X135360000Y-144825000D02*
X134600000Y-144825000D01*
X136250000Y-136165000D02*
X136250000Y-138825000D01*
X137140000Y-135835000D02*
X137140000Y-136165000D01*
X137140000Y-144825000D02*
X137140000Y-138825000D01*
X137240000Y-138825000D02*
X137240000Y-144825000D01*
X137360000Y-138825000D02*
X137360000Y-144825000D01*
X137480000Y-138825000D02*
X137480000Y-144825000D01*
X137520000Y-133455000D02*
X138790000Y-133455000D01*
X137600000Y-138825000D02*
X137600000Y-144825000D01*
X137720000Y-138825000D02*
X137720000Y-144825000D01*
X137840000Y-138825000D02*
X137840000Y-144825000D01*
X137900000Y-135835000D02*
X137900000Y-136165000D01*
X137900000Y-138825000D02*
X137900000Y-144825000D01*
X137900000Y-144825000D02*
X137140000Y-144825000D01*
X138790000Y-133455000D02*
X138790000Y-134725000D01*
X138850000Y-136165000D02*
X133650000Y-136165000D01*
X138850000Y-138825000D02*
X138850000Y-136165000D01*
D13*
%TO.C,U2*%
X107910000Y-61070000D02*
G75*
G02*
X107710000Y-61070000I-100000J0D01*
G01*
X107710000Y-61070000D02*
G75*
G02*
X107910000Y-61070000I100000J0D01*
G01*
D14*
X130500000Y-110700000D02*
X130500000Y-110450000D01*
X130500000Y-110700000D02*
X123660000Y-110700000D01*
X130500000Y-59700000D02*
X130500000Y-59950000D01*
X124000000Y-59700000D02*
X130500000Y-59700000D01*
X124000000Y-58400000D02*
X124000000Y-59700000D01*
X116340000Y-110700000D02*
X109500000Y-110700000D01*
X116000000Y-59700000D02*
X116000000Y-58400000D01*
X116000000Y-58400000D02*
X124000000Y-58400000D01*
X109500000Y-110700000D02*
X109500000Y-110450000D01*
X109500000Y-59950000D02*
X109500000Y-59700000D01*
X109500000Y-59700000D02*
X116000000Y-59700000D01*
%TO.C,L1*%
X150200000Y-88400000D02*
X150205000Y-88400000D01*
X150200000Y-92400000D02*
X150200000Y-88400000D01*
X150205000Y-92400000D02*
X150200000Y-92400000D01*
X154195000Y-88400000D02*
X154200000Y-88400000D01*
X154200000Y-88400000D02*
X154200000Y-92400000D01*
X154200000Y-92400000D02*
X154195000Y-92400000D01*
D13*
X149550000Y-90400000D02*
G75*
G02*
X149350000Y-90400000I-100000J0D01*
G01*
X149350000Y-90400000D02*
G75*
G02*
X149550000Y-90400000I100000J0D01*
G01*
D12*
%TO.C,C15*%
X152511252Y-117955000D02*
X151988748Y-117955000D01*
X152511252Y-119425000D02*
X151988748Y-119425000D01*
%TO.C,Q1*%
X172440000Y-127000000D02*
X172440000Y-126350000D01*
X172440000Y-127000000D02*
X172440000Y-127650000D01*
X175560000Y-127000000D02*
X175560000Y-126350000D01*
X175560000Y-127000000D02*
X175560000Y-127650000D01*
X175840000Y-126077500D02*
X175510000Y-125837500D01*
X175840000Y-125597500D01*
X175840000Y-126077500D01*
G36*
X175840000Y-126077500D02*
G01*
X175510000Y-125837500D01*
X175840000Y-125597500D01*
X175840000Y-126077500D01*
G37*
%TO.C,J1*%
X171630000Y-136165000D02*
X171630000Y-138825000D01*
X171630000Y-138825000D02*
X176830000Y-138825000D01*
X172580000Y-135767929D02*
X172580000Y-136165000D01*
X172580000Y-144825000D02*
X172580000Y-138825000D01*
X173340000Y-135767929D02*
X173340000Y-136165000D01*
X173340000Y-138825000D02*
X173340000Y-144825000D01*
X173340000Y-144825000D02*
X172580000Y-144825000D01*
X174230000Y-136165000D02*
X174230000Y-138825000D01*
X175120000Y-135835000D02*
X175120000Y-136165000D01*
X175120000Y-144825000D02*
X175120000Y-138825000D01*
X175220000Y-138825000D02*
X175220000Y-144825000D01*
X175340000Y-138825000D02*
X175340000Y-144825000D01*
X175460000Y-138825000D02*
X175460000Y-144825000D01*
X175500000Y-133455000D02*
X176770000Y-133455000D01*
X175580000Y-138825000D02*
X175580000Y-144825000D01*
X175700000Y-138825000D02*
X175700000Y-144825000D01*
X175820000Y-138825000D02*
X175820000Y-144825000D01*
X175880000Y-135835000D02*
X175880000Y-136165000D01*
X175880000Y-138825000D02*
X175880000Y-144825000D01*
X175880000Y-144825000D02*
X175120000Y-144825000D01*
X176770000Y-133455000D02*
X176770000Y-134725000D01*
X176830000Y-136165000D02*
X171630000Y-136165000D01*
X176830000Y-138825000D02*
X176830000Y-136165000D01*
D13*
%TO.C,J8*%
X135240000Y-105785000D02*
X135240000Y-105785000D01*
X135240000Y-109215000D02*
X135240000Y-105785000D01*
X135240000Y-109215000D02*
X135240000Y-109215000D01*
X141760000Y-105785000D02*
X141760000Y-105785000D01*
X141760000Y-105785000D02*
X141760000Y-109215000D01*
X141760000Y-109215000D02*
X141760000Y-109215000D01*
X134775000Y-109535000D02*
G75*
G02*
X134575000Y-109535000I-100000J0D01*
G01*
X134575000Y-109535000D02*
G75*
G02*
X134775000Y-109535000I100000J0D01*
G01*
D12*
%TO.C,U8*%
X159000000Y-116565000D02*
X157050000Y-116565000D01*
X159000000Y-116565000D02*
X160950000Y-116565000D01*
X159000000Y-125435000D02*
X157050000Y-125435000D01*
X159000000Y-125435000D02*
X160950000Y-125435000D01*
X156300000Y-116630000D02*
X156060000Y-116300000D01*
X156540000Y-116300000D01*
X156300000Y-116630000D01*
G36*
X156300000Y-116630000D02*
G01*
X156060000Y-116300000D01*
X156540000Y-116300000D01*
X156300000Y-116630000D01*
G37*
%TO.C,R2*%
X157765000Y-95060436D02*
X157765000Y-95514564D01*
X159235000Y-95060436D02*
X159235000Y-95514564D01*
%TO.C,D1*%
X176360000Y-130500000D02*
X172350000Y-130500000D01*
X176360000Y-132500000D02*
X172350000Y-132500000D01*
X176360000Y-132500000D02*
X176360000Y-130500000D01*
%TO.C,R1*%
X155765000Y-95514564D02*
X155765000Y-95060436D01*
X157235000Y-95514564D02*
X157235000Y-95060436D01*
%TO.C,C3*%
X147265000Y-94938748D02*
X147265000Y-95461252D01*
X148735000Y-94938748D02*
X148735000Y-95461252D01*
%TO.C,U5*%
X156890000Y-108462500D02*
X156890000Y-107662500D01*
X156890000Y-108462500D02*
X156890000Y-109262500D01*
X160010000Y-108462500D02*
X160010000Y-107662500D01*
X160010000Y-108462500D02*
X160010000Y-109262500D01*
X156940000Y-109762500D02*
X156610000Y-110002500D01*
X156610000Y-109522500D01*
X156940000Y-109762500D01*
G36*
X156940000Y-109762500D02*
G01*
X156610000Y-110002500D01*
X156610000Y-109522500D01*
X156940000Y-109762500D01*
G37*
%TO.C,R3*%
X174227064Y-122265000D02*
X173772936Y-122265000D01*
X174227064Y-123735000D02*
X173772936Y-123735000D01*
%TO.C,C10*%
X133011252Y-120265000D02*
X132488748Y-120265000D01*
X133011252Y-121735000D02*
X132488748Y-121735000D01*
%TO.C,J7*%
X114630000Y-136165000D02*
X114630000Y-138825000D01*
X114630000Y-138825000D02*
X119830000Y-138825000D01*
X115580000Y-135767929D02*
X115580000Y-136165000D01*
X115580000Y-144825000D02*
X115580000Y-138825000D01*
X116340000Y-135767929D02*
X116340000Y-136165000D01*
X116340000Y-138825000D02*
X116340000Y-144825000D01*
X116340000Y-144825000D02*
X115580000Y-144825000D01*
X117230000Y-136165000D02*
X117230000Y-138825000D01*
X118120000Y-135835000D02*
X118120000Y-136165000D01*
X118120000Y-144825000D02*
X118120000Y-138825000D01*
X118220000Y-138825000D02*
X118220000Y-144825000D01*
X118340000Y-138825000D02*
X118340000Y-144825000D01*
X118460000Y-138825000D02*
X118460000Y-144825000D01*
X118500000Y-133455000D02*
X119770000Y-133455000D01*
X118580000Y-138825000D02*
X118580000Y-144825000D01*
X118700000Y-138825000D02*
X118700000Y-144825000D01*
X118820000Y-138825000D02*
X118820000Y-144825000D01*
X118880000Y-135835000D02*
X118880000Y-136165000D01*
X118880000Y-138825000D02*
X118880000Y-144825000D01*
X118880000Y-144825000D02*
X118120000Y-144825000D01*
X119770000Y-133455000D02*
X119770000Y-134725000D01*
X119830000Y-136165000D02*
X114630000Y-136165000D01*
X119830000Y-138825000D02*
X119830000Y-136165000D01*
%TO.C,J3*%
X152830000Y-136290000D02*
X152830000Y-138950000D01*
X152830000Y-138950000D02*
X158030000Y-138950000D01*
X153780000Y-135892929D02*
X153780000Y-136290000D01*
X153780000Y-144950000D02*
X153780000Y-138950000D01*
X154540000Y-135892929D02*
X154540000Y-136290000D01*
X154540000Y-138950000D02*
X154540000Y-144950000D01*
X154540000Y-144950000D02*
X153780000Y-144950000D01*
X155430000Y-136290000D02*
X155430000Y-138950000D01*
X156320000Y-135960000D02*
X156320000Y-136290000D01*
X156320000Y-144950000D02*
X156320000Y-138950000D01*
X156420000Y-138950000D02*
X156420000Y-144950000D01*
X156540000Y-138950000D02*
X156540000Y-144950000D01*
X156660000Y-138950000D02*
X156660000Y-144950000D01*
X156700000Y-133580000D02*
X157970000Y-133580000D01*
X156780000Y-138950000D02*
X156780000Y-144950000D01*
X156900000Y-138950000D02*
X156900000Y-144950000D01*
X157020000Y-138950000D02*
X157020000Y-144950000D01*
X157080000Y-135960000D02*
X157080000Y-136290000D01*
X157080000Y-138950000D02*
X157080000Y-144950000D01*
X157080000Y-144950000D02*
X156320000Y-144950000D01*
X157970000Y-133580000D02*
X157970000Y-134850000D01*
X158030000Y-136290000D02*
X152830000Y-136290000D01*
X158030000Y-138950000D02*
X158030000Y-136290000D01*
%TO.C,J2*%
X160405000Y-136290000D02*
X160405000Y-138950000D01*
X160405000Y-138950000D02*
X165605000Y-138950000D01*
X161355000Y-135892929D02*
X161355000Y-136290000D01*
X161355000Y-144950000D02*
X161355000Y-138950000D01*
X162115000Y-135892929D02*
X162115000Y-136290000D01*
X162115000Y-138950000D02*
X162115000Y-144950000D01*
X162115000Y-144950000D02*
X161355000Y-144950000D01*
X163005000Y-136290000D02*
X163005000Y-138950000D01*
X163895000Y-135960000D02*
X163895000Y-136290000D01*
X163895000Y-144950000D02*
X163895000Y-138950000D01*
X163995000Y-138950000D02*
X163995000Y-144950000D01*
X164115000Y-138950000D02*
X164115000Y-144950000D01*
X164235000Y-138950000D02*
X164235000Y-144950000D01*
X164275000Y-133580000D02*
X165545000Y-133580000D01*
X164355000Y-138950000D02*
X164355000Y-144950000D01*
X164475000Y-138950000D02*
X164475000Y-144950000D01*
X164595000Y-138950000D02*
X164595000Y-144950000D01*
X164655000Y-135960000D02*
X164655000Y-136290000D01*
X164655000Y-138950000D02*
X164655000Y-144950000D01*
X164655000Y-144950000D02*
X163895000Y-144950000D01*
X165545000Y-133580000D02*
X165545000Y-134850000D01*
X165605000Y-136290000D02*
X160405000Y-136290000D01*
X165605000Y-138950000D02*
X165605000Y-136290000D01*
%TO.C,C1*%
X152461252Y-99865000D02*
X151938748Y-99865000D01*
X152461252Y-101335000D02*
X151938748Y-101335000D01*
%TO.C,C9*%
X114311252Y-117865000D02*
X113788748Y-117865000D01*
X114311252Y-119335000D02*
X113788748Y-119335000D01*
%TO.C,C4*%
X152461252Y-97665000D02*
X151938748Y-97665000D01*
X152461252Y-99135000D02*
X151938748Y-99135000D01*
%TO.C,J9*%
X133450000Y-96970000D02*
X133450000Y-99630000D01*
X141130000Y-96970000D02*
X133450000Y-96970000D01*
X141130000Y-96970000D02*
X141130000Y-99630000D01*
X141130000Y-99630000D02*
X133450000Y-99630000D01*
X142400000Y-96970000D02*
X143730000Y-96970000D01*
X143730000Y-96970000D02*
X143730000Y-98300000D01*
%TO.C,C11*%
X133011252Y-117855000D02*
X132488748Y-117855000D01*
X133011252Y-119325000D02*
X132488748Y-119325000D01*
%TO.C,C17*%
X151911252Y-126955000D02*
X151388748Y-126955000D01*
X151911252Y-128425000D02*
X151388748Y-128425000D01*
%TO.C,U6*%
X139475000Y-116565000D02*
X137525000Y-116565000D01*
X139475000Y-116565000D02*
X141425000Y-116565000D01*
X139475000Y-125435000D02*
X137525000Y-125435000D01*
X139475000Y-125435000D02*
X141425000Y-125435000D01*
X136775000Y-116630000D02*
X136535000Y-116300000D01*
X137015000Y-116300000D01*
X136775000Y-116630000D01*
G36*
X136775000Y-116630000D02*
G01*
X136535000Y-116300000D01*
X137015000Y-116300000D01*
X136775000Y-116630000D01*
G37*
%TO.C,TP1*%
X165900000Y-95700000D02*
G75*
G02*
X163500000Y-95700000I-1200000J0D01*
G01*
X163500000Y-95700000D02*
G75*
G02*
X165900000Y-95700000I1200000J0D01*
G01*
%TO.C,C14*%
X152511252Y-120265000D02*
X151988748Y-120265000D01*
X152511252Y-121735000D02*
X151988748Y-121735000D01*
%TO.C,C5*%
X158611252Y-111465000D02*
X158088748Y-111465000D01*
X158611252Y-112935000D02*
X158088748Y-112935000D01*
%TO.C,C8*%
X113161252Y-127165000D02*
X112638748Y-127165000D01*
X113161252Y-128635000D02*
X112638748Y-128635000D01*
%TO.C,J6*%
X121830000Y-136165000D02*
X121830000Y-138825000D01*
X121830000Y-138825000D02*
X127030000Y-138825000D01*
X122780000Y-135767929D02*
X122780000Y-136165000D01*
X122780000Y-144825000D02*
X122780000Y-138825000D01*
X123540000Y-135767929D02*
X123540000Y-136165000D01*
X123540000Y-138825000D02*
X123540000Y-144825000D01*
X123540000Y-144825000D02*
X122780000Y-144825000D01*
X124430000Y-136165000D02*
X124430000Y-138825000D01*
X125320000Y-135835000D02*
X125320000Y-136165000D01*
X125320000Y-144825000D02*
X125320000Y-138825000D01*
X125420000Y-138825000D02*
X125420000Y-144825000D01*
X125540000Y-138825000D02*
X125540000Y-144825000D01*
X125660000Y-138825000D02*
X125660000Y-144825000D01*
X125700000Y-133455000D02*
X126970000Y-133455000D01*
X125780000Y-138825000D02*
X125780000Y-144825000D01*
X125900000Y-138825000D02*
X125900000Y-144825000D01*
X126020000Y-138825000D02*
X126020000Y-144825000D01*
X126080000Y-135835000D02*
X126080000Y-136165000D01*
X126080000Y-138825000D02*
X126080000Y-144825000D01*
X126080000Y-144825000D02*
X125320000Y-144825000D01*
X126970000Y-133455000D02*
X126970000Y-134725000D01*
X127030000Y-136165000D02*
X121830000Y-136165000D01*
X127030000Y-138825000D02*
X127030000Y-136165000D01*
%TO.C,J4*%
X140650000Y-136165000D02*
X140650000Y-138825000D01*
X140650000Y-138825000D02*
X145850000Y-138825000D01*
X141600000Y-135767929D02*
X141600000Y-136165000D01*
X141600000Y-144825000D02*
X141600000Y-138825000D01*
X142360000Y-135767929D02*
X142360000Y-136165000D01*
X142360000Y-138825000D02*
X142360000Y-144825000D01*
X142360000Y-144825000D02*
X141600000Y-144825000D01*
X143250000Y-136165000D02*
X143250000Y-138825000D01*
X144140000Y-135835000D02*
X144140000Y-136165000D01*
X144140000Y-144825000D02*
X144140000Y-138825000D01*
X144240000Y-138825000D02*
X144240000Y-144825000D01*
X144360000Y-138825000D02*
X144360000Y-144825000D01*
X144480000Y-138825000D02*
X144480000Y-144825000D01*
X144520000Y-133455000D02*
X145790000Y-133455000D01*
X144600000Y-138825000D02*
X144600000Y-144825000D01*
X144720000Y-138825000D02*
X144720000Y-144825000D01*
X144840000Y-138825000D02*
X144840000Y-144825000D01*
X144900000Y-135835000D02*
X144900000Y-136165000D01*
X144900000Y-138825000D02*
X144900000Y-144825000D01*
X144900000Y-144825000D02*
X144140000Y-144825000D01*
X145790000Y-133455000D02*
X145790000Y-134725000D01*
X145850000Y-136165000D02*
X140650000Y-136165000D01*
X145850000Y-138825000D02*
X145850000Y-136165000D01*
%TO.C,U4*%
X120500000Y-116565000D02*
X118550000Y-116565000D01*
X120500000Y-116565000D02*
X122450000Y-116565000D01*
X120500000Y-125435000D02*
X118550000Y-125435000D01*
X120500000Y-125435000D02*
X122450000Y-125435000D01*
X117800000Y-116630000D02*
X117560000Y-116300000D01*
X118040000Y-116300000D01*
X117800000Y-116630000D01*
G36*
X117800000Y-116630000D02*
G01*
X117560000Y-116300000D01*
X118040000Y-116300000D01*
X117800000Y-116630000D01*
G37*
%TO.C,U1*%
X152187500Y-94365000D02*
X151587500Y-94365000D01*
X152187500Y-94365000D02*
X152787500Y-94365000D01*
X152187500Y-96235000D02*
X151587500Y-96235000D01*
X152187500Y-96235000D02*
X152787500Y-96235000D01*
X150877500Y-94800000D02*
X150547500Y-95040000D01*
X150547500Y-94560000D01*
X150877500Y-94800000D01*
G36*
X150877500Y-94800000D02*
G01*
X150547500Y-95040000D01*
X150547500Y-94560000D01*
X150877500Y-94800000D01*
G37*
%TO.C,C2*%
X145165000Y-94938748D02*
X145165000Y-95461252D01*
X146635000Y-94938748D02*
X146635000Y-95461252D01*
%TO.C,C6*%
X113161252Y-129565000D02*
X112638748Y-129565000D01*
X113161252Y-131035000D02*
X112638748Y-131035000D01*
%TO.C,C13*%
X132111252Y-127085000D02*
X131588748Y-127085000D01*
X132111252Y-128555000D02*
X131588748Y-128555000D01*
%TD*%
M02*
