M48
; DRILL file {KiCad 8.0.8} date 2025-02-18T11:26:43+0100
; FORMAT={-:-/ absolute / metric / decimal}
; #@! TF.CreationDate,2025-02-18T11:26:43+01:00
; #@! TF.GenerationSoftware,Kicad,Pcbnew,8.0.8
; #@! TF.FileFunction,Plated,1,2,PTH
FMAT,2
METRIC
; #@! TA.AperFunction,Plated,PTH,ViaDrill
T1C0.300
; #@! TA.AperFunction,Plated,PTH,ComponentDrill
T2C0.750
; #@! TA.AperFunction,Plated,PTH,ComponentDrill
T3C1.000
; #@! TA.AperFunction,Plated,PTH,ComponentDrill
T4C3.200
%
G90
G05
T1
X109.6Y-124.795
X109.6Y-127.195
X110.3Y-66.15
X110.3Y-104.25
X110.31Y-68.7
X110.31Y-71.23
X110.31Y-78.85
X110.31Y-91.55
X110.4Y-61.0
X110.9Y-113.4
X110.9Y-115.8
X115.6Y-117.895
X115.6Y-119.2
X117.1Y-121.0
X117.275Y-61.2
X117.575Y-64.23
X117.671Y-122.571
X120.0Y-64.2
X120.0Y-109.9
X120.575Y-116.625
X120.6Y-115.4
X120.6Y-121.695
X120.8Y-123.69
X122.425Y-64.23
X122.7Y-61.2
X125.5Y-101.6
X126.1Y-102.3
X128.09Y-113.75
X128.5Y-124.695
X128.5Y-126.995
X129.69Y-66.15
X129.69Y-78.85
X129.69Y-91.55
X129.69Y-104.25
X130.49Y-113.75
X134.6Y-117.9
X134.6Y-119.2
X136.1Y-120.2
X136.2Y-122.8
X136.6Y-90.5
X137.4Y-91.1
X138.1Y-109.4
X138.5Y-107.35
X139.55Y-115.355
X139.55Y-116.625
X139.55Y-121.705
X139.7Y-123.59
X140.0Y-109.4
X145.0Y-118.68
X145.15Y-113.0
X145.9Y-96.2
X146.6Y-117.86
X147.7Y-114.195
X148.0Y-96.2
X148.3Y-124.595
X148.3Y-127.195
X149.05Y-113.6
X149.05Y-115.9
X149.9Y-105.5
X150.9Y-94.0
X150.96Y-78.865
X151.25Y-98.5
X151.25Y-100.7
X151.4Y-111.4
X152.26Y-74.83
X152.26Y-78.865
X154.1Y-117.9
X154.1Y-119.2
X154.2Y-95.9
X155.6Y-118.1
X155.8Y-116.625
X156.0Y-120.826
X156.5Y-94.475
X157.1Y-109.7
X157.791Y-118.509
X158.1Y-104.8
X158.5Y-96.3
X159.05Y-109.65
X159.075Y-116.625
X159.1Y-115.4
X159.1Y-121.695
X159.3Y-123.59
X166.9Y-118.6
X166.9Y-121.6
X175.85Y-121.7
X175.95Y-118.5
T2
X120.0Y-132.0
X122.0Y-132.0
X124.0Y-132.0
X135.0Y-132.0
X137.0Y-132.0
X139.0Y-132.0
X150.0Y-132.0
X152.0Y-132.0
X154.0Y-132.0
X170.0Y-132.15
X172.0Y-132.15
X174.0Y-132.15
T3
X163.8Y-114.0
X163.8Y-116.54
X163.8Y-119.08
X163.8Y-121.62
T4
X102.0Y-64.0
X102.0Y-134.0
X192.0Y-64.0
X192.0Y-134.0
M30
